%TF.GenerationSoftware,KiCad,Pcbnew,7.0.6-0*%
%TF.CreationDate,2023-08-11T12:33:22-04:00*%
%TF.ProjectId,bitaxeMax,62697461-7865-44d6-9178-2e6b69636164,rev?*%
%TF.SameCoordinates,Original*%
%TF.FileFunction,Copper,L4,Bot*%
%TF.FilePolarity,Positive*%
%FSLAX46Y46*%
G04 Gerber Fmt 4.6, Leading zero omitted, Abs format (unit mm)*
G04 Created by KiCad (PCBNEW 7.0.6-0) date 2023-08-11 12:33:22*
%MOMM*%
%LPD*%
G01*
G04 APERTURE LIST*
G04 Aperture macros list*
%AMRoundRect*
0 Rectangle with rounded corners*
0 $1 Rounding radius*
0 $2 $3 $4 $5 $6 $7 $8 $9 X,Y pos of 4 corners*
0 Add a 4 corners polygon primitive as box body*
4,1,4,$2,$3,$4,$5,$6,$7,$8,$9,$2,$3,0*
0 Add four circle primitives for the rounded corners*
1,1,$1+$1,$2,$3*
1,1,$1+$1,$4,$5*
1,1,$1+$1,$6,$7*
1,1,$1+$1,$8,$9*
0 Add four rect primitives between the rounded corners*
20,1,$1+$1,$2,$3,$4,$5,0*
20,1,$1+$1,$4,$5,$6,$7,0*
20,1,$1+$1,$6,$7,$8,$9,0*
20,1,$1+$1,$8,$9,$2,$3,0*%
G04 Aperture macros list end*
%TA.AperFunction,ComponentPad*%
%ADD10O,1.700000X1.700000*%
%TD*%
%TA.AperFunction,ComponentPad*%
%ADD11C,0.500000*%
%TD*%
%TA.AperFunction,ComponentPad*%
%ADD12C,0.700000*%
%TD*%
%TA.AperFunction,ComponentPad*%
%ADD13C,4.400000*%
%TD*%
%TA.AperFunction,ComponentPad*%
%ADD14C,0.400000*%
%TD*%
%TA.AperFunction,SMDPad,CuDef*%
%ADD15R,0.508000X1.524000*%
%TD*%
%TA.AperFunction,ComponentPad*%
%ADD16C,1.574800*%
%TD*%
%TA.AperFunction,ComponentPad*%
%ADD17R,1.700000X1.700000*%
%TD*%
%TA.AperFunction,ComponentPad*%
%ADD18C,2.520000*%
%TD*%
%TA.AperFunction,SMDPad,CuDef*%
%ADD19R,0.900000X1.500000*%
%TD*%
%TA.AperFunction,SMDPad,CuDef*%
%ADD20R,1.500000X0.900000*%
%TD*%
%TA.AperFunction,SMDPad,CuDef*%
%ADD21R,0.900000X0.900000*%
%TD*%
%TA.AperFunction,SMDPad,CuDef*%
%ADD22RoundRect,0.135000X0.295000X0.000000X-0.295000X0.000000X-0.295000X0.000000X0.295000X0.000000X0*%
%TD*%
%TA.AperFunction,SMDPad,CuDef*%
%ADD23R,6.300000X1.850000*%
%TD*%
%TA.AperFunction,SMDPad,CuDef*%
%ADD24R,6.300000X5.550000*%
%TD*%
%TA.AperFunction,ConnectorPad*%
%ADD25C,0.787400*%
%TD*%
%TA.AperFunction,SMDPad,CuDef*%
%ADD26R,1.193800X0.711200*%
%TD*%
%TA.AperFunction,SMDPad,CuDef*%
%ADD27RoundRect,0.250000X-0.550000X1.500000X-0.550000X-1.500000X0.550000X-1.500000X0.550000X1.500000X0*%
%TD*%
%TA.AperFunction,SMDPad,CuDef*%
%ADD28R,0.760000X2.400000*%
%TD*%
%TA.AperFunction,SMDPad,CuDef*%
%ADD29R,1.346200X0.406400*%
%TD*%
%TA.AperFunction,SMDPad,CuDef*%
%ADD30R,1.397000X1.600200*%
%TD*%
%TA.AperFunction,SMDPad,CuDef*%
%ADD31R,1.905000X1.905000*%
%TD*%
%TA.AperFunction,ComponentPad*%
%ADD32O,1.600200X0.914400*%
%TD*%
%TA.AperFunction,ViaPad*%
%ADD33C,0.800000*%
%TD*%
%TA.AperFunction,ViaPad*%
%ADD34C,1.000000*%
%TD*%
%TA.AperFunction,ViaPad*%
%ADD35C,1.200000*%
%TD*%
%TA.AperFunction,Conductor*%
%ADD36C,0.254000*%
%TD*%
%TA.AperFunction,Conductor*%
%ADD37C,0.508000*%
%TD*%
%TA.AperFunction,Conductor*%
%ADD38C,1.000000*%
%TD*%
G04 APERTURE END LIST*
D10*
%TO.P,,*%
%TO.N,GND*%
X80110000Y-55129000D03*
%TD*%
D11*
%TO.P,U2,16,GND*%
%TO.N,GND*%
X116830000Y-99283600D03*
%TO.P,U2,17,GND*%
X116830000Y-100283600D03*
%TO.P,U2,18,GND*%
X115830000Y-100283600D03*
%TO.P,U2,19,GND*%
X115830000Y-99283600D03*
%TD*%
D12*
%TO.P,H4,1*%
%TO.N,N/C*%
X78337000Y-50603000D03*
X78820274Y-49436274D03*
X78820274Y-51769726D03*
X79987000Y-48953000D03*
D13*
X79987000Y-50603000D03*
D12*
X79987000Y-52253000D03*
X81153726Y-49436274D03*
X81153726Y-51769726D03*
X81637000Y-50603000D03*
%TD*%
%TO.P,H3,1*%
%TO.N,N/C*%
X129330000Y-144470000D03*
X129813274Y-143303274D03*
X129813274Y-145636726D03*
X130980000Y-142820000D03*
D13*
X130980000Y-144470000D03*
D12*
X130980000Y-146120000D03*
X132146726Y-143303274D03*
X132146726Y-145636726D03*
X132630000Y-144470000D03*
%TD*%
%TO.P,H2,1*%
%TO.N,N/C*%
X129033000Y-50604000D03*
X129516274Y-49437274D03*
X129516274Y-51770726D03*
X130683000Y-48954000D03*
D13*
X130683000Y-50604000D03*
D12*
X130683000Y-52254000D03*
X131849726Y-49437274D03*
X131849726Y-51770726D03*
X132333000Y-50604000D03*
%TD*%
%TO.P,H1,1*%
%TO.N,N/C*%
X78370000Y-144380000D03*
X78853274Y-143213274D03*
X78853274Y-145546726D03*
X80020000Y-142730000D03*
D13*
X80020000Y-144380000D03*
D12*
X80020000Y-146030000D03*
X81186726Y-143213274D03*
X81186726Y-145546726D03*
X81670000Y-144380000D03*
%TD*%
D14*
%TO.P,U9,11,GND*%
%TO.N,GND*%
X98201691Y-68847200D03*
X99151691Y-69422200D03*
X97251691Y-69422200D03*
X98201691Y-69997200D03*
%TD*%
D10*
%TO.P,,*%
%TO.N,/Power/VIN*%
X80110000Y-57669000D03*
%TD*%
D15*
%TO.P,SW1,1*%
%TO.N,GND*%
X132080000Y-116840000D03*
%TO.P,SW1,2*%
%TO.N,/ESP32/EN*%
X127762000Y-116840000D03*
%TD*%
D16*
%TO.P,J4,1,Pin_1*%
%TO.N,GND*%
X89621000Y-143622000D03*
%TO.P,J4,2,Pin_2*%
%TO.N,/5V*%
X92161000Y-143622000D03*
%TO.P,J4,3,Pin_3*%
%TO.N,/Fan/FAN_TACH*%
X94701000Y-143622000D03*
%TO.P,J4,4,Pin_4*%
%TO.N,/Fan/FAN_PWM*%
X97241000Y-143622000D03*
%TD*%
D17*
%TO.P,J9,1,Pin_1*%
%TO.N,GND*%
X84859000Y-50049000D03*
D10*
%TO.P,J9,2,Pin_2*%
%TO.N,/3V3*%
X84859000Y-52589000D03*
%TO.P,J9,3,Pin_3*%
%TO.N,/SCL*%
X84859000Y-55129000D03*
%TO.P,J9,4,Pin_4*%
%TO.N,/SDA*%
X84859000Y-57669000D03*
%TD*%
D18*
%TO.P,J2,1,Pin_1*%
%TO.N,GND*%
X85190000Y-63390000D03*
X80110000Y-63390000D03*
%TD*%
%TO.P,J1,1,Pin_1*%
%TO.N,/Power/VIN*%
X85190000Y-70810000D03*
X80110000Y-70810000D03*
%TD*%
D17*
%TO.P,J6,1,Pin_1*%
%TO.N,/BI*%
X101626000Y-49799000D03*
D10*
%TO.P,J6,2,Pin_2*%
%TO.N,/RST*%
X104166000Y-49799000D03*
%TO.P,J6,3,Pin_3*%
%TO.N,/RX*%
X106706000Y-49799000D03*
%TO.P,J6,4,Pin_4*%
%TO.N,/TX*%
X109246000Y-49799000D03*
%TO.P,J6,5,Pin_5*%
%TO.N,/SDA*%
X111786000Y-49799000D03*
%TO.P,J6,6,Pin_6*%
%TO.N,/SCL*%
X114326000Y-49799000D03*
%TO.P,J6,7,Pin_7*%
%TO.N,/3V3*%
X116866000Y-49799000D03*
%TO.P,J6,8,Pin_8*%
%TO.N,GND*%
X119406000Y-49799000D03*
%TD*%
D17*
%TO.P,J7,1,Pin_1*%
%TO.N,/Power/VIN*%
X83000000Y-76540000D03*
D10*
%TO.P,J7,2,Pin_2*%
%TO.N,/5V*%
X85540000Y-76540000D03*
%TD*%
D17*
%TO.P,J3,1,Pin_1*%
%TO.N,/BM1397/1V8*%
X109350000Y-143580000D03*
D10*
%TO.P,J3,2,Pin_2*%
%TO.N,/BM1397/CI*%
X111890000Y-143580000D03*
%TO.P,J3,3,Pin_3*%
%TO.N,/BM1397/RO*%
X114430000Y-143580000D03*
%TO.P,J3,4,Pin_4*%
%TO.N,/BM1397/RST_N*%
X116970000Y-143580000D03*
%TO.P,J3,5,Pin_5*%
%TO.N,GND*%
X119510000Y-143580000D03*
%TD*%
D19*
%TO.P,U12,1,GND*%
%TO.N,GND*%
X131870000Y-81710000D03*
%TO.P,U12,2,3V3*%
%TO.N,/3V3*%
X130600000Y-81710000D03*
%TO.P,U12,3,EN*%
%TO.N,/ESP32/EN*%
X129330000Y-81710000D03*
%TO.P,U12,4,GPIO4/TOUCH4/ADC1_CH3*%
%TO.N,unconnected-(U12-GPIO4{slash}TOUCH4{slash}ADC1_CH3-Pad4)*%
X128060000Y-81710000D03*
%TO.P,U12,5,GPIO5/TOUCH5/ADC1_CH4*%
%TO.N,/ESP32/LEDZ_R*%
X126790000Y-81710000D03*
%TO.P,U12,6,GPIO6/TOUCH6/ADC1_CH5*%
%TO.N,/ESP32/LEDZ_G*%
X125520000Y-81710000D03*
%TO.P,U12,7,GPIO7/TOUCH7/ADC1_CH6*%
%TO.N,/ESP32/LEDZ_B*%
X124250000Y-81710000D03*
%TO.P,U12,8,GPIO15/U0RTS/ADC2_CH4/XTAL_32K_P*%
%TO.N,/ESP32/XIN32*%
X122980000Y-81710000D03*
%TO.P,U12,9,GPIO16/U0CTS/ADC2_CH5/XTAL_32K_NH5*%
%TO.N,/ESP32/XOUT32*%
X121710000Y-81710000D03*
%TO.P,U12,10,GPIO17/U1TXD/ADC2_CH6*%
%TO.N,/TX*%
X120440000Y-81710000D03*
%TO.P,U12,11,GPIO18/U1RXD/ADC2_CH7/CLK_OUT3*%
%TO.N,/RX*%
X119170000Y-81710000D03*
%TO.P,U12,12,GPIO8/TOUCH8/ADC1_CH7/SUBSPICS1*%
%TO.N,unconnected-(U12-GPIO8{slash}TOUCH8{slash}ADC1_CH7{slash}SUBSPICS1-Pad12)*%
X117900000Y-81710000D03*
%TO.P,U12,13,GPIO19/U1RTS/ADC2_CH8/CLK_OUT2/USB_D-*%
%TO.N,Net-(U12-GPIO19{slash}U1RTS{slash}ADC2_CH8{slash}CLK_OUT2{slash}USB_D-)*%
X116630000Y-81710000D03*
%TO.P,U12,14,GPIO20/U1CTS/ADC2_CH9/CLK_OUT1/USB_D+*%
%TO.N,Net-(U12-GPIO20{slash}U1CTS{slash}ADC2_CH9{slash}CLK_OUT1{slash}USB_D+)*%
X115360000Y-81710000D03*
D20*
%TO.P,U12,15,GPIO3/TOUCH3/ADC1_CH2\u002A*%
%TO.N,/3V3*%
X114110000Y-79945000D03*
%TO.P,U12,16,\u002AGPIO46*%
%TO.N,unconnected-(U12-\u002AGPIO46-Pad16)*%
X114110000Y-78675000D03*
%TO.P,U12,17,GPIO9/TOUCH9/ADC1_CH8/FSPIHD/SUBSPIHD*%
%TO.N,unconnected-(U12-GPIO9{slash}TOUCH9{slash}ADC1_CH8{slash}FSPIHD{slash}SUBSPIHD-Pad17)*%
X114110000Y-77405000D03*
%TO.P,U12,18,GPIO10/TOUCH10/ADC1_CH9/FSPICS0/FSPIIO4/SUBSPICS0*%
%TO.N,/BI*%
X114110000Y-76135000D03*
%TO.P,U12,19,GPIO11/TOUCH11/ADC2_CH0/FSPID/FSPIIO5/SUBSPID*%
%TO.N,/Power/PGOOD*%
X114110000Y-74865000D03*
%TO.P,U12,20,GPIO12/TOUCH12/ADC2_CH1/FSPICLK/FSPIIO6/SUBSPICLK*%
%TO.N,/ESP32/FAN_ALERT*%
X114110000Y-73595000D03*
%TO.P,U12,21,GPIO13/TOUCH13/ADC2_CH2/FSPIQ/FSPIIO7/SUBSPIQ*%
%TO.N,unconnected-(U12-GPIO13{slash}TOUCH13{slash}ADC2_CH2{slash}FSPIQ{slash}FSPIIO7{slash}SUBSPIQ-Pad21)*%
X114110000Y-72325000D03*
%TO.P,U12,22,GPIO14/TOUCH14/ADC2_CH3/FSPIWP/FSPIDQS/SUBSPIWP*%
%TO.N,unconnected-(U12-GPIO14{slash}TOUCH14{slash}ADC2_CH3{slash}FSPIWP{slash}FSPIDQS{slash}SUBSPIWP-Pad22)*%
X114110000Y-71055000D03*
%TO.P,U12,23,GPIO21*%
%TO.N,unconnected-(U12-GPIO21-Pad23)*%
X114110000Y-69785000D03*
%TO.P,U12,24,GPIO47/SPICLK_P/SUBSPICLK_P_DIFF*%
%TO.N,/SDA*%
X114110000Y-68515000D03*
%TO.P,U12,25,GPIO48/SPICLK_N/SUBSPICLK_N_DIFF*%
%TO.N,/SCL*%
X114110000Y-67245000D03*
%TO.P,U12,26,\u002AGPIO45*%
%TO.N,unconnected-(U12-\u002AGPIO45-Pad26)*%
X114110000Y-65975000D03*
D19*
%TO.P,U12,27,GPIO0/BOOT\u002A*%
%TO.N,/ESP32/IO0*%
X115360000Y-64210000D03*
%TO.P,U12,28,SPIIO6/GPIO35/FSPID/SUBSPID*%
%TO.N,/ESP32/LEDX_R*%
X116630000Y-64210000D03*
%TO.P,U12,29,SPIIO7/GPIO36/FSPICLK/SUBSPICLK*%
%TO.N,/ESP32/LEDX_G*%
X117900000Y-64210000D03*
%TO.P,U12,30,SPIDQS/GPIO37/FSPIQ/SUBSPIQ*%
%TO.N,/ESP32/LEDX_B*%
X119170000Y-64210000D03*
%TO.P,U12,31,GPIO38/FSPIWP/SUBSPIWP*%
%TO.N,unconnected-(U12-GPIO38{slash}FSPIWP{slash}SUBSPIWP-Pad31)*%
X120440000Y-64210000D03*
%TO.P,U12,32,MTCK/GPIO39/CLK_OUT3/SUBSPICS1*%
%TO.N,unconnected-(U12-MTCK{slash}GPIO39{slash}CLK_OUT3{slash}SUBSPICS1-Pad32)*%
X121710000Y-64210000D03*
%TO.P,U12,33,MTDO/GPIO40/CLK_OUT2*%
%TO.N,unconnected-(U12-MTDO{slash}GPIO40{slash}CLK_OUT2-Pad33)*%
X122980000Y-64210000D03*
%TO.P,U12,34,MTDI/GPIO41/CLK_OUT1*%
%TO.N,unconnected-(U12-MTDI{slash}GPIO41{slash}CLK_OUT1-Pad34)*%
X124250000Y-64210000D03*
%TO.P,U12,35,MTMS/GPIO42*%
%TO.N,unconnected-(U12-MTMS{slash}GPIO42-Pad35)*%
X125520000Y-64210000D03*
%TO.P,U12,36,U0RXD/GPIO44/CLK_OUT2*%
%TO.N,/ESP32/P_RX*%
X126790000Y-64210000D03*
%TO.P,U12,37,U0TXD/GPIO43/CLK_OUT1*%
%TO.N,/ESP32/P_TX*%
X128060000Y-64210000D03*
%TO.P,U12,38,GPIO2/TOUCH2/ADC1_CH1*%
%TO.N,/VDD*%
X129330000Y-64210000D03*
%TO.P,U12,39,GPIO1/TOUCH1/ADC1_CH0*%
%TO.N,/RST*%
X130600000Y-64210000D03*
%TO.P,U12,40,GND*%
%TO.N,GND*%
X131870000Y-64210000D03*
D21*
%TO.P,U12,41,GND*%
X122750000Y-75860000D03*
X124150000Y-75860000D03*
X125550000Y-75860000D03*
X122750000Y-74460000D03*
X124150000Y-74460000D03*
X125550000Y-74460000D03*
X122750000Y-73060000D03*
X124150000Y-73060000D03*
X125550000Y-73060000D03*
%TD*%
D22*
%TO.P,IC1,1,VDD3_0*%
%TO.N,Net-(IC1-VDD3_0)*%
X109624600Y-112880000D03*
%TO.P,IC1,2,VDD2_0*%
%TO.N,Net-(IC1-VDD2_0)*%
X109624600Y-113360000D03*
%TO.P,IC1,3,VDD1_0*%
%TO.N,Net-(IC1-VDD1_0)*%
X109624600Y-113840000D03*
%TO.P,IC1,4,ADDR0*%
%TO.N,Net-(IC1-ADDR0)*%
X109624600Y-114320000D03*
%TO.P,IC1,5,ADDR1*%
%TO.N,Net-(IC1-ADDR1)*%
X109624600Y-114800000D03*
%TO.P,IC1,6,ADDR2*%
%TO.N,Net-(IC1-ADDR2)*%
X109624600Y-115280000D03*
%TO.P,IC1,7,TEST*%
%TO.N,unconnected-(IC1-TEST-Pad7)*%
X109624600Y-115760000D03*
%TO.P,IC1,8,BI*%
%TO.N,/BM1397/BM_BI*%
X109624600Y-116240000D03*
%TO.P,IC1,9,NRSTI*%
%TO.N,/BM1397/RST_N*%
X109624600Y-116720000D03*
%TO.P,IC1,10,RO*%
%TO.N,Net-(IC1-RO)*%
X109624600Y-117200000D03*
%TO.P,IC1,11,CI*%
%TO.N,Net-(IC1-CI)*%
X109624600Y-117680000D03*
%TO.P,IC1,12,CLKI*%
%TO.N,/BM1397/BM_CLKI*%
X109624600Y-118160000D03*
%TO.P,IC1,13,PLL_VSS*%
%TO.N,GND*%
X109624600Y-118640000D03*
%TO.P,IC1,14,PLL_VDD*%
%TO.N,/BM1397/0V8*%
X109624600Y-119120000D03*
%TO.P,IC1,15,VDDIO_08_0*%
X109624600Y-119600000D03*
%TO.P,IC1,16,VDDIO_18_0*%
%TO.N,/BM1397/1V8*%
X109624600Y-120080000D03*
%TO.P,IC1,17,VDDIO_18_1*%
X101755400Y-120080000D03*
%TO.P,IC1,18,VDDIO_08_1*%
%TO.N,/BM1397/0V8*%
X101755400Y-119600000D03*
%TO.P,IC1,19,VSS*%
%TO.N,GND*%
X101755400Y-119120000D03*
%TO.P,IC1,20,PIN_MODE*%
%TO.N,Net-(IC1-PIN_MODE)*%
X101755400Y-118640000D03*
%TO.P,IC1,21,TEMP_N*%
%TO.N,/TEMP_N*%
X101755400Y-118160000D03*
%TO.P,IC1,22,TEMP_P*%
%TO.N,/TEMP_P*%
X101755400Y-117680000D03*
%TO.P,IC1,23,RF*%
%TO.N,unconnected-(IC1-RF-Pad23)*%
X101755400Y-117200000D03*
%TO.P,IC1,24,TF*%
%TO.N,unconnected-(IC1-TF-Pad24)*%
X101755400Y-116720000D03*
%TO.P,IC1,25,CLKO*%
%TO.N,Net-(IC1-CLKO)*%
X101755400Y-116240000D03*
%TO.P,IC1,26,CO*%
%TO.N,Net-(IC1-CO)*%
X101755400Y-115760000D03*
%TO.P,IC1,27,RI*%
%TO.N,Net-(IC1-RI)*%
X101755400Y-115280000D03*
%TO.P,IC1,28,NRSTO*%
%TO.N,Net-(IC1-NRSTO)*%
X101755400Y-114800000D03*
%TO.P,IC1,29,BO*%
%TO.N,Net-(IC1-BO)*%
X101755400Y-114320000D03*
%TO.P,IC1,30,VDD1_1*%
%TO.N,Net-(IC1-VDD1_1)*%
X101755400Y-113840000D03*
%TO.P,IC1,31,VDD2_1*%
%TO.N,Net-(IC1-VDD2_1)*%
X101755400Y-113360000D03*
%TO.P,IC1,32,VDD3_1*%
%TO.N,Net-(IC1-VDD3_1)*%
X101755400Y-112880000D03*
D23*
%TO.P,IC1,33,VDD*%
%TO.N,/VDD*%
X105690000Y-113480000D03*
D24*
%TO.P,IC1,34,VSS_0*%
%TO.N,GND*%
X105690000Y-117680000D03*
%TD*%
D25*
%TO.P,J5,1,Pin_1*%
%TO.N,/ESP32/EN*%
X129400000Y-58365000D03*
%TO.P,J5,2,Pin_2*%
%TO.N,/3V3*%
X129400000Y-57095000D03*
%TO.P,J5,3,Pin_3*%
%TO.N,/ESP32/P_TX*%
X128130000Y-58365000D03*
%TO.P,J5,4,Pin_4*%
%TO.N,GND*%
X128130000Y-57095000D03*
%TO.P,J5,5,Pin_5*%
%TO.N,/ESP32/P_RX*%
X126860000Y-58365000D03*
%TO.P,J5,6,Pin_6*%
%TO.N,/ESP32/IO0*%
X126860000Y-57095000D03*
%TD*%
D15*
%TO.P,SW2,1*%
%TO.N,GND*%
X132080000Y-124460000D03*
%TO.P,SW2,2*%
%TO.N,/ESP32/IO0*%
X127762000Y-124460000D03*
%TD*%
D26*
%TO.P,U13,1,BC*%
%TO.N,GND*%
X112698247Y-54179999D03*
%TO.P,U13,2,GC*%
X112698247Y-55180000D03*
%TO.P,U13,3,RC*%
X112698247Y-56180001D03*
%TO.P,U13,4,RA*%
%TO.N,Net-(U13-RA)*%
X109574047Y-56180001D03*
%TO.P,U13,5,GA*%
%TO.N,Net-(U13-GA)*%
X109574047Y-55180000D03*
%TO.P,U13,6,BA*%
%TO.N,Net-(U13-BA)*%
X109574047Y-54179999D03*
%TD*%
D27*
%TO.P,C28,1*%
%TO.N,/5V*%
X103490000Y-138720000D03*
%TO.P,C28,2*%
%TO.N,GND*%
X103490000Y-144120000D03*
%TD*%
D28*
%TO.P,J11,1,1*%
%TO.N,/ESP32/EN*%
X129540000Y-91440000D03*
%TO.P,J11,2,2*%
%TO.N,/3V3*%
X129540000Y-87540000D03*
%TO.P,J11,3,3*%
%TO.N,/ESP32/P_TX*%
X128270000Y-91440000D03*
%TO.P,J11,4,4*%
%TO.N,GND*%
X128270000Y-87540000D03*
%TO.P,J11,5,5*%
%TO.N,/ESP32/P_RX*%
X127000000Y-91440000D03*
%TO.P,J11,6,6*%
%TO.N,/ESP32/IO0*%
X127000000Y-87540000D03*
%TD*%
D26*
%TO.P,U4,1,BC*%
%TO.N,GND*%
X101864394Y-54209999D03*
%TO.P,U4,2,GC*%
X101864394Y-55210000D03*
%TO.P,U4,3,RC*%
X101864394Y-56210001D03*
%TO.P,U4,4,RA*%
%TO.N,Net-(U4-RA)*%
X98740194Y-56210001D03*
%TO.P,U4,5,GA*%
%TO.N,Net-(U4-GA)*%
X98740194Y-55210000D03*
%TO.P,U4,6,BA*%
%TO.N,Net-(U4-BA)*%
X98740194Y-54209999D03*
%TD*%
D29*
%TO.P,USB1,1,VBUS*%
%TO.N,Net-(USB1-VBUS)*%
X129061999Y-101059998D03*
%TO.P,USB1,2,D-*%
%TO.N,Net-(U12-GPIO19{slash}U1RTS{slash}ADC2_CH8{slash}CLK_OUT2{slash}USB_D-)*%
X129061999Y-101709999D03*
%TO.P,USB1,3,D+*%
%TO.N,Net-(U12-GPIO20{slash}U1CTS{slash}ADC2_CH9{slash}CLK_OUT1{slash}USB_D+)*%
X129061999Y-102359998D03*
%TO.P,USB1,4,ID*%
%TO.N,unconnected-(USB1-ID-Pad4)*%
X129061999Y-103009997D03*
%TO.P,USB1,5,GND*%
%TO.N,GND*%
X129061999Y-103659998D03*
D30*
%TO.P,USB1,6,6*%
X129286999Y-99159997D03*
%TO.P,USB1,7,7*%
X129286999Y-105559999D03*
D31*
%TO.P,USB1,8,8*%
X131737000Y-101159998D03*
%TO.P,USB1,9,9*%
X131737000Y-103559998D03*
D32*
%TO.P,USB1,S_1*%
%TO.N,N/C*%
X131737000Y-99060000D03*
%TO.P,USB1,S_2*%
X131737000Y-105659996D03*
%TD*%
D33*
%TO.N,GND*%
X103110000Y-115590000D03*
X97830000Y-111040000D03*
X80410000Y-139600000D03*
D34*
X127000000Y-105559999D03*
D33*
X78090000Y-82060000D03*
X100850600Y-73131400D03*
X103110000Y-116950000D03*
X116910000Y-128990000D03*
X104630000Y-119670000D03*
D34*
X126719000Y-75842000D03*
X127000000Y-103659998D03*
D33*
X97320000Y-93500000D03*
X131300000Y-62500000D03*
X112980000Y-131260000D03*
X108120000Y-119660000D03*
X97320000Y-87878600D03*
X100580000Y-87270000D03*
X97320000Y-84830000D03*
X98860000Y-84830000D03*
X114230000Y-55160000D03*
X104630000Y-115590000D03*
X98682000Y-136516000D03*
X98860000Y-93500000D03*
X106450000Y-116920000D03*
X128120000Y-55550000D03*
X113540000Y-111040000D03*
X95400600Y-69431400D03*
X106450000Y-119640000D03*
D34*
X100765000Y-145890000D03*
D33*
X94890000Y-62470000D03*
X97320000Y-86310000D03*
X106450000Y-118280000D03*
X80660000Y-87760000D03*
X97320000Y-89650000D03*
X132080000Y-120380000D03*
D34*
X126719000Y-74372000D03*
D33*
X103110000Y-119670000D03*
X90360055Y-101249945D03*
X88908900Y-138550000D03*
X98860000Y-91520000D03*
X117730000Y-123190000D03*
X104630000Y-118310000D03*
X121210000Y-74547000D03*
X120110000Y-117300000D03*
X98860000Y-86310000D03*
X97320000Y-91520000D03*
X102570000Y-57250000D03*
X87764000Y-129341000D03*
X115749000Y-66446000D03*
X113410000Y-96043600D03*
X112512000Y-61250000D03*
X106450000Y-115560000D03*
X95110000Y-129400000D03*
X98860000Y-89650000D03*
X104630000Y-116950000D03*
X86970000Y-82770000D03*
D34*
X126719000Y-73012000D03*
D33*
X105330000Y-132320000D03*
X104430000Y-130240000D03*
X108120000Y-115580000D03*
D34*
X132450000Y-84290000D03*
D33*
X124308576Y-108035637D03*
X108120000Y-118300000D03*
X108120000Y-116940000D03*
X98860000Y-87878600D03*
X103110000Y-118310000D03*
X116274100Y-101933600D03*
X83001194Y-129118806D03*
X96840000Y-98140000D03*
X92910000Y-102990000D03*
D34*
X127000000Y-99060000D03*
D33*
X100580000Y-85521400D03*
%TO.N,/BM1397/1V8*%
X116260000Y-97313600D03*
X119760000Y-127770000D03*
X117940000Y-102413600D03*
X112130000Y-127390000D03*
X111380000Y-123250000D03*
X98320000Y-123300000D03*
%TO.N,/BM1397/0V8*%
X111240000Y-124400000D03*
X97650000Y-124350000D03*
X102260000Y-123530000D03*
X103530000Y-127490000D03*
%TO.N,/VDD*%
X110361000Y-82986000D03*
X115517000Y-67970000D03*
X103000000Y-104240000D03*
X105152000Y-113890000D03*
D35*
X107870000Y-90540000D03*
X107910000Y-92670000D03*
D33*
X104126000Y-113110000D03*
X108330000Y-104270000D03*
X108230000Y-113150000D03*
X103100000Y-113900000D03*
X103000000Y-62838100D03*
X107204000Y-113920000D03*
D35*
X107910000Y-94640000D03*
D33*
X106178000Y-113110000D03*
D35*
X105880000Y-90540000D03*
X105880000Y-88500000D03*
X107850000Y-88520000D03*
X105930000Y-94670000D03*
X105900000Y-92650000D03*
D33*
%TO.N,/ESP32/EN*%
X127000000Y-114300000D03*
X132665000Y-68760000D03*
X124460000Y-99060000D03*
%TO.N,/5V*%
X85750000Y-131200000D03*
X100470000Y-66770000D03*
X93869000Y-136167000D03*
X87748000Y-131214000D03*
X119380000Y-91440000D03*
D35*
X109323000Y-63360000D03*
D33*
X98450000Y-131200000D03*
%TO.N,/3V3*%
X115457000Y-62413000D03*
X115060000Y-96153600D03*
X129610000Y-55490000D03*
D34*
X129310000Y-83980000D03*
D33*
X115840000Y-79945000D03*
X110536000Y-72864000D03*
X131744000Y-76848000D03*
X98662000Y-137914100D03*
X116600000Y-96213600D03*
X83700000Y-87750000D03*
X80676100Y-129980000D03*
X82880000Y-132350000D03*
X94100000Y-97190000D03*
X132080000Y-111760000D03*
X82990000Y-85090000D03*
%TO.N,/TX*%
X115412000Y-84554000D03*
%TO.N,/RX*%
X113836000Y-83855000D03*
%TO.N,/BM1397/RST_N*%
X112070000Y-99853600D03*
X116190000Y-116610000D03*
%TO.N,/BM1397/CI*%
X121880000Y-119600000D03*
X112020000Y-98843600D03*
%TO.N,/RST*%
X120676000Y-54726000D03*
X121437000Y-70037900D03*
%TO.N,/BM1397/RO*%
X112870000Y-98163600D03*
X121859000Y-118519000D03*
%TO.N,/TEMP_N*%
X97340000Y-118490000D03*
%TO.N,/TEMP_P*%
X96203000Y-118495000D03*
%TO.N,/SCL*%
X120743000Y-68680100D03*
X85120000Y-86810000D03*
X90390000Y-96230000D03*
X84010000Y-123740000D03*
%TO.N,/Power/OUT0*%
X91440000Y-95040000D03*
X89730000Y-75310000D03*
%TO.N,Net-(IC1-VDD1_0)*%
X115070000Y-111160000D03*
%TO.N,Net-(IC1-VDD2_0)*%
X112530000Y-107800000D03*
%TO.N,Net-(IC1-VDD3_0)*%
X111250000Y-106010000D03*
%TO.N,Net-(IC1-VDD3_1)*%
X100180000Y-106040000D03*
%TO.N,Net-(IC1-VDD2_1)*%
X98850000Y-107880000D03*
%TO.N,Net-(IC1-VDD1_1)*%
X96130000Y-110920000D03*
%TO.N,Net-(U9-BOOT)*%
X95368800Y-71183600D03*
X95958800Y-74273600D03*
%TO.N,Net-(IC1-ADDR0)*%
X118380000Y-109220000D03*
%TO.N,Net-(IC1-ADDR1)*%
X119780000Y-111630000D03*
%TO.N,Net-(IC1-ADDR2)*%
X119790000Y-114060000D03*
%TO.N,Net-(IC1-RO)*%
X114800000Y-117880000D03*
%TO.N,Net-(IC1-CI)*%
X114690000Y-119230000D03*
%TO.N,Net-(IC1-PIN_MODE)*%
X89540000Y-125970000D03*
%TO.N,Net-(IC1-CLKO)*%
X97500000Y-116660000D03*
%TO.N,Net-(IC1-CO)*%
X96180000Y-115958900D03*
%TO.N,Net-(IC1-RI)*%
X96360000Y-120670000D03*
%TO.N,Net-(IC1-NRSTO)*%
X94099000Y-112195000D03*
%TO.N,Net-(IC1-BO)*%
X95116000Y-111529000D03*
%TO.N,/BI*%
X117717100Y-76139000D03*
X115546000Y-76073000D03*
%TO.N,Net-(Q2-G)*%
X101710600Y-82811400D03*
X102700000Y-75260000D03*
%TO.N,Net-(U4-BA)*%
X97500000Y-54210000D03*
%TO.N,Net-(U13-BA)*%
X108340000Y-54180000D03*
%TO.N,/ESP32/P_TX*%
X124460000Y-88900000D03*
X128060000Y-61549000D03*
%TO.N,/ESP32/P_RX*%
X124447000Y-61551000D03*
X121920000Y-86360000D03*
%TO.N,/ESP32/IO0*%
X132080000Y-91440000D03*
X124830000Y-55100000D03*
X121920000Y-104140000D03*
X122113000Y-68573000D03*
%TO.N,/ESP32/XIN32*%
X124019000Y-80080000D03*
%TO.N,Net-(U4-GA)*%
X97520000Y-55200000D03*
%TO.N,/ESP32/XOUT32*%
X121248000Y-80100000D03*
%TO.N,/Power/PGOOD*%
X108278900Y-71440000D03*
%TO.N,Net-(U13-GA)*%
X108320000Y-55170000D03*
%TO.N,Net-(U4-RA)*%
X97540000Y-56230000D03*
%TO.N,/ESP32/LEDX_B*%
X93950000Y-57520000D03*
%TO.N,Net-(U13-RA)*%
X108310000Y-56190000D03*
%TO.N,/ESP32/FAN_ALERT*%
X111108000Y-81876000D03*
X121867000Y-120750000D03*
X110497000Y-73924000D03*
%TO.N,/ESP32/LEDZ_B*%
X116044000Y-70126000D03*
%TO.N,/ESP32/LEDX_G*%
X94129945Y-58660055D03*
%TO.N,/ESP32/LEDZ_G*%
X117097000Y-70138000D03*
%TO.N,/BM1397/BM_BI*%
X112660000Y-100653600D03*
%TO.N,/SDA*%
X84702648Y-124392960D03*
X117403141Y-73987441D03*
X84730000Y-85730000D03*
X91500000Y-96290000D03*
X90357445Y-62412445D03*
%TO.N,/BM1397/BM_CLKI*%
X114720000Y-121640000D03*
%TO.N,/ESP32/LEDX_R*%
X94319890Y-59810110D03*
%TO.N,/ESP32/LEDZ_R*%
X118065584Y-70146474D03*
D34*
%TO.N,Net-(USB1-VBUS)*%
X127000000Y-101059998D03*
%TD*%
D36*
%TO.N,GND*%
X101755400Y-119120000D02*
X104250000Y-119120000D01*
X104250000Y-119120000D02*
X105690000Y-117680000D01*
X132080000Y-120380000D02*
X132080000Y-116840000D01*
D37*
X128130000Y-57095000D02*
X128130000Y-55560000D01*
D36*
X131960600Y-89019400D02*
X132080000Y-88900000D01*
D37*
X129081999Y-103659998D02*
X127000000Y-103659998D01*
X127000000Y-105559999D02*
X129306999Y-105559999D01*
X131870000Y-64210000D02*
X131870000Y-63070000D01*
D36*
X132080000Y-124460000D02*
X132080000Y-120380000D01*
D37*
X129736999Y-99159997D02*
X131737000Y-101159998D01*
D36*
X106650000Y-118640000D02*
X105690000Y-117680000D01*
D38*
X122750000Y-75860000D02*
X126701000Y-75860000D01*
D36*
X128270000Y-88408800D02*
X128880600Y-89019400D01*
D37*
X101864394Y-56210001D02*
X101864394Y-56544394D01*
D38*
X122750000Y-73060000D02*
X126671000Y-73060000D01*
D37*
X103490000Y-144120000D02*
X102450000Y-144120000D01*
D36*
X128270000Y-87540000D02*
X128270000Y-88408800D01*
D38*
X132450000Y-84290000D02*
X131870000Y-83710000D01*
X126671000Y-73060000D02*
X126719000Y-73012000D01*
D36*
X109624600Y-118640000D02*
X106650000Y-118640000D01*
D37*
X101864394Y-56210001D02*
X101864394Y-54209999D01*
D36*
X128880600Y-89019400D02*
X131960600Y-89019400D01*
D38*
X122750000Y-74460000D02*
X126631000Y-74460000D01*
D36*
X129736999Y-105559999D02*
X129286999Y-105559999D01*
D37*
X131870000Y-63070000D02*
X131300000Y-62500000D01*
X112698247Y-55180000D02*
X114210000Y-55180000D01*
X129306999Y-99159997D02*
X127099997Y-99159997D01*
X131737000Y-103559998D02*
X129736999Y-105559999D01*
X128130000Y-55560000D02*
X128120000Y-55550000D01*
D36*
X127099997Y-99159997D02*
X127000000Y-99060000D01*
D37*
X102450000Y-144205000D02*
X100765000Y-145890000D01*
X131737000Y-101159998D02*
X131737000Y-103559998D01*
D36*
X129286999Y-99159997D02*
X129736999Y-99159997D01*
D37*
X102450000Y-144120000D02*
X102450000Y-144205000D01*
X112698247Y-54179999D02*
X112698247Y-56180001D01*
X101864394Y-56544394D02*
X102570000Y-57250000D01*
D38*
X126631000Y-74460000D02*
X126719000Y-74372000D01*
D36*
X132080000Y-84660000D02*
X132450000Y-84290000D01*
X132080000Y-88900000D02*
X132080000Y-84660000D01*
D37*
X114210000Y-55180000D02*
X114230000Y-55160000D01*
D38*
X126701000Y-75860000D02*
X126719000Y-75842000D01*
X131870000Y-83710000D02*
X131870000Y-81710000D01*
D36*
%TO.N,/BM1397/1V8*%
X111380000Y-121835400D02*
X111380000Y-123250000D01*
D37*
X117240000Y-97313600D02*
X116260000Y-97313600D01*
X112130000Y-127390000D02*
X112510000Y-127770000D01*
X112510000Y-127770000D02*
X118490000Y-127770000D01*
X118210000Y-98283600D02*
X117240000Y-97313600D01*
D36*
X101540000Y-120080000D02*
X98320000Y-123300000D01*
D37*
X118210000Y-102143600D02*
X118210000Y-98283600D01*
X118490000Y-134440000D02*
X109350000Y-143580000D01*
D36*
X109624600Y-120080000D02*
X111380000Y-121835400D01*
D37*
X118490000Y-127770000D02*
X118490000Y-134440000D01*
D36*
X101755400Y-120080000D02*
X101540000Y-120080000D01*
D37*
X118490000Y-127770000D02*
X119760000Y-127770000D01*
X117940000Y-102413600D02*
X118210000Y-102143600D01*
D36*
%TO.N,/BM1397/0V8*%
X101755400Y-119600000D02*
X100830000Y-119600000D01*
D37*
X103530000Y-127490000D02*
X103530000Y-124800000D01*
D36*
X97460000Y-124160000D02*
X97650000Y-124350000D01*
X111500000Y-120270000D02*
X111500000Y-121000000D01*
X111500000Y-121000000D02*
X111462487Y-121037513D01*
X111760000Y-124400000D02*
X111240000Y-124400000D01*
X111462487Y-121037513D02*
X112220000Y-121795026D01*
X110350000Y-119120000D02*
X111500000Y-120270000D01*
X109624600Y-119600000D02*
X110024974Y-119600000D01*
D37*
X103530000Y-124800000D02*
X102260000Y-123530000D01*
D36*
X109624600Y-119120000D02*
X110350000Y-119120000D01*
X97460000Y-122970000D02*
X97460000Y-124160000D01*
X110024974Y-119600000D02*
X111462487Y-121037513D01*
X112220000Y-123940000D02*
X111760000Y-124400000D01*
X112220000Y-121795026D02*
X112220000Y-123940000D01*
X100830000Y-119600000D02*
X97460000Y-122970000D01*
%TO.N,/VDD*%
X103133100Y-62838100D02*
X103000000Y-62838100D01*
X115517000Y-67970000D02*
X116906000Y-69359000D01*
X110300000Y-82925000D02*
X110300000Y-76960000D01*
X110300000Y-76960000D02*
X107110000Y-73770000D01*
X116906000Y-69359000D02*
X128630000Y-69359000D01*
X128630000Y-69359000D02*
X129330000Y-68659000D01*
X107110000Y-73770000D02*
X107110000Y-66815000D01*
X110361000Y-82986000D02*
X110300000Y-82925000D01*
X129330000Y-68659000D02*
X129330000Y-64210000D01*
X107110000Y-66815000D02*
X103133100Y-62838100D01*
%TO.N,/ESP32/EN*%
X129348000Y-80241000D02*
X129348000Y-80228000D01*
X131995000Y-60960000D02*
X132665000Y-61630000D01*
X127153400Y-89832200D02*
X126340600Y-89019400D01*
X129540000Y-89832200D02*
X127153400Y-89832200D01*
X127820000Y-93980000D02*
X124460000Y-93980000D01*
X129400000Y-60820000D02*
X129540000Y-60960000D01*
X126340600Y-85703400D02*
X129330000Y-82714000D01*
X132665000Y-78605000D02*
X131780000Y-79490000D01*
X124460000Y-93980000D02*
X124460000Y-99060000D01*
X130050000Y-79490000D02*
X129330000Y-80210000D01*
X129348000Y-80228000D02*
X129330000Y-80210000D01*
X129400000Y-58365000D02*
X129400000Y-60820000D01*
X127000000Y-116840000D02*
X127762000Y-116840000D01*
X132665000Y-61630000D02*
X132665000Y-68760000D01*
X126340600Y-89019400D02*
X126340600Y-85703400D01*
X129540000Y-91440000D02*
X129540000Y-89832200D01*
X127000000Y-114300000D02*
X127000000Y-116840000D01*
X129540000Y-60960000D02*
X131995000Y-60960000D01*
X131780000Y-79490000D02*
X130050000Y-79490000D01*
X129330000Y-82714000D02*
X129330000Y-81710000D01*
X129330000Y-80210000D02*
X129330000Y-81710000D01*
X129540000Y-92260000D02*
X127820000Y-93980000D01*
X129540000Y-91440000D02*
X129540000Y-92260000D01*
X132665000Y-68760000D02*
X132665000Y-78605000D01*
D37*
%TO.N,/5V*%
X92161000Y-142859000D02*
X92161000Y-143622000D01*
D36*
X93869000Y-136167000D02*
X96290000Y-138588000D01*
D37*
X95560000Y-139450000D02*
X95560000Y-139460000D01*
X96290000Y-138720000D02*
X95560000Y-139450000D01*
X103490000Y-138720000D02*
X96290000Y-138720000D01*
D36*
X96290000Y-138588000D02*
X96290000Y-138720000D01*
D37*
X95560000Y-139460000D02*
X92161000Y-142859000D01*
D38*
%TO.N,/3V3*%
X130600000Y-82690000D02*
X130600000Y-81710000D01*
D36*
X114110000Y-79945000D02*
X115840000Y-79945000D01*
X129540000Y-84210000D02*
X129310000Y-83980000D01*
X129540000Y-87540000D02*
X129540000Y-84210000D01*
D37*
X129400000Y-55700000D02*
X129610000Y-55490000D01*
D38*
X129310000Y-83980000D02*
X130600000Y-82690000D01*
D37*
X129400000Y-57095000D02*
X129400000Y-55700000D01*
D36*
%TO.N,/TX*%
X119281000Y-84554000D02*
X120440000Y-83395000D01*
X115412000Y-84554000D02*
X119281000Y-84554000D01*
X120440000Y-83395000D02*
X120440000Y-81710000D01*
%TO.N,/RX*%
X113836000Y-83855000D02*
X118414000Y-83855000D01*
X118414000Y-83855000D02*
X119170000Y-83099000D01*
X119170000Y-83099000D02*
X119170000Y-81710000D01*
%TO.N,/BM1397/RST_N*%
X121567857Y-114706400D02*
X119664257Y-116610000D01*
X113349874Y-116720000D02*
X113498785Y-116868911D01*
X112070000Y-99853600D02*
X113410000Y-99853600D01*
X119664257Y-116610000D02*
X116190000Y-116610000D01*
X113410000Y-99853600D02*
X113410000Y-102434208D01*
X113410000Y-102434208D02*
X121567857Y-110592065D01*
X115931089Y-116868911D02*
X116190000Y-116610000D01*
X109624600Y-116720000D02*
X113349874Y-116720000D01*
X113498785Y-116868911D02*
X115931089Y-116868911D01*
X121567857Y-110592065D02*
X121567857Y-114706400D01*
%TO.N,/BM1397/CI*%
X121880000Y-119600000D02*
X121509000Y-119600000D01*
X112974736Y-98843600D02*
X112020000Y-98843600D01*
X113990000Y-102439472D02*
X113990000Y-99858864D01*
X120908000Y-115940993D02*
X121974257Y-114874736D01*
X120908000Y-118999000D02*
X120908000Y-115940993D01*
X121974257Y-114874736D02*
X121974257Y-110423729D01*
X113990000Y-99858864D02*
X112974736Y-98843600D01*
X121974257Y-110423729D02*
X113990000Y-102439472D01*
X121509000Y-119600000D02*
X120908000Y-118999000D01*
%TO.N,/RST*%
X104166000Y-51281000D02*
X104166000Y-49799000D01*
X130550000Y-64260000D02*
X130600000Y-64210000D01*
X121437000Y-70037900D02*
X128525836Y-70037900D01*
X105268000Y-52383000D02*
X104166000Y-51281000D01*
X118333000Y-52383000D02*
X105268000Y-52383000D01*
X120676000Y-54726000D02*
X118333000Y-52383000D01*
X128525836Y-70037900D02*
X130550000Y-68013736D01*
X130550000Y-68013736D02*
X130550000Y-64260000D01*
%TO.N,/BM1397/RO*%
X114396400Y-102271136D02*
X114396400Y-99690000D01*
X124460000Y-115918000D02*
X124460000Y-112334736D01*
X124460000Y-112334736D02*
X114396400Y-102271136D01*
X114396400Y-99690000D02*
X112870000Y-98163600D01*
X121859000Y-118519000D02*
X124460000Y-115918000D01*
%TO.N,/TEMP_N*%
X97340000Y-118490000D02*
X97670000Y-118160000D01*
X97670000Y-118160000D02*
X101755400Y-118160000D01*
%TO.N,/TEMP_P*%
X97018000Y-117680000D02*
X101755400Y-117680000D01*
X96203000Y-118495000D02*
X97018000Y-117680000D01*
%TO.N,/SCL*%
X87990000Y-93830000D02*
X87990000Y-89340000D01*
X90390000Y-96230000D02*
X87990000Y-93830000D01*
X120743000Y-68680100D02*
X117408100Y-68680100D01*
X85460000Y-86810000D02*
X85120000Y-86810000D01*
X84849183Y-86810000D02*
X85120000Y-86810000D01*
X90390000Y-96280000D02*
X86891001Y-99778999D01*
X84004200Y-85965017D02*
X84849183Y-86810000D01*
X89611200Y-61384200D02*
X88761064Y-61384200D01*
X117408100Y-68680100D02*
X115973000Y-67245000D01*
X115973000Y-67245000D02*
X114110000Y-67245000D01*
X89611200Y-61384200D02*
X89611200Y-57093200D01*
X109670000Y-67245000D02*
X114110000Y-67245000D01*
X109646000Y-67269000D02*
X109670000Y-67245000D01*
X87567632Y-62577632D02*
X87567632Y-79787632D01*
X87567632Y-79787632D02*
X84004200Y-83351064D01*
X88761064Y-61384200D02*
X87567632Y-62577632D01*
X84004200Y-83351064D02*
X84004200Y-85965017D01*
X87647000Y-55129000D02*
X84859000Y-55129000D01*
X86891001Y-120858999D02*
X84010000Y-123740000D01*
X109266000Y-67269000D02*
X103381200Y-61384200D01*
X89611200Y-57093200D02*
X87647000Y-55129000D01*
X87990000Y-89340000D02*
X85460000Y-86810000D01*
X90390000Y-96230000D02*
X90390000Y-96280000D01*
X86891001Y-99778999D02*
X86891001Y-120858999D01*
X103381200Y-61384200D02*
X89611200Y-61384200D01*
X109646000Y-67269000D02*
X109266000Y-67269000D01*
%TO.N,/Power/OUT0*%
X89080000Y-92680000D02*
X89080000Y-88900000D01*
X88456400Y-88276400D02*
X88456400Y-76583600D01*
X88456400Y-76583600D02*
X89730000Y-75310000D01*
X91440000Y-95040000D02*
X89080000Y-92680000D01*
X89080000Y-88900000D02*
X88456400Y-88276400D01*
%TO.N,Net-(IC1-VDD1_0)*%
X112300000Y-113840000D02*
X114980000Y-111160000D01*
X109624600Y-113840000D02*
X112300000Y-113840000D01*
X114980000Y-111160000D02*
X115070000Y-111160000D01*
%TO.N,Net-(IC1-VDD2_0)*%
X110850000Y-113370000D02*
X112530000Y-111690000D01*
X109634600Y-113370000D02*
X110850000Y-113370000D01*
X109624600Y-113360000D02*
X109634600Y-113370000D01*
X112530000Y-111690000D02*
X112530000Y-107800000D01*
%TO.N,Net-(IC1-VDD3_0)*%
X110540000Y-112880000D02*
X111250000Y-112170000D01*
X111250000Y-112170000D02*
X111250000Y-106010000D01*
X109624600Y-112880000D02*
X110540000Y-112880000D01*
%TO.N,Net-(IC1-VDD3_1)*%
X100680000Y-112880000D02*
X100180000Y-112380000D01*
X100180000Y-112380000D02*
X100180000Y-106040000D01*
X101755400Y-112880000D02*
X100680000Y-112880000D01*
%TO.N,Net-(IC1-VDD2_1)*%
X100450000Y-113360000D02*
X98850000Y-111760000D01*
X98850000Y-111760000D02*
X98850000Y-107880000D01*
X101755400Y-113360000D02*
X100450000Y-113360000D01*
%TO.N,Net-(IC1-VDD1_1)*%
X101755400Y-113840000D02*
X98890000Y-113840000D01*
X98890000Y-113840000D02*
X96130000Y-111080000D01*
X96130000Y-111080000D02*
X96130000Y-110920000D01*
%TO.N,Net-(U9-BOOT)*%
X95368800Y-73683600D02*
X95368800Y-71183600D01*
X95958800Y-74273600D02*
X95368800Y-73683600D01*
%TO.N,Net-(IC1-ADDR0)*%
X109624600Y-114320000D02*
X114720000Y-114320000D01*
X114720000Y-114320000D02*
X118380000Y-110660000D01*
X118380000Y-110660000D02*
X118380000Y-109220000D01*
%TO.N,Net-(IC1-ADDR1)*%
X116610000Y-114800000D02*
X119780000Y-111630000D01*
X109624600Y-114800000D02*
X116610000Y-114800000D01*
%TO.N,Net-(IC1-ADDR2)*%
X118570000Y-115280000D02*
X119790000Y-114060000D01*
X109624600Y-115280000D02*
X118570000Y-115280000D01*
%TO.N,Net-(IC1-RO)*%
X111950000Y-117200000D02*
X109624600Y-117200000D01*
X111950000Y-117200000D02*
X112630000Y-117880000D01*
X112630000Y-117880000D02*
X114800000Y-117880000D01*
%TO.N,Net-(IC1-CI)*%
X109624600Y-117680000D02*
X111790000Y-117680000D01*
X113350000Y-119240000D02*
X114680000Y-119240000D01*
X111790000Y-117680000D02*
X113350000Y-119240000D01*
X114680000Y-119240000D02*
X114690000Y-119230000D01*
%TO.N,Net-(IC1-PIN_MODE)*%
X92380000Y-125970000D02*
X99710000Y-118640000D01*
X99710000Y-118640000D02*
X101755400Y-118640000D01*
X89540000Y-125970000D02*
X92380000Y-125970000D01*
%TO.N,Net-(IC1-CLKO)*%
X97500000Y-116660000D02*
X97920000Y-116240000D01*
X97920000Y-116240000D02*
X101755400Y-116240000D01*
%TO.N,Net-(IC1-CO)*%
X101755400Y-115760000D02*
X96378900Y-115760000D01*
X96378900Y-115760000D02*
X96180000Y-115958900D01*
%TO.N,Net-(IC1-RI)*%
X95700000Y-115280000D02*
X95280000Y-115700000D01*
X101755400Y-115280000D02*
X95700000Y-115280000D01*
X95280000Y-119590000D02*
X96360000Y-120670000D01*
X95280000Y-115700000D02*
X95280000Y-119590000D01*
%TO.N,Net-(IC1-NRSTO)*%
X96700000Y-114800000D02*
X101755400Y-114800000D01*
X94099000Y-112195000D02*
X94099000Y-112199000D01*
X94099000Y-112199000D02*
X96700000Y-114800000D01*
%TO.N,Net-(IC1-BO)*%
X95116000Y-111529000D02*
X97907000Y-114320000D01*
X97907000Y-114320000D02*
X101755400Y-114320000D01*
%TO.N,/BI*%
X117717100Y-76139000D02*
X117713100Y-76135000D01*
X117713100Y-76135000D02*
X114110000Y-76135000D01*
%TO.N,Net-(Q2-G)*%
X102700000Y-75260000D02*
X102080000Y-75880000D01*
X102080000Y-75880000D02*
X102080000Y-82442000D01*
X102080000Y-82442000D02*
X101710600Y-82811400D01*
%TO.N,Net-(U4-BA)*%
X97500000Y-54210000D02*
X98740194Y-54209999D01*
%TO.N,Net-(U13-BA)*%
X108340000Y-54180000D02*
X109574047Y-54179999D01*
%TO.N,/ESP32/P_TX*%
X125939400Y-92919400D02*
X124460000Y-91440000D01*
X124460000Y-91440000D02*
X124460000Y-88900000D01*
X128060000Y-64210000D02*
X128060000Y-61549000D01*
X128060000Y-58525000D02*
X128060000Y-61549000D01*
X128230000Y-58355000D02*
X128060000Y-58525000D01*
X128270000Y-92260000D02*
X127610600Y-92919400D01*
X127610600Y-92919400D02*
X125939400Y-92919400D01*
X128270000Y-91440000D02*
X128270000Y-92260000D01*
%TO.N,/ESP32/P_RX*%
X126790000Y-64210000D02*
X126790000Y-61478000D01*
X122880817Y-86360000D02*
X121920000Y-86360000D01*
X127000000Y-90479183D02*
X122880817Y-86360000D01*
X124520000Y-61478000D02*
X124447000Y-61551000D01*
X126790000Y-61478000D02*
X124520000Y-61478000D01*
X126790000Y-61478000D02*
X126790000Y-58525000D01*
X127000000Y-91440000D02*
X127000000Y-90479183D01*
X126790000Y-58525000D02*
X126960000Y-58355000D01*
%TO.N,/ESP32/IO0*%
X126830000Y-56955000D02*
X126960000Y-57085000D01*
X125272800Y-122732800D02*
X125272800Y-107492800D01*
X132080000Y-91440000D02*
X132080000Y-90760600D01*
X122113000Y-68573000D02*
X121540700Y-68000700D01*
X127000000Y-88360000D02*
X128065800Y-89425800D01*
X125272800Y-107492800D02*
X121920000Y-104140000D01*
X117843700Y-68000700D02*
X116965817Y-67122817D01*
X116965817Y-66474000D02*
X115360000Y-64868183D01*
X130745200Y-89425800D02*
X132080000Y-90760600D01*
X121540700Y-68000700D02*
X117843700Y-68000700D01*
X126310000Y-55100000D02*
X126830000Y-55620000D01*
X115360000Y-64868183D02*
X115360000Y-64210000D01*
X124830000Y-55100000D02*
X126310000Y-55100000D01*
X127000000Y-124460000D02*
X125272800Y-122732800D01*
X126830000Y-55620000D02*
X126830000Y-56955000D01*
X127762000Y-124460000D02*
X127000000Y-124460000D01*
X116965817Y-67122817D02*
X116965817Y-66474000D01*
X127000000Y-87540000D02*
X127000000Y-88360000D01*
X128065800Y-89425800D02*
X130745200Y-89425800D01*
%TO.N,/ESP32/XIN32*%
X122980000Y-81119000D02*
X124019000Y-80080000D01*
X122980000Y-81710000D02*
X122980000Y-81119000D01*
%TO.N,Net-(U4-GA)*%
X97520000Y-55200000D02*
X98730194Y-55200000D01*
X98730194Y-55200000D02*
X98740194Y-55210000D01*
%TO.N,/ESP32/XOUT32*%
X121710000Y-81710000D02*
X121710000Y-80562000D01*
X121710000Y-80562000D02*
X121248000Y-80100000D01*
%TO.N,/Power/PGOOD*%
X109615000Y-74865000D02*
X108278900Y-73528900D01*
X114110000Y-74865000D02*
X109615000Y-74865000D01*
X108278900Y-73528900D02*
X108278900Y-71440000D01*
%TO.N,Net-(U13-GA)*%
X108320000Y-55170000D02*
X109564047Y-55170000D01*
X109564047Y-55170000D02*
X109574047Y-55180000D01*
%TO.N,Net-(U4-RA)*%
X98720195Y-56230000D02*
X98740194Y-56210001D01*
X97540000Y-56230000D02*
X98720195Y-56230000D01*
%TO.N,/ESP32/LEDX_B*%
X119170000Y-60650000D02*
X119170000Y-64210000D01*
X93950000Y-57520000D02*
X96147200Y-59717200D01*
X96147200Y-59717200D02*
X118237200Y-59717200D01*
X118237200Y-59717200D02*
X119170000Y-60650000D01*
%TO.N,Net-(U13-RA)*%
X108310000Y-56190000D02*
X109564048Y-56190000D01*
X109564048Y-56190000D02*
X109574047Y-56180001D01*
%TO.N,/ESP32/FAN_ALERT*%
X110193000Y-85328200D02*
X110193000Y-95570000D01*
X110833000Y-73588000D02*
X114103000Y-73588000D01*
X114802800Y-99135583D02*
X114802800Y-102102800D01*
X124866400Y-112166400D02*
X124866400Y-117750600D01*
X111108000Y-84413200D02*
X110193000Y-85328200D01*
X114802800Y-102102800D02*
X124866400Y-112166400D01*
X124866400Y-117750600D02*
X121867000Y-120750000D01*
X110497000Y-73924000D02*
X110833000Y-73588000D01*
X114103000Y-73588000D02*
X114110000Y-73595000D01*
X111448000Y-96825000D02*
X112492217Y-96825000D01*
X110193000Y-95570000D02*
X111448000Y-96825000D01*
X112492217Y-96825000D02*
X114802800Y-99135583D01*
X111108000Y-81876000D02*
X111108000Y-84413200D01*
%TO.N,/ESP32/LEDZ_B*%
X125272000Y-79918000D02*
X124250000Y-80940000D01*
X127918000Y-72643000D02*
X127918000Y-77938000D01*
X127091000Y-71816000D02*
X127918000Y-72643000D01*
X117734000Y-71816000D02*
X127091000Y-71816000D01*
X124250000Y-80940000D02*
X124250000Y-81710000D01*
X116044000Y-70126000D02*
X117734000Y-71816000D01*
X125938000Y-79918000D02*
X125272000Y-79918000D01*
X127918000Y-77938000D02*
X125938000Y-79918000D01*
%TO.N,/ESP32/LEDX_G*%
X94129945Y-58660055D02*
X95599890Y-60130000D01*
X117290000Y-60130000D02*
X117900000Y-60740000D01*
X95599890Y-60130000D02*
X117290000Y-60130000D01*
X117900000Y-60740000D02*
X117900000Y-64210000D01*
%TO.N,/ESP32/LEDZ_G*%
X125520000Y-80910736D02*
X125520000Y-81710000D01*
X127259336Y-71409600D02*
X128324400Y-72474664D01*
X117097000Y-70138000D02*
X118368600Y-71409600D01*
X128324400Y-72474664D02*
X128324400Y-78106336D01*
X118368600Y-71409600D02*
X127259336Y-71409600D01*
X128324400Y-78106336D02*
X125520000Y-80910736D01*
%TO.N,/BM1397/BM_BI*%
X119840000Y-115860000D02*
X115979183Y-115860000D01*
X115979183Y-115860000D02*
X115599183Y-116240000D01*
X112660000Y-102258944D02*
X121161457Y-110760401D01*
X121161457Y-114538543D02*
X119840000Y-115860000D01*
X112660000Y-100653600D02*
X112660000Y-102258944D01*
X115599183Y-116240000D02*
X109624600Y-116240000D01*
X121161457Y-110760401D02*
X121161457Y-114538543D01*
%TO.N,/SDA*%
X84410600Y-85410600D02*
X84410600Y-83519400D01*
X117403141Y-73987441D02*
X115322000Y-71906300D01*
X84410600Y-83519400D02*
X88050000Y-79880000D01*
X102959600Y-61790600D02*
X107600000Y-66431000D01*
X114110000Y-68515000D02*
X108256000Y-68515000D01*
X114913000Y-68515000D02*
X114110000Y-68515000D01*
X87570401Y-100249599D02*
X87570401Y-121525207D01*
X90357445Y-62412445D02*
X90357445Y-61868445D01*
X88500000Y-89140000D02*
X85090000Y-85730000D01*
X87570401Y-121525207D02*
X84702648Y-124392960D01*
X90357445Y-61868445D02*
X90279600Y-61790600D01*
X84730000Y-85730000D02*
X84410600Y-85410600D01*
X108256000Y-68515000D02*
X108222000Y-68481000D01*
X91500000Y-96320000D02*
X87570401Y-100249599D01*
X115322000Y-68924000D02*
X114913000Y-68515000D01*
X88050000Y-79880000D02*
X88050000Y-62670000D01*
X115322000Y-71906300D02*
X115322000Y-68924000D01*
X85090000Y-85730000D02*
X84730000Y-85730000D01*
X88929400Y-61790600D02*
X90279600Y-61790600D01*
X107600000Y-66431000D02*
X107600000Y-67859000D01*
X90279600Y-61790600D02*
X102959600Y-61790600D01*
X107600000Y-67859000D02*
X108222000Y-68481000D01*
X88050000Y-62670000D02*
X88929400Y-61790600D01*
X91500000Y-96290000D02*
X91500000Y-96240000D01*
X91500000Y-96240000D02*
X88500000Y-93240000D01*
X88500000Y-93240000D02*
X88500000Y-89140000D01*
X91500000Y-96290000D02*
X91500000Y-96320000D01*
%TO.N,/BM1397/BM_CLKI*%
X114720000Y-121260000D02*
X111620000Y-118160000D01*
X111620000Y-118160000D02*
X109624600Y-118160000D01*
X114720000Y-121640000D02*
X114720000Y-121260000D01*
%TO.N,/ESP32/LEDX_R*%
X94319890Y-59810110D02*
X95046180Y-60536400D01*
X95046180Y-60536400D02*
X115770000Y-60536400D01*
X115770000Y-60536400D02*
X116630000Y-61396400D01*
X116630000Y-61396400D02*
X116630000Y-64210000D01*
%TO.N,/ESP32/LEDZ_R*%
X128730800Y-72306328D02*
X128730800Y-78274672D01*
X118065584Y-70146474D02*
X118922310Y-71003200D01*
X127427672Y-71003200D02*
X128730800Y-72306328D01*
X128730800Y-78274672D02*
X126790000Y-80215472D01*
X126790000Y-80215472D02*
X126790000Y-81710000D01*
X118922310Y-71003200D02*
X127427672Y-71003200D01*
D37*
%TO.N,Net-(USB1-VBUS)*%
X127000000Y-101059998D02*
X129081999Y-101059998D01*
D36*
%TO.N,Net-(U12-GPIO19{slash}U1RTS{slash}ADC2_CH8{slash}CLK_OUT2{slash}USB_D-)*%
X116168400Y-83175600D02*
X112979136Y-83175600D01*
X116630000Y-81710000D02*
X116630000Y-82714000D01*
X128952600Y-101839398D02*
X129081999Y-101709999D01*
X116630000Y-82714000D02*
X116168400Y-83175600D01*
X112047368Y-84107368D02*
X112047368Y-88612632D01*
X125274134Y-101839398D02*
X128952600Y-101839398D01*
X112979136Y-83175600D02*
X112047368Y-84107368D01*
X112047368Y-88612632D02*
X125274134Y-101839398D01*
%TO.N,Net-(U12-GPIO20{slash}U1CTS{slash}ADC2_CH9{slash}CLK_OUT1{slash}USB_D+)*%
X111640968Y-88780968D02*
X111640968Y-83939032D01*
X129081999Y-102359998D02*
X125219998Y-102359998D01*
X113870000Y-81710000D02*
X115360000Y-81710000D01*
X125219998Y-102359998D02*
X111640968Y-88780968D01*
X111640968Y-83939032D02*
X113870000Y-81710000D01*
%TD*%
%TA.AperFunction,Conductor*%
%TO.N,GND*%
G36*
X105474613Y-68611487D02*
G01*
X105521187Y-68665072D01*
X105532635Y-68715521D01*
X105587982Y-72090776D01*
X105569100Y-72159216D01*
X105541983Y-72190200D01*
X101730600Y-75321400D01*
X101758932Y-82136342D01*
X101739213Y-82204545D01*
X101685751Y-82251261D01*
X101649380Y-82261788D01*
X101566264Y-82272731D01*
X101566259Y-82272732D01*
X101431770Y-82328440D01*
X101431763Y-82328444D01*
X101316267Y-82417067D01*
X101227644Y-82532563D01*
X101227640Y-82532570D01*
X101171932Y-82667059D01*
X101171930Y-82667064D01*
X101152929Y-82811399D01*
X101152929Y-82811400D01*
X101171930Y-82955734D01*
X101171931Y-82955736D01*
X101227643Y-83090236D01*
X101316267Y-83205733D01*
X101431764Y-83294357D01*
X101566264Y-83350069D01*
X101654989Y-83361749D01*
X101719916Y-83390471D01*
X101759008Y-83449736D01*
X101764542Y-83486147D01*
X101809470Y-94292615D01*
X101789751Y-94360818D01*
X101736289Y-94407534D01*
X101682617Y-94419136D01*
X94765614Y-94372247D01*
X94697630Y-94351784D01*
X94651502Y-94297814D01*
X94640468Y-94246385D01*
X94620600Y-75311400D01*
X92300400Y-72576526D01*
X92271584Y-72511643D01*
X92270482Y-72495348D01*
X92267144Y-71183600D01*
X94811129Y-71183600D01*
X94830130Y-71327934D01*
X94885842Y-71462434D01*
X94885844Y-71462437D01*
X94974468Y-71577934D01*
X95039603Y-71627913D01*
X95081471Y-71685251D01*
X95088900Y-71727876D01*
X95088899Y-73624697D01*
X95088295Y-73633408D01*
X95086782Y-73644258D01*
X95088833Y-73688625D01*
X95088900Y-73691535D01*
X95088900Y-73709535D01*
X95088901Y-73709546D01*
X95089294Y-73711651D01*
X95090297Y-73720308D01*
X95091614Y-73748789D01*
X95091615Y-73748793D01*
X95093730Y-73753583D01*
X95102316Y-73781308D01*
X95103280Y-73786463D01*
X95103280Y-73786464D01*
X95118290Y-73810705D01*
X95122364Y-73818433D01*
X95133883Y-73844520D01*
X95133884Y-73844522D01*
X95137583Y-73848221D01*
X95155616Y-73870987D01*
X95158369Y-73875433D01*
X95181131Y-73892622D01*
X95187706Y-73898344D01*
X95284125Y-73994763D01*
X95376018Y-74086656D01*
X95410044Y-74148968D01*
X95411845Y-74192196D01*
X95401128Y-74273598D01*
X95401129Y-74273601D01*
X95420130Y-74417934D01*
X95420131Y-74417936D01*
X95475843Y-74552436D01*
X95564467Y-74667933D01*
X95679964Y-74756557D01*
X95814464Y-74812269D01*
X95958800Y-74831271D01*
X96103136Y-74812269D01*
X96237636Y-74756557D01*
X96353133Y-74667933D01*
X96441757Y-74552436D01*
X96497469Y-74417936D01*
X96516471Y-74273600D01*
X96497469Y-74129264D01*
X96441757Y-73994765D01*
X96353133Y-73879267D01*
X96237636Y-73790643D01*
X96215100Y-73781308D01*
X96103134Y-73734930D01*
X95958801Y-73715929D01*
X95958798Y-73715929D01*
X95877396Y-73726645D01*
X95807247Y-73715705D01*
X95771856Y-73690818D01*
X95685605Y-73604567D01*
X95651579Y-73542255D01*
X95648700Y-73515472D01*
X95648700Y-71727876D01*
X95668702Y-71659755D01*
X95697997Y-71627913D01*
X95763133Y-71577933D01*
X95851757Y-71462436D01*
X95907469Y-71327936D01*
X95926471Y-71183600D01*
X95907469Y-71039264D01*
X95851757Y-70904765D01*
X95763133Y-70789267D01*
X95647636Y-70700643D01*
X95513139Y-70644932D01*
X95513134Y-70644930D01*
X95368800Y-70625929D01*
X95224464Y-70644930D01*
X95224459Y-70644932D01*
X95089970Y-70700640D01*
X95089963Y-70700644D01*
X94974467Y-70789267D01*
X94885844Y-70904763D01*
X94885840Y-70904770D01*
X94830132Y-71039259D01*
X94830130Y-71039264D01*
X94811129Y-71183599D01*
X94811129Y-71183600D01*
X92267144Y-71183600D01*
X92260920Y-68737526D01*
X92280749Y-68669358D01*
X92334286Y-68622729D01*
X92386725Y-68611209D01*
X105406462Y-68591587D01*
X105474613Y-68611487D01*
G37*
%TD.AperFunction*%
%TD*%
%TA.AperFunction,Conductor*%
%TO.N,/VDD*%
G36*
X108795955Y-86278076D02*
G01*
X108863756Y-86299132D01*
X108909411Y-86353502D01*
X108920000Y-86404061D01*
X108920000Y-112327361D01*
X108899998Y-112395482D01*
X108883096Y-112416456D01*
X108817092Y-112482460D01*
X108734332Y-112622399D01*
X108688970Y-112778534D01*
X108686100Y-112815009D01*
X108686101Y-112944990D01*
X108688970Y-112981461D01*
X108688971Y-112981467D01*
X108719005Y-113084847D01*
X108719005Y-113155150D01*
X108688971Y-113258529D01*
X108688970Y-113258535D01*
X108686100Y-113295009D01*
X108686101Y-113424990D01*
X108688970Y-113461461D01*
X108688971Y-113461467D01*
X108719005Y-113564847D01*
X108719005Y-113635150D01*
X108688971Y-113738529D01*
X108688970Y-113738535D01*
X108686100Y-113775009D01*
X108686101Y-113904990D01*
X108688970Y-113941461D01*
X108688971Y-113941467D01*
X108719005Y-114044847D01*
X108719005Y-114115150D01*
X108688971Y-114218529D01*
X108688970Y-114218535D01*
X108686100Y-114255009D01*
X108686100Y-114254000D01*
X108666098Y-114322121D01*
X108612442Y-114368614D01*
X108560100Y-114380000D01*
X102819899Y-114380000D01*
X102751778Y-114359998D01*
X102705285Y-114306342D01*
X102693899Y-114254000D01*
X102693899Y-114255010D01*
X102693819Y-114254000D01*
X102691029Y-114218535D01*
X102691029Y-114218534D01*
X102660993Y-114115149D01*
X102660993Y-114044849D01*
X102691029Y-113941466D01*
X102693900Y-113904989D01*
X102693899Y-113775012D01*
X102691029Y-113738534D01*
X102660993Y-113635149D01*
X102660993Y-113564849D01*
X102691029Y-113461466D01*
X102693900Y-113424989D01*
X102693899Y-113295012D01*
X102691029Y-113258534D01*
X102660993Y-113155149D01*
X102660993Y-113084849D01*
X102691029Y-112981466D01*
X102693900Y-112944989D01*
X102693899Y-112815012D01*
X102691029Y-112778534D01*
X102645669Y-112622404D01*
X102645667Y-112622402D01*
X102645667Y-112622399D01*
X102562907Y-112482460D01*
X102562901Y-112482453D01*
X102506905Y-112426457D01*
X102472879Y-112364145D01*
X102470000Y-112337362D01*
X102470000Y-86307968D01*
X102490002Y-86239847D01*
X102543658Y-86193354D01*
X102597949Y-86181983D01*
X108795955Y-86278076D01*
G37*
%TD.AperFunction*%
%TD*%
M02*
