%TF.GenerationSoftware,KiCad,Pcbnew,7.0.6-0*%
%TF.CreationDate,2023-08-11T12:33:22-04:00*%
%TF.ProjectId,bitaxeMax,62697461-7865-44d6-9178-2e6b69636164,rev?*%
%TF.SameCoordinates,Original*%
%TF.FileFunction,Copper,L3,Inr*%
%TF.FilePolarity,Positive*%
%FSLAX46Y46*%
G04 Gerber Fmt 4.6, Leading zero omitted, Abs format (unit mm)*
G04 Created by KiCad (PCBNEW 7.0.6-0) date 2023-08-11 12:33:22*
%MOMM*%
%LPD*%
G01*
G04 APERTURE LIST*
%TA.AperFunction,ComponentPad*%
%ADD10O,1.700000X1.700000*%
%TD*%
%TA.AperFunction,ComponentPad*%
%ADD11C,0.500000*%
%TD*%
%TA.AperFunction,ComponentPad*%
%ADD12C,0.700000*%
%TD*%
%TA.AperFunction,ComponentPad*%
%ADD13C,4.400000*%
%TD*%
%TA.AperFunction,ComponentPad*%
%ADD14C,0.400000*%
%TD*%
%TA.AperFunction,ComponentPad*%
%ADD15C,1.574800*%
%TD*%
%TA.AperFunction,ComponentPad*%
%ADD16R,1.700000X1.700000*%
%TD*%
%TA.AperFunction,ComponentPad*%
%ADD17C,2.520000*%
%TD*%
%TA.AperFunction,ComponentPad*%
%ADD18O,1.600200X0.914400*%
%TD*%
%TA.AperFunction,ViaPad*%
%ADD19C,0.800000*%
%TD*%
%TA.AperFunction,ViaPad*%
%ADD20C,1.000000*%
%TD*%
%TA.AperFunction,ViaPad*%
%ADD21C,1.200000*%
%TD*%
%TA.AperFunction,Conductor*%
%ADD22C,0.508000*%
%TD*%
%TA.AperFunction,Conductor*%
%ADD23C,1.500000*%
%TD*%
%TA.AperFunction,Conductor*%
%ADD24C,1.000000*%
%TD*%
%TA.AperFunction,Conductor*%
%ADD25C,0.254000*%
%TD*%
G04 APERTURE END LIST*
D10*
%TO.N,GND*%
%TO.C,*%
X80110000Y-55129000D03*
%TD*%
D11*
%TO.N,GND*%
%TO.C,U2*%
X116830000Y-99283600D03*
X116830000Y-100283600D03*
X115830000Y-100283600D03*
X115830000Y-99283600D03*
%TD*%
D12*
%TO.N,N/C*%
%TO.C,H4*%
X78337000Y-50603000D03*
X78820274Y-49436274D03*
X78820274Y-51769726D03*
X79987000Y-48953000D03*
D13*
X79987000Y-50603000D03*
D12*
X79987000Y-52253000D03*
X81153726Y-49436274D03*
X81153726Y-51769726D03*
X81637000Y-50603000D03*
%TD*%
%TO.N,N/C*%
%TO.C,H3*%
X129330000Y-144470000D03*
X129813274Y-143303274D03*
X129813274Y-145636726D03*
X130980000Y-142820000D03*
D13*
X130980000Y-144470000D03*
D12*
X130980000Y-146120000D03*
X132146726Y-143303274D03*
X132146726Y-145636726D03*
X132630000Y-144470000D03*
%TD*%
%TO.N,N/C*%
%TO.C,H2*%
X129033000Y-50604000D03*
X129516274Y-49437274D03*
X129516274Y-51770726D03*
X130683000Y-48954000D03*
D13*
X130683000Y-50604000D03*
D12*
X130683000Y-52254000D03*
X131849726Y-49437274D03*
X131849726Y-51770726D03*
X132333000Y-50604000D03*
%TD*%
%TO.N,N/C*%
%TO.C,H1*%
X78370000Y-144380000D03*
X78853274Y-143213274D03*
X78853274Y-145546726D03*
X80020000Y-142730000D03*
D13*
X80020000Y-144380000D03*
D12*
X80020000Y-146030000D03*
X81186726Y-143213274D03*
X81186726Y-145546726D03*
X81670000Y-144380000D03*
%TD*%
D14*
%TO.N,GND*%
%TO.C,U9*%
X98201691Y-68847200D03*
X99151691Y-69422200D03*
X97251691Y-69422200D03*
X98201691Y-69997200D03*
%TD*%
D10*
%TO.N,/Power/VIN*%
%TO.C,*%
X80110000Y-57669000D03*
%TD*%
D15*
%TO.N,GND*%
%TO.C,J4*%
X89621000Y-143622000D03*
%TO.N,/5V*%
X92161000Y-143622000D03*
%TO.N,/Fan/FAN_TACH*%
X94701000Y-143622000D03*
%TO.N,/Fan/FAN_PWM*%
X97241000Y-143622000D03*
%TD*%
D16*
%TO.N,GND*%
%TO.C,J9*%
X84859000Y-50049000D03*
D10*
%TO.N,/3V3*%
X84859000Y-52589000D03*
%TO.N,/SCL*%
X84859000Y-55129000D03*
%TO.N,/SDA*%
X84859000Y-57669000D03*
%TD*%
D17*
%TO.N,GND*%
%TO.C,J2*%
X85190000Y-63390000D03*
X80110000Y-63390000D03*
%TD*%
%TO.N,/Power/VIN*%
%TO.C,J1*%
X85190000Y-70810000D03*
X80110000Y-70810000D03*
%TD*%
D16*
%TO.N,/BI*%
%TO.C,J6*%
X101626000Y-49799000D03*
D10*
%TO.N,/RST*%
X104166000Y-49799000D03*
%TO.N,/RX*%
X106706000Y-49799000D03*
%TO.N,/TX*%
X109246000Y-49799000D03*
%TO.N,/SDA*%
X111786000Y-49799000D03*
%TO.N,/SCL*%
X114326000Y-49799000D03*
%TO.N,/3V3*%
X116866000Y-49799000D03*
%TO.N,GND*%
X119406000Y-49799000D03*
%TD*%
D16*
%TO.N,/Power/VIN*%
%TO.C,J7*%
X83000000Y-76540000D03*
D10*
%TO.N,/5V*%
X85540000Y-76540000D03*
%TD*%
D16*
%TO.N,/BM1397/1V8*%
%TO.C,J3*%
X109350000Y-143580000D03*
D10*
%TO.N,/BM1397/CI*%
X111890000Y-143580000D03*
%TO.N,/BM1397/RO*%
X114430000Y-143580000D03*
%TO.N,/BM1397/RST_N*%
X116970000Y-143580000D03*
%TO.N,GND*%
X119510000Y-143580000D03*
%TD*%
D18*
%TO.N,N/C*%
%TO.C,USB1*%
X131737000Y-99060000D03*
X131737000Y-105659996D03*
%TD*%
D19*
%TO.N,GND*%
X103110000Y-115590000D03*
X97830000Y-111040000D03*
X80410000Y-139600000D03*
D20*
X127000000Y-105559999D03*
D19*
X78090000Y-82060000D03*
X100850600Y-73131400D03*
X103110000Y-116950000D03*
X116910000Y-128990000D03*
X104630000Y-119670000D03*
D20*
X126719000Y-75842000D03*
X127000000Y-103659998D03*
D19*
X97320000Y-93500000D03*
X131300000Y-62500000D03*
X112980000Y-131260000D03*
X108120000Y-119660000D03*
X97320000Y-87878600D03*
X100580000Y-87270000D03*
X97320000Y-84830000D03*
X98860000Y-84830000D03*
X114230000Y-55160000D03*
X104630000Y-115590000D03*
X98682000Y-136516000D03*
X98860000Y-93500000D03*
X106450000Y-116920000D03*
X128120000Y-55550000D03*
X113540000Y-111040000D03*
X95400600Y-69431400D03*
X106450000Y-119640000D03*
D20*
X100765000Y-145890000D03*
D19*
X94890000Y-62470000D03*
X97320000Y-86310000D03*
X106450000Y-118280000D03*
X80660000Y-87760000D03*
X97320000Y-89650000D03*
X132080000Y-120380000D03*
D20*
X126719000Y-74372000D03*
D19*
X103110000Y-119670000D03*
X90360055Y-101249945D03*
X88908900Y-138550000D03*
X98860000Y-91520000D03*
X117730000Y-123190000D03*
X104630000Y-118310000D03*
X121210000Y-74547000D03*
X120110000Y-117300000D03*
X98860000Y-86310000D03*
X97320000Y-91520000D03*
X102570000Y-57250000D03*
X87764000Y-129341000D03*
X115749000Y-66446000D03*
X113410000Y-96043600D03*
X112512000Y-61250000D03*
X106450000Y-115560000D03*
X95110000Y-129400000D03*
X98860000Y-89650000D03*
X104630000Y-116950000D03*
X86970000Y-82770000D03*
D20*
X126719000Y-73012000D03*
D19*
X105330000Y-132320000D03*
X104430000Y-130240000D03*
X108120000Y-115580000D03*
D20*
X132450000Y-84290000D03*
D19*
X124308576Y-108035637D03*
X108120000Y-118300000D03*
X108120000Y-116940000D03*
X98860000Y-87878600D03*
X103110000Y-118310000D03*
X116274100Y-101933600D03*
X83001194Y-129118806D03*
X96840000Y-98140000D03*
X92910000Y-102990000D03*
D20*
X127000000Y-99060000D03*
D19*
X100580000Y-85521400D03*
%TO.N,/BM1397/1V8*%
X116260000Y-97313600D03*
X119760000Y-127770000D03*
X117940000Y-102413600D03*
X112130000Y-127390000D03*
X111380000Y-123250000D03*
X98320000Y-123300000D03*
%TO.N,/BM1397/0V8*%
X111240000Y-124400000D03*
X97650000Y-124350000D03*
X102260000Y-123530000D03*
X103530000Y-127490000D03*
%TO.N,/VDD*%
X110361000Y-82986000D03*
X115517000Y-67970000D03*
X103000000Y-104240000D03*
X105152000Y-113890000D03*
D21*
X107870000Y-90540000D03*
X107910000Y-92670000D03*
D19*
X104126000Y-113110000D03*
X108330000Y-104270000D03*
X108230000Y-113150000D03*
X103100000Y-113900000D03*
X103000000Y-62838100D03*
X107204000Y-113920000D03*
D21*
X107910000Y-94640000D03*
D19*
X106178000Y-113110000D03*
D21*
X105880000Y-90540000D03*
X105880000Y-88500000D03*
X107850000Y-88520000D03*
X105930000Y-94670000D03*
X105900000Y-92650000D03*
D19*
%TO.N,/ESP32/EN*%
X127000000Y-114300000D03*
X132665000Y-68760000D03*
X124460000Y-99060000D03*
%TO.N,/5V*%
X85750000Y-131200000D03*
X100470000Y-66770000D03*
X93869000Y-136167000D03*
X87748000Y-131214000D03*
X119380000Y-91440000D03*
D21*
X109323000Y-63360000D03*
D19*
X98450000Y-131200000D03*
%TO.N,/3V3*%
X115457000Y-62413000D03*
X115060000Y-96153600D03*
X129610000Y-55490000D03*
D20*
X129310000Y-83980000D03*
D19*
X115840000Y-79945000D03*
X110536000Y-72864000D03*
X131744000Y-76848000D03*
X98662000Y-137914100D03*
X116600000Y-96213600D03*
X83700000Y-87750000D03*
X80676100Y-129980000D03*
X82880000Y-132350000D03*
X94100000Y-97190000D03*
X132080000Y-111760000D03*
X82990000Y-85090000D03*
%TO.N,/TX*%
X115412000Y-84554000D03*
%TO.N,/RX*%
X113836000Y-83855000D03*
%TO.N,/BM1397/RST_N*%
X112070000Y-99853600D03*
X116190000Y-116610000D03*
%TO.N,/BM1397/CI*%
X121880000Y-119600000D03*
X112020000Y-98843600D03*
%TO.N,/RST*%
X120676000Y-54726000D03*
X121437000Y-70037900D03*
%TO.N,/BM1397/RO*%
X112870000Y-98163600D03*
X121859000Y-118519000D03*
%TO.N,/TEMP_N*%
X97340000Y-118490000D03*
%TO.N,/TEMP_P*%
X96203000Y-118495000D03*
%TO.N,/SCL*%
X120743000Y-68680100D03*
X85120000Y-86810000D03*
X90390000Y-96230000D03*
X84010000Y-123740000D03*
%TO.N,/Power/OUT0*%
X91440000Y-95040000D03*
X89730000Y-75310000D03*
%TO.N,Net-(IC1-VDD1_0)*%
X115070000Y-111160000D03*
%TO.N,Net-(IC1-VDD2_0)*%
X112530000Y-107800000D03*
%TO.N,Net-(IC1-VDD3_0)*%
X111250000Y-106010000D03*
%TO.N,Net-(IC1-VDD3_1)*%
X100180000Y-106040000D03*
%TO.N,Net-(IC1-VDD2_1)*%
X98850000Y-107880000D03*
%TO.N,Net-(IC1-VDD1_1)*%
X96130000Y-110920000D03*
%TO.N,Net-(U9-BOOT)*%
X95368800Y-71183600D03*
X95958800Y-74273600D03*
%TO.N,Net-(IC1-ADDR0)*%
X118380000Y-109220000D03*
%TO.N,Net-(IC1-ADDR1)*%
X119780000Y-111630000D03*
%TO.N,Net-(IC1-ADDR2)*%
X119790000Y-114060000D03*
%TO.N,Net-(IC1-RO)*%
X114800000Y-117880000D03*
%TO.N,Net-(IC1-CI)*%
X114690000Y-119230000D03*
%TO.N,Net-(IC1-PIN_MODE)*%
X89540000Y-125970000D03*
%TO.N,Net-(IC1-CLKO)*%
X97500000Y-116660000D03*
%TO.N,Net-(IC1-CO)*%
X96180000Y-115958900D03*
%TO.N,Net-(IC1-RI)*%
X96360000Y-120670000D03*
%TO.N,Net-(IC1-NRSTO)*%
X94099000Y-112195000D03*
%TO.N,Net-(IC1-BO)*%
X95116000Y-111529000D03*
%TO.N,/BI*%
X117717100Y-76139000D03*
X115546000Y-76073000D03*
%TO.N,Net-(Q2-G)*%
X101710600Y-82811400D03*
X102700000Y-75260000D03*
%TO.N,Net-(U4-BA)*%
X97500000Y-54210000D03*
%TO.N,Net-(U13-BA)*%
X108340000Y-54180000D03*
%TO.N,/ESP32/P_TX*%
X124460000Y-88900000D03*
X128060000Y-61549000D03*
%TO.N,/ESP32/P_RX*%
X124447000Y-61551000D03*
X121920000Y-86360000D03*
%TO.N,/ESP32/IO0*%
X132080000Y-91440000D03*
X124830000Y-55100000D03*
X121920000Y-104140000D03*
X122113000Y-68573000D03*
%TO.N,/ESP32/XIN32*%
X124019000Y-80080000D03*
%TO.N,Net-(U4-GA)*%
X97520000Y-55200000D03*
%TO.N,/ESP32/XOUT32*%
X121248000Y-80100000D03*
%TO.N,/Power/PGOOD*%
X108278900Y-71440000D03*
%TO.N,Net-(U13-GA)*%
X108320000Y-55170000D03*
%TO.N,Net-(U4-RA)*%
X97540000Y-56230000D03*
%TO.N,/ESP32/LEDX_B*%
X93950000Y-57520000D03*
%TO.N,Net-(U13-RA)*%
X108310000Y-56190000D03*
%TO.N,/ESP32/FAN_ALERT*%
X111108000Y-81876000D03*
X121867000Y-120750000D03*
X110497000Y-73924000D03*
%TO.N,/ESP32/LEDZ_B*%
X116044000Y-70126000D03*
%TO.N,/ESP32/LEDX_G*%
X94129945Y-58660055D03*
%TO.N,/ESP32/LEDZ_G*%
X117097000Y-70138000D03*
%TO.N,/BM1397/BM_BI*%
X112660000Y-100653600D03*
%TO.N,/SDA*%
X84702648Y-124392960D03*
X117403141Y-73987441D03*
X84730000Y-85730000D03*
X91500000Y-96290000D03*
X90357445Y-62412445D03*
%TO.N,/BM1397/BM_CLKI*%
X114720000Y-121640000D03*
%TO.N,/ESP32/LEDX_R*%
X94319890Y-59810110D03*
%TO.N,/ESP32/LEDZ_R*%
X118065584Y-70146474D03*
D20*
%TO.N,Net-(USB1-VBUS)*%
X127000000Y-101059998D03*
%TD*%
D22*
%TO.N,/Power/VIN*%
X79491000Y-57669000D02*
X78070600Y-59089400D01*
X78070600Y-68770600D02*
X80110000Y-70810000D01*
X80110000Y-57669000D02*
X79491000Y-57669000D01*
X78070600Y-59089400D02*
X78070600Y-68770600D01*
%TO.N,/5V*%
X98450000Y-131200000D02*
X85750000Y-131200000D01*
D23*
X85540000Y-76540000D02*
X88470000Y-73610000D01*
X85737000Y-134922000D02*
X80505000Y-134922000D01*
X92161000Y-143622000D02*
X92207000Y-143576000D01*
D22*
X109323000Y-63360000D02*
X109220000Y-63463000D01*
D24*
X100490000Y-66750000D02*
X100490000Y-64140000D01*
D23*
X92207000Y-138468000D02*
X88661000Y-134922000D01*
D22*
X109220000Y-86360000D02*
X114300000Y-91440000D01*
D24*
X100470000Y-66770000D02*
X100490000Y-66750000D01*
D22*
X109220000Y-63463000D02*
X109220000Y-86360000D01*
D23*
X85737000Y-134922000D02*
X85737000Y-131213000D01*
X85737000Y-131213000D02*
X85750000Y-131200000D01*
X100490000Y-64140000D02*
X108543000Y-64140000D01*
X80505000Y-134922000D02*
X80501000Y-134926000D01*
D22*
X114300000Y-91440000D02*
X119380000Y-91440000D01*
D23*
X79035000Y-133460000D02*
X80501000Y-134926000D01*
X85540000Y-79838000D02*
X79035000Y-86343000D01*
X85540000Y-76540000D02*
X85540000Y-79838000D01*
X92207000Y-143576000D02*
X92207000Y-138468000D01*
X88470000Y-73610000D02*
X88470000Y-68240000D01*
X88661000Y-134922000D02*
X85737000Y-134922000D01*
D25*
X100470000Y-66770000D02*
X100270000Y-66970000D01*
D23*
X88470000Y-68240000D02*
X92570000Y-64140000D01*
X79035000Y-86343000D02*
X79035000Y-133460000D01*
X108543000Y-64140000D02*
X109323000Y-63360000D01*
X92570000Y-64140000D02*
X100490000Y-64140000D01*
D25*
%TO.N,/3V3*%
X116866000Y-49799000D02*
X118133000Y-51066000D01*
X116866000Y-49799000D02*
X115549000Y-51116000D01*
D23*
X115673000Y-52589000D02*
X116409000Y-52589000D01*
X84859000Y-52589000D02*
X115673000Y-52589000D01*
X116409000Y-52589000D02*
X116652000Y-52346000D01*
D25*
X118133000Y-51291000D02*
X117078000Y-52346000D01*
X118133000Y-51066000D02*
X118133000Y-51291000D01*
X117078000Y-52346000D02*
X116652000Y-52346000D01*
X115549000Y-51116000D02*
X115549000Y-51167000D01*
%TD*%
%TA.AperFunction,Conductor*%
%TO.N,/3V3*%
G36*
X128037089Y-49680002D02*
G01*
X128083582Y-49733658D01*
X128093686Y-49803932D01*
X128089263Y-49823486D01*
X128048396Y-49954631D01*
X127989333Y-50276929D01*
X127989332Y-50276932D01*
X127969549Y-50603998D01*
X127969549Y-50604001D01*
X127989332Y-50931067D01*
X127989333Y-50931070D01*
X128048396Y-51253370D01*
X128145880Y-51566207D01*
X128280356Y-51865003D01*
X128449871Y-52145412D01*
X128449873Y-52145415D01*
X128449874Y-52145416D01*
X128632997Y-52379156D01*
X128651954Y-52403352D01*
X128651959Y-52403358D01*
X128883641Y-52635040D01*
X128883647Y-52635045D01*
X128883649Y-52635047D01*
X128916634Y-52660889D01*
X129141587Y-52837128D01*
X129421996Y-53006643D01*
X129720792Y-53141119D01*
X129720793Y-53141119D01*
X129720797Y-53141121D01*
X130033629Y-53238603D01*
X130355930Y-53297667D01*
X130573976Y-53310856D01*
X130682999Y-53317451D01*
X130683000Y-53317451D01*
X130683001Y-53317451D01*
X130764767Y-53312504D01*
X131010070Y-53297667D01*
X131332371Y-53238603D01*
X131645203Y-53141121D01*
X131724819Y-53105288D01*
X131944003Y-53006643D01*
X132087661Y-52919798D01*
X132224416Y-52837126D01*
X132482351Y-52635047D01*
X132714047Y-52403351D01*
X132916126Y-52145416D01*
X133085642Y-51865004D01*
X133085643Y-51865003D01*
X133220119Y-51566207D01*
X133220121Y-51566203D01*
X133317603Y-51253371D01*
X133376667Y-50931070D01*
X133396451Y-50604000D01*
X133376667Y-50276930D01*
X133317603Y-49954629D01*
X133276736Y-49823484D01*
X133275567Y-49752499D01*
X133312962Y-49692148D01*
X133377048Y-49661595D01*
X133397032Y-49660000D01*
X133593500Y-49660000D01*
X133661621Y-49680002D01*
X133708114Y-49733658D01*
X133719500Y-49786000D01*
X133719500Y-68299210D01*
X133699498Y-68367331D01*
X133645842Y-68413824D01*
X133575568Y-68423928D01*
X133510988Y-68394434D01*
X133484381Y-68362210D01*
X133404041Y-68223058D01*
X133404034Y-68223048D01*
X133276255Y-68081135D01*
X133121752Y-67968882D01*
X132947288Y-67891206D01*
X132760487Y-67851500D01*
X132569513Y-67851500D01*
X132382711Y-67891206D01*
X132208247Y-67968882D01*
X132053744Y-68081135D01*
X131925965Y-68223048D01*
X131925958Y-68223058D01*
X131830476Y-68388438D01*
X131830473Y-68388444D01*
X131815999Y-68432986D01*
X131771457Y-68570072D01*
X131751496Y-68760000D01*
X131771457Y-68949927D01*
X131794541Y-69020969D01*
X131830473Y-69131556D01*
X131830476Y-69131561D01*
X131925958Y-69296941D01*
X131925965Y-69296951D01*
X132053744Y-69438864D01*
X132112427Y-69481500D01*
X132208248Y-69551118D01*
X132382712Y-69628794D01*
X132569513Y-69668500D01*
X132760487Y-69668500D01*
X132947288Y-69628794D01*
X133121752Y-69551118D01*
X133276253Y-69438866D01*
X133276255Y-69438864D01*
X133404034Y-69296951D01*
X133404035Y-69296949D01*
X133404040Y-69296944D01*
X133484381Y-69157788D01*
X133535763Y-69108796D01*
X133605477Y-69095360D01*
X133671388Y-69121746D01*
X133712570Y-69179578D01*
X133719500Y-69220789D01*
X133719500Y-143370495D01*
X133699498Y-143438616D01*
X133645842Y-143485109D01*
X133575568Y-143495213D01*
X133510988Y-143465719D01*
X133478601Y-143422207D01*
X133382643Y-143208997D01*
X133213128Y-142928587D01*
X133210107Y-142924731D01*
X133011047Y-142670649D01*
X133011045Y-142670647D01*
X133011040Y-142670641D01*
X132779358Y-142438959D01*
X132779352Y-142438954D01*
X132779169Y-142438811D01*
X132521416Y-142236874D01*
X132521415Y-142236873D01*
X132521412Y-142236871D01*
X132241003Y-142067356D01*
X131942207Y-141932880D01*
X131629370Y-141835396D01*
X131307070Y-141776333D01*
X131307067Y-141776332D01*
X130980001Y-141756549D01*
X130979999Y-141756549D01*
X130652932Y-141776332D01*
X130652929Y-141776333D01*
X130330629Y-141835396D01*
X130017792Y-141932880D01*
X129718996Y-142067356D01*
X129438587Y-142236871D01*
X129180647Y-142438954D01*
X129180641Y-142438959D01*
X128948959Y-142670641D01*
X128948954Y-142670647D01*
X128746871Y-142928587D01*
X128577356Y-143208996D01*
X128442880Y-143507792D01*
X128345396Y-143820629D01*
X128286333Y-144142929D01*
X128286332Y-144142932D01*
X128266549Y-144469998D01*
X128266549Y-144470001D01*
X128286332Y-144797067D01*
X128286333Y-144797070D01*
X128345396Y-145119370D01*
X128442880Y-145432207D01*
X128577356Y-145731003D01*
X128746871Y-146011412D01*
X128746873Y-146011415D01*
X128746874Y-146011416D01*
X128920927Y-146233579D01*
X128948954Y-146269352D01*
X128948959Y-146269358D01*
X129180641Y-146501040D01*
X129180647Y-146501045D01*
X129180649Y-146501047D01*
X129410649Y-146681240D01*
X129438587Y-146703128D01*
X129718996Y-146872643D01*
X130017789Y-147007118D01*
X130017793Y-147007119D01*
X130017797Y-147007121D01*
X130101506Y-147033205D01*
X130160590Y-147072568D01*
X130189015Y-147137626D01*
X130177755Y-147207724D01*
X130130384Y-147260606D01*
X130064019Y-147279500D01*
X80610444Y-147279500D01*
X80542323Y-147259498D01*
X80495830Y-147205842D01*
X80485726Y-147135568D01*
X80515220Y-147070988D01*
X80574946Y-147032604D01*
X80587732Y-147029564D01*
X80607889Y-147025869D01*
X80669371Y-147014603D01*
X80982203Y-146917121D01*
X81069502Y-146877831D01*
X81281003Y-146782643D01*
X81474923Y-146665413D01*
X81561416Y-146613126D01*
X81819351Y-146411047D01*
X82051047Y-146179351D01*
X82253126Y-145921416D01*
X82368235Y-145731004D01*
X82422643Y-145641003D01*
X82557119Y-145342207D01*
X82557121Y-145342203D01*
X82654603Y-145029371D01*
X82713667Y-144707070D01*
X82733451Y-144380000D01*
X82713667Y-144052930D01*
X82654603Y-143730629D01*
X82557121Y-143417797D01*
X82557119Y-143417792D01*
X82422643Y-143118996D01*
X82253128Y-142838587D01*
X82211796Y-142785830D01*
X82051047Y-142580649D01*
X82051045Y-142580647D01*
X82051040Y-142580641D01*
X81819358Y-142348959D01*
X81819352Y-142348954D01*
X81809088Y-142340913D01*
X81561416Y-142146874D01*
X81561415Y-142146873D01*
X81561412Y-142146871D01*
X81281003Y-141977356D01*
X80982207Y-141842880D01*
X80669370Y-141745396D01*
X80347070Y-141686333D01*
X80347067Y-141686332D01*
X80020001Y-141666549D01*
X80019999Y-141666549D01*
X79692932Y-141686332D01*
X79692929Y-141686333D01*
X79370629Y-141745396D01*
X79057792Y-141842880D01*
X78758996Y-141977356D01*
X78478587Y-142146871D01*
X78220647Y-142348954D01*
X78220641Y-142348959D01*
X77988959Y-142580641D01*
X77988954Y-142580647D01*
X77786871Y-142838587D01*
X77617356Y-143118996D01*
X77482881Y-143417789D01*
X77436795Y-143565687D01*
X77397432Y-143624772D01*
X77332374Y-143653197D01*
X77262276Y-143641937D01*
X77209394Y-143594566D01*
X77190500Y-143528201D01*
X77190500Y-139600000D01*
X79496496Y-139600000D01*
X79516457Y-139789927D01*
X79546526Y-139882470D01*
X79575473Y-139971556D01*
X79575476Y-139971561D01*
X79670958Y-140136941D01*
X79670965Y-140136951D01*
X79798744Y-140278864D01*
X79798747Y-140278866D01*
X79953248Y-140391118D01*
X80127712Y-140468794D01*
X80314513Y-140508500D01*
X80505487Y-140508500D01*
X80692288Y-140468794D01*
X80866752Y-140391118D01*
X81021253Y-140278866D01*
X81149040Y-140136944D01*
X81244527Y-139971556D01*
X81303542Y-139789928D01*
X81323504Y-139600000D01*
X81303542Y-139410072D01*
X81244527Y-139228444D01*
X81149040Y-139063056D01*
X81149038Y-139063054D01*
X81149034Y-139063048D01*
X81021255Y-138921135D01*
X80866752Y-138808882D01*
X80692288Y-138731206D01*
X80505487Y-138691500D01*
X80314513Y-138691500D01*
X80127711Y-138731206D01*
X79953247Y-138808882D01*
X79798744Y-138921135D01*
X79670965Y-139063048D01*
X79670958Y-139063058D01*
X79575476Y-139228438D01*
X79575473Y-139228445D01*
X79516457Y-139410072D01*
X79496496Y-139600000D01*
X77190500Y-139600000D01*
X77190500Y-84436000D01*
X77210502Y-84367879D01*
X77264158Y-84321386D01*
X77316500Y-84310000D01*
X78984021Y-84310000D01*
X79052142Y-84330002D01*
X79098635Y-84383658D01*
X79108739Y-84453932D01*
X79079245Y-84518512D01*
X79073129Y-84525081D01*
X78613755Y-84984456D01*
X78197585Y-85400626D01*
X78192314Y-85405337D01*
X78161779Y-85429687D01*
X78116540Y-85481468D01*
X78113649Y-85484561D01*
X78105141Y-85493069D01*
X78077959Y-85525629D01*
X78012736Y-85600282D01*
X78012734Y-85600285D01*
X78010526Y-85603981D01*
X77999098Y-85620087D01*
X77996330Y-85623405D01*
X77996329Y-85623406D01*
X77947396Y-85709642D01*
X77896551Y-85794742D01*
X77896546Y-85794752D01*
X77895029Y-85798794D01*
X77886665Y-85816671D01*
X77884536Y-85820424D01*
X77884532Y-85820432D01*
X77851789Y-85914007D01*
X77816950Y-86006832D01*
X77816948Y-86006841D01*
X77816179Y-86011080D01*
X77811138Y-86030180D01*
X77809714Y-86034248D01*
X77809712Y-86034256D01*
X77794201Y-86132182D01*
X77776500Y-86229729D01*
X77776500Y-86234034D01*
X77774949Y-86253743D01*
X77774275Y-86257995D01*
X77774275Y-86258002D01*
X77776500Y-86357136D01*
X77776500Y-133385779D01*
X77776104Y-133392837D01*
X77771731Y-133431647D01*
X77776357Y-133500269D01*
X77776500Y-133504507D01*
X77776500Y-133516528D01*
X77780300Y-133558755D01*
X77786969Y-133657661D01*
X77786969Y-133657663D01*
X77786970Y-133657668D01*
X77788023Y-133661849D01*
X77791331Y-133681318D01*
X77791718Y-133685620D01*
X77818095Y-133781194D01*
X77842321Y-133877337D01*
X77842321Y-133877338D01*
X77844103Y-133881260D01*
X77850842Y-133899848D01*
X77851985Y-133903990D01*
X77851986Y-133903994D01*
X77894999Y-133993311D01*
X77935320Y-134082081D01*
X77936006Y-134083590D01*
X77936700Y-134084591D01*
X77938455Y-134087124D01*
X77948405Y-134104211D01*
X77950271Y-134108087D01*
X78008554Y-134188306D01*
X78065011Y-134269798D01*
X78065023Y-134269812D01*
X78068055Y-134272844D01*
X78080891Y-134287871D01*
X78083426Y-134291360D01*
X78083429Y-134291363D01*
X78155092Y-134359880D01*
X79590147Y-135794935D01*
X79592074Y-135796951D01*
X79648495Y-135858678D01*
X79715035Y-135909341D01*
X79717199Y-135911066D01*
X79740135Y-135930215D01*
X79781395Y-135964663D01*
X79781400Y-135964666D01*
X79781406Y-135964671D01*
X79802434Y-135976602D01*
X79809501Y-135981267D01*
X79823377Y-135991832D01*
X79828733Y-135995911D01*
X79903228Y-136033868D01*
X79905694Y-136035194D01*
X79978433Y-136076468D01*
X80001250Y-136084451D01*
X80009040Y-136087781D01*
X80030575Y-136098754D01*
X80082639Y-136114387D01*
X80110646Y-136122798D01*
X80113335Y-136123672D01*
X80160888Y-136140311D01*
X80192251Y-136151286D01*
X80192252Y-136151286D01*
X80192254Y-136151287D01*
X80216135Y-136155069D01*
X80224386Y-136156952D01*
X80247538Y-136163905D01*
X80304331Y-136170304D01*
X80330616Y-136173266D01*
X80333412Y-136173644D01*
X80416000Y-136186725D01*
X80440175Y-136186182D01*
X80448620Y-136186561D01*
X80472648Y-136189269D01*
X80556126Y-136183639D01*
X80558820Y-136183518D01*
X80642476Y-136181642D01*
X80642486Y-136181639D01*
X80649096Y-136180896D01*
X80656153Y-136180500D01*
X85623733Y-136180500D01*
X85707337Y-136180500D01*
X85710137Y-136180562D01*
X85793691Y-136184315D01*
X85807719Y-136182414D01*
X85817644Y-136181071D01*
X85826109Y-136180500D01*
X88087522Y-136180500D01*
X88155643Y-136200502D01*
X88176617Y-136217405D01*
X89522794Y-137563582D01*
X89556820Y-137625894D01*
X89551755Y-137696709D01*
X89509208Y-137753545D01*
X89442688Y-137778356D01*
X89373314Y-137763265D01*
X89370697Y-137761795D01*
X89365653Y-137758883D01*
X89365652Y-137758882D01*
X89191188Y-137681206D01*
X89004387Y-137641500D01*
X88813413Y-137641500D01*
X88626611Y-137681206D01*
X88452147Y-137758882D01*
X88297644Y-137871135D01*
X88169865Y-138013048D01*
X88169858Y-138013058D01*
X88074376Y-138178438D01*
X88074373Y-138178445D01*
X88015357Y-138360072D01*
X87995396Y-138550000D01*
X88015357Y-138739927D01*
X88037763Y-138808882D01*
X88074373Y-138921556D01*
X88074376Y-138921561D01*
X88169858Y-139086941D01*
X88169865Y-139086951D01*
X88297644Y-139228864D01*
X88297647Y-139228866D01*
X88452148Y-139341118D01*
X88626612Y-139418794D01*
X88813413Y-139458500D01*
X89004387Y-139458500D01*
X89191188Y-139418794D01*
X89365652Y-139341118D01*
X89520153Y-139228866D01*
X89520533Y-139228444D01*
X89647934Y-139086951D01*
X89647935Y-139086949D01*
X89647940Y-139086944D01*
X89743427Y-138921556D01*
X89802442Y-138739928D01*
X89822404Y-138550000D01*
X89802442Y-138360072D01*
X89743427Y-138178444D01*
X89683429Y-138074525D01*
X89666692Y-138005532D01*
X89689912Y-137938440D01*
X89745719Y-137894553D01*
X89816394Y-137887804D01*
X89879499Y-137920336D01*
X89881644Y-137922432D01*
X90911595Y-138952383D01*
X90945621Y-139014695D01*
X90948500Y-139041478D01*
X90948500Y-142858912D01*
X90928498Y-142927033D01*
X90874842Y-142973526D01*
X90804568Y-142983630D01*
X90739988Y-142954136D01*
X90719287Y-142931183D01*
X90617511Y-142785833D01*
X90617506Y-142785827D01*
X90457172Y-142625493D01*
X90457166Y-142625488D01*
X90271425Y-142495431D01*
X90065920Y-142399602D01*
X90065915Y-142399600D01*
X89943270Y-142366738D01*
X89846890Y-142340913D01*
X89621000Y-142321150D01*
X89395110Y-142340913D01*
X89365101Y-142348954D01*
X89176084Y-142399600D01*
X89176079Y-142399602D01*
X88970574Y-142495431D01*
X88784833Y-142625488D01*
X88784827Y-142625493D01*
X88624493Y-142785827D01*
X88624488Y-142785833D01*
X88494431Y-142971574D01*
X88398602Y-143177079D01*
X88398600Y-143177084D01*
X88385500Y-143225976D01*
X88339913Y-143396110D01*
X88320150Y-143622000D01*
X88339913Y-143847890D01*
X88357597Y-143913887D01*
X88398600Y-144066915D01*
X88398602Y-144066920D01*
X88494431Y-144272425D01*
X88595852Y-144417270D01*
X88624491Y-144458170D01*
X88784830Y-144618509D01*
X88970575Y-144748569D01*
X89176083Y-144844399D01*
X89395110Y-144903087D01*
X89621000Y-144922850D01*
X89846890Y-144903087D01*
X90065917Y-144844399D01*
X90271425Y-144748569D01*
X90457170Y-144618509D01*
X90617509Y-144458170D01*
X90747569Y-144272425D01*
X90776805Y-144209727D01*
X90823722Y-144156443D01*
X90891999Y-144136982D01*
X90959959Y-144157524D01*
X91005195Y-144209728D01*
X91034431Y-144272425D01*
X91135852Y-144417270D01*
X91164491Y-144458170D01*
X91324830Y-144618509D01*
X91510575Y-144748569D01*
X91716083Y-144844399D01*
X91935110Y-144903087D01*
X92161000Y-144922850D01*
X92386890Y-144903087D01*
X92605917Y-144844399D01*
X92811425Y-144748569D01*
X92997170Y-144618509D01*
X93157509Y-144458170D01*
X93287569Y-144272425D01*
X93316805Y-144209727D01*
X93363722Y-144156443D01*
X93431999Y-144136982D01*
X93499959Y-144157524D01*
X93545195Y-144209728D01*
X93574431Y-144272425D01*
X93675852Y-144417270D01*
X93704491Y-144458170D01*
X93864830Y-144618509D01*
X94050575Y-144748569D01*
X94187459Y-144812399D01*
X94240743Y-144859315D01*
X94260204Y-144927592D01*
X94239662Y-144995552D01*
X94197210Y-145035711D01*
X94170143Y-145051339D01*
X94170142Y-145051340D01*
X94170141Y-145051340D01*
X94029829Y-145177677D01*
X93918853Y-145330422D01*
X93842055Y-145502912D01*
X93812704Y-145641003D01*
X93802800Y-145687596D01*
X93802800Y-145876406D01*
X93842055Y-146061089D01*
X93910889Y-146215693D01*
X93918853Y-146233579D01*
X94029829Y-146386324D01*
X94029830Y-146386325D01*
X94170143Y-146512663D01*
X94191984Y-146525273D01*
X94333655Y-146607067D01*
X94333662Y-146607070D01*
X94513225Y-146665413D01*
X94513222Y-146665413D01*
X94578015Y-146672222D01*
X94653923Y-146680201D01*
X94653926Y-146680201D01*
X94748074Y-146680201D01*
X94748077Y-146680201D01*
X94888775Y-146665413D01*
X95011954Y-146625390D01*
X95068337Y-146607070D01*
X95068337Y-146607069D01*
X95068343Y-146607068D01*
X95231857Y-146512663D01*
X95372170Y-146386325D01*
X95483149Y-146233575D01*
X95559945Y-146061089D01*
X95596310Y-145890003D01*
X99751620Y-145890003D01*
X99771090Y-146087694D01*
X99771091Y-146087700D01*
X99771092Y-146087701D01*
X99828759Y-146277804D01*
X99922405Y-146453004D01*
X100048432Y-146606568D01*
X100201996Y-146732595D01*
X100377196Y-146826241D01*
X100567299Y-146883908D01*
X100567303Y-146883908D01*
X100567305Y-146883909D01*
X100764997Y-146903380D01*
X100765000Y-146903380D01*
X100765003Y-146903380D01*
X100962694Y-146883909D01*
X100962695Y-146883908D01*
X100962701Y-146883908D01*
X101152804Y-146826241D01*
X101328004Y-146732595D01*
X101481568Y-146606568D01*
X101607595Y-146453004D01*
X101701241Y-146277804D01*
X101758908Y-146087701D01*
X101766422Y-146011416D01*
X101778380Y-145890003D01*
X101778380Y-145889996D01*
X101758909Y-145692305D01*
X101758908Y-145692303D01*
X101758908Y-145692299D01*
X101701241Y-145502196D01*
X101607595Y-145326996D01*
X101481568Y-145173432D01*
X101328004Y-145047405D01*
X101152804Y-144953759D01*
X100962701Y-144896092D01*
X100962700Y-144896091D01*
X100962694Y-144896090D01*
X100765003Y-144876620D01*
X100764997Y-144876620D01*
X100567305Y-144896090D01*
X100377195Y-144953759D01*
X100201995Y-145047405D01*
X100048432Y-145173432D01*
X99922405Y-145326995D01*
X99828759Y-145502195D01*
X99771090Y-145692305D01*
X99751620Y-145889996D01*
X99751620Y-145890003D01*
X95596310Y-145890003D01*
X95599200Y-145876406D01*
X95599200Y-145687596D01*
X95559945Y-145502913D01*
X95483149Y-145330427D01*
X95483147Y-145330424D01*
X95483146Y-145330422D01*
X95372170Y-145177677D01*
X95307413Y-145119370D01*
X95231857Y-145051339D01*
X95231855Y-145051338D01*
X95231850Y-145051334D01*
X95204790Y-145035711D01*
X95155797Y-144984328D01*
X95142362Y-144914614D01*
X95168749Y-144848704D01*
X95214540Y-144812399D01*
X95351425Y-144748569D01*
X95537170Y-144618509D01*
X95697509Y-144458170D01*
X95827569Y-144272425D01*
X95856805Y-144209727D01*
X95903722Y-144156443D01*
X95971999Y-144136982D01*
X96039959Y-144157524D01*
X96085195Y-144209728D01*
X96114431Y-144272425D01*
X96215852Y-144417270D01*
X96244491Y-144458170D01*
X96404830Y-144618509D01*
X96590575Y-144748569D01*
X96796083Y-144844399D01*
X97015110Y-144903087D01*
X97241000Y-144922850D01*
X97466890Y-144903087D01*
X97685917Y-144844399D01*
X97891425Y-144748569D01*
X98077170Y-144618509D01*
X98217030Y-144478649D01*
X107991500Y-144478649D01*
X107998009Y-144539196D01*
X107998011Y-144539204D01*
X108049110Y-144676202D01*
X108049112Y-144676207D01*
X108136738Y-144793261D01*
X108253792Y-144880887D01*
X108253794Y-144880888D01*
X108253796Y-144880889D01*
X108308900Y-144901442D01*
X108390795Y-144931988D01*
X108390803Y-144931990D01*
X108451350Y-144938499D01*
X108451355Y-144938499D01*
X108451362Y-144938500D01*
X108451368Y-144938500D01*
X110248632Y-144938500D01*
X110248638Y-144938500D01*
X110248645Y-144938499D01*
X110248649Y-144938499D01*
X110309196Y-144931990D01*
X110309199Y-144931989D01*
X110309201Y-144931989D01*
X110446204Y-144880889D01*
X110475024Y-144859315D01*
X110563261Y-144793261D01*
X110650886Y-144676208D01*
X110650885Y-144676208D01*
X110650889Y-144676204D01*
X110694999Y-144557939D01*
X110737545Y-144501107D01*
X110804066Y-144476296D01*
X110873440Y-144491388D01*
X110905753Y-144516635D01*
X110926529Y-144539204D01*
X110966762Y-144582908D01*
X111012498Y-144618506D01*
X111144424Y-144721189D01*
X111342426Y-144828342D01*
X111342427Y-144828342D01*
X111342428Y-144828343D01*
X111432647Y-144859315D01*
X111555365Y-144901444D01*
X111777431Y-144938500D01*
X111777435Y-144938500D01*
X112002565Y-144938500D01*
X112002569Y-144938500D01*
X112224635Y-144901444D01*
X112437574Y-144828342D01*
X112635576Y-144721189D01*
X112813240Y-144582906D01*
X112965722Y-144417268D01*
X113054518Y-144281354D01*
X113108520Y-144235268D01*
X113178868Y-144225692D01*
X113243225Y-144255669D01*
X113265480Y-144281353D01*
X113298607Y-144332058D01*
X113354275Y-144417265D01*
X113354279Y-144417270D01*
X113506762Y-144582908D01*
X113552498Y-144618506D01*
X113684424Y-144721189D01*
X113882426Y-144828342D01*
X113882427Y-144828342D01*
X113882428Y-144828343D01*
X113972647Y-144859315D01*
X114095365Y-144901444D01*
X114317431Y-144938500D01*
X114317435Y-144938500D01*
X114542565Y-144938500D01*
X114542569Y-144938500D01*
X114764635Y-144901444D01*
X114977574Y-144828342D01*
X115175576Y-144721189D01*
X115353240Y-144582906D01*
X115505722Y-144417268D01*
X115594518Y-144281354D01*
X115648520Y-144235268D01*
X115718868Y-144225692D01*
X115783225Y-144255669D01*
X115805480Y-144281353D01*
X115838607Y-144332058D01*
X115894275Y-144417265D01*
X115894279Y-144417270D01*
X116046762Y-144582908D01*
X116092498Y-144618506D01*
X116224424Y-144721189D01*
X116422426Y-144828342D01*
X116422427Y-144828342D01*
X116422428Y-144828343D01*
X116512647Y-144859315D01*
X116635365Y-144901444D01*
X116857431Y-144938500D01*
X116857435Y-144938500D01*
X117082565Y-144938500D01*
X117082569Y-144938500D01*
X117304635Y-144901444D01*
X117517574Y-144828342D01*
X117715576Y-144721189D01*
X117893240Y-144582906D01*
X118045722Y-144417268D01*
X118134518Y-144281354D01*
X118188520Y-144235268D01*
X118258868Y-144225692D01*
X118323225Y-144255669D01*
X118345480Y-144281353D01*
X118378607Y-144332058D01*
X118434275Y-144417265D01*
X118434279Y-144417270D01*
X118586762Y-144582908D01*
X118632498Y-144618506D01*
X118764424Y-144721189D01*
X118962426Y-144828342D01*
X118962427Y-144828342D01*
X118962428Y-144828343D01*
X119052647Y-144859315D01*
X119175365Y-144901444D01*
X119397431Y-144938500D01*
X119397435Y-144938500D01*
X119622565Y-144938500D01*
X119622569Y-144938500D01*
X119844635Y-144901444D01*
X120057574Y-144828342D01*
X120255576Y-144721189D01*
X120433240Y-144582906D01*
X120585722Y-144417268D01*
X120708860Y-144228791D01*
X120799296Y-144022616D01*
X120854564Y-143804368D01*
X120873156Y-143580000D01*
X120854564Y-143355632D01*
X120817431Y-143208996D01*
X120799297Y-143137387D01*
X120799296Y-143137386D01*
X120799296Y-143137384D01*
X120708860Y-142931209D01*
X120691500Y-142904637D01*
X120585724Y-142742734D01*
X120585720Y-142742729D01*
X120456220Y-142602057D01*
X120433240Y-142577094D01*
X120433239Y-142577093D01*
X120433237Y-142577091D01*
X120351382Y-142513381D01*
X120255576Y-142438811D01*
X120057574Y-142331658D01*
X120057572Y-142331657D01*
X120057571Y-142331656D01*
X119844639Y-142258557D01*
X119844630Y-142258555D01*
X119800476Y-142251187D01*
X119622569Y-142221500D01*
X119397431Y-142221500D01*
X119249211Y-142246233D01*
X119175369Y-142258555D01*
X119175360Y-142258557D01*
X118962428Y-142331656D01*
X118962426Y-142331658D01*
X118764426Y-142438810D01*
X118764424Y-142438811D01*
X118586762Y-142577091D01*
X118434279Y-142742729D01*
X118345483Y-142878643D01*
X118291479Y-142924731D01*
X118221131Y-142934306D01*
X118156774Y-142904329D01*
X118134517Y-142878643D01*
X118045720Y-142742729D01*
X117916220Y-142602057D01*
X117893240Y-142577094D01*
X117893239Y-142577093D01*
X117893237Y-142577091D01*
X117811382Y-142513381D01*
X117715576Y-142438811D01*
X117517574Y-142331658D01*
X117517572Y-142331657D01*
X117517571Y-142331656D01*
X117304639Y-142258557D01*
X117304630Y-142258555D01*
X117260476Y-142251187D01*
X117082569Y-142221500D01*
X116857431Y-142221500D01*
X116709211Y-142246233D01*
X116635369Y-142258555D01*
X116635360Y-142258557D01*
X116422428Y-142331656D01*
X116422426Y-142331658D01*
X116224426Y-142438810D01*
X116224424Y-142438811D01*
X116046762Y-142577091D01*
X115894279Y-142742729D01*
X115805483Y-142878643D01*
X115751479Y-142924731D01*
X115681131Y-142934306D01*
X115616774Y-142904329D01*
X115594517Y-142878643D01*
X115505720Y-142742729D01*
X115376220Y-142602057D01*
X115353240Y-142577094D01*
X115353239Y-142577093D01*
X115353237Y-142577091D01*
X115271382Y-142513381D01*
X115175576Y-142438811D01*
X114977574Y-142331658D01*
X114977572Y-142331657D01*
X114977571Y-142331656D01*
X114764639Y-142258557D01*
X114764630Y-142258555D01*
X114720476Y-142251187D01*
X114542569Y-142221500D01*
X114317431Y-142221500D01*
X114169211Y-142246233D01*
X114095369Y-142258555D01*
X114095360Y-142258557D01*
X113882428Y-142331656D01*
X113882426Y-142331658D01*
X113684426Y-142438810D01*
X113684424Y-142438811D01*
X113506762Y-142577091D01*
X113354279Y-142742729D01*
X113265483Y-142878643D01*
X113211479Y-142924731D01*
X113141131Y-142934306D01*
X113076774Y-142904329D01*
X113054517Y-142878643D01*
X112965720Y-142742729D01*
X112836220Y-142602057D01*
X112813240Y-142577094D01*
X112813239Y-142577093D01*
X112813237Y-142577091D01*
X112731382Y-142513381D01*
X112635576Y-142438811D01*
X112437574Y-142331658D01*
X112437572Y-142331657D01*
X112437571Y-142331656D01*
X112224639Y-142258557D01*
X112224630Y-142258555D01*
X112180476Y-142251187D01*
X112002569Y-142221500D01*
X111777431Y-142221500D01*
X111629210Y-142246233D01*
X111555369Y-142258555D01*
X111555360Y-142258557D01*
X111342428Y-142331656D01*
X111342426Y-142331658D01*
X111144426Y-142438810D01*
X111144424Y-142438811D01*
X110966762Y-142577091D01*
X110905754Y-142643363D01*
X110844901Y-142679933D01*
X110773936Y-142677798D01*
X110715391Y-142637636D01*
X110694999Y-142602057D01*
X110670265Y-142535744D01*
X110650889Y-142483796D01*
X110650888Y-142483794D01*
X110650887Y-142483792D01*
X110563261Y-142366738D01*
X110446207Y-142279112D01*
X110446202Y-142279110D01*
X110309204Y-142228011D01*
X110309196Y-142228009D01*
X110248649Y-142221500D01*
X110248638Y-142221500D01*
X108451362Y-142221500D01*
X108451350Y-142221500D01*
X108390803Y-142228009D01*
X108390795Y-142228011D01*
X108253797Y-142279110D01*
X108253792Y-142279112D01*
X108136738Y-142366738D01*
X108049112Y-142483792D01*
X108049110Y-142483797D01*
X107998011Y-142620795D01*
X107998009Y-142620803D01*
X107991500Y-142681350D01*
X107991500Y-144478649D01*
X98217030Y-144478649D01*
X98237509Y-144458170D01*
X98367569Y-144272425D01*
X98463399Y-144066917D01*
X98522087Y-143847890D01*
X98541850Y-143622000D01*
X98522087Y-143396110D01*
X98463399Y-143177083D01*
X98367569Y-142971575D01*
X98237509Y-142785830D01*
X98077170Y-142625491D01*
X98070463Y-142620795D01*
X97891425Y-142495431D01*
X97685920Y-142399602D01*
X97685915Y-142399600D01*
X97563270Y-142366738D01*
X97466890Y-142340913D01*
X97241000Y-142321150D01*
X97015110Y-142340913D01*
X96985101Y-142348954D01*
X96796084Y-142399600D01*
X96796079Y-142399602D01*
X96590574Y-142495431D01*
X96404833Y-142625488D01*
X96404827Y-142625493D01*
X96244493Y-142785827D01*
X96244488Y-142785833D01*
X96114431Y-142971574D01*
X96085195Y-143034271D01*
X96038277Y-143087556D01*
X95970000Y-143107017D01*
X95902040Y-143086475D01*
X95856805Y-143034271D01*
X95833190Y-142983630D01*
X95827569Y-142971575D01*
X95697509Y-142785830D01*
X95537170Y-142625491D01*
X95530463Y-142620795D01*
X95351425Y-142495431D01*
X95145920Y-142399602D01*
X95145915Y-142399600D01*
X95023270Y-142366738D01*
X94926890Y-142340913D01*
X94701000Y-142321150D01*
X94700999Y-142321150D01*
X94588054Y-142331031D01*
X94475110Y-142340913D01*
X94445101Y-142348954D01*
X94256084Y-142399600D01*
X94256079Y-142399602D01*
X94050574Y-142495431D01*
X93864833Y-142625488D01*
X93864827Y-142625493D01*
X93704493Y-142785827D01*
X93704488Y-142785833D01*
X93694713Y-142799794D01*
X93639255Y-142844122D01*
X93568636Y-142851431D01*
X93505276Y-142819400D01*
X93469291Y-142758198D01*
X93465500Y-142727523D01*
X93465500Y-138542220D01*
X93465896Y-138535161D01*
X93470269Y-138496352D01*
X93467607Y-138456877D01*
X93465643Y-138427729D01*
X93465500Y-138423491D01*
X93465500Y-138411484D01*
X93465500Y-138411478D01*
X93461699Y-138369245D01*
X93455030Y-138270332D01*
X93455029Y-138270328D01*
X93455029Y-138270326D01*
X93453980Y-138266162D01*
X93450667Y-138246664D01*
X93450281Y-138242378D01*
X93423904Y-138146805D01*
X93399677Y-138050657D01*
X93397899Y-138046743D01*
X93391155Y-138028143D01*
X93390014Y-138024007D01*
X93347004Y-137934697D01*
X93305994Y-137844409D01*
X93303544Y-137840874D01*
X93293590Y-137823780D01*
X93291726Y-137819910D01*
X93291725Y-137819907D01*
X93233452Y-137739702D01*
X93176986Y-137658198D01*
X93173943Y-137655155D01*
X93161098Y-137640115D01*
X93158574Y-137636641D01*
X93158573Y-137636640D01*
X93158571Y-137636637D01*
X93086907Y-137568119D01*
X91685788Y-136167000D01*
X92955496Y-136167000D01*
X92975457Y-136356927D01*
X93005526Y-136449470D01*
X93034473Y-136538556D01*
X93034476Y-136538561D01*
X93129958Y-136703941D01*
X93129965Y-136703951D01*
X93257744Y-136845864D01*
X93257747Y-136845866D01*
X93412248Y-136958118D01*
X93586712Y-137035794D01*
X93773513Y-137075500D01*
X93964487Y-137075500D01*
X94151288Y-137035794D01*
X94325752Y-136958118D01*
X94480253Y-136845866D01*
X94608040Y-136703944D01*
X94703527Y-136538556D01*
X94710856Y-136516000D01*
X97768496Y-136516000D01*
X97788457Y-136705927D01*
X97818526Y-136798470D01*
X97847473Y-136887556D01*
X97847476Y-136887561D01*
X97942958Y-137052941D01*
X97942965Y-137052951D01*
X98070744Y-137194864D01*
X98070747Y-137194866D01*
X98225248Y-137307118D01*
X98399712Y-137384794D01*
X98586513Y-137424500D01*
X98777487Y-137424500D01*
X98964288Y-137384794D01*
X99138752Y-137307118D01*
X99293253Y-137194866D01*
X99421040Y-137052944D01*
X99516527Y-136887556D01*
X99575542Y-136705928D01*
X99595504Y-136516000D01*
X99578057Y-136350000D01*
X124124390Y-136350000D01*
X124144803Y-136635424D01*
X124205631Y-136915046D01*
X124305632Y-137183160D01*
X124305637Y-137183170D01*
X124442768Y-137434307D01*
X124442772Y-137434312D01*
X124442774Y-137434315D01*
X124542938Y-137568119D01*
X124614262Y-137663396D01*
X124614270Y-137663405D01*
X124816594Y-137865729D01*
X124816603Y-137865737D01*
X124816605Y-137865739D01*
X125045685Y-138037226D01*
X125045687Y-138037227D01*
X125045692Y-138037231D01*
X125296829Y-138174362D01*
X125296839Y-138174367D01*
X125564954Y-138274369D01*
X125844572Y-138335196D01*
X126058552Y-138350500D01*
X126058558Y-138350500D01*
X126201442Y-138350500D01*
X126201448Y-138350500D01*
X126415428Y-138335196D01*
X126695046Y-138274369D01*
X126963161Y-138174367D01*
X127146004Y-138074527D01*
X127214307Y-138037231D01*
X127214309Y-138037229D01*
X127214315Y-138037226D01*
X127443395Y-137865739D01*
X127645739Y-137663395D01*
X127817226Y-137434315D01*
X127817229Y-137434309D01*
X127817231Y-137434307D01*
X127954362Y-137183170D01*
X127954367Y-137183161D01*
X128054369Y-136915046D01*
X128115196Y-136635428D01*
X128135610Y-136350000D01*
X128115196Y-136064572D01*
X128054369Y-135784954D01*
X127954367Y-135516839D01*
X127954362Y-135516829D01*
X127817231Y-135265692D01*
X127817227Y-135265687D01*
X127811847Y-135258500D01*
X127645739Y-135036605D01*
X127645737Y-135036603D01*
X127645729Y-135036594D01*
X127443405Y-134834270D01*
X127443396Y-134834262D01*
X127214312Y-134662772D01*
X127214307Y-134662768D01*
X126963170Y-134525637D01*
X126963160Y-134525632D01*
X126695046Y-134425631D01*
X126415424Y-134364803D01*
X126281775Y-134355245D01*
X126201448Y-134349500D01*
X126058552Y-134349500D01*
X125982954Y-134354906D01*
X125844575Y-134364803D01*
X125564953Y-134425631D01*
X125296839Y-134525632D01*
X125296829Y-134525637D01*
X125045692Y-134662768D01*
X125045687Y-134662772D01*
X124816603Y-134834262D01*
X124816594Y-134834270D01*
X124614270Y-135036594D01*
X124614262Y-135036603D01*
X124442772Y-135265687D01*
X124442768Y-135265692D01*
X124305637Y-135516829D01*
X124305632Y-135516839D01*
X124205631Y-135784953D01*
X124144803Y-136064575D01*
X124124390Y-136350000D01*
X99578057Y-136350000D01*
X99575542Y-136326072D01*
X99516527Y-136144444D01*
X99421040Y-135979056D01*
X99421038Y-135979054D01*
X99421034Y-135979048D01*
X99293255Y-135837135D01*
X99138752Y-135724882D01*
X98964288Y-135647206D01*
X98777487Y-135607500D01*
X98586513Y-135607500D01*
X98399711Y-135647206D01*
X98225247Y-135724882D01*
X98070744Y-135837135D01*
X97942965Y-135979048D01*
X97942958Y-135979058D01*
X97847476Y-136144438D01*
X97847473Y-136144444D01*
X97843408Y-136156955D01*
X97788457Y-136326072D01*
X97768496Y-136516000D01*
X94710856Y-136516000D01*
X94762542Y-136356928D01*
X94782504Y-136167000D01*
X94762542Y-135977072D01*
X94703527Y-135795444D01*
X94608040Y-135630056D01*
X94608038Y-135630054D01*
X94608034Y-135630048D01*
X94480255Y-135488135D01*
X94325752Y-135375882D01*
X94151288Y-135298206D01*
X93964487Y-135258500D01*
X93773513Y-135258500D01*
X93586711Y-135298206D01*
X93412247Y-135375882D01*
X93257744Y-135488135D01*
X93129965Y-135630048D01*
X93129958Y-135630058D01*
X93034476Y-135795438D01*
X93034473Y-135795444D01*
X93020927Y-135837134D01*
X92975457Y-135977072D01*
X92955496Y-136167000D01*
X91685788Y-136167000D01*
X89603369Y-134084581D01*
X89598666Y-134079318D01*
X89574317Y-134048785D01*
X89522522Y-134003533D01*
X89519436Y-134000648D01*
X89510927Y-133992139D01*
X89478370Y-133964959D01*
X89434736Y-133926837D01*
X89403721Y-133899739D01*
X89403718Y-133899737D01*
X89400016Y-133897525D01*
X89383898Y-133886087D01*
X89380594Y-133883329D01*
X89294358Y-133834396D01*
X89209253Y-133783549D01*
X89209250Y-133783547D01*
X89209245Y-133783545D01*
X89209237Y-133783541D01*
X89205208Y-133782029D01*
X89187312Y-133773657D01*
X89183567Y-133771532D01*
X89183563Y-133771530D01*
X89089992Y-133738789D01*
X88997170Y-133703951D01*
X88997150Y-133703946D01*
X88992908Y-133703176D01*
X88973814Y-133698136D01*
X88969747Y-133696713D01*
X88871817Y-133681201D01*
X88774271Y-133663500D01*
X88774267Y-133663500D01*
X88769966Y-133663500D01*
X88750257Y-133661949D01*
X88746004Y-133661275D01*
X88745997Y-133661275D01*
X88646863Y-133663500D01*
X87121500Y-133663500D01*
X87053379Y-133643498D01*
X87006886Y-133589842D01*
X86995500Y-133537500D01*
X86995500Y-132320000D01*
X104416496Y-132320000D01*
X104436457Y-132509927D01*
X104466526Y-132602470D01*
X104495473Y-132691556D01*
X104495476Y-132691561D01*
X104590958Y-132856941D01*
X104590965Y-132856951D01*
X104718744Y-132998864D01*
X104718747Y-132998866D01*
X104873248Y-133111118D01*
X105047712Y-133188794D01*
X105234513Y-133228500D01*
X105425487Y-133228500D01*
X105612288Y-133188794D01*
X105786752Y-133111118D01*
X105941253Y-132998866D01*
X106069040Y-132856944D01*
X106164527Y-132691556D01*
X106223542Y-132509928D01*
X106243504Y-132320000D01*
X106223542Y-132130072D01*
X106164527Y-131948444D01*
X106069040Y-131783056D01*
X106069038Y-131783054D01*
X106069034Y-131783048D01*
X105941255Y-131641135D01*
X105786752Y-131528882D01*
X105612288Y-131451206D01*
X105425487Y-131411500D01*
X105234513Y-131411500D01*
X105047711Y-131451206D01*
X104873247Y-131528882D01*
X104718744Y-131641135D01*
X104590965Y-131783048D01*
X104590958Y-131783058D01*
X104495476Y-131948438D01*
X104495473Y-131948445D01*
X104436457Y-132130072D01*
X104416496Y-132320000D01*
X86995500Y-132320000D01*
X86995500Y-132088500D01*
X87015502Y-132020379D01*
X87069158Y-131973886D01*
X87121500Y-131962500D01*
X87191650Y-131962500D01*
X87259771Y-131982502D01*
X87265709Y-131986562D01*
X87291248Y-132005118D01*
X87465712Y-132082794D01*
X87652513Y-132122500D01*
X87843487Y-132122500D01*
X88030288Y-132082794D01*
X88204752Y-132005118D01*
X88230289Y-131986563D01*
X88297157Y-131962706D01*
X88304350Y-131962500D01*
X97912919Y-131962500D01*
X97981040Y-131982502D01*
X97986972Y-131986558D01*
X97993248Y-131991118D01*
X98167712Y-132068794D01*
X98354513Y-132108500D01*
X98545487Y-132108500D01*
X98732288Y-132068794D01*
X98906752Y-131991118D01*
X99061253Y-131878866D01*
X99189040Y-131736944D01*
X99284527Y-131571556D01*
X99343542Y-131389928D01*
X99357198Y-131259999D01*
X112066496Y-131259999D01*
X112086457Y-131449927D01*
X112086873Y-131451206D01*
X112145473Y-131631556D01*
X112173841Y-131680691D01*
X112240958Y-131796941D01*
X112240965Y-131796951D01*
X112368744Y-131938864D01*
X112381930Y-131948444D01*
X112523248Y-132051118D01*
X112697712Y-132128794D01*
X112884513Y-132168500D01*
X113075487Y-132168500D01*
X113262288Y-132128794D01*
X113436752Y-132051118D01*
X113591253Y-131938866D01*
X113719040Y-131796944D01*
X113814527Y-131631556D01*
X113873542Y-131449928D01*
X113893504Y-131260000D01*
X113873542Y-131070072D01*
X113814527Y-130888444D01*
X113719040Y-130723056D01*
X113719038Y-130723054D01*
X113719034Y-130723048D01*
X113591255Y-130581135D01*
X113436752Y-130468882D01*
X113262288Y-130391206D01*
X113075487Y-130351500D01*
X112884513Y-130351500D01*
X112697711Y-130391206D01*
X112523247Y-130468882D01*
X112368744Y-130581135D01*
X112240965Y-130723048D01*
X112240958Y-130723058D01*
X112145476Y-130888438D01*
X112145473Y-130888444D01*
X112135589Y-130918864D01*
X112086457Y-131070072D01*
X112066496Y-131259999D01*
X99357198Y-131259999D01*
X99363504Y-131200000D01*
X99343542Y-131010072D01*
X99284527Y-130828444D01*
X99189040Y-130663056D01*
X99189038Y-130663054D01*
X99189034Y-130663048D01*
X99061255Y-130521135D01*
X98906752Y-130408882D01*
X98732288Y-130331206D01*
X98545487Y-130291500D01*
X98354513Y-130291500D01*
X98167711Y-130331206D01*
X97993248Y-130408882D01*
X97986979Y-130413437D01*
X97920111Y-130437295D01*
X97912919Y-130437500D01*
X95606152Y-130437500D01*
X95538031Y-130417498D01*
X95491538Y-130363842D01*
X95481434Y-130293568D01*
X95505899Y-130240000D01*
X103516496Y-130240000D01*
X103536457Y-130429927D01*
X103557083Y-130493405D01*
X103595473Y-130611556D01*
X103595476Y-130611561D01*
X103690958Y-130776941D01*
X103690965Y-130776951D01*
X103818744Y-130918864D01*
X103818747Y-130918866D01*
X103973248Y-131031118D01*
X104147712Y-131108794D01*
X104334513Y-131148500D01*
X104525487Y-131148500D01*
X104712288Y-131108794D01*
X104886752Y-131031118D01*
X105041253Y-130918866D01*
X105068645Y-130888444D01*
X105169034Y-130776951D01*
X105169035Y-130776949D01*
X105169040Y-130776944D01*
X105264527Y-130611556D01*
X105323542Y-130429928D01*
X105343504Y-130240000D01*
X105323542Y-130050072D01*
X105264527Y-129868444D01*
X105169040Y-129703056D01*
X105169038Y-129703054D01*
X105169034Y-129703048D01*
X105041255Y-129561135D01*
X104886752Y-129448882D01*
X104712288Y-129371206D01*
X104525487Y-129331500D01*
X104334513Y-129331500D01*
X104147711Y-129371206D01*
X103973247Y-129448882D01*
X103818744Y-129561135D01*
X103690965Y-129703048D01*
X103690958Y-129703058D01*
X103595476Y-129868438D01*
X103595473Y-129868445D01*
X103536457Y-130050072D01*
X103516496Y-130240000D01*
X95505899Y-130240000D01*
X95510928Y-130228988D01*
X95554904Y-130196393D01*
X95566752Y-130191118D01*
X95721253Y-130078866D01*
X95785671Y-130007323D01*
X95849034Y-129936951D01*
X95849035Y-129936949D01*
X95849040Y-129936944D01*
X95944527Y-129771556D01*
X96003542Y-129589928D01*
X96023504Y-129400000D01*
X96003542Y-129210072D01*
X95944527Y-129028444D01*
X95922331Y-128989999D01*
X115996496Y-128989999D01*
X116016457Y-129179927D01*
X116026252Y-129210072D01*
X116075473Y-129361556D01*
X116097668Y-129399999D01*
X116170958Y-129526941D01*
X116170965Y-129526951D01*
X116298744Y-129668864D01*
X116298747Y-129668866D01*
X116453248Y-129781118D01*
X116627712Y-129858794D01*
X116814513Y-129898500D01*
X117005487Y-129898500D01*
X117192288Y-129858794D01*
X117366752Y-129781118D01*
X117521253Y-129668866D01*
X117521255Y-129668864D01*
X117649034Y-129526951D01*
X117649035Y-129526949D01*
X117649040Y-129526944D01*
X117744527Y-129361556D01*
X117803542Y-129179928D01*
X117823504Y-128990000D01*
X117803542Y-128800072D01*
X117744527Y-128618444D01*
X117649040Y-128453056D01*
X117649038Y-128453054D01*
X117649034Y-128453048D01*
X117521255Y-128311135D01*
X117366752Y-128198882D01*
X117192288Y-128121206D01*
X117005487Y-128081500D01*
X116814513Y-128081500D01*
X116627711Y-128121206D01*
X116453247Y-128198882D01*
X116298744Y-128311135D01*
X116170965Y-128453048D01*
X116170958Y-128453058D01*
X116075476Y-128618438D01*
X116075473Y-128618445D01*
X116016457Y-128800072D01*
X115996496Y-128989999D01*
X95922331Y-128989999D01*
X95849040Y-128863056D01*
X95849038Y-128863054D01*
X95849034Y-128863048D01*
X95721255Y-128721135D01*
X95566752Y-128608882D01*
X95392288Y-128531206D01*
X95205487Y-128491500D01*
X95014513Y-128491500D01*
X94827711Y-128531206D01*
X94653247Y-128608882D01*
X94498744Y-128721135D01*
X94370965Y-128863048D01*
X94370958Y-128863058D01*
X94275476Y-129028438D01*
X94275473Y-129028445D01*
X94216457Y-129210072D01*
X94196496Y-129400000D01*
X94216457Y-129589927D01*
X94237844Y-129655747D01*
X94275473Y-129771556D01*
X94275476Y-129771561D01*
X94370958Y-129936941D01*
X94370965Y-129936951D01*
X94498744Y-130078864D01*
X94498747Y-130078866D01*
X94653248Y-130191118D01*
X94665096Y-130196393D01*
X94719192Y-130242373D01*
X94739842Y-130310300D01*
X94720490Y-130378608D01*
X94667280Y-130425610D01*
X94613848Y-130437500D01*
X88263833Y-130437500D01*
X88211689Y-130423530D01*
X88210783Y-130425567D01*
X88144751Y-130396167D01*
X88090656Y-130350187D01*
X88070007Y-130282259D01*
X88089360Y-130213952D01*
X88142571Y-130166950D01*
X88144684Y-130165985D01*
X88220752Y-130132118D01*
X88375253Y-130019866D01*
X88386549Y-130007321D01*
X88503034Y-129877951D01*
X88503035Y-129877949D01*
X88503040Y-129877944D01*
X88598527Y-129712556D01*
X88657542Y-129530928D01*
X88677504Y-129341000D01*
X88657542Y-129151072D01*
X88598527Y-128969444D01*
X88503040Y-128804056D01*
X88503038Y-128804054D01*
X88503034Y-128804048D01*
X88375255Y-128662135D01*
X88220752Y-128549882D01*
X88046288Y-128472206D01*
X87859487Y-128432500D01*
X87668513Y-128432500D01*
X87481711Y-128472206D01*
X87307247Y-128549882D01*
X87152744Y-128662135D01*
X87024965Y-128804048D01*
X87024958Y-128804058D01*
X86929476Y-128969438D01*
X86929473Y-128969445D01*
X86870457Y-129151072D01*
X86850496Y-129341000D01*
X86870457Y-129530927D01*
X86889628Y-129589927D01*
X86929473Y-129712556D01*
X86929476Y-129712561D01*
X87024958Y-129877941D01*
X87024965Y-129877951D01*
X87152744Y-130019864D01*
X87162906Y-130027247D01*
X87307248Y-130132118D01*
X87366380Y-130158445D01*
X87367247Y-130158831D01*
X87421343Y-130204811D01*
X87441992Y-130272739D01*
X87422640Y-130341047D01*
X87369429Y-130388048D01*
X87367247Y-130389044D01*
X87285216Y-130425567D01*
X87284309Y-130423531D01*
X87232167Y-130437500D01*
X86813589Y-130437500D01*
X86745468Y-130417498D01*
X86720586Y-130396508D01*
X86720274Y-130396167D01*
X86602505Y-130267322D01*
X86602504Y-130267321D01*
X86602501Y-130267318D01*
X86422268Y-130130090D01*
X86220429Y-130027247D01*
X86195849Y-130019866D01*
X86003463Y-129962095D01*
X85778352Y-129936731D01*
X85552328Y-129951970D01*
X85332667Y-130007320D01*
X85332658Y-130007323D01*
X85126413Y-130101004D01*
X85126411Y-130101005D01*
X85055485Y-130150141D01*
X85049462Y-130153832D01*
X85040892Y-130158444D01*
X85040892Y-130158445D01*
X85025277Y-130170896D01*
X85021878Y-130173425D01*
X84940199Y-130230013D01*
X84899584Y-130270626D01*
X84894314Y-130275336D01*
X84863785Y-130299681D01*
X84863779Y-130299687D01*
X84818540Y-130351468D01*
X84815649Y-130354561D01*
X84807141Y-130363069D01*
X84779959Y-130395629D01*
X84714736Y-130470282D01*
X84714734Y-130470285D01*
X84712526Y-130473981D01*
X84701098Y-130490087D01*
X84698330Y-130493405D01*
X84698329Y-130493406D01*
X84649396Y-130579642D01*
X84598551Y-130664742D01*
X84598546Y-130664752D01*
X84597029Y-130668794D01*
X84588665Y-130686671D01*
X84586536Y-130690424D01*
X84586532Y-130690432D01*
X84553789Y-130784007D01*
X84518950Y-130876832D01*
X84518948Y-130876841D01*
X84518179Y-130881080D01*
X84513138Y-130900180D01*
X84511714Y-130904248D01*
X84511712Y-130904256D01*
X84496201Y-131002182D01*
X84478500Y-131099729D01*
X84478500Y-131104034D01*
X84476949Y-131123743D01*
X84476275Y-131127995D01*
X84476275Y-131128002D01*
X84478500Y-131227136D01*
X84478500Y-133537500D01*
X84458498Y-133605621D01*
X84404842Y-133652114D01*
X84352500Y-133663500D01*
X81070479Y-133663500D01*
X81002358Y-133643498D01*
X80981383Y-133626595D01*
X80330404Y-132975615D01*
X80296379Y-132913303D01*
X80293500Y-132886520D01*
X80293500Y-129118806D01*
X82087690Y-129118806D01*
X82107651Y-129308733D01*
X82137306Y-129399999D01*
X82166667Y-129490362D01*
X82166670Y-129490367D01*
X82262152Y-129655747D01*
X82262159Y-129655757D01*
X82389938Y-129797670D01*
X82389941Y-129797672D01*
X82544442Y-129909924D01*
X82718906Y-129987600D01*
X82905707Y-130027306D01*
X83096681Y-130027306D01*
X83283482Y-129987600D01*
X83457946Y-129909924D01*
X83612447Y-129797672D01*
X83627353Y-129781117D01*
X83740228Y-129655757D01*
X83740229Y-129655755D01*
X83740234Y-129655750D01*
X83835721Y-129490362D01*
X83894736Y-129308734D01*
X83914698Y-129118806D01*
X83894736Y-128928878D01*
X83835721Y-128747250D01*
X83740234Y-128581862D01*
X83740232Y-128581860D01*
X83740228Y-128581854D01*
X83612449Y-128439941D01*
X83457946Y-128327688D01*
X83283482Y-128250012D01*
X83096681Y-128210306D01*
X82905707Y-128210306D01*
X82718905Y-128250012D01*
X82544441Y-128327688D01*
X82389938Y-128439941D01*
X82262159Y-128581854D01*
X82262152Y-128581864D01*
X82166670Y-128747244D01*
X82166667Y-128747251D01*
X82107651Y-128928878D01*
X82087690Y-129118806D01*
X80293500Y-129118806D01*
X80293500Y-127489999D01*
X102616496Y-127489999D01*
X102636457Y-127679927D01*
X102662980Y-127761554D01*
X102695473Y-127861556D01*
X102695476Y-127861561D01*
X102790958Y-128026941D01*
X102790965Y-128026951D01*
X102918744Y-128168864D01*
X102918747Y-128168866D01*
X103073248Y-128281118D01*
X103247712Y-128358794D01*
X103434513Y-128398500D01*
X103625487Y-128398500D01*
X103812288Y-128358794D01*
X103986752Y-128281118D01*
X104141253Y-128168866D01*
X104219918Y-128081500D01*
X104269034Y-128026951D01*
X104269035Y-128026949D01*
X104269040Y-128026944D01*
X104364527Y-127861556D01*
X104423542Y-127679928D01*
X104443504Y-127490000D01*
X104432994Y-127390000D01*
X111216496Y-127390000D01*
X111217384Y-127398445D01*
X111236457Y-127579927D01*
X111266526Y-127672470D01*
X111295473Y-127761556D01*
X111295476Y-127761561D01*
X111390958Y-127926941D01*
X111390965Y-127926951D01*
X111518744Y-128068864D01*
X111518747Y-128068866D01*
X111673248Y-128181118D01*
X111847712Y-128258794D01*
X112034513Y-128298500D01*
X112225487Y-128298500D01*
X112412288Y-128258794D01*
X112586752Y-128181118D01*
X112741253Y-128068866D01*
X112741255Y-128068864D01*
X112869034Y-127926951D01*
X112869035Y-127926949D01*
X112869040Y-127926944D01*
X112959652Y-127770000D01*
X118846496Y-127770000D01*
X118866457Y-127959927D01*
X118888232Y-128026941D01*
X118925473Y-128141556D01*
X118948314Y-128181117D01*
X119020958Y-128306941D01*
X119020965Y-128306951D01*
X119148744Y-128448864D01*
X119148747Y-128448866D01*
X119303248Y-128561118D01*
X119477712Y-128638794D01*
X119664513Y-128678500D01*
X119855487Y-128678500D01*
X120042288Y-128638794D01*
X120216752Y-128561118D01*
X120371253Y-128448866D01*
X120480362Y-128327688D01*
X120499034Y-128306951D01*
X120499035Y-128306949D01*
X120499040Y-128306944D01*
X120594527Y-128141556D01*
X120653542Y-127959928D01*
X120673504Y-127770000D01*
X120653542Y-127580072D01*
X120594527Y-127398444D01*
X120499040Y-127233056D01*
X120499038Y-127233054D01*
X120499034Y-127233048D01*
X120371255Y-127091135D01*
X120216752Y-126978882D01*
X120042288Y-126901206D01*
X119855487Y-126861500D01*
X119664513Y-126861500D01*
X119477711Y-126901206D01*
X119303247Y-126978882D01*
X119148744Y-127091135D01*
X119020965Y-127233048D01*
X119020958Y-127233058D01*
X118925476Y-127398438D01*
X118925473Y-127398445D01*
X118866457Y-127580072D01*
X118846496Y-127770000D01*
X112959652Y-127770000D01*
X112964527Y-127761556D01*
X113023542Y-127579928D01*
X113043504Y-127390000D01*
X113023542Y-127200072D01*
X112964527Y-127018444D01*
X112869040Y-126853056D01*
X112869038Y-126853054D01*
X112869034Y-126853048D01*
X112741255Y-126711135D01*
X112586752Y-126598882D01*
X112412288Y-126521206D01*
X112225487Y-126481500D01*
X112034513Y-126481500D01*
X111847711Y-126521206D01*
X111673247Y-126598882D01*
X111518744Y-126711135D01*
X111390965Y-126853048D01*
X111390958Y-126853058D01*
X111295476Y-127018438D01*
X111295473Y-127018445D01*
X111236457Y-127200072D01*
X111216496Y-127389999D01*
X111216496Y-127390000D01*
X104432994Y-127390000D01*
X104423542Y-127300072D01*
X104364527Y-127118444D01*
X104269040Y-126953056D01*
X104269038Y-126953054D01*
X104269034Y-126953048D01*
X104141255Y-126811135D01*
X103986752Y-126698882D01*
X103812288Y-126621206D01*
X103625487Y-126581500D01*
X103434513Y-126581500D01*
X103247711Y-126621206D01*
X103073247Y-126698882D01*
X102918744Y-126811135D01*
X102790965Y-126953048D01*
X102790958Y-126953058D01*
X102695476Y-127118438D01*
X102695473Y-127118445D01*
X102636457Y-127300072D01*
X102616496Y-127489999D01*
X80293500Y-127489999D01*
X80293500Y-125970000D01*
X88626496Y-125970000D01*
X88646457Y-126159927D01*
X88676526Y-126252470D01*
X88705473Y-126341556D01*
X88705476Y-126341561D01*
X88800958Y-126506941D01*
X88800965Y-126506951D01*
X88928744Y-126648864D01*
X88928747Y-126648866D01*
X89083248Y-126761118D01*
X89257712Y-126838794D01*
X89444513Y-126878500D01*
X89635487Y-126878500D01*
X89822288Y-126838794D01*
X89996752Y-126761118D01*
X90151253Y-126648866D01*
X90211910Y-126581500D01*
X90279034Y-126506951D01*
X90279035Y-126506949D01*
X90279040Y-126506944D01*
X90374527Y-126341556D01*
X90433542Y-126159928D01*
X90453504Y-125970000D01*
X90433542Y-125780072D01*
X90374527Y-125598444D01*
X90279040Y-125433056D01*
X90279038Y-125433054D01*
X90279034Y-125433048D01*
X90151255Y-125291135D01*
X89996752Y-125178882D01*
X89822288Y-125101206D01*
X89635487Y-125061500D01*
X89444513Y-125061500D01*
X89257711Y-125101206D01*
X89083247Y-125178882D01*
X88928744Y-125291135D01*
X88800965Y-125433048D01*
X88800958Y-125433058D01*
X88705476Y-125598438D01*
X88705473Y-125598445D01*
X88646457Y-125780072D01*
X88626496Y-125970000D01*
X80293500Y-125970000D01*
X80293500Y-123740000D01*
X83096496Y-123740000D01*
X83116457Y-123929927D01*
X83136204Y-123990699D01*
X83175473Y-124111556D01*
X83175476Y-124111561D01*
X83270958Y-124276941D01*
X83270965Y-124276951D01*
X83398744Y-124418864D01*
X83398747Y-124418866D01*
X83553248Y-124531118D01*
X83727712Y-124608794D01*
X83753028Y-124614175D01*
X83815502Y-124647902D01*
X83846666Y-124698485D01*
X83868122Y-124764520D01*
X83963606Y-124929901D01*
X83963613Y-124929911D01*
X84091392Y-125071824D01*
X84131833Y-125101206D01*
X84245896Y-125184078D01*
X84420360Y-125261754D01*
X84607161Y-125301460D01*
X84798135Y-125301460D01*
X84984936Y-125261754D01*
X85159400Y-125184078D01*
X85313901Y-125071826D01*
X85323199Y-125061500D01*
X85441682Y-124929911D01*
X85441683Y-124929909D01*
X85441688Y-124929904D01*
X85537175Y-124764516D01*
X85596190Y-124582888D01*
X85616152Y-124392960D01*
X85611637Y-124350000D01*
X96736496Y-124350000D01*
X96756457Y-124539927D01*
X96785497Y-124629300D01*
X96815473Y-124721556D01*
X96815476Y-124721561D01*
X96910958Y-124886941D01*
X96910965Y-124886951D01*
X97038744Y-125028864D01*
X97038747Y-125028866D01*
X97193248Y-125141118D01*
X97367712Y-125218794D01*
X97554513Y-125258500D01*
X97745487Y-125258500D01*
X97932288Y-125218794D01*
X98106752Y-125141118D01*
X98261253Y-125028866D01*
X98344023Y-124936941D01*
X98389034Y-124886951D01*
X98389035Y-124886949D01*
X98389040Y-124886944D01*
X98484527Y-124721556D01*
X98543542Y-124539928D01*
X98563504Y-124350000D01*
X98556612Y-124284431D01*
X98569384Y-124214595D01*
X98617885Y-124162748D01*
X98630662Y-124156160D01*
X98776752Y-124091118D01*
X98931253Y-123978866D01*
X98931633Y-123978444D01*
X99059034Y-123836951D01*
X99059035Y-123836949D01*
X99059040Y-123836944D01*
X99154527Y-123671556D01*
X99200522Y-123530000D01*
X101346496Y-123530000D01*
X101366457Y-123719927D01*
X101390977Y-123795390D01*
X101425473Y-123901556D01*
X101441853Y-123929927D01*
X101520958Y-124066941D01*
X101520965Y-124066951D01*
X101648744Y-124208864D01*
X101648747Y-124208866D01*
X101803248Y-124321118D01*
X101977712Y-124398794D01*
X102164513Y-124438500D01*
X102355487Y-124438500D01*
X102536614Y-124400000D01*
X110326496Y-124400000D01*
X110346457Y-124589927D01*
X110365295Y-124647902D01*
X110405473Y-124771556D01*
X110405476Y-124771561D01*
X110500958Y-124936941D01*
X110500965Y-124936951D01*
X110628744Y-125078864D01*
X110628747Y-125078866D01*
X110783248Y-125191118D01*
X110957712Y-125268794D01*
X111144513Y-125308500D01*
X111335487Y-125308500D01*
X111522288Y-125268794D01*
X111696752Y-125191118D01*
X111851253Y-125078866D01*
X111857594Y-125071824D01*
X111979034Y-124936951D01*
X111979035Y-124936949D01*
X111979040Y-124936944D01*
X112074527Y-124771556D01*
X112133542Y-124589928D01*
X112153504Y-124400000D01*
X112133542Y-124210072D01*
X112074527Y-124028444D01*
X112052733Y-123990696D01*
X112035996Y-123921704D01*
X112059216Y-123854612D01*
X112068218Y-123843387D01*
X112074022Y-123836941D01*
X112119040Y-123786944D01*
X112214527Y-123621556D01*
X112273542Y-123439928D01*
X112293504Y-123250000D01*
X112287198Y-123190000D01*
X116816496Y-123190000D01*
X116836457Y-123379927D01*
X116854484Y-123435406D01*
X116895473Y-123561556D01*
X116895476Y-123561561D01*
X116990958Y-123726941D01*
X116990965Y-123726951D01*
X117118744Y-123868864D01*
X117118747Y-123868866D01*
X117273248Y-123981118D01*
X117447712Y-124058794D01*
X117634513Y-124098500D01*
X117825487Y-124098500D01*
X118012288Y-124058794D01*
X118186752Y-123981118D01*
X118341253Y-123868866D01*
X118341255Y-123868864D01*
X118469034Y-123726951D01*
X118469035Y-123726949D01*
X118469040Y-123726944D01*
X118564527Y-123561556D01*
X118623542Y-123379928D01*
X118643504Y-123190000D01*
X118623542Y-123000072D01*
X118564527Y-122818444D01*
X118469040Y-122653056D01*
X118469038Y-122653054D01*
X118469034Y-122653048D01*
X118341255Y-122511135D01*
X118186752Y-122398882D01*
X118012288Y-122321206D01*
X117825487Y-122281500D01*
X117634513Y-122281500D01*
X117447711Y-122321206D01*
X117273247Y-122398882D01*
X117118744Y-122511135D01*
X116990965Y-122653048D01*
X116990958Y-122653058D01*
X116895476Y-122818438D01*
X116895473Y-122818445D01*
X116836457Y-123000072D01*
X116816496Y-123190000D01*
X112287198Y-123190000D01*
X112273542Y-123060072D01*
X112214527Y-122878444D01*
X112119040Y-122713056D01*
X112119038Y-122713054D01*
X112119034Y-122713048D01*
X111991255Y-122571135D01*
X111836752Y-122458882D01*
X111662288Y-122381206D01*
X111475487Y-122341500D01*
X111284513Y-122341500D01*
X111097711Y-122381206D01*
X110923247Y-122458882D01*
X110768744Y-122571135D01*
X110640965Y-122713048D01*
X110640958Y-122713058D01*
X110545476Y-122878438D01*
X110545473Y-122878445D01*
X110486457Y-123060072D01*
X110466496Y-123249999D01*
X110486457Y-123439928D01*
X110545470Y-123621550D01*
X110545474Y-123621559D01*
X110567265Y-123659303D01*
X110584002Y-123728298D01*
X110560780Y-123795390D01*
X110551782Y-123806610D01*
X110500960Y-123863055D01*
X110500958Y-123863057D01*
X110405476Y-124028438D01*
X110405473Y-124028444D01*
X110392961Y-124066951D01*
X110346457Y-124210072D01*
X110326496Y-124400000D01*
X102536614Y-124400000D01*
X102542288Y-124398794D01*
X102716752Y-124321118D01*
X102871253Y-124208866D01*
X102876506Y-124203032D01*
X102999034Y-124066951D01*
X102999035Y-124066949D01*
X102999040Y-124066944D01*
X103094527Y-123901556D01*
X103153542Y-123719928D01*
X103173504Y-123530000D01*
X103153542Y-123340072D01*
X103094527Y-123158444D01*
X102999040Y-122993056D01*
X102999038Y-122993054D01*
X102999034Y-122993048D01*
X102871255Y-122851135D01*
X102716752Y-122738882D01*
X102542288Y-122661206D01*
X102355487Y-122621500D01*
X102164513Y-122621500D01*
X101977711Y-122661206D01*
X101803247Y-122738882D01*
X101648744Y-122851135D01*
X101520965Y-122993048D01*
X101520958Y-122993058D01*
X101425476Y-123158438D01*
X101425473Y-123158445D01*
X101366457Y-123340072D01*
X101346496Y-123530000D01*
X99200522Y-123530000D01*
X99213542Y-123489928D01*
X99233504Y-123300000D01*
X99213542Y-123110072D01*
X99154527Y-122928444D01*
X99059040Y-122763056D01*
X99059038Y-122763054D01*
X99059034Y-122763048D01*
X98931255Y-122621135D01*
X98776752Y-122508882D01*
X98602288Y-122431206D01*
X98415487Y-122391500D01*
X98224513Y-122391500D01*
X98037711Y-122431206D01*
X97863247Y-122508882D01*
X97708744Y-122621135D01*
X97580965Y-122763048D01*
X97580958Y-122763058D01*
X97485476Y-122928438D01*
X97485473Y-122928445D01*
X97426457Y-123110072D01*
X97406496Y-123300000D01*
X97413387Y-123365567D01*
X97400614Y-123435406D01*
X97352112Y-123487252D01*
X97339326Y-123493844D01*
X97193247Y-123558882D01*
X97038744Y-123671135D01*
X96910965Y-123813048D01*
X96910958Y-123813058D01*
X96815476Y-123978438D01*
X96815473Y-123978444D01*
X96814604Y-123981118D01*
X96756457Y-124160072D01*
X96736496Y-124350000D01*
X85611637Y-124350000D01*
X85596190Y-124203032D01*
X85537175Y-124021404D01*
X85441688Y-123856016D01*
X85441686Y-123856014D01*
X85441682Y-123856008D01*
X85313903Y-123714095D01*
X85159400Y-123601842D01*
X84984932Y-123524164D01*
X84959616Y-123518783D01*
X84897143Y-123485055D01*
X84865981Y-123434472D01*
X84844530Y-123368451D01*
X84844526Y-123368442D01*
X84749041Y-123203058D01*
X84749034Y-123203048D01*
X84621255Y-123061135D01*
X84466752Y-122948882D01*
X84292288Y-122871206D01*
X84105487Y-122831500D01*
X83914513Y-122831500D01*
X83727711Y-122871206D01*
X83553247Y-122948882D01*
X83398744Y-123061135D01*
X83270965Y-123203048D01*
X83270958Y-123203058D01*
X83175476Y-123368438D01*
X83175473Y-123368445D01*
X83116457Y-123550072D01*
X83096496Y-123740000D01*
X80293500Y-123740000D01*
X80293500Y-121639999D01*
X113806496Y-121639999D01*
X113826457Y-121829927D01*
X113856526Y-121922470D01*
X113885473Y-122011556D01*
X113885476Y-122011561D01*
X113980958Y-122176941D01*
X113980965Y-122176951D01*
X114108744Y-122318864D01*
X114139900Y-122341500D01*
X114263248Y-122431118D01*
X114437712Y-122508794D01*
X114624513Y-122548500D01*
X114815487Y-122548500D01*
X115002288Y-122508794D01*
X115176752Y-122431118D01*
X115331253Y-122318866D01*
X115331255Y-122318864D01*
X115459034Y-122176951D01*
X115459035Y-122176949D01*
X115459040Y-122176944D01*
X115554527Y-122011556D01*
X115613542Y-121829928D01*
X115633504Y-121640000D01*
X115613542Y-121450072D01*
X115554527Y-121268444D01*
X115459040Y-121103056D01*
X115459038Y-121103054D01*
X115459034Y-121103048D01*
X115331255Y-120961135D01*
X115176752Y-120848882D01*
X115002288Y-120771206D01*
X114815487Y-120731500D01*
X114624513Y-120731500D01*
X114437711Y-120771206D01*
X114263247Y-120848882D01*
X114108744Y-120961135D01*
X113980965Y-121103048D01*
X113980958Y-121103058D01*
X113885476Y-121268438D01*
X113885473Y-121268444D01*
X113870999Y-121312986D01*
X113826457Y-121450072D01*
X113806496Y-121639999D01*
X80293500Y-121639999D01*
X80293500Y-120670000D01*
X95446496Y-120670000D01*
X95466457Y-120859927D01*
X95484983Y-120916941D01*
X95525473Y-121041556D01*
X95525476Y-121041561D01*
X95620958Y-121206941D01*
X95620965Y-121206951D01*
X95748744Y-121348864D01*
X95748747Y-121348866D01*
X95903248Y-121461118D01*
X96077712Y-121538794D01*
X96264513Y-121578500D01*
X96455487Y-121578500D01*
X96642288Y-121538794D01*
X96816752Y-121461118D01*
X96971253Y-121348866D01*
X97025607Y-121288500D01*
X97099034Y-121206951D01*
X97099035Y-121206949D01*
X97099040Y-121206944D01*
X97194527Y-121041556D01*
X97253542Y-120859928D01*
X97273504Y-120670000D01*
X97253542Y-120480072D01*
X97194527Y-120298444D01*
X97099040Y-120133056D01*
X97099038Y-120133054D01*
X97099034Y-120133048D01*
X96971255Y-119991135D01*
X96816752Y-119878882D01*
X96642288Y-119801206D01*
X96455487Y-119761500D01*
X96264513Y-119761500D01*
X96077711Y-119801206D01*
X95903247Y-119878882D01*
X95748744Y-119991135D01*
X95620965Y-120133048D01*
X95620958Y-120133058D01*
X95552419Y-120251772D01*
X95525473Y-120298444D01*
X95512340Y-120338864D01*
X95466457Y-120480072D01*
X95446496Y-120670000D01*
X80293500Y-120670000D01*
X80293500Y-115958900D01*
X95266496Y-115958900D01*
X95286457Y-116148827D01*
X95306285Y-116209850D01*
X95345473Y-116330456D01*
X95345476Y-116330461D01*
X95440958Y-116495841D01*
X95440965Y-116495851D01*
X95568744Y-116637764D01*
X95568747Y-116637766D01*
X95723248Y-116750018D01*
X95897712Y-116827694D01*
X96084513Y-116867400D01*
X96275487Y-116867400D01*
X96462288Y-116827694D01*
X96462296Y-116827690D01*
X96466318Y-116826384D01*
X96537286Y-116824354D01*
X96598085Y-116861014D01*
X96625092Y-116907279D01*
X96665472Y-117031554D01*
X96665473Y-117031556D01*
X96672813Y-117044269D01*
X96760958Y-117196941D01*
X96760965Y-117196951D01*
X96888744Y-117338864D01*
X97017339Y-117432294D01*
X97060693Y-117488516D01*
X97066768Y-117559253D01*
X97033636Y-117622044D01*
X96994527Y-117649336D01*
X96883254Y-117698878D01*
X96883249Y-117698881D01*
X96842119Y-117728764D01*
X96775251Y-117752622D01*
X96706100Y-117736541D01*
X96693999Y-117728764D01*
X96692785Y-117727882D01*
X96659752Y-117703882D01*
X96485288Y-117626206D01*
X96298487Y-117586500D01*
X96107513Y-117586500D01*
X95920711Y-117626206D01*
X95746247Y-117703882D01*
X95591744Y-117816135D01*
X95463965Y-117958048D01*
X95463958Y-117958058D01*
X95368476Y-118123438D01*
X95368473Y-118123445D01*
X95309457Y-118305072D01*
X95289496Y-118495000D01*
X95309457Y-118684927D01*
X95339526Y-118777470D01*
X95368473Y-118866556D01*
X95391067Y-118905690D01*
X95463958Y-119031941D01*
X95463965Y-119031951D01*
X95591744Y-119173864D01*
X95591747Y-119173866D01*
X95746248Y-119286118D01*
X95920712Y-119363794D01*
X96107513Y-119403500D01*
X96298487Y-119403500D01*
X96485288Y-119363794D01*
X96659752Y-119286118D01*
X96700878Y-119256237D01*
X96767743Y-119232378D01*
X96836895Y-119248456D01*
X96849002Y-119256236D01*
X96883248Y-119281118D01*
X97057712Y-119358794D01*
X97244513Y-119398500D01*
X97435487Y-119398500D01*
X97622288Y-119358794D01*
X97796752Y-119281118D01*
X97951253Y-119168866D01*
X97983495Y-119133058D01*
X98079034Y-119026951D01*
X98079035Y-119026949D01*
X98079040Y-119026944D01*
X98174527Y-118861556D01*
X98233542Y-118679928D01*
X98253504Y-118490000D01*
X98233542Y-118300072D01*
X98174527Y-118118444D01*
X98079040Y-117953056D01*
X98079038Y-117953054D01*
X98079034Y-117953048D01*
X97951255Y-117811135D01*
X97822660Y-117717705D01*
X97779306Y-117661482D01*
X97773231Y-117590746D01*
X97806363Y-117527955D01*
X97845471Y-117500663D01*
X97956752Y-117451118D01*
X98111253Y-117338866D01*
X98111255Y-117338864D01*
X98239034Y-117196951D01*
X98239035Y-117196949D01*
X98239040Y-117196944D01*
X98334527Y-117031556D01*
X98393542Y-116849928D01*
X98413504Y-116660000D01*
X98393542Y-116470072D01*
X98334527Y-116288444D01*
X98239040Y-116123056D01*
X98239038Y-116123054D01*
X98239034Y-116123048D01*
X98111255Y-115981135D01*
X97956752Y-115868882D01*
X97782288Y-115791206D01*
X97595487Y-115751500D01*
X97404513Y-115751500D01*
X97217702Y-115791208D01*
X97213667Y-115792519D01*
X97142699Y-115794541D01*
X97081904Y-115757874D01*
X97054907Y-115711620D01*
X97051619Y-115701500D01*
X97014527Y-115587344D01*
X96919040Y-115421956D01*
X96919038Y-115421954D01*
X96919034Y-115421948D01*
X96791255Y-115280035D01*
X96636752Y-115167782D01*
X96462288Y-115090106D01*
X96275487Y-115050400D01*
X96084513Y-115050400D01*
X95897711Y-115090106D01*
X95723247Y-115167782D01*
X95568744Y-115280035D01*
X95440965Y-115421948D01*
X95440958Y-115421958D01*
X95345476Y-115587338D01*
X95345473Y-115587345D01*
X95286457Y-115768972D01*
X95266496Y-115958900D01*
X80293500Y-115958900D01*
X80293500Y-113900000D01*
X102186496Y-113900000D01*
X102206457Y-114089927D01*
X102211538Y-114105563D01*
X102265473Y-114271556D01*
X102265476Y-114271561D01*
X102360958Y-114436941D01*
X102360965Y-114436951D01*
X102488744Y-114578864D01*
X102524911Y-114605141D01*
X102572107Y-114639431D01*
X102582107Y-114646696D01*
X102625461Y-114702918D01*
X102631536Y-114773654D01*
X102598405Y-114836446D01*
X102582108Y-114850567D01*
X102498745Y-114911134D01*
X102498744Y-114911135D01*
X102370965Y-115053048D01*
X102370958Y-115053058D01*
X102275476Y-115218438D01*
X102275473Y-115218445D01*
X102216457Y-115400072D01*
X102196496Y-115590000D01*
X102216457Y-115779927D01*
X102220122Y-115791206D01*
X102275473Y-115961556D01*
X102275476Y-115961561D01*
X102368710Y-116123048D01*
X102370960Y-116126944D01*
X102423854Y-116185689D01*
X102454571Y-116249696D01*
X102445808Y-116320149D01*
X102423855Y-116354308D01*
X102370965Y-116413048D01*
X102370958Y-116413058D01*
X102275476Y-116578438D01*
X102275473Y-116578445D01*
X102216457Y-116760072D01*
X102196496Y-116949999D01*
X102216457Y-117139927D01*
X102246526Y-117232470D01*
X102275473Y-117321556D01*
X102287886Y-117343056D01*
X102366254Y-117478794D01*
X102370960Y-117486944D01*
X102423854Y-117545689D01*
X102454571Y-117609696D01*
X102445808Y-117680149D01*
X102423855Y-117714308D01*
X102370965Y-117773048D01*
X102370958Y-117773058D01*
X102275476Y-117938438D01*
X102275473Y-117938445D01*
X102216457Y-118120072D01*
X102196496Y-118310000D01*
X102216457Y-118499927D01*
X102235608Y-118558866D01*
X102275473Y-118681556D01*
X102275476Y-118681561D01*
X102370958Y-118846941D01*
X102370961Y-118846945D01*
X102423855Y-118905690D01*
X102454572Y-118969698D01*
X102445807Y-119040151D01*
X102423855Y-119074310D01*
X102370961Y-119133054D01*
X102370958Y-119133058D01*
X102275476Y-119298438D01*
X102275473Y-119298445D01*
X102216457Y-119480072D01*
X102196496Y-119670000D01*
X102216457Y-119859927D01*
X102232358Y-119908864D01*
X102275473Y-120041556D01*
X102275476Y-120041561D01*
X102370958Y-120206941D01*
X102370965Y-120206951D01*
X102498744Y-120348864D01*
X102498747Y-120348866D01*
X102653248Y-120461118D01*
X102827712Y-120538794D01*
X103014513Y-120578500D01*
X103205487Y-120578500D01*
X103392288Y-120538794D01*
X103566752Y-120461118D01*
X103721253Y-120348866D01*
X103730259Y-120338864D01*
X103776364Y-120287660D01*
X103836810Y-120250420D01*
X103907793Y-120251772D01*
X103963636Y-120287660D01*
X104018744Y-120348864D01*
X104018747Y-120348866D01*
X104173248Y-120461118D01*
X104347712Y-120538794D01*
X104534513Y-120578500D01*
X104725487Y-120578500D01*
X104912288Y-120538794D01*
X105086752Y-120461118D01*
X105241253Y-120348866D01*
X105329894Y-120250420D01*
X105369034Y-120206951D01*
X105369035Y-120206949D01*
X105369040Y-120206944D01*
X105439542Y-120084830D01*
X105490923Y-120035839D01*
X105560637Y-120022403D01*
X105626548Y-120048789D01*
X105657779Y-120084832D01*
X105710958Y-120176941D01*
X105710965Y-120176951D01*
X105838744Y-120318864D01*
X105880038Y-120348866D01*
X105993248Y-120431118D01*
X106167712Y-120508794D01*
X106354513Y-120548500D01*
X106545487Y-120548500D01*
X106732288Y-120508794D01*
X106906752Y-120431118D01*
X107061253Y-120318866D01*
X107183099Y-120183541D01*
X107243543Y-120146303D01*
X107314527Y-120147654D01*
X107373512Y-120187168D01*
X107378672Y-120193794D01*
X107380965Y-120196951D01*
X107508744Y-120338864D01*
X107508747Y-120338866D01*
X107663248Y-120451118D01*
X107837712Y-120528794D01*
X108024513Y-120568500D01*
X108215487Y-120568500D01*
X108402288Y-120528794D01*
X108576752Y-120451118D01*
X108731253Y-120338866D01*
X108767649Y-120298444D01*
X108859034Y-120196951D01*
X108859035Y-120196949D01*
X108859040Y-120196944D01*
X108954527Y-120031556D01*
X109013542Y-119849928D01*
X109033504Y-119660000D01*
X109013542Y-119470072D01*
X108954527Y-119288444D01*
X108920784Y-119230000D01*
X113776496Y-119230000D01*
X113796457Y-119419927D01*
X113806252Y-119450072D01*
X113855473Y-119601556D01*
X113855476Y-119601561D01*
X113950958Y-119766941D01*
X113950965Y-119766951D01*
X114078744Y-119908864D01*
X114078747Y-119908866D01*
X114233248Y-120021118D01*
X114407712Y-120098794D01*
X114594513Y-120138500D01*
X114785487Y-120138500D01*
X114972288Y-120098794D01*
X115146752Y-120021118D01*
X115301253Y-119908866D01*
X115372329Y-119829928D01*
X115429034Y-119766951D01*
X115429035Y-119766949D01*
X115429040Y-119766944D01*
X115524527Y-119601556D01*
X115583542Y-119419928D01*
X115603504Y-119230000D01*
X115583542Y-119040072D01*
X115524527Y-118858444D01*
X115429040Y-118693056D01*
X115427113Y-118690404D01*
X115426472Y-118688609D01*
X115425738Y-118687337D01*
X115425970Y-118687202D01*
X115403255Y-118623536D01*
X115419335Y-118554385D01*
X115435407Y-118532039D01*
X115447147Y-118519000D01*
X120945496Y-118519000D01*
X120965457Y-118708927D01*
X120995526Y-118801470D01*
X121024473Y-118890556D01*
X121024476Y-118890561D01*
X121096139Y-119014686D01*
X121112877Y-119083682D01*
X121096140Y-119140685D01*
X121045474Y-119228441D01*
X120986457Y-119410072D01*
X120966496Y-119600000D01*
X120986457Y-119789927D01*
X121015361Y-119878882D01*
X121045473Y-119971556D01*
X121045476Y-119971561D01*
X121120058Y-120100741D01*
X121136796Y-120169736D01*
X121120058Y-120226741D01*
X121032476Y-120378438D01*
X121032473Y-120378444D01*
X121017999Y-120422986D01*
X120973457Y-120560072D01*
X120953496Y-120749999D01*
X120973457Y-120939927D01*
X121003526Y-121032470D01*
X121032473Y-121121556D01*
X121032476Y-121121561D01*
X121127958Y-121286941D01*
X121127965Y-121286951D01*
X121255744Y-121428864D01*
X121300138Y-121461118D01*
X121410248Y-121541118D01*
X121584712Y-121618794D01*
X121771513Y-121658500D01*
X121962487Y-121658500D01*
X122149288Y-121618794D01*
X122323752Y-121541118D01*
X122478253Y-121428866D01*
X122478255Y-121428864D01*
X122606034Y-121286951D01*
X122606035Y-121286949D01*
X122606040Y-121286944D01*
X122701527Y-121121556D01*
X122760542Y-120939928D01*
X122780504Y-120750000D01*
X122760542Y-120560072D01*
X122702032Y-120379999D01*
X131166496Y-120379999D01*
X131186457Y-120569927D01*
X131189243Y-120578500D01*
X131245473Y-120751556D01*
X131245476Y-120751561D01*
X131340958Y-120916941D01*
X131340965Y-120916951D01*
X131468744Y-121058864D01*
X131468747Y-121058866D01*
X131623248Y-121171118D01*
X131797712Y-121248794D01*
X131984513Y-121288500D01*
X132175487Y-121288500D01*
X132362288Y-121248794D01*
X132536752Y-121171118D01*
X132691253Y-121058866D01*
X132691255Y-121058864D01*
X132819034Y-120916951D01*
X132819035Y-120916949D01*
X132819040Y-120916944D01*
X132914527Y-120751556D01*
X132973542Y-120569928D01*
X132993504Y-120380000D01*
X132973542Y-120190072D01*
X132914527Y-120008444D01*
X132819040Y-119843056D01*
X132819038Y-119843054D01*
X132819034Y-119843048D01*
X132691255Y-119701135D01*
X132536752Y-119588882D01*
X132362288Y-119511206D01*
X132175487Y-119471500D01*
X131984513Y-119471500D01*
X131797711Y-119511206D01*
X131623247Y-119588882D01*
X131468744Y-119701135D01*
X131340965Y-119843048D01*
X131340958Y-119843058D01*
X131255466Y-119991135D01*
X131245473Y-120008444D01*
X131237962Y-120031561D01*
X131186457Y-120190072D01*
X131166496Y-120379999D01*
X122702032Y-120379999D01*
X122701527Y-120378444D01*
X122626940Y-120249257D01*
X122610203Y-120180263D01*
X122626940Y-120123260D01*
X122714527Y-119971556D01*
X122773542Y-119789928D01*
X122793504Y-119600000D01*
X122773542Y-119410072D01*
X122714527Y-119228444D01*
X122642860Y-119104313D01*
X122626122Y-119035318D01*
X122642860Y-118978312D01*
X122693527Y-118890556D01*
X122752542Y-118708928D01*
X122772504Y-118519000D01*
X122752542Y-118329072D01*
X122693527Y-118147444D01*
X122598040Y-117982056D01*
X122598038Y-117982054D01*
X122598034Y-117982048D01*
X122470255Y-117840135D01*
X122315752Y-117727882D01*
X122141288Y-117650206D01*
X121954487Y-117610500D01*
X121763513Y-117610500D01*
X121576711Y-117650206D01*
X121402247Y-117727882D01*
X121247744Y-117840135D01*
X121119965Y-117982048D01*
X121119958Y-117982058D01*
X121024476Y-118147438D01*
X121024473Y-118147445D01*
X120965457Y-118329072D01*
X120945496Y-118519000D01*
X115447147Y-118519000D01*
X115539040Y-118416944D01*
X115634527Y-118251556D01*
X115693542Y-118069928D01*
X115713504Y-117880000D01*
X115693542Y-117690072D01*
X115664511Y-117600727D01*
X115662484Y-117529762D01*
X115699146Y-117468963D01*
X115762858Y-117437638D01*
X115833392Y-117445730D01*
X115835580Y-117446679D01*
X115907712Y-117478794D01*
X116094513Y-117518500D01*
X116285487Y-117518500D01*
X116472288Y-117478794D01*
X116646752Y-117401118D01*
X116785928Y-117300000D01*
X119196496Y-117300000D01*
X119216457Y-117489927D01*
X119234576Y-117545689D01*
X119275473Y-117671556D01*
X119294384Y-117704311D01*
X119370958Y-117836941D01*
X119370965Y-117836951D01*
X119498744Y-117978864D01*
X119503140Y-117982058D01*
X119653248Y-118091118D01*
X119827712Y-118168794D01*
X120014513Y-118208500D01*
X120205487Y-118208500D01*
X120392288Y-118168794D01*
X120566752Y-118091118D01*
X120721253Y-117978866D01*
X120739989Y-117958058D01*
X120849034Y-117836951D01*
X120849035Y-117836949D01*
X120849040Y-117836944D01*
X120944527Y-117671556D01*
X121003542Y-117489928D01*
X121023504Y-117300000D01*
X121003542Y-117110072D01*
X120944527Y-116928444D01*
X120849040Y-116763056D01*
X120849038Y-116763054D01*
X120849034Y-116763048D01*
X120721255Y-116621135D01*
X120566752Y-116508882D01*
X120392288Y-116431206D01*
X120205487Y-116391500D01*
X120014513Y-116391500D01*
X119827711Y-116431206D01*
X119653247Y-116508882D01*
X119498744Y-116621135D01*
X119370965Y-116763048D01*
X119370958Y-116763058D01*
X119275476Y-116928438D01*
X119275473Y-116928444D01*
X119262511Y-116968338D01*
X119216457Y-117110072D01*
X119196496Y-117300000D01*
X116785928Y-117300000D01*
X116801253Y-117288866D01*
X116801255Y-117288864D01*
X116929034Y-117146951D01*
X116929035Y-117146949D01*
X116929040Y-117146944D01*
X117024527Y-116981556D01*
X117083542Y-116799928D01*
X117103504Y-116610000D01*
X117083542Y-116420072D01*
X117024527Y-116238444D01*
X116929040Y-116073056D01*
X116929038Y-116073054D01*
X116929034Y-116073048D01*
X116801255Y-115931135D01*
X116646752Y-115818882D01*
X116472288Y-115741206D01*
X116285487Y-115701500D01*
X116094513Y-115701500D01*
X115907711Y-115741206D01*
X115733247Y-115818882D01*
X115578744Y-115931135D01*
X115450965Y-116073048D01*
X115450958Y-116073058D01*
X115366296Y-116219698D01*
X115355473Y-116238444D01*
X115348469Y-116260000D01*
X115296457Y-116420072D01*
X115276496Y-116609999D01*
X115296457Y-116799928D01*
X115325487Y-116889271D01*
X115327515Y-116960238D01*
X115290852Y-117021036D01*
X115227140Y-117052362D01*
X115156606Y-117044269D01*
X115154406Y-117043314D01*
X115082290Y-117011206D01*
X114895487Y-116971500D01*
X114704513Y-116971500D01*
X114517711Y-117011206D01*
X114343247Y-117088882D01*
X114188744Y-117201135D01*
X114060965Y-117343048D01*
X114060958Y-117343058D01*
X113965476Y-117508438D01*
X113965473Y-117508444D01*
X113953372Y-117545688D01*
X113906457Y-117690072D01*
X113886496Y-117880000D01*
X113906457Y-118069927D01*
X113923847Y-118123445D01*
X113965473Y-118251556D01*
X114060960Y-118416944D01*
X114060964Y-118416949D01*
X114062888Y-118419597D01*
X114063528Y-118421393D01*
X114064262Y-118422663D01*
X114064029Y-118422797D01*
X114086745Y-118486465D01*
X114070663Y-118555617D01*
X114054587Y-118577966D01*
X113950961Y-118693054D01*
X113950958Y-118693058D01*
X113855476Y-118858438D01*
X113855473Y-118858444D01*
X113843371Y-118895689D01*
X113796457Y-119040072D01*
X113776496Y-119230000D01*
X108920784Y-119230000D01*
X108859040Y-119123056D01*
X108806144Y-119064309D01*
X108775428Y-119000304D01*
X108784191Y-118929850D01*
X108806142Y-118895692D01*
X108859040Y-118836944D01*
X108954527Y-118671556D01*
X109013542Y-118489928D01*
X109033504Y-118300000D01*
X109013542Y-118110072D01*
X108954527Y-117928444D01*
X108859040Y-117763056D01*
X108806144Y-117704309D01*
X108775428Y-117640304D01*
X108784191Y-117569850D01*
X108806142Y-117535692D01*
X108859040Y-117476944D01*
X108954527Y-117311556D01*
X109013542Y-117129928D01*
X109033504Y-116940000D01*
X109013542Y-116750072D01*
X108954527Y-116568444D01*
X108859040Y-116403056D01*
X108806144Y-116344309D01*
X108775428Y-116280304D01*
X108784191Y-116209850D01*
X108806142Y-116175692D01*
X108859040Y-116116944D01*
X108954527Y-115951556D01*
X109013542Y-115769928D01*
X109033504Y-115580000D01*
X109013542Y-115390072D01*
X108954527Y-115208444D01*
X108859040Y-115043056D01*
X108859038Y-115043054D01*
X108859034Y-115043048D01*
X108731255Y-114901135D01*
X108576752Y-114788882D01*
X108402288Y-114711206D01*
X108215487Y-114671500D01*
X108032854Y-114671500D01*
X107964733Y-114651498D01*
X107918240Y-114597842D01*
X107908136Y-114527568D01*
X107937630Y-114462988D01*
X107939216Y-114461192D01*
X107943034Y-114456951D01*
X107943035Y-114456949D01*
X107943040Y-114456944D01*
X108038527Y-114291556D01*
X108085963Y-114145563D01*
X108126037Y-114086958D01*
X108189826Y-114060000D01*
X118876496Y-114060000D01*
X118896457Y-114249927D01*
X118926526Y-114342470D01*
X118955473Y-114431556D01*
X118955476Y-114431561D01*
X119050958Y-114596941D01*
X119050965Y-114596951D01*
X119178744Y-114738864D01*
X119206175Y-114758794D01*
X119333248Y-114851118D01*
X119507712Y-114928794D01*
X119694513Y-114968500D01*
X119885487Y-114968500D01*
X120072288Y-114928794D01*
X120246752Y-114851118D01*
X120401253Y-114738866D01*
X120426158Y-114711206D01*
X120529034Y-114596951D01*
X120529035Y-114596949D01*
X120529040Y-114596944D01*
X120624527Y-114431556D01*
X120667273Y-114299999D01*
X126086496Y-114299999D01*
X126106457Y-114489927D01*
X126118688Y-114527568D01*
X126165473Y-114671556D01*
X126165476Y-114671561D01*
X126260958Y-114836941D01*
X126260965Y-114836951D01*
X126388744Y-114978864D01*
X126429159Y-115008227D01*
X126543248Y-115091118D01*
X126717712Y-115168794D01*
X126904513Y-115208500D01*
X127095487Y-115208500D01*
X127282288Y-115168794D01*
X127456752Y-115091118D01*
X127611253Y-114978866D01*
X127681243Y-114901134D01*
X127739034Y-114836951D01*
X127739035Y-114836949D01*
X127739040Y-114836944D01*
X127834527Y-114671556D01*
X127893542Y-114489928D01*
X127913504Y-114300000D01*
X127893542Y-114110072D01*
X127834527Y-113928444D01*
X127739040Y-113763056D01*
X127739038Y-113763054D01*
X127739034Y-113763048D01*
X127611255Y-113621135D01*
X127456752Y-113508882D01*
X127282288Y-113431206D01*
X127095487Y-113391500D01*
X126904513Y-113391500D01*
X126717711Y-113431206D01*
X126543247Y-113508882D01*
X126388744Y-113621135D01*
X126260965Y-113763048D01*
X126260958Y-113763058D01*
X126165476Y-113928438D01*
X126165473Y-113928445D01*
X126106457Y-114110072D01*
X126086496Y-114299999D01*
X120667273Y-114299999D01*
X120683542Y-114249928D01*
X120703504Y-114060000D01*
X120683542Y-113870072D01*
X120624527Y-113688444D01*
X120529040Y-113523056D01*
X120529038Y-113523054D01*
X120529034Y-113523048D01*
X120401255Y-113381135D01*
X120246752Y-113268882D01*
X120072288Y-113191206D01*
X119885487Y-113151500D01*
X119694513Y-113151500D01*
X119507711Y-113191206D01*
X119333247Y-113268882D01*
X119178744Y-113381135D01*
X119050965Y-113523048D01*
X119050958Y-113523058D01*
X118955476Y-113688438D01*
X118955473Y-113688445D01*
X118896457Y-113870072D01*
X118876496Y-114060000D01*
X108189826Y-114060000D01*
X108191433Y-114059321D01*
X108205796Y-114058500D01*
X108325487Y-114058500D01*
X108512288Y-114018794D01*
X108686752Y-113941118D01*
X108841253Y-113828866D01*
X108900516Y-113763048D01*
X108969034Y-113686951D01*
X108969035Y-113686949D01*
X108969040Y-113686944D01*
X109064527Y-113521556D01*
X109123542Y-113339928D01*
X109143504Y-113150000D01*
X109123542Y-112960072D01*
X109064527Y-112778444D01*
X108969040Y-112613056D01*
X108969038Y-112613054D01*
X108969034Y-112613048D01*
X108841255Y-112471135D01*
X108686752Y-112358882D01*
X108512288Y-112281206D01*
X108325487Y-112241500D01*
X108134513Y-112241500D01*
X107947711Y-112281206D01*
X107773247Y-112358882D01*
X107618744Y-112471135D01*
X107490965Y-112613048D01*
X107490958Y-112613058D01*
X107395476Y-112778438D01*
X107395471Y-112778447D01*
X107348037Y-112924436D01*
X107307963Y-112983042D01*
X107242567Y-113010679D01*
X107228204Y-113011500D01*
X107192793Y-113011500D01*
X107124672Y-112991498D01*
X107078179Y-112937842D01*
X107072960Y-112924437D01*
X107067568Y-112907842D01*
X107012527Y-112738444D01*
X106917040Y-112573056D01*
X106917038Y-112573054D01*
X106917034Y-112573048D01*
X106789255Y-112431135D01*
X106634752Y-112318882D01*
X106460288Y-112241206D01*
X106273487Y-112201500D01*
X106082513Y-112201500D01*
X105895711Y-112241206D01*
X105721247Y-112318882D01*
X105566744Y-112431135D01*
X105438965Y-112573048D01*
X105438958Y-112573058D01*
X105343476Y-112738438D01*
X105343471Y-112738447D01*
X105292788Y-112894436D01*
X105252714Y-112953042D01*
X105187318Y-112980679D01*
X105172955Y-112981500D01*
X105131046Y-112981500D01*
X105062925Y-112961498D01*
X105016432Y-112907842D01*
X105011213Y-112894437D01*
X104999802Y-112859319D01*
X104960527Y-112738444D01*
X104865040Y-112573056D01*
X104865038Y-112573054D01*
X104865034Y-112573048D01*
X104737255Y-112431135D01*
X104582752Y-112318882D01*
X104408288Y-112241206D01*
X104221487Y-112201500D01*
X104030513Y-112201500D01*
X103843711Y-112241206D01*
X103669247Y-112318882D01*
X103514744Y-112431135D01*
X103386965Y-112573048D01*
X103386958Y-112573058D01*
X103291476Y-112738438D01*
X103291473Y-112738445D01*
X103237538Y-112904437D01*
X103197464Y-112963042D01*
X103132067Y-112990679D01*
X103117705Y-112991500D01*
X103004513Y-112991500D01*
X102817711Y-113031206D01*
X102643247Y-113108882D01*
X102488744Y-113221135D01*
X102360965Y-113363048D01*
X102360958Y-113363058D01*
X102265476Y-113528438D01*
X102265473Y-113528445D01*
X102206457Y-113710072D01*
X102186496Y-113900000D01*
X80293500Y-113900000D01*
X80293500Y-112195000D01*
X93185496Y-112195000D01*
X93205457Y-112384927D01*
X93231787Y-112465959D01*
X93264473Y-112566556D01*
X93264474Y-112566557D01*
X93264476Y-112566561D01*
X93359958Y-112731941D01*
X93359965Y-112731951D01*
X93487744Y-112873864D01*
X93487747Y-112873866D01*
X93642248Y-112986118D01*
X93816712Y-113063794D01*
X94003513Y-113103500D01*
X94194487Y-113103500D01*
X94381288Y-113063794D01*
X94555752Y-112986118D01*
X94710253Y-112873866D01*
X94796169Y-112778447D01*
X94838034Y-112731951D01*
X94838035Y-112731949D01*
X94838040Y-112731944D01*
X94933527Y-112566556D01*
X94947171Y-112524563D01*
X94987243Y-112465959D01*
X95052640Y-112438321D01*
X95067004Y-112437500D01*
X95211487Y-112437500D01*
X95398288Y-112397794D01*
X95572752Y-112320118D01*
X95727253Y-112207866D01*
X95764093Y-112166951D01*
X95855034Y-112065951D01*
X95855035Y-112065949D01*
X95855040Y-112065944D01*
X95950527Y-111900556D01*
X95950526Y-111900556D01*
X95953829Y-111894837D01*
X95955605Y-111895862D01*
X95995314Y-111849151D01*
X96063243Y-111828506D01*
X96064434Y-111828500D01*
X96225487Y-111828500D01*
X96412288Y-111788794D01*
X96586752Y-111711118D01*
X96741253Y-111598866D01*
X96846000Y-111482532D01*
X96906445Y-111445293D01*
X96977429Y-111446644D01*
X97036414Y-111486158D01*
X97048755Y-111503843D01*
X97090958Y-111576941D01*
X97090965Y-111576951D01*
X97218744Y-111718864D01*
X97218747Y-111718866D01*
X97373248Y-111831118D01*
X97547712Y-111908794D01*
X97734513Y-111948500D01*
X97925487Y-111948500D01*
X98112288Y-111908794D01*
X98286752Y-111831118D01*
X98441253Y-111718866D01*
X98447340Y-111712106D01*
X98569034Y-111576951D01*
X98569035Y-111576949D01*
X98569040Y-111576944D01*
X98664527Y-111411556D01*
X98723542Y-111229928D01*
X98743504Y-111040000D01*
X98743504Y-111039999D01*
X112626496Y-111039999D01*
X112646457Y-111229927D01*
X112667750Y-111295457D01*
X112705473Y-111411556D01*
X112705476Y-111411561D01*
X112800958Y-111576941D01*
X112800965Y-111576951D01*
X112928744Y-111718864D01*
X112928747Y-111718866D01*
X113083248Y-111831118D01*
X113257712Y-111908794D01*
X113444513Y-111948500D01*
X113635487Y-111948500D01*
X113822288Y-111908794D01*
X113996752Y-111831118D01*
X114151253Y-111718866D01*
X114157334Y-111712111D01*
X114217774Y-111674869D01*
X114288758Y-111676214D01*
X114344611Y-111712106D01*
X114458744Y-111838864D01*
X114458747Y-111838866D01*
X114613248Y-111951118D01*
X114787712Y-112028794D01*
X114974513Y-112068500D01*
X115165487Y-112068500D01*
X115352288Y-112028794D01*
X115526752Y-111951118D01*
X115681253Y-111838866D01*
X115681255Y-111838864D01*
X115809034Y-111696951D01*
X115809035Y-111696949D01*
X115809040Y-111696944D01*
X115847690Y-111630000D01*
X118866496Y-111630000D01*
X118886457Y-111819927D01*
X118911131Y-111895862D01*
X118945473Y-112001556D01*
X118945476Y-112001561D01*
X119040958Y-112166941D01*
X119040965Y-112166951D01*
X119168744Y-112308864D01*
X119184234Y-112320118D01*
X119323248Y-112421118D01*
X119497712Y-112498794D01*
X119684513Y-112538500D01*
X119875487Y-112538500D01*
X120062288Y-112498794D01*
X120236752Y-112421118D01*
X120391253Y-112308866D01*
X120451910Y-112241500D01*
X120519034Y-112166951D01*
X120519035Y-112166949D01*
X120519040Y-112166944D01*
X120614527Y-112001556D01*
X120673542Y-111819928D01*
X120693504Y-111630000D01*
X120673542Y-111440072D01*
X120614527Y-111258444D01*
X120519040Y-111093056D01*
X120519038Y-111093054D01*
X120519034Y-111093048D01*
X120391255Y-110951135D01*
X120236752Y-110838882D01*
X120062288Y-110761206D01*
X119875487Y-110721500D01*
X119684513Y-110721500D01*
X119497711Y-110761206D01*
X119323247Y-110838882D01*
X119168744Y-110951135D01*
X119040965Y-111093048D01*
X119040958Y-111093058D01*
X118945476Y-111258438D01*
X118945473Y-111258445D01*
X118886457Y-111440072D01*
X118866496Y-111630000D01*
X115847690Y-111630000D01*
X115904527Y-111531556D01*
X115963542Y-111349928D01*
X115983504Y-111160000D01*
X115963542Y-110970072D01*
X115904527Y-110788444D01*
X115809040Y-110623056D01*
X115809038Y-110623054D01*
X115809034Y-110623048D01*
X115681255Y-110481135D01*
X115526752Y-110368882D01*
X115352288Y-110291206D01*
X115165487Y-110251500D01*
X114974513Y-110251500D01*
X114787711Y-110291206D01*
X114613247Y-110368882D01*
X114458749Y-110481132D01*
X114458745Y-110481135D01*
X114452656Y-110487898D01*
X114392208Y-110525135D01*
X114321225Y-110523780D01*
X114265388Y-110487893D01*
X114151255Y-110361135D01*
X113996752Y-110248882D01*
X113822288Y-110171206D01*
X113635487Y-110131500D01*
X113444513Y-110131500D01*
X113257711Y-110171206D01*
X113083247Y-110248882D01*
X112928744Y-110361135D01*
X112800965Y-110503048D01*
X112800958Y-110503058D01*
X112705476Y-110668438D01*
X112705473Y-110668445D01*
X112646457Y-110850072D01*
X112626496Y-111039999D01*
X98743504Y-111039999D01*
X98723542Y-110850072D01*
X98664527Y-110668444D01*
X98569040Y-110503056D01*
X98569038Y-110503054D01*
X98569034Y-110503048D01*
X98441255Y-110361135D01*
X98286752Y-110248882D01*
X98112288Y-110171206D01*
X97925487Y-110131500D01*
X97734513Y-110131500D01*
X97547711Y-110171206D01*
X97373247Y-110248882D01*
X97218746Y-110361134D01*
X97113999Y-110477467D01*
X97053553Y-110514706D01*
X96982569Y-110513354D01*
X96923585Y-110473840D01*
X96911244Y-110456156D01*
X96869041Y-110383058D01*
X96869034Y-110383048D01*
X96741255Y-110241135D01*
X96586752Y-110128882D01*
X96412288Y-110051206D01*
X96225487Y-110011500D01*
X96034513Y-110011500D01*
X95847711Y-110051206D01*
X95673247Y-110128882D01*
X95518744Y-110241135D01*
X95390965Y-110383048D01*
X95390958Y-110383058D01*
X95292171Y-110554162D01*
X95290392Y-110553135D01*
X95250697Y-110599842D01*
X95182771Y-110620494D01*
X95181566Y-110620500D01*
X95020513Y-110620500D01*
X94833711Y-110660206D01*
X94659247Y-110737882D01*
X94504744Y-110850135D01*
X94376965Y-110992048D01*
X94376958Y-110992058D01*
X94281474Y-111157440D01*
X94267829Y-111199436D01*
X94227755Y-111258042D01*
X94162359Y-111285679D01*
X94147996Y-111286500D01*
X94003513Y-111286500D01*
X93816711Y-111326206D01*
X93642247Y-111403882D01*
X93487744Y-111516135D01*
X93359965Y-111658048D01*
X93359958Y-111658058D01*
X93264476Y-111823438D01*
X93264473Y-111823444D01*
X93261980Y-111831117D01*
X93205457Y-112005072D01*
X93185496Y-112195000D01*
X80293500Y-112195000D01*
X80293500Y-109220000D01*
X117466496Y-109220000D01*
X117486457Y-109409927D01*
X117516526Y-109502470D01*
X117545473Y-109591556D01*
X117545476Y-109591561D01*
X117640958Y-109756941D01*
X117640965Y-109756951D01*
X117768744Y-109898864D01*
X117768747Y-109898866D01*
X117923248Y-110011118D01*
X118097712Y-110088794D01*
X118284513Y-110128500D01*
X118475487Y-110128500D01*
X118662288Y-110088794D01*
X118836752Y-110011118D01*
X118991253Y-109898866D01*
X119119040Y-109756944D01*
X119214527Y-109591556D01*
X119273542Y-109409928D01*
X119293504Y-109220000D01*
X119273542Y-109030072D01*
X119214527Y-108848444D01*
X119119040Y-108683056D01*
X119119038Y-108683054D01*
X119119034Y-108683048D01*
X118991255Y-108541135D01*
X118836752Y-108428882D01*
X118662288Y-108351206D01*
X118475487Y-108311500D01*
X118284513Y-108311500D01*
X118097711Y-108351206D01*
X117923247Y-108428882D01*
X117768744Y-108541135D01*
X117640965Y-108683048D01*
X117640958Y-108683058D01*
X117545476Y-108848438D01*
X117545473Y-108848445D01*
X117486457Y-109030072D01*
X117466496Y-109220000D01*
X80293500Y-109220000D01*
X80293500Y-107879999D01*
X97936496Y-107879999D01*
X97956457Y-108069927D01*
X97986526Y-108162470D01*
X98015473Y-108251556D01*
X98015476Y-108251561D01*
X98110958Y-108416941D01*
X98110965Y-108416951D01*
X98238744Y-108558864D01*
X98283138Y-108591118D01*
X98393248Y-108671118D01*
X98567712Y-108748794D01*
X98754513Y-108788500D01*
X98945487Y-108788500D01*
X99132288Y-108748794D01*
X99306752Y-108671118D01*
X99461253Y-108558866D01*
X99477219Y-108541134D01*
X99589034Y-108416951D01*
X99589035Y-108416949D01*
X99589040Y-108416944D01*
X99684527Y-108251556D01*
X99743542Y-108069928D01*
X99763504Y-107880000D01*
X99755096Y-107800000D01*
X111616496Y-107800000D01*
X111636457Y-107989927D01*
X111651310Y-108035637D01*
X111695473Y-108171556D01*
X111695476Y-108171561D01*
X111790958Y-108336941D01*
X111790965Y-108336951D01*
X111918744Y-108478864D01*
X111918747Y-108478866D01*
X112073248Y-108591118D01*
X112247712Y-108668794D01*
X112434513Y-108708500D01*
X112625487Y-108708500D01*
X112812288Y-108668794D01*
X112986752Y-108591118D01*
X113141253Y-108478866D01*
X113186259Y-108428882D01*
X113269034Y-108336951D01*
X113269035Y-108336949D01*
X113269040Y-108336944D01*
X113364527Y-108171556D01*
X113408690Y-108035637D01*
X123395072Y-108035637D01*
X123415033Y-108225564D01*
X123442956Y-108311500D01*
X123474049Y-108407193D01*
X123474052Y-108407198D01*
X123569534Y-108572578D01*
X123569541Y-108572588D01*
X123697320Y-108714501D01*
X123697323Y-108714503D01*
X123851824Y-108826755D01*
X124026288Y-108904431D01*
X124213089Y-108944137D01*
X124404063Y-108944137D01*
X124590864Y-108904431D01*
X124765328Y-108826755D01*
X124919829Y-108714503D01*
X124960986Y-108668794D01*
X125047610Y-108572588D01*
X125047611Y-108572586D01*
X125047616Y-108572581D01*
X125143103Y-108407193D01*
X125202118Y-108225565D01*
X125222080Y-108035637D01*
X125202118Y-107845709D01*
X125143103Y-107664081D01*
X125047616Y-107498693D01*
X125047614Y-107498691D01*
X125047610Y-107498685D01*
X124919831Y-107356772D01*
X124765328Y-107244519D01*
X124590864Y-107166843D01*
X124404063Y-107127137D01*
X124213089Y-107127137D01*
X124026287Y-107166843D01*
X123851823Y-107244519D01*
X123697320Y-107356772D01*
X123569541Y-107498685D01*
X123569534Y-107498695D01*
X123474052Y-107664075D01*
X123474049Y-107664082D01*
X123415033Y-107845709D01*
X123395072Y-108035637D01*
X113408690Y-108035637D01*
X113423542Y-107989928D01*
X113443504Y-107800000D01*
X113423542Y-107610072D01*
X113364527Y-107428444D01*
X113269040Y-107263056D01*
X113269038Y-107263054D01*
X113269034Y-107263048D01*
X113141255Y-107121135D01*
X112986752Y-107008882D01*
X112812288Y-106931206D01*
X112625487Y-106891500D01*
X112434513Y-106891500D01*
X112247711Y-106931206D01*
X112073247Y-107008882D01*
X111918744Y-107121135D01*
X111790965Y-107263048D01*
X111790958Y-107263058D01*
X111695476Y-107428438D01*
X111695473Y-107428445D01*
X111636457Y-107610072D01*
X111616496Y-107800000D01*
X99755096Y-107800000D01*
X99743542Y-107690072D01*
X99684527Y-107508444D01*
X99589040Y-107343056D01*
X99589038Y-107343054D01*
X99589034Y-107343048D01*
X99461255Y-107201135D01*
X99306752Y-107088882D01*
X99132288Y-107011206D01*
X98945487Y-106971500D01*
X98754513Y-106971500D01*
X98567711Y-107011206D01*
X98393247Y-107088882D01*
X98238744Y-107201135D01*
X98110965Y-107343048D01*
X98110958Y-107343058D01*
X98015476Y-107508438D01*
X98015473Y-107508445D01*
X97956457Y-107690072D01*
X97936496Y-107879999D01*
X80293500Y-107879999D01*
X80293500Y-106040000D01*
X99266496Y-106040000D01*
X99286457Y-106229927D01*
X99301612Y-106276567D01*
X99345473Y-106411556D01*
X99345476Y-106411561D01*
X99440958Y-106576941D01*
X99440965Y-106576951D01*
X99568744Y-106718864D01*
X99568747Y-106718866D01*
X99723248Y-106831118D01*
X99897712Y-106908794D01*
X100084513Y-106948500D01*
X100275487Y-106948500D01*
X100462288Y-106908794D01*
X100636752Y-106831118D01*
X100791253Y-106718866D01*
X100875144Y-106625696D01*
X100919034Y-106576951D01*
X100919035Y-106576949D01*
X100919040Y-106576944D01*
X101014527Y-106411556D01*
X101073542Y-106229928D01*
X101093504Y-106040000D01*
X101090351Y-106009999D01*
X110336496Y-106009999D01*
X110356457Y-106199927D01*
X110374078Y-106254157D01*
X110415473Y-106381556D01*
X110415476Y-106381561D01*
X110510958Y-106546941D01*
X110510965Y-106546951D01*
X110638744Y-106688864D01*
X110680038Y-106718866D01*
X110793248Y-106801118D01*
X110967712Y-106878794D01*
X111154513Y-106918500D01*
X111345487Y-106918500D01*
X111532288Y-106878794D01*
X111706752Y-106801118D01*
X111861253Y-106688866D01*
X111861255Y-106688864D01*
X111989034Y-106546951D01*
X111989035Y-106546949D01*
X111989040Y-106546944D01*
X112084527Y-106381556D01*
X112143542Y-106199928D01*
X112163504Y-106010000D01*
X112143542Y-105820072D01*
X112084527Y-105638444D01*
X112039238Y-105560002D01*
X125986620Y-105560002D01*
X126006090Y-105757693D01*
X126006091Y-105757699D01*
X126006092Y-105757700D01*
X126063759Y-105947803D01*
X126157405Y-106123003D01*
X126283432Y-106276567D01*
X126436996Y-106402594D01*
X126612196Y-106496240D01*
X126802299Y-106553907D01*
X126802303Y-106553907D01*
X126802305Y-106553908D01*
X126999997Y-106573379D01*
X127000000Y-106573379D01*
X127000003Y-106573379D01*
X127197694Y-106553908D01*
X127197695Y-106553907D01*
X127197701Y-106553907D01*
X127387804Y-106496240D01*
X127563004Y-106402594D01*
X127716568Y-106276567D01*
X127842595Y-106123003D01*
X127936241Y-105947803D01*
X127993908Y-105757700D01*
X127998689Y-105709160D01*
X130424665Y-105709160D01*
X130454406Y-105903295D01*
X130454409Y-105903304D01*
X130522616Y-106087474D01*
X130522618Y-106087476D01*
X130611408Y-106229927D01*
X130626510Y-106254155D01*
X130761826Y-106396507D01*
X130761829Y-106396509D01*
X130761830Y-106396510D01*
X130799993Y-106423072D01*
X130923027Y-106508707D01*
X131103514Y-106586160D01*
X131295898Y-106625696D01*
X131295900Y-106625696D01*
X132128871Y-106625696D01*
X132128872Y-106625696D01*
X132128873Y-106625695D01*
X132128890Y-106625695D01*
X132219694Y-106616460D01*
X132275296Y-106610806D01*
X132462693Y-106552010D01*
X132634419Y-106456695D01*
X132634420Y-106456694D01*
X132634422Y-106456693D01*
X132697440Y-106402593D01*
X132783442Y-106328762D01*
X132903662Y-106173451D01*
X132990157Y-105997118D01*
X133039386Y-105806984D01*
X133039386Y-105806977D01*
X133039387Y-105806975D01*
X133049334Y-105610831D01*
X133034349Y-105513016D01*
X133019593Y-105416693D01*
X132987759Y-105330738D01*
X132951383Y-105232517D01*
X132951381Y-105232515D01*
X132951381Y-105232514D01*
X132847490Y-105065837D01*
X132712174Y-104923485D01*
X132712170Y-104923482D01*
X132712169Y-104923481D01*
X132597158Y-104843431D01*
X132550973Y-104811285D01*
X132540874Y-104806951D01*
X132370489Y-104733833D01*
X132370487Y-104733832D01*
X132370486Y-104733832D01*
X132178102Y-104694296D01*
X131345128Y-104694296D01*
X131345109Y-104694296D01*
X131198708Y-104709185D01*
X131198705Y-104709185D01*
X131198704Y-104709186D01*
X131160630Y-104721131D01*
X131011307Y-104767981D01*
X130839577Y-104863298D01*
X130690564Y-104991224D01*
X130690562Y-104991226D01*
X130690558Y-104991230D01*
X130570338Y-105146541D01*
X130570337Y-105146542D01*
X130570337Y-105146543D01*
X130570336Y-105146544D01*
X130483844Y-105322870D01*
X130434613Y-105513012D01*
X130434612Y-105513016D01*
X130424665Y-105709160D01*
X127998689Y-105709160D01*
X128005655Y-105638438D01*
X128013380Y-105560002D01*
X128013380Y-105559995D01*
X127993909Y-105362304D01*
X127993908Y-105362302D01*
X127993908Y-105362298D01*
X127936241Y-105172195D01*
X127842595Y-104996995D01*
X127716568Y-104843431D01*
X127563004Y-104717404D01*
X127559050Y-104714762D01*
X127513523Y-104660284D01*
X127504677Y-104589841D01*
X127535319Y-104525797D01*
X127559058Y-104505229D01*
X127562999Y-104502595D01*
X127563004Y-104502593D01*
X127716568Y-104376566D01*
X127842595Y-104223002D01*
X127936241Y-104047802D01*
X127993908Y-103857699D01*
X128006185Y-103733056D01*
X128013380Y-103660001D01*
X128013380Y-103659994D01*
X127993909Y-103462303D01*
X127993908Y-103462301D01*
X127993908Y-103462297D01*
X127936241Y-103272194D01*
X127842595Y-103096994D01*
X127716568Y-102943430D01*
X127563004Y-102817403D01*
X127387804Y-102723757D01*
X127197701Y-102666090D01*
X127197700Y-102666089D01*
X127197694Y-102666088D01*
X127000003Y-102646618D01*
X126999997Y-102646618D01*
X126802305Y-102666088D01*
X126612195Y-102723757D01*
X126436995Y-102817403D01*
X126283432Y-102943430D01*
X126157405Y-103096993D01*
X126063759Y-103272193D01*
X126006090Y-103462303D01*
X125986620Y-103659994D01*
X125986620Y-103660001D01*
X126006090Y-103857692D01*
X126006091Y-103857698D01*
X126006092Y-103857699D01*
X126063759Y-104047802D01*
X126157405Y-104223002D01*
X126283432Y-104376566D01*
X126348454Y-104429928D01*
X126436993Y-104502591D01*
X126440946Y-104505232D01*
X126486474Y-104559709D01*
X126495323Y-104630152D01*
X126464682Y-104694196D01*
X126440954Y-104714758D01*
X126437001Y-104717399D01*
X126283432Y-104843431D01*
X126157405Y-104996994D01*
X126063759Y-105172194D01*
X126006090Y-105362304D01*
X125986620Y-105559995D01*
X125986620Y-105560002D01*
X112039238Y-105560002D01*
X111989040Y-105473056D01*
X111989038Y-105473054D01*
X111989034Y-105473048D01*
X111861255Y-105331135D01*
X111706752Y-105218882D01*
X111532288Y-105141206D01*
X111345487Y-105101500D01*
X111154513Y-105101500D01*
X110967711Y-105141206D01*
X110793247Y-105218882D01*
X110638744Y-105331135D01*
X110510965Y-105473048D01*
X110510958Y-105473058D01*
X110415476Y-105638438D01*
X110415473Y-105638445D01*
X110356457Y-105820072D01*
X110336496Y-106009999D01*
X101090351Y-106009999D01*
X101073542Y-105850072D01*
X101014527Y-105668444D01*
X100919040Y-105503056D01*
X100919038Y-105503054D01*
X100919034Y-105503048D01*
X100791255Y-105361135D01*
X100636752Y-105248882D01*
X100462288Y-105171206D01*
X100275487Y-105131500D01*
X100084513Y-105131500D01*
X99897711Y-105171206D01*
X99723247Y-105248882D01*
X99568744Y-105361135D01*
X99440965Y-105503048D01*
X99440958Y-105503058D01*
X99345476Y-105668438D01*
X99345473Y-105668445D01*
X99286457Y-105850072D01*
X99266496Y-106040000D01*
X80293500Y-106040000D01*
X80293500Y-104240000D01*
X102086496Y-104240000D01*
X102106457Y-104429927D01*
X102130068Y-104502591D01*
X102165473Y-104611556D01*
X102165476Y-104611561D01*
X102260958Y-104776941D01*
X102260965Y-104776951D01*
X102388744Y-104918864D01*
X102430038Y-104948866D01*
X102543248Y-105031118D01*
X102717712Y-105108794D01*
X102904513Y-105148500D01*
X103095487Y-105148500D01*
X103282288Y-105108794D01*
X103456752Y-105031118D01*
X103611253Y-104918866D01*
X103661287Y-104863298D01*
X103739034Y-104776951D01*
X103739035Y-104776949D01*
X103739040Y-104776944D01*
X103834527Y-104611556D01*
X103893542Y-104429928D01*
X103910351Y-104270000D01*
X107416496Y-104270000D01*
X107436457Y-104459927D01*
X107457860Y-104525797D01*
X107495473Y-104641556D01*
X107495476Y-104641561D01*
X107590958Y-104806941D01*
X107590965Y-104806951D01*
X107718744Y-104948864D01*
X107718747Y-104948866D01*
X107873248Y-105061118D01*
X108047712Y-105138794D01*
X108234513Y-105178500D01*
X108425487Y-105178500D01*
X108612288Y-105138794D01*
X108786752Y-105061118D01*
X108941253Y-104948866D01*
X108941255Y-104948864D01*
X109069034Y-104806951D01*
X109069035Y-104806949D01*
X109069040Y-104806944D01*
X109164527Y-104641556D01*
X109223542Y-104459928D01*
X109243504Y-104270000D01*
X109229841Y-104139999D01*
X121006496Y-104139999D01*
X121026457Y-104329927D01*
X121056526Y-104422470D01*
X121085473Y-104511556D01*
X121085476Y-104511561D01*
X121180958Y-104676941D01*
X121180965Y-104676951D01*
X121308744Y-104818864D01*
X121308747Y-104818866D01*
X121463248Y-104931118D01*
X121637712Y-105008794D01*
X121824513Y-105048500D01*
X122015487Y-105048500D01*
X122202288Y-105008794D01*
X122376752Y-104931118D01*
X122531253Y-104818866D01*
X122538080Y-104811284D01*
X122659034Y-104676951D01*
X122659035Y-104676949D01*
X122659040Y-104676944D01*
X122754527Y-104511556D01*
X122813542Y-104329928D01*
X122833504Y-104140000D01*
X122813542Y-103950072D01*
X122754527Y-103768444D01*
X122659040Y-103603056D01*
X122659038Y-103603054D01*
X122659034Y-103603048D01*
X122531255Y-103461135D01*
X122376752Y-103348882D01*
X122202288Y-103271206D01*
X122015487Y-103231500D01*
X121824513Y-103231500D01*
X121637711Y-103271206D01*
X121463247Y-103348882D01*
X121308744Y-103461135D01*
X121180965Y-103603048D01*
X121180958Y-103603058D01*
X121085476Y-103768438D01*
X121085473Y-103768445D01*
X121026457Y-103950072D01*
X121006496Y-104139999D01*
X109229841Y-104139999D01*
X109223542Y-104080072D01*
X109164527Y-103898444D01*
X109069040Y-103733056D01*
X109069038Y-103733054D01*
X109069034Y-103733048D01*
X108941255Y-103591135D01*
X108786752Y-103478882D01*
X108612288Y-103401206D01*
X108425487Y-103361500D01*
X108234513Y-103361500D01*
X108047711Y-103401206D01*
X107873247Y-103478882D01*
X107718744Y-103591135D01*
X107590965Y-103733048D01*
X107590958Y-103733058D01*
X107495476Y-103898438D01*
X107495473Y-103898445D01*
X107436457Y-104080072D01*
X107416496Y-104270000D01*
X103910351Y-104270000D01*
X103913504Y-104240000D01*
X103893542Y-104050072D01*
X103834527Y-103868444D01*
X103739040Y-103703056D01*
X103739038Y-103703054D01*
X103739034Y-103703048D01*
X103611255Y-103561135D01*
X103456752Y-103448882D01*
X103282288Y-103371206D01*
X103095487Y-103331500D01*
X102904513Y-103331500D01*
X102717711Y-103371206D01*
X102543247Y-103448882D01*
X102388744Y-103561135D01*
X102260965Y-103703048D01*
X102260958Y-103703058D01*
X102165476Y-103868438D01*
X102165473Y-103868445D01*
X102106457Y-104050072D01*
X102086496Y-104240000D01*
X80293500Y-104240000D01*
X80293500Y-102989999D01*
X91996496Y-102989999D01*
X92016457Y-103179927D01*
X92033215Y-103231500D01*
X92075473Y-103361556D01*
X92098365Y-103401206D01*
X92170958Y-103526941D01*
X92170965Y-103526951D01*
X92298744Y-103668864D01*
X92298747Y-103668866D01*
X92453248Y-103781118D01*
X92627712Y-103858794D01*
X92814513Y-103898500D01*
X93005487Y-103898500D01*
X93192288Y-103858794D01*
X93366752Y-103781118D01*
X93521253Y-103668866D01*
X93529238Y-103659998D01*
X93649034Y-103526951D01*
X93649035Y-103526949D01*
X93649040Y-103526944D01*
X93744527Y-103361556D01*
X93803542Y-103179928D01*
X93823504Y-102990000D01*
X93803542Y-102800072D01*
X93744527Y-102618444D01*
X93649040Y-102453056D01*
X93649038Y-102453054D01*
X93649034Y-102453048D01*
X93521255Y-102311135D01*
X93366752Y-102198882D01*
X93192288Y-102121206D01*
X93005487Y-102081500D01*
X92814513Y-102081500D01*
X92627711Y-102121206D01*
X92453247Y-102198882D01*
X92298744Y-102311135D01*
X92170965Y-102453048D01*
X92170958Y-102453058D01*
X92075476Y-102618438D01*
X92075473Y-102618445D01*
X92016457Y-102800072D01*
X91996496Y-102989999D01*
X80293500Y-102989999D01*
X80293500Y-101249945D01*
X89446551Y-101249945D01*
X89466512Y-101439872D01*
X89468087Y-101444718D01*
X89525528Y-101621501D01*
X89525531Y-101621506D01*
X89621013Y-101786886D01*
X89621020Y-101786896D01*
X89748799Y-101928809D01*
X89748802Y-101928811D01*
X89903303Y-102041063D01*
X90077767Y-102118739D01*
X90264568Y-102158445D01*
X90455542Y-102158445D01*
X90642343Y-102118739D01*
X90816807Y-102041063D01*
X90971308Y-101928811D01*
X91099095Y-101786889D01*
X91194582Y-101621501D01*
X91253597Y-101439873D01*
X91273559Y-101249945D01*
X91253597Y-101060017D01*
X91194582Y-100878389D01*
X91099095Y-100713001D01*
X91099093Y-100712999D01*
X91099089Y-100712993D01*
X90971310Y-100571080D01*
X90816807Y-100458827D01*
X90642343Y-100381151D01*
X90455542Y-100341445D01*
X90264568Y-100341445D01*
X90077766Y-100381151D01*
X89903302Y-100458827D01*
X89748799Y-100571080D01*
X89621020Y-100712993D01*
X89621013Y-100713003D01*
X89525531Y-100878383D01*
X89525528Y-100878390D01*
X89466512Y-101060017D01*
X89446551Y-101249945D01*
X80293500Y-101249945D01*
X80293500Y-88766491D01*
X80313502Y-88698370D01*
X80367158Y-88651877D01*
X80437432Y-88641773D01*
X80445698Y-88643245D01*
X80564509Y-88668500D01*
X80564513Y-88668500D01*
X80755487Y-88668500D01*
X80942288Y-88628794D01*
X81116752Y-88551118D01*
X81271253Y-88438866D01*
X81339520Y-88363048D01*
X81399034Y-88296951D01*
X81399035Y-88296949D01*
X81399040Y-88296944D01*
X81494527Y-88131556D01*
X81553542Y-87949928D01*
X81573504Y-87760000D01*
X81553542Y-87570072D01*
X81494527Y-87388444D01*
X81399040Y-87223056D01*
X81399038Y-87223054D01*
X81399034Y-87223048D01*
X81271255Y-87081135D01*
X81116752Y-86968882D01*
X80942288Y-86891206D01*
X80755487Y-86851500D01*
X80610478Y-86851500D01*
X80542357Y-86831498D01*
X80495864Y-86777842D01*
X80485760Y-86707568D01*
X80515254Y-86642988D01*
X80521383Y-86636405D01*
X81427788Y-85730000D01*
X83816496Y-85730000D01*
X83836457Y-85919927D01*
X83858718Y-85988438D01*
X83895473Y-86101556D01*
X83895476Y-86101561D01*
X83990958Y-86266941D01*
X83990965Y-86266951D01*
X84118744Y-86408864D01*
X84118748Y-86408867D01*
X84187344Y-86458706D01*
X84230698Y-86514929D01*
X84236773Y-86585665D01*
X84233117Y-86599575D01*
X84226457Y-86620071D01*
X84206496Y-86810000D01*
X84226457Y-86999927D01*
X84252844Y-87081134D01*
X84285473Y-87181556D01*
X84285476Y-87181561D01*
X84380958Y-87346941D01*
X84380965Y-87346951D01*
X84508744Y-87488864D01*
X84508747Y-87488866D01*
X84663248Y-87601118D01*
X84837712Y-87678794D01*
X85024513Y-87718500D01*
X85215487Y-87718500D01*
X85402288Y-87678794D01*
X85576752Y-87601118D01*
X85731253Y-87488866D01*
X85766924Y-87449249D01*
X85859034Y-87346951D01*
X85859035Y-87346949D01*
X85859040Y-87346944D01*
X85954527Y-87181556D01*
X86013542Y-86999928D01*
X86033504Y-86810000D01*
X86013542Y-86620072D01*
X85954527Y-86438444D01*
X85859040Y-86273056D01*
X85859038Y-86273054D01*
X85859034Y-86273048D01*
X85731258Y-86131138D01*
X85731253Y-86131135D01*
X85731253Y-86131134D01*
X85662652Y-86081292D01*
X85619301Y-86025071D01*
X85613226Y-85954335D01*
X85616884Y-85940419D01*
X85623542Y-85919928D01*
X85626377Y-85892956D01*
X85643504Y-85730000D01*
X85623542Y-85540072D01*
X85564527Y-85358444D01*
X85469040Y-85193056D01*
X85469038Y-85193054D01*
X85469034Y-85193048D01*
X85341255Y-85051135D01*
X85186752Y-84938882D01*
X85012288Y-84861206D01*
X84825487Y-84821500D01*
X84634513Y-84821500D01*
X84447711Y-84861206D01*
X84273247Y-84938882D01*
X84118744Y-85051135D01*
X83990965Y-85193048D01*
X83990958Y-85193058D01*
X83895476Y-85358438D01*
X83895473Y-85358445D01*
X83836457Y-85540072D01*
X83816496Y-85730000D01*
X81427788Y-85730000D01*
X82810883Y-84346905D01*
X82873195Y-84312879D01*
X82899978Y-84310000D01*
X86284296Y-84310000D01*
X86352417Y-84330002D01*
X86398910Y-84383658D01*
X86410296Y-84435703D01*
X86431682Y-93518060D01*
X86411840Y-93586228D01*
X86358294Y-93632847D01*
X86288044Y-93643116D01*
X86223394Y-93613775D01*
X86216587Y-93607452D01*
X86077405Y-93468270D01*
X86077396Y-93468262D01*
X86012913Y-93419991D01*
X85848315Y-93296774D01*
X85848313Y-93296773D01*
X85848312Y-93296772D01*
X85848307Y-93296768D01*
X85597170Y-93159637D01*
X85597160Y-93159632D01*
X85329046Y-93059631D01*
X85049424Y-92998803D01*
X84915775Y-92989245D01*
X84835448Y-92983500D01*
X84692552Y-92983500D01*
X84616954Y-92988906D01*
X84478575Y-92998803D01*
X84198953Y-93059631D01*
X83930839Y-93159632D01*
X83930829Y-93159637D01*
X83679692Y-93296768D01*
X83679687Y-93296772D01*
X83450603Y-93468262D01*
X83450594Y-93468270D01*
X83248270Y-93670594D01*
X83248262Y-93670603D01*
X83076772Y-93899687D01*
X83076768Y-93899692D01*
X82939637Y-94150829D01*
X82939632Y-94150839D01*
X82839631Y-94418953D01*
X82778803Y-94698575D01*
X82758390Y-94984000D01*
X82778803Y-95269424D01*
X82839631Y-95549046D01*
X82939632Y-95817160D01*
X82939637Y-95817170D01*
X83076768Y-96068307D01*
X83076772Y-96068312D01*
X83248262Y-96297396D01*
X83248270Y-96297405D01*
X83450594Y-96499729D01*
X83450603Y-96499737D01*
X83450605Y-96499739D01*
X83679685Y-96671226D01*
X83679687Y-96671227D01*
X83679692Y-96671231D01*
X83930829Y-96808362D01*
X83930839Y-96808367D01*
X84198954Y-96908369D01*
X84478572Y-96969196D01*
X84692552Y-96984500D01*
X84692558Y-96984500D01*
X84835442Y-96984500D01*
X84835448Y-96984500D01*
X85049428Y-96969196D01*
X85329046Y-96908369D01*
X85597161Y-96808367D01*
X85627144Y-96791994D01*
X85848307Y-96671231D01*
X85848309Y-96671229D01*
X85848315Y-96671226D01*
X86077395Y-96499739D01*
X86223474Y-96353659D01*
X86285784Y-96319636D01*
X86356600Y-96324700D01*
X86413436Y-96367247D01*
X86438247Y-96433767D01*
X86438568Y-96442459D01*
X86440000Y-97050000D01*
X89961079Y-97045503D01*
X90012479Y-97056394D01*
X90107712Y-97098794D01*
X90294513Y-97138500D01*
X90485487Y-97138500D01*
X90672288Y-97098794D01*
X90769990Y-97055294D01*
X90821059Y-97044404D01*
X90951389Y-97044238D01*
X91019532Y-97064152D01*
X91025606Y-97068300D01*
X91043248Y-97081118D01*
X91217712Y-97158794D01*
X91404513Y-97198500D01*
X91595487Y-97198500D01*
X91782288Y-97158794D01*
X91956752Y-97081118D01*
X91976321Y-97066899D01*
X92043185Y-97043040D01*
X92050187Y-97042835D01*
X96490437Y-97037164D01*
X96558579Y-97057078D01*
X96605141Y-97110674D01*
X96615334Y-97180935D01*
X96585924Y-97245554D01*
X96541844Y-97278269D01*
X96383250Y-97348880D01*
X96383248Y-97348882D01*
X96228744Y-97461135D01*
X96100965Y-97603048D01*
X96100958Y-97603058D01*
X96005476Y-97768438D01*
X96005473Y-97768445D01*
X95946457Y-97950072D01*
X95926496Y-98140000D01*
X95946457Y-98329927D01*
X95976526Y-98422470D01*
X96005473Y-98511556D01*
X96019101Y-98535161D01*
X96100958Y-98676941D01*
X96100965Y-98676951D01*
X96228744Y-98818864D01*
X96228747Y-98818866D01*
X96383248Y-98931118D01*
X96557712Y-99008794D01*
X96744513Y-99048500D01*
X96935487Y-99048500D01*
X97122288Y-99008794D01*
X97296752Y-98931118D01*
X97417210Y-98843600D01*
X111106496Y-98843600D01*
X111126457Y-99033527D01*
X111135058Y-99059996D01*
X111185473Y-99215156D01*
X111185475Y-99215159D01*
X111185476Y-99215161D01*
X111251143Y-99328900D01*
X111267881Y-99397895D01*
X111251145Y-99454896D01*
X111235475Y-99482037D01*
X111235470Y-99482049D01*
X111176457Y-99663671D01*
X111156496Y-99853598D01*
X111176457Y-100043527D01*
X111201750Y-100121367D01*
X111235473Y-100225156D01*
X111235476Y-100225161D01*
X111330958Y-100390541D01*
X111330965Y-100390551D01*
X111458744Y-100532464D01*
X111458743Y-100532464D01*
X111572046Y-100614783D01*
X111613248Y-100644718D01*
X111685599Y-100676930D01*
X111739695Y-100722909D01*
X111759661Y-100778865D01*
X111766457Y-100843527D01*
X111770601Y-100856280D01*
X111825473Y-101025156D01*
X111825476Y-101025161D01*
X111920958Y-101190541D01*
X111920965Y-101190551D01*
X112048744Y-101332464D01*
X112048747Y-101332466D01*
X112203248Y-101444718D01*
X112377712Y-101522394D01*
X112564513Y-101562100D01*
X112755487Y-101562100D01*
X112942288Y-101522394D01*
X113116752Y-101444718D01*
X113271253Y-101332466D01*
X113271255Y-101332464D01*
X113399034Y-101190551D01*
X113399035Y-101190549D01*
X113399040Y-101190544D01*
X113494527Y-101025156D01*
X113553542Y-100843528D01*
X113573504Y-100653600D01*
X113553542Y-100463672D01*
X113495032Y-100283599D01*
X115066701Y-100283599D01*
X115085837Y-100453448D01*
X115142290Y-100614782D01*
X115233231Y-100759512D01*
X115354087Y-100880368D01*
X115354089Y-100880369D01*
X115354091Y-100880371D01*
X115498816Y-100971308D01*
X115498817Y-100971309D01*
X115645744Y-101022721D01*
X115703436Y-101064099D01*
X115729598Y-101130099D01*
X115715925Y-101199767D01*
X115678191Y-101243585D01*
X115662846Y-101254734D01*
X115662844Y-101254735D01*
X115535065Y-101396648D01*
X115535058Y-101396658D01*
X115439576Y-101562038D01*
X115439573Y-101562045D01*
X115380557Y-101743672D01*
X115360596Y-101933599D01*
X115380557Y-102123527D01*
X115391903Y-102158445D01*
X115439573Y-102305156D01*
X115443025Y-102311135D01*
X115535058Y-102470541D01*
X115535065Y-102470551D01*
X115662844Y-102612464D01*
X115662847Y-102612466D01*
X115817348Y-102724718D01*
X115991812Y-102802394D01*
X116178613Y-102842100D01*
X116369587Y-102842100D01*
X116556388Y-102802394D01*
X116730852Y-102724718D01*
X116877736Y-102617999D01*
X116944604Y-102594142D01*
X117013755Y-102610222D01*
X117063235Y-102661136D01*
X117071630Y-102680999D01*
X117105473Y-102785156D01*
X117105476Y-102785161D01*
X117200958Y-102950541D01*
X117200965Y-102950551D01*
X117328744Y-103092464D01*
X117328747Y-103092466D01*
X117483248Y-103204718D01*
X117657712Y-103282394D01*
X117844513Y-103322100D01*
X118035487Y-103322100D01*
X118222288Y-103282394D01*
X118396752Y-103204718D01*
X118551253Y-103092466D01*
X118679040Y-102950544D01*
X118774527Y-102785156D01*
X118833542Y-102603528D01*
X118853504Y-102413600D01*
X118833542Y-102223672D01*
X118774527Y-102042044D01*
X118679040Y-101876656D01*
X118679038Y-101876654D01*
X118679034Y-101876648D01*
X118551255Y-101734735D01*
X118396752Y-101622482D01*
X118222288Y-101544806D01*
X118035487Y-101505100D01*
X117844513Y-101505100D01*
X117657711Y-101544806D01*
X117483248Y-101622482D01*
X117336362Y-101729200D01*
X117269494Y-101753058D01*
X117200343Y-101736977D01*
X117150863Y-101686062D01*
X117142469Y-101666199D01*
X117128433Y-101623002D01*
X117108627Y-101562044D01*
X117013140Y-101396656D01*
X117013138Y-101396654D01*
X117013134Y-101396648D01*
X116885356Y-101254736D01*
X116882255Y-101251944D01*
X116880983Y-101249879D01*
X116880935Y-101249826D01*
X116880944Y-101249817D01*
X116845017Y-101191498D01*
X116846369Y-101120514D01*
X116885884Y-101061530D01*
X116889408Y-101060001D01*
X125986620Y-101060001D01*
X126006090Y-101257692D01*
X126006091Y-101257698D01*
X126006092Y-101257699D01*
X126063759Y-101447802D01*
X126157405Y-101623002D01*
X126283432Y-101776566D01*
X126436996Y-101902593D01*
X126612196Y-101996239D01*
X126802299Y-102053906D01*
X126802303Y-102053906D01*
X126802305Y-102053907D01*
X126999997Y-102073378D01*
X127000000Y-102073378D01*
X127000003Y-102073378D01*
X127197694Y-102053907D01*
X127197695Y-102053906D01*
X127197701Y-102053906D01*
X127387804Y-101996239D01*
X127563004Y-101902593D01*
X127716568Y-101776566D01*
X127842595Y-101623002D01*
X127936241Y-101447802D01*
X127993908Y-101257699D01*
X127994679Y-101249879D01*
X128013380Y-101060001D01*
X128013380Y-101059994D01*
X127993909Y-100862303D01*
X127993908Y-100862301D01*
X127993908Y-100862297D01*
X127936241Y-100672194D01*
X127842595Y-100496994D01*
X127716568Y-100343430D01*
X127630369Y-100272688D01*
X127563006Y-100217404D01*
X127476415Y-100171120D01*
X127425767Y-100121367D01*
X127410058Y-100052130D01*
X127434274Y-99985392D01*
X127476412Y-99948879D01*
X127563004Y-99902595D01*
X127716568Y-99776568D01*
X127842595Y-99623004D01*
X127936241Y-99447804D01*
X127993908Y-99257701D01*
X127995426Y-99242295D01*
X128008538Y-99109164D01*
X130424665Y-99109164D01*
X130453794Y-99299303D01*
X130454407Y-99303303D01*
X130459352Y-99316656D01*
X130522616Y-99487478D01*
X130522618Y-99487480D01*
X130601966Y-99614783D01*
X130626510Y-99654159D01*
X130761826Y-99796511D01*
X130761829Y-99796513D01*
X130761830Y-99796514D01*
X130799993Y-99823076D01*
X130923027Y-99908711D01*
X131103514Y-99986164D01*
X131295898Y-100025700D01*
X131295900Y-100025700D01*
X132128871Y-100025700D01*
X132128872Y-100025700D01*
X132128873Y-100025699D01*
X132128890Y-100025699D01*
X132219694Y-100016464D01*
X132275296Y-100010810D01*
X132462693Y-99952014D01*
X132634419Y-99856699D01*
X132634420Y-99856698D01*
X132634422Y-99856697D01*
X132699673Y-99800680D01*
X132783442Y-99728766D01*
X132903662Y-99573455D01*
X132990157Y-99397122D01*
X133039386Y-99206988D01*
X133039386Y-99206981D01*
X133039387Y-99206979D01*
X133049334Y-99010835D01*
X133034349Y-98913020D01*
X133019593Y-98816697D01*
X132987759Y-98730742D01*
X132951383Y-98632521D01*
X132951381Y-98632519D01*
X132951381Y-98632518D01*
X132847490Y-98465841D01*
X132712174Y-98323489D01*
X132712170Y-98323486D01*
X132712169Y-98323485D01*
X132559760Y-98217405D01*
X132550973Y-98211289D01*
X132483640Y-98182394D01*
X132370489Y-98133837D01*
X132370487Y-98133836D01*
X132370486Y-98133836D01*
X132178102Y-98094300D01*
X131345128Y-98094300D01*
X131345109Y-98094300D01*
X131198708Y-98109189D01*
X131198705Y-98109189D01*
X131198704Y-98109190D01*
X131160630Y-98121135D01*
X131011307Y-98167985D01*
X130839577Y-98263302D01*
X130690564Y-98391228D01*
X130690562Y-98391230D01*
X130690558Y-98391234D01*
X130570338Y-98546545D01*
X130570337Y-98546546D01*
X130570337Y-98546547D01*
X130570336Y-98546548D01*
X130483844Y-98722874D01*
X130434613Y-98913016D01*
X130434612Y-98913020D01*
X130424665Y-99109164D01*
X128008538Y-99109164D01*
X128013380Y-99060003D01*
X128013380Y-99059996D01*
X127993909Y-98862305D01*
X127993908Y-98862303D01*
X127993908Y-98862299D01*
X127936241Y-98672196D01*
X127842595Y-98496996D01*
X127716568Y-98343432D01*
X127563004Y-98217405D01*
X127387804Y-98123759D01*
X127197701Y-98066092D01*
X127197700Y-98066091D01*
X127197694Y-98066090D01*
X127000003Y-98046620D01*
X126999997Y-98046620D01*
X126802305Y-98066090D01*
X126612195Y-98123759D01*
X126436995Y-98217405D01*
X126283432Y-98343432D01*
X126157405Y-98496995D01*
X126063759Y-98672195D01*
X126006090Y-98862305D01*
X125986620Y-99059996D01*
X125986620Y-99060003D01*
X126006090Y-99257694D01*
X126006091Y-99257700D01*
X126006092Y-99257701D01*
X126063759Y-99447804D01*
X126157405Y-99623004D01*
X126283432Y-99776568D01*
X126413646Y-99883432D01*
X126436997Y-99902596D01*
X126523582Y-99948876D01*
X126574231Y-99998627D01*
X126589941Y-100067864D01*
X126565725Y-100134603D01*
X126523584Y-100171119D01*
X126436997Y-100217401D01*
X126283432Y-100343430D01*
X126157405Y-100496993D01*
X126063759Y-100672193D01*
X126006090Y-100862303D01*
X125986620Y-101059994D01*
X125986620Y-101060001D01*
X116889408Y-101060001D01*
X116951014Y-101033273D01*
X116952409Y-101033107D01*
X116999850Y-101027762D01*
X117161183Y-100971309D01*
X117305909Y-100880371D01*
X117426771Y-100759509D01*
X117517709Y-100614783D01*
X117574162Y-100453450D01*
X117593299Y-100283600D01*
X117574162Y-100113750D01*
X117517709Y-99952417D01*
X117453754Y-99850634D01*
X117434449Y-99782316D01*
X117453755Y-99716564D01*
X117517709Y-99614783D01*
X117574162Y-99453450D01*
X117593299Y-99283600D01*
X117574162Y-99113750D01*
X117555354Y-99060000D01*
X123546496Y-99060000D01*
X123566457Y-99249927D01*
X123588139Y-99316656D01*
X123625473Y-99431556D01*
X123625476Y-99431561D01*
X123720958Y-99596941D01*
X123720965Y-99596951D01*
X123848744Y-99738864D01*
X123900638Y-99776567D01*
X124003248Y-99851118D01*
X124177712Y-99928794D01*
X124364513Y-99968500D01*
X124555487Y-99968500D01*
X124742288Y-99928794D01*
X124916752Y-99851118D01*
X125071253Y-99738866D01*
X125147522Y-99654161D01*
X125199034Y-99596951D01*
X125199035Y-99596949D01*
X125199040Y-99596944D01*
X125294527Y-99431556D01*
X125353542Y-99249928D01*
X125373504Y-99060000D01*
X125353542Y-98870072D01*
X125294527Y-98688444D01*
X125199040Y-98523056D01*
X125199038Y-98523054D01*
X125199034Y-98523048D01*
X125071255Y-98381135D01*
X124916752Y-98268882D01*
X124742288Y-98191206D01*
X124555487Y-98151500D01*
X124364513Y-98151500D01*
X124177711Y-98191206D01*
X124003247Y-98268882D01*
X123848744Y-98381135D01*
X123720965Y-98523048D01*
X123720958Y-98523058D01*
X123626405Y-98686829D01*
X123625473Y-98688444D01*
X123621539Y-98700551D01*
X123566457Y-98870072D01*
X123546496Y-99060000D01*
X117555354Y-99060000D01*
X117517709Y-98952417D01*
X117426771Y-98807691D01*
X117426769Y-98807689D01*
X117426768Y-98807687D01*
X117305912Y-98686831D01*
X117161182Y-98595890D01*
X117061270Y-98560930D01*
X116999850Y-98539438D01*
X116999848Y-98539437D01*
X116999850Y-98539437D01*
X116830000Y-98520301D01*
X116660151Y-98539437D01*
X116498816Y-98595891D01*
X116498814Y-98595892D01*
X116397036Y-98659844D01*
X116328715Y-98679150D01*
X116262964Y-98659844D01*
X116161185Y-98595892D01*
X116161183Y-98595891D01*
X116161180Y-98595890D01*
X115999850Y-98539438D01*
X115999848Y-98539437D01*
X115999850Y-98539437D01*
X115830000Y-98520301D01*
X115660151Y-98539437D01*
X115498817Y-98595890D01*
X115354087Y-98686831D01*
X115233231Y-98807687D01*
X115142290Y-98952417D01*
X115085837Y-99113751D01*
X115066701Y-99283600D01*
X115085837Y-99453448D01*
X115142291Y-99614783D01*
X115142292Y-99614785D01*
X115206244Y-99716564D01*
X115225550Y-99784885D01*
X115206244Y-99850636D01*
X115142292Y-99952414D01*
X115142291Y-99952416D01*
X115085837Y-100113751D01*
X115066701Y-100283599D01*
X113495032Y-100283599D01*
X113494527Y-100282044D01*
X113399040Y-100116656D01*
X113399038Y-100116654D01*
X113399034Y-100116648D01*
X113271255Y-99974735D01*
X113116752Y-99862482D01*
X113044398Y-99830268D01*
X112990302Y-99784287D01*
X112970337Y-99728330D01*
X112963542Y-99663672D01*
X112904527Y-99482044D01*
X112867589Y-99418067D01*
X112838856Y-99368298D01*
X112822118Y-99299303D01*
X112838858Y-99242295D01*
X112854525Y-99215159D01*
X112854527Y-99215156D01*
X112873745Y-99156006D01*
X112913818Y-99097402D01*
X112967379Y-99071697D01*
X113152288Y-99032394D01*
X113326752Y-98954718D01*
X113481253Y-98842466D01*
X113502503Y-98818866D01*
X113609034Y-98700551D01*
X113609035Y-98700549D01*
X113609040Y-98700544D01*
X113704527Y-98535156D01*
X113763542Y-98353528D01*
X113783504Y-98163600D01*
X113763542Y-97973672D01*
X113704527Y-97792044D01*
X113609040Y-97626656D01*
X113609038Y-97626654D01*
X113609034Y-97626648D01*
X113481255Y-97484735D01*
X113326752Y-97372482D01*
X113194498Y-97313599D01*
X115346496Y-97313599D01*
X115366457Y-97503527D01*
X115396526Y-97596070D01*
X115425473Y-97685156D01*
X115425476Y-97685161D01*
X115520958Y-97850541D01*
X115520965Y-97850551D01*
X115648744Y-97992464D01*
X115648747Y-97992466D01*
X115803248Y-98104718D01*
X115977712Y-98182394D01*
X116164513Y-98222100D01*
X116355487Y-98222100D01*
X116542288Y-98182394D01*
X116716752Y-98104718D01*
X116871253Y-97992466D01*
X116909425Y-97950072D01*
X116999034Y-97850551D01*
X116999035Y-97850549D01*
X116999040Y-97850544D01*
X117094527Y-97685156D01*
X117153542Y-97503528D01*
X117173504Y-97313600D01*
X117153542Y-97123672D01*
X117094527Y-96942044D01*
X116999040Y-96776656D01*
X116999038Y-96776654D01*
X116999034Y-96776648D01*
X116871255Y-96634735D01*
X116716752Y-96522482D01*
X116542288Y-96444806D01*
X116355487Y-96405100D01*
X116164513Y-96405100D01*
X115977711Y-96444806D01*
X115803247Y-96522482D01*
X115648744Y-96634735D01*
X115520965Y-96776648D01*
X115520958Y-96776658D01*
X115425476Y-96942038D01*
X115425473Y-96942045D01*
X115366457Y-97123672D01*
X115346496Y-97313599D01*
X113194498Y-97313599D01*
X113152288Y-97294806D01*
X112965487Y-97255100D01*
X112774513Y-97255100D01*
X112587711Y-97294806D01*
X112413247Y-97372482D01*
X112258744Y-97484735D01*
X112130965Y-97626648D01*
X112130958Y-97626658D01*
X112035476Y-97792038D01*
X112035470Y-97792051D01*
X112016253Y-97851193D01*
X111976179Y-97909798D01*
X111922619Y-97935501D01*
X111737715Y-97974804D01*
X111563247Y-98052482D01*
X111408744Y-98164735D01*
X111280965Y-98306648D01*
X111280958Y-98306658D01*
X111185476Y-98472038D01*
X111185473Y-98472045D01*
X111126457Y-98653672D01*
X111106496Y-98843600D01*
X97417210Y-98843600D01*
X97451253Y-98818866D01*
X97453206Y-98816697D01*
X97579034Y-98676951D01*
X97579035Y-98676949D01*
X97579040Y-98676944D01*
X97674527Y-98511556D01*
X97733542Y-98329928D01*
X97753504Y-98140000D01*
X97733542Y-97950072D01*
X97674527Y-97768444D01*
X97579040Y-97603056D01*
X97579038Y-97603054D01*
X97579034Y-97603048D01*
X97451255Y-97461135D01*
X97296752Y-97348882D01*
X97217505Y-97313599D01*
X97136156Y-97277380D01*
X97082061Y-97231401D01*
X97061412Y-97163474D01*
X97080764Y-97095165D01*
X97133975Y-97048164D01*
X97187243Y-97036274D01*
X109930000Y-97020000D01*
X109930206Y-96043599D01*
X112496496Y-96043599D01*
X112516457Y-96233527D01*
X112534807Y-96290000D01*
X112575473Y-96415156D01*
X112603841Y-96464291D01*
X112670958Y-96580541D01*
X112670965Y-96580551D01*
X112798744Y-96722464D01*
X112798747Y-96722466D01*
X112953248Y-96834718D01*
X113127712Y-96912394D01*
X113314513Y-96952100D01*
X113505487Y-96952100D01*
X113692288Y-96912394D01*
X113866752Y-96834718D01*
X114021253Y-96722466D01*
X114076097Y-96661556D01*
X114149034Y-96580551D01*
X114149035Y-96580549D01*
X114149040Y-96580544D01*
X114244527Y-96415156D01*
X114303542Y-96233528D01*
X114323504Y-96043600D01*
X114303542Y-95853672D01*
X114244527Y-95672044D01*
X114149040Y-95506656D01*
X114149038Y-95506654D01*
X114149034Y-95506648D01*
X114021255Y-95364735D01*
X113866752Y-95252482D01*
X113692288Y-95174806D01*
X113505487Y-95135100D01*
X113314513Y-95135100D01*
X113127711Y-95174806D01*
X112953247Y-95252482D01*
X112798744Y-95364735D01*
X112670965Y-95506648D01*
X112670958Y-95506658D01*
X112575476Y-95672038D01*
X112575473Y-95672045D01*
X112516457Y-95853672D01*
X112496496Y-96043599D01*
X109930206Y-96043599D01*
X109931808Y-88454302D01*
X109951823Y-88386192D01*
X110005489Y-88339710D01*
X110075765Y-88329621D01*
X110140340Y-88359128D01*
X110146902Y-88365240D01*
X113715058Y-91933396D01*
X113727031Y-91947250D01*
X113741602Y-91966822D01*
X113753673Y-91976951D01*
X113782269Y-92000945D01*
X113786315Y-92004653D01*
X113792235Y-92010573D01*
X113792236Y-92010574D01*
X113818379Y-92031245D01*
X113878148Y-92081397D01*
X113884279Y-92085429D01*
X113884244Y-92085480D01*
X113890697Y-92089591D01*
X113890729Y-92089540D01*
X113896975Y-92093392D01*
X113896977Y-92093393D01*
X113896980Y-92093395D01*
X113967705Y-92126374D01*
X114037434Y-92161394D01*
X114037436Y-92161394D01*
X114044331Y-92163904D01*
X114044309Y-92163962D01*
X114051538Y-92166475D01*
X114051558Y-92166416D01*
X114058524Y-92168723D01*
X114058527Y-92168725D01*
X114134931Y-92184500D01*
X114210877Y-92202500D01*
X114210883Y-92202500D01*
X114218166Y-92203352D01*
X114218158Y-92203412D01*
X114225774Y-92204190D01*
X114225780Y-92204129D01*
X114233084Y-92204767D01*
X114233092Y-92204769D01*
X114311076Y-92202500D01*
X118842919Y-92202500D01*
X118911040Y-92222502D01*
X118916972Y-92226558D01*
X118923248Y-92231118D01*
X119097712Y-92308794D01*
X119284513Y-92348500D01*
X119475487Y-92348500D01*
X119662288Y-92308794D01*
X119836752Y-92231118D01*
X119991253Y-92118866D01*
X120014190Y-92093392D01*
X120119034Y-91976951D01*
X120119035Y-91976949D01*
X120119040Y-91976944D01*
X120214527Y-91811556D01*
X120273542Y-91629928D01*
X120293504Y-91440000D01*
X120293504Y-91439999D01*
X131166496Y-91439999D01*
X131186457Y-91629927D01*
X131212452Y-91709928D01*
X131245473Y-91811556D01*
X131245476Y-91811561D01*
X131340958Y-91976941D01*
X131340965Y-91976951D01*
X131468744Y-92118864D01*
X131468747Y-92118866D01*
X131623248Y-92231118D01*
X131797712Y-92308794D01*
X131984513Y-92348500D01*
X132175487Y-92348500D01*
X132362288Y-92308794D01*
X132536752Y-92231118D01*
X132691253Y-92118866D01*
X132714190Y-92093392D01*
X132819034Y-91976951D01*
X132819035Y-91976949D01*
X132819040Y-91976944D01*
X132914527Y-91811556D01*
X132973542Y-91629928D01*
X132993504Y-91440000D01*
X132973542Y-91250072D01*
X132914527Y-91068444D01*
X132819040Y-90903056D01*
X132819038Y-90903054D01*
X132819034Y-90903048D01*
X132691255Y-90761135D01*
X132536752Y-90648882D01*
X132362288Y-90571206D01*
X132175487Y-90531500D01*
X131984513Y-90531500D01*
X131797711Y-90571206D01*
X131623247Y-90648882D01*
X131468744Y-90761135D01*
X131340965Y-90903048D01*
X131340958Y-90903058D01*
X131245476Y-91068438D01*
X131245473Y-91068445D01*
X131186457Y-91250072D01*
X131166496Y-91439999D01*
X120293504Y-91439999D01*
X120273542Y-91250072D01*
X120214527Y-91068444D01*
X120119040Y-90903056D01*
X120119038Y-90903054D01*
X120119034Y-90903048D01*
X119991255Y-90761135D01*
X119836752Y-90648882D01*
X119662288Y-90571206D01*
X119475487Y-90531500D01*
X119284513Y-90531500D01*
X119097711Y-90571206D01*
X118941861Y-90640595D01*
X118923248Y-90648882D01*
X118920050Y-90651206D01*
X118916979Y-90653437D01*
X118850111Y-90677295D01*
X118842919Y-90677500D01*
X114668027Y-90677500D01*
X114599906Y-90657498D01*
X114578932Y-90640595D01*
X112838337Y-88900000D01*
X123546496Y-88900000D01*
X123566457Y-89089927D01*
X123591396Y-89166680D01*
X123625473Y-89271556D01*
X123625476Y-89271561D01*
X123720958Y-89436941D01*
X123720965Y-89436951D01*
X123848744Y-89578864D01*
X123848747Y-89578866D01*
X124003248Y-89691118D01*
X124177712Y-89768794D01*
X124364513Y-89808500D01*
X124555487Y-89808500D01*
X124742288Y-89768794D01*
X124916752Y-89691118D01*
X125071253Y-89578866D01*
X125145380Y-89496540D01*
X125199034Y-89436951D01*
X125199035Y-89436949D01*
X125199040Y-89436944D01*
X125294527Y-89271556D01*
X125353542Y-89089928D01*
X125373504Y-88900000D01*
X125353542Y-88710072D01*
X125294527Y-88528444D01*
X125199040Y-88363056D01*
X125199038Y-88363054D01*
X125199034Y-88363048D01*
X125071255Y-88221135D01*
X124916752Y-88108882D01*
X124742288Y-88031206D01*
X124555487Y-87991500D01*
X124364513Y-87991500D01*
X124177711Y-88031206D01*
X124003247Y-88108882D01*
X123848744Y-88221135D01*
X123720965Y-88363048D01*
X123720958Y-88363058D01*
X123625476Y-88528438D01*
X123625473Y-88528445D01*
X123566457Y-88710072D01*
X123546496Y-88900000D01*
X112838337Y-88900000D01*
X110298337Y-86359999D01*
X121006496Y-86359999D01*
X121026457Y-86549927D01*
X121049249Y-86620071D01*
X121085473Y-86731556D01*
X121085476Y-86731561D01*
X121180958Y-86896941D01*
X121180965Y-86896951D01*
X121308744Y-87038864D01*
X121308747Y-87038866D01*
X121463248Y-87151118D01*
X121637712Y-87228794D01*
X121824513Y-87268500D01*
X122015487Y-87268500D01*
X122202288Y-87228794D01*
X122376752Y-87151118D01*
X122531253Y-87038866D01*
X122649966Y-86907022D01*
X122659034Y-86896951D01*
X122659035Y-86896949D01*
X122659040Y-86896944D01*
X122754527Y-86731556D01*
X122813542Y-86549928D01*
X122833504Y-86360000D01*
X122813542Y-86170072D01*
X122754527Y-85988444D01*
X122659040Y-85823056D01*
X122659038Y-85823054D01*
X122659034Y-85823048D01*
X122531255Y-85681135D01*
X122376752Y-85568882D01*
X122202288Y-85491206D01*
X122015487Y-85451500D01*
X121824513Y-85451500D01*
X121637711Y-85491206D01*
X121463247Y-85568882D01*
X121308744Y-85681135D01*
X121180965Y-85823048D01*
X121180958Y-85823058D01*
X121085476Y-85988438D01*
X121085473Y-85988444D01*
X121078118Y-86011080D01*
X121026457Y-86170072D01*
X121006496Y-86359999D01*
X110298337Y-86359999D01*
X110019405Y-86081067D01*
X109985379Y-86018755D01*
X109982500Y-85991972D01*
X109982500Y-83989941D01*
X110002502Y-83921820D01*
X110056158Y-83875327D01*
X110126432Y-83865223D01*
X110134695Y-83866693D01*
X110265513Y-83894500D01*
X110456487Y-83894500D01*
X110642319Y-83855000D01*
X112922496Y-83855000D01*
X112942457Y-84044927D01*
X112957850Y-84092299D01*
X113001473Y-84226556D01*
X113001476Y-84226561D01*
X113096958Y-84391941D01*
X113096965Y-84391951D01*
X113224744Y-84533864D01*
X113224747Y-84533866D01*
X113379248Y-84646118D01*
X113553712Y-84723794D01*
X113740513Y-84763500D01*
X113931487Y-84763500D01*
X114118288Y-84723794D01*
X114292752Y-84646118D01*
X114316336Y-84628982D01*
X114383201Y-84605125D01*
X114452352Y-84621204D01*
X114501834Y-84672117D01*
X114515706Y-84717748D01*
X114518457Y-84743927D01*
X114524817Y-84763500D01*
X114577473Y-84925556D01*
X114577476Y-84925561D01*
X114672958Y-85090941D01*
X114672965Y-85090951D01*
X114800744Y-85232864D01*
X114800747Y-85232866D01*
X114955248Y-85345118D01*
X115129712Y-85422794D01*
X115316513Y-85462500D01*
X115507487Y-85462500D01*
X115694288Y-85422794D01*
X115868752Y-85345118D01*
X116023253Y-85232866D01*
X116059105Y-85193048D01*
X116151034Y-85090951D01*
X116151035Y-85090949D01*
X116151040Y-85090944D01*
X116246527Y-84925556D01*
X116305542Y-84743928D01*
X116325504Y-84554000D01*
X116305542Y-84364072D01*
X116281475Y-84290003D01*
X131436620Y-84290003D01*
X131456090Y-84487694D01*
X131456091Y-84487700D01*
X131456092Y-84487701D01*
X131513759Y-84677804D01*
X131607405Y-84853004D01*
X131733432Y-85006568D01*
X131886996Y-85132595D01*
X132062196Y-85226241D01*
X132252299Y-85283908D01*
X132252303Y-85283908D01*
X132252305Y-85283909D01*
X132449997Y-85303380D01*
X132450000Y-85303380D01*
X132450003Y-85303380D01*
X132647694Y-85283909D01*
X132647695Y-85283908D01*
X132647701Y-85283908D01*
X132837804Y-85226241D01*
X133013004Y-85132595D01*
X133166568Y-85006568D01*
X133292595Y-84853004D01*
X133386241Y-84677804D01*
X133443908Y-84487701D01*
X133445970Y-84466772D01*
X133463380Y-84290003D01*
X133463380Y-84289996D01*
X133443909Y-84092305D01*
X133443908Y-84092303D01*
X133443908Y-84092299D01*
X133386241Y-83902196D01*
X133292595Y-83726996D01*
X133166568Y-83573432D01*
X133013004Y-83447405D01*
X132837804Y-83353759D01*
X132647701Y-83296092D01*
X132647700Y-83296091D01*
X132647694Y-83296090D01*
X132450003Y-83276620D01*
X132449997Y-83276620D01*
X132252305Y-83296090D01*
X132062195Y-83353759D01*
X131886995Y-83447405D01*
X131733432Y-83573432D01*
X131607405Y-83726995D01*
X131513759Y-83902195D01*
X131456090Y-84092305D01*
X131436620Y-84289996D01*
X131436620Y-84290003D01*
X116281475Y-84290003D01*
X116246527Y-84182444D01*
X116151040Y-84017056D01*
X116151038Y-84017054D01*
X116151034Y-84017048D01*
X116023255Y-83875135D01*
X115868752Y-83762882D01*
X115694288Y-83685206D01*
X115507487Y-83645500D01*
X115316513Y-83645500D01*
X115129711Y-83685206D01*
X114955248Y-83762882D01*
X114931662Y-83780018D01*
X114864793Y-83803875D01*
X114795642Y-83787793D01*
X114746163Y-83736878D01*
X114732293Y-83691248D01*
X114729542Y-83665073D01*
X114729474Y-83664864D01*
X114670527Y-83483444D01*
X114575040Y-83318056D01*
X114575038Y-83318054D01*
X114575034Y-83318048D01*
X114447255Y-83176135D01*
X114292752Y-83063882D01*
X114118288Y-82986206D01*
X113931487Y-82946500D01*
X113740513Y-82946500D01*
X113553711Y-82986206D01*
X113379247Y-83063882D01*
X113224744Y-83176135D01*
X113096965Y-83318048D01*
X113096958Y-83318058D01*
X113001476Y-83483438D01*
X113001473Y-83483444D01*
X112988640Y-83522941D01*
X112942457Y-83665072D01*
X112922496Y-83855000D01*
X110642319Y-83855000D01*
X110643288Y-83854794D01*
X110817752Y-83777118D01*
X110972253Y-83664866D01*
X110989690Y-83645500D01*
X111100034Y-83522951D01*
X111100035Y-83522949D01*
X111100040Y-83522944D01*
X111195527Y-83357556D01*
X111254542Y-83175928D01*
X111274504Y-82986000D01*
X111264094Y-82886962D01*
X111276866Y-82817129D01*
X111325367Y-82765282D01*
X111363209Y-82750549D01*
X111375501Y-82747936D01*
X111390285Y-82744795D01*
X111390286Y-82744794D01*
X111390288Y-82744794D01*
X111564752Y-82667118D01*
X111719253Y-82554866D01*
X111847040Y-82412944D01*
X111942527Y-82247556D01*
X112001542Y-82065928D01*
X112021504Y-81876000D01*
X112001542Y-81686072D01*
X111942527Y-81504444D01*
X111847040Y-81339056D01*
X111847038Y-81339054D01*
X111847034Y-81339048D01*
X111719255Y-81197135D01*
X111564752Y-81084882D01*
X111390288Y-81007206D01*
X111203487Y-80967500D01*
X111012513Y-80967500D01*
X110825711Y-81007206D01*
X110651247Y-81084882D01*
X110496744Y-81197135D01*
X110368965Y-81339048D01*
X110368958Y-81339058D01*
X110273476Y-81504438D01*
X110273473Y-81504445D01*
X110228333Y-81643369D01*
X110188259Y-81701974D01*
X110122862Y-81729611D01*
X110052905Y-81717504D01*
X110000600Y-81669497D01*
X109982500Y-81604432D01*
X109982500Y-80100000D01*
X120334496Y-80100000D01*
X120354457Y-80289927D01*
X120384526Y-80382470D01*
X120413473Y-80471556D01*
X120413476Y-80471561D01*
X120508958Y-80636941D01*
X120508965Y-80636951D01*
X120636744Y-80778864D01*
X120636747Y-80778866D01*
X120791248Y-80891118D01*
X120965712Y-80968794D01*
X121152513Y-81008500D01*
X121343487Y-81008500D01*
X121530288Y-80968794D01*
X121704752Y-80891118D01*
X121859253Y-80778866D01*
X121987040Y-80636944D01*
X122082527Y-80471556D01*
X122141542Y-80289928D01*
X122161504Y-80100000D01*
X122159402Y-80080000D01*
X123105496Y-80080000D01*
X123125457Y-80269927D01*
X123131956Y-80289927D01*
X123184473Y-80451556D01*
X123184476Y-80451561D01*
X123279958Y-80616941D01*
X123279965Y-80616951D01*
X123407744Y-80758864D01*
X123468999Y-80803368D01*
X123562248Y-80871118D01*
X123736712Y-80948794D01*
X123923513Y-80988500D01*
X124114487Y-80988500D01*
X124301288Y-80948794D01*
X124475752Y-80871118D01*
X124630253Y-80758866D01*
X124758040Y-80616944D01*
X124853527Y-80451556D01*
X124912542Y-80269928D01*
X124932504Y-80080000D01*
X124912542Y-79890072D01*
X124853527Y-79708444D01*
X124758040Y-79543056D01*
X124758038Y-79543054D01*
X124758034Y-79543048D01*
X124630255Y-79401135D01*
X124475752Y-79288882D01*
X124301288Y-79211206D01*
X124114487Y-79171500D01*
X123923513Y-79171500D01*
X123736711Y-79211206D01*
X123562247Y-79288882D01*
X123407744Y-79401135D01*
X123279965Y-79543048D01*
X123279958Y-79543058D01*
X123184476Y-79708438D01*
X123184473Y-79708445D01*
X123125457Y-79890072D01*
X123105496Y-80080000D01*
X122159402Y-80080000D01*
X122141542Y-79910072D01*
X122082527Y-79728444D01*
X121987040Y-79563056D01*
X121987038Y-79563054D01*
X121987034Y-79563048D01*
X121859255Y-79421135D01*
X121704752Y-79308882D01*
X121530288Y-79231206D01*
X121343487Y-79191500D01*
X121152513Y-79191500D01*
X120965711Y-79231206D01*
X120791247Y-79308882D01*
X120636744Y-79421135D01*
X120508965Y-79563048D01*
X120508958Y-79563058D01*
X120413476Y-79728438D01*
X120413473Y-79728445D01*
X120354457Y-79910072D01*
X120334496Y-80100000D01*
X109982500Y-80100000D01*
X109982500Y-76073000D01*
X114632496Y-76073000D01*
X114652457Y-76262927D01*
X114673903Y-76328928D01*
X114711473Y-76444556D01*
X114711476Y-76444561D01*
X114806958Y-76609941D01*
X114806965Y-76609951D01*
X114934744Y-76751864D01*
X114971049Y-76778241D01*
X115089248Y-76864118D01*
X115263712Y-76941794D01*
X115450513Y-76981500D01*
X115641487Y-76981500D01*
X115828288Y-76941794D01*
X116002752Y-76864118D01*
X116157253Y-76751866D01*
X116225607Y-76675951D01*
X116285034Y-76609951D01*
X116285035Y-76609949D01*
X116285040Y-76609944D01*
X116380527Y-76444556D01*
X116439542Y-76262928D01*
X116452567Y-76139000D01*
X116803596Y-76139000D01*
X116823557Y-76328927D01*
X116848277Y-76405004D01*
X116882573Y-76510556D01*
X116882576Y-76510561D01*
X116978058Y-76675941D01*
X116978065Y-76675951D01*
X117105844Y-76817864D01*
X117130681Y-76835909D01*
X117260348Y-76930118D01*
X117434812Y-77007794D01*
X117621613Y-77047500D01*
X117812587Y-77047500D01*
X117999388Y-77007794D01*
X118173852Y-76930118D01*
X118328353Y-76817866D01*
X118328355Y-76817864D01*
X118456134Y-76675951D01*
X118456135Y-76675949D01*
X118456140Y-76675944D01*
X118551627Y-76510556D01*
X118610642Y-76328928D01*
X118630604Y-76139000D01*
X118610642Y-75949072D01*
X118575853Y-75842003D01*
X125705620Y-75842003D01*
X125725090Y-76039694D01*
X125725091Y-76039700D01*
X125725092Y-76039701D01*
X125782759Y-76229804D01*
X125876405Y-76405004D01*
X126002432Y-76558568D01*
X126155996Y-76684595D01*
X126331196Y-76778241D01*
X126521299Y-76835908D01*
X126521303Y-76835908D01*
X126521305Y-76835909D01*
X126718997Y-76855380D01*
X126719000Y-76855380D01*
X126719003Y-76855380D01*
X126916694Y-76835909D01*
X126916695Y-76835908D01*
X126916701Y-76835908D01*
X127106804Y-76778241D01*
X127282004Y-76684595D01*
X127435568Y-76558568D01*
X127561595Y-76405004D01*
X127655241Y-76229804D01*
X127712908Y-76039701D01*
X127721835Y-75949072D01*
X127732380Y-75842003D01*
X127732380Y-75841996D01*
X127712909Y-75644305D01*
X127712908Y-75644303D01*
X127712908Y-75644299D01*
X127655241Y-75454196D01*
X127561595Y-75278996D01*
X127486040Y-75186932D01*
X127458287Y-75121587D01*
X127470268Y-75051609D01*
X127486039Y-75027068D01*
X127561595Y-74935004D01*
X127655241Y-74759804D01*
X127712908Y-74569701D01*
X127717372Y-74524385D01*
X127732380Y-74372003D01*
X127732380Y-74371996D01*
X127712909Y-74174305D01*
X127712908Y-74174303D01*
X127712908Y-74174299D01*
X127655241Y-73984196D01*
X127561595Y-73808996D01*
X127531178Y-73771933D01*
X127503424Y-73706588D01*
X127515405Y-73636610D01*
X127531177Y-73612068D01*
X127561595Y-73575004D01*
X127655241Y-73399804D01*
X127712908Y-73209701D01*
X127724825Y-73088712D01*
X127732380Y-73012003D01*
X127732380Y-73011996D01*
X127712909Y-72814305D01*
X127712908Y-72814303D01*
X127712908Y-72814299D01*
X127655241Y-72624196D01*
X127561595Y-72448996D01*
X127435568Y-72295432D01*
X127282004Y-72169405D01*
X127106804Y-72075759D01*
X126916701Y-72018092D01*
X126916700Y-72018091D01*
X126916694Y-72018090D01*
X126719003Y-71998620D01*
X126718997Y-71998620D01*
X126521305Y-72018090D01*
X126331195Y-72075759D01*
X126155995Y-72169405D01*
X126002432Y-72295432D01*
X125876405Y-72448995D01*
X125782759Y-72624195D01*
X125725090Y-72814305D01*
X125705620Y-73011996D01*
X125705620Y-73012003D01*
X125725090Y-73209694D01*
X125725091Y-73209700D01*
X125725092Y-73209701D01*
X125735841Y-73245135D01*
X125782759Y-73399804D01*
X125876405Y-73575004D01*
X125906821Y-73612066D01*
X125934575Y-73677414D01*
X125922593Y-73747392D01*
X125906821Y-73771934D01*
X125876405Y-73808995D01*
X125782759Y-73984195D01*
X125725090Y-74174305D01*
X125705620Y-74371996D01*
X125705620Y-74372003D01*
X125725090Y-74569694D01*
X125725091Y-74569700D01*
X125725092Y-74569701D01*
X125754397Y-74666307D01*
X125782759Y-74759804D01*
X125876406Y-74935007D01*
X125951958Y-75027067D01*
X125979712Y-75092414D01*
X125967730Y-75162392D01*
X125951958Y-75186933D01*
X125876407Y-75278992D01*
X125876406Y-75278992D01*
X125782759Y-75454195D01*
X125725090Y-75644305D01*
X125705620Y-75841996D01*
X125705620Y-75842003D01*
X118575853Y-75842003D01*
X118551627Y-75767444D01*
X118456140Y-75602056D01*
X118456138Y-75602054D01*
X118456134Y-75602048D01*
X118328355Y-75460135D01*
X118173852Y-75347882D01*
X117999388Y-75270206D01*
X117812587Y-75230500D01*
X117621613Y-75230500D01*
X117434811Y-75270206D01*
X117260347Y-75347882D01*
X117105844Y-75460135D01*
X116978065Y-75602048D01*
X116978058Y-75602058D01*
X116882576Y-75767438D01*
X116882573Y-75767445D01*
X116823557Y-75949072D01*
X116803596Y-76139000D01*
X116452567Y-76139000D01*
X116459504Y-76073000D01*
X116439542Y-75883072D01*
X116380527Y-75701444D01*
X116285040Y-75536056D01*
X116285038Y-75536054D01*
X116285034Y-75536048D01*
X116157255Y-75394135D01*
X116002752Y-75281882D01*
X115828288Y-75204206D01*
X115641487Y-75164500D01*
X115450513Y-75164500D01*
X115263711Y-75204206D01*
X115089247Y-75281882D01*
X114934744Y-75394135D01*
X114806965Y-75536048D01*
X114806958Y-75536058D01*
X114744462Y-75644305D01*
X114711473Y-75701444D01*
X114696999Y-75745986D01*
X114652457Y-75883072D01*
X114632496Y-76073000D01*
X109982500Y-76073000D01*
X109982500Y-74883429D01*
X110002502Y-74815308D01*
X110056158Y-74768815D01*
X110126432Y-74758711D01*
X110159747Y-74768322D01*
X110182740Y-74778559D01*
X110214709Y-74792793D01*
X110214710Y-74792793D01*
X110214712Y-74792794D01*
X110401513Y-74832500D01*
X110592487Y-74832500D01*
X110779288Y-74792794D01*
X110953752Y-74715118D01*
X111108253Y-74602866D01*
X111178920Y-74524382D01*
X111236034Y-74460951D01*
X111236035Y-74460949D01*
X111236040Y-74460944D01*
X111331527Y-74295556D01*
X111390542Y-74113928D01*
X111403836Y-73987441D01*
X116489637Y-73987441D01*
X116509598Y-74177368D01*
X116539667Y-74269911D01*
X116568614Y-74358997D01*
X116568617Y-74359002D01*
X116664099Y-74524382D01*
X116664106Y-74524392D01*
X116791885Y-74666305D01*
X116853140Y-74710809D01*
X116946389Y-74778559D01*
X117120853Y-74856235D01*
X117307654Y-74895941D01*
X117498628Y-74895941D01*
X117685429Y-74856235D01*
X117859893Y-74778559D01*
X118014394Y-74666307D01*
X118014396Y-74666305D01*
X118121819Y-74547000D01*
X120296496Y-74547000D01*
X120316457Y-74736927D01*
X120334610Y-74792793D01*
X120375473Y-74918556D01*
X120375476Y-74918561D01*
X120470958Y-75083941D01*
X120470965Y-75083951D01*
X120598744Y-75225864D01*
X120598747Y-75225866D01*
X120753248Y-75338118D01*
X120927712Y-75415794D01*
X121114513Y-75455500D01*
X121305487Y-75455500D01*
X121492288Y-75415794D01*
X121666752Y-75338118D01*
X121821253Y-75225866D01*
X121855338Y-75188011D01*
X121949034Y-75083951D01*
X121949035Y-75083949D01*
X121949040Y-75083944D01*
X122044527Y-74918556D01*
X122103542Y-74736928D01*
X122123504Y-74547000D01*
X122103542Y-74357072D01*
X122044527Y-74175444D01*
X121949040Y-74010056D01*
X121949038Y-74010054D01*
X121949034Y-74010048D01*
X121821255Y-73868135D01*
X121666752Y-73755882D01*
X121492288Y-73678206D01*
X121305487Y-73638500D01*
X121114513Y-73638500D01*
X120927711Y-73678206D01*
X120753247Y-73755882D01*
X120598744Y-73868135D01*
X120470965Y-74010048D01*
X120470958Y-74010058D01*
X120375476Y-74175438D01*
X120375473Y-74175445D01*
X120316457Y-74357072D01*
X120296496Y-74547000D01*
X118121819Y-74547000D01*
X118142175Y-74524392D01*
X118142176Y-74524390D01*
X118142181Y-74524385D01*
X118237668Y-74358997D01*
X118296683Y-74177369D01*
X118316645Y-73987441D01*
X118296683Y-73797513D01*
X118237668Y-73615885D01*
X118142181Y-73450497D01*
X118142179Y-73450495D01*
X118142175Y-73450489D01*
X118014396Y-73308576D01*
X117859893Y-73196323D01*
X117685429Y-73118647D01*
X117498628Y-73078941D01*
X117307654Y-73078941D01*
X117120852Y-73118647D01*
X116946388Y-73196323D01*
X116791885Y-73308576D01*
X116664106Y-73450489D01*
X116664099Y-73450499D01*
X116568617Y-73615879D01*
X116568614Y-73615886D01*
X116509598Y-73797513D01*
X116489637Y-73987441D01*
X111403836Y-73987441D01*
X111410504Y-73924000D01*
X111390542Y-73734072D01*
X111331527Y-73552444D01*
X111236040Y-73387056D01*
X111236038Y-73387054D01*
X111236034Y-73387048D01*
X111108255Y-73245135D01*
X110953752Y-73132882D01*
X110779288Y-73055206D01*
X110592487Y-73015500D01*
X110401513Y-73015500D01*
X110214711Y-73055206D01*
X110159749Y-73079677D01*
X110089382Y-73089111D01*
X110025085Y-73059004D01*
X109987271Y-72998916D01*
X109982500Y-72964570D01*
X109982500Y-70126000D01*
X115130496Y-70126000D01*
X115150457Y-70315927D01*
X115157110Y-70336401D01*
X115209473Y-70497556D01*
X115209476Y-70497561D01*
X115304958Y-70662941D01*
X115304965Y-70662951D01*
X115432744Y-70804864D01*
X115460924Y-70825338D01*
X115587248Y-70917118D01*
X115761712Y-70994794D01*
X115948513Y-71034500D01*
X116139487Y-71034500D01*
X116326288Y-70994794D01*
X116500752Y-70917118D01*
X116500751Y-70917118D01*
X116506785Y-70914432D01*
X116507592Y-70916245D01*
X116567383Y-70901727D01*
X116634480Y-70924934D01*
X116635295Y-70925519D01*
X116640248Y-70929118D01*
X116814712Y-71006794D01*
X117001513Y-71046500D01*
X117192487Y-71046500D01*
X117379288Y-71006794D01*
X117520529Y-70943909D01*
X117590893Y-70934476D01*
X117623019Y-70943908D01*
X117783296Y-71015268D01*
X117970097Y-71054974D01*
X118161071Y-71054974D01*
X118347872Y-71015268D01*
X118522336Y-70937592D01*
X118676837Y-70825340D01*
X118695274Y-70804864D01*
X118804618Y-70683425D01*
X118804619Y-70683423D01*
X118804624Y-70683418D01*
X118900111Y-70518030D01*
X118959126Y-70336402D01*
X118979088Y-70146474D01*
X118959126Y-69956546D01*
X118900111Y-69774918D01*
X118804624Y-69609530D01*
X118804622Y-69609528D01*
X118804618Y-69609522D01*
X118676839Y-69467609D01*
X118522336Y-69355356D01*
X118347872Y-69277680D01*
X118161071Y-69237974D01*
X117970097Y-69237974D01*
X117783293Y-69277680D01*
X117642056Y-69340563D01*
X117571689Y-69349997D01*
X117539559Y-69340563D01*
X117526801Y-69334883D01*
X117379288Y-69269206D01*
X117192487Y-69229500D01*
X117001513Y-69229500D01*
X116814711Y-69269206D01*
X116752418Y-69296941D01*
X116640248Y-69346882D01*
X116640246Y-69346882D01*
X116634216Y-69349568D01*
X116633411Y-69347761D01*
X116573573Y-69362269D01*
X116506484Y-69339040D01*
X116505526Y-69338350D01*
X116500755Y-69334884D01*
X116500753Y-69334883D01*
X116500752Y-69334882D01*
X116326288Y-69257206D01*
X116139487Y-69217500D01*
X115948513Y-69217500D01*
X115761711Y-69257206D01*
X115587247Y-69334882D01*
X115432744Y-69447135D01*
X115304965Y-69589048D01*
X115304958Y-69589058D01*
X115209476Y-69754438D01*
X115209473Y-69754444D01*
X115202821Y-69774918D01*
X115150457Y-69936072D01*
X115130496Y-70126000D01*
X109982500Y-70126000D01*
X109982500Y-67970000D01*
X114603496Y-67970000D01*
X114623457Y-68159927D01*
X114643970Y-68223058D01*
X114682473Y-68341556D01*
X114682476Y-68341561D01*
X114777958Y-68506941D01*
X114777965Y-68506951D01*
X114905744Y-68648864D01*
X114905747Y-68648866D01*
X115060248Y-68761118D01*
X115234712Y-68838794D01*
X115421513Y-68878500D01*
X115612487Y-68878500D01*
X115799288Y-68838794D01*
X115973752Y-68761118D01*
X116085263Y-68680100D01*
X119829496Y-68680100D01*
X119849457Y-68870027D01*
X119875094Y-68948927D01*
X119908473Y-69051656D01*
X119908476Y-69051661D01*
X120003958Y-69217041D01*
X120003965Y-69217051D01*
X120131744Y-69358964D01*
X120138838Y-69364118D01*
X120286248Y-69471218D01*
X120460711Y-69548894D01*
X120460712Y-69548894D01*
X120492130Y-69555572D01*
X120554604Y-69589300D01*
X120588925Y-69651449D01*
X120585767Y-69717755D01*
X120543457Y-69847970D01*
X120523496Y-70037900D01*
X120543457Y-70227827D01*
X120562770Y-70287264D01*
X120602473Y-70409456D01*
X120602476Y-70409461D01*
X120697958Y-70574841D01*
X120697965Y-70574851D01*
X120825744Y-70716764D01*
X120825747Y-70716766D01*
X120980248Y-70829018D01*
X121154712Y-70906694D01*
X121341513Y-70946400D01*
X121532487Y-70946400D01*
X121719288Y-70906694D01*
X121893752Y-70829018D01*
X122048253Y-70716766D01*
X122058217Y-70705700D01*
X122176034Y-70574851D01*
X122176035Y-70574849D01*
X122176040Y-70574844D01*
X122271527Y-70409456D01*
X122330542Y-70227828D01*
X122350504Y-70037900D01*
X122330542Y-69847972D01*
X122271527Y-69666344D01*
X122256292Y-69639957D01*
X122239556Y-69570963D01*
X122262777Y-69503871D01*
X122318584Y-69459984D01*
X122339213Y-69453713D01*
X122395288Y-69441794D01*
X122569752Y-69364118D01*
X122724253Y-69251866D01*
X122724255Y-69251864D01*
X122852034Y-69109951D01*
X122852035Y-69109949D01*
X122852040Y-69109944D01*
X122947527Y-68944556D01*
X123006542Y-68762928D01*
X123026504Y-68573000D01*
X123006542Y-68383072D01*
X122947527Y-68201444D01*
X122852040Y-68036056D01*
X122852038Y-68036054D01*
X122852034Y-68036048D01*
X122724255Y-67894135D01*
X122569752Y-67781882D01*
X122395288Y-67704206D01*
X122208487Y-67664500D01*
X122017513Y-67664500D01*
X121830711Y-67704206D01*
X121656247Y-67781882D01*
X121501746Y-67894134D01*
X121461032Y-67939351D01*
X121400586Y-67976589D01*
X121329602Y-67975237D01*
X121293336Y-67956975D01*
X121199752Y-67888982D01*
X121025288Y-67811306D01*
X120838487Y-67771600D01*
X120647513Y-67771600D01*
X120460711Y-67811306D01*
X120286247Y-67888982D01*
X120131744Y-68001235D01*
X120003965Y-68143148D01*
X120003958Y-68143158D01*
X119908476Y-68308538D01*
X119908473Y-68308545D01*
X119849457Y-68490172D01*
X119829496Y-68680100D01*
X116085263Y-68680100D01*
X116128253Y-68648866D01*
X116196563Y-68573000D01*
X116256034Y-68506951D01*
X116256035Y-68506949D01*
X116256040Y-68506944D01*
X116351527Y-68341556D01*
X116410542Y-68159928D01*
X116430504Y-67970000D01*
X116410542Y-67780072D01*
X116351527Y-67598444D01*
X116256040Y-67433056D01*
X116223135Y-67396511D01*
X116192419Y-67332505D01*
X116201182Y-67262052D01*
X116242711Y-67210266D01*
X116342445Y-67137804D01*
X116360253Y-67124866D01*
X116488040Y-66982944D01*
X116583527Y-66817556D01*
X116642542Y-66635928D01*
X116662504Y-66446000D01*
X116642542Y-66256072D01*
X116583527Y-66074444D01*
X116488040Y-65909056D01*
X116488038Y-65909054D01*
X116488034Y-65909048D01*
X116360255Y-65767135D01*
X116205752Y-65654882D01*
X116031288Y-65577206D01*
X115844487Y-65537500D01*
X115653513Y-65537500D01*
X115466711Y-65577206D01*
X115292247Y-65654882D01*
X115137744Y-65767135D01*
X115009965Y-65909048D01*
X115009958Y-65909058D01*
X114914476Y-66074438D01*
X114914473Y-66074445D01*
X114855457Y-66256072D01*
X114835496Y-66445999D01*
X114855457Y-66635927D01*
X114876423Y-66700452D01*
X114914473Y-66817556D01*
X115009960Y-66982944D01*
X115042864Y-67019488D01*
X115073581Y-67083495D01*
X115064818Y-67153948D01*
X115023289Y-67205734D01*
X114905744Y-67291135D01*
X114777965Y-67433048D01*
X114777958Y-67433058D01*
X114727528Y-67520406D01*
X114682473Y-67598444D01*
X114677875Y-67612595D01*
X114623457Y-67780072D01*
X114603496Y-67970000D01*
X109982500Y-67970000D01*
X109982500Y-64532477D01*
X110002502Y-64464356D01*
X110019400Y-64443386D01*
X110252861Y-64209926D01*
X110361672Y-64079593D01*
X110473468Y-63882566D01*
X110548288Y-63668745D01*
X110583725Y-63445000D01*
X110578642Y-63218523D01*
X110533202Y-62996593D01*
X110448865Y-62786343D01*
X110448863Y-62786341D01*
X110448863Y-62786339D01*
X110328344Y-62594535D01*
X110328343Y-62594533D01*
X110241935Y-62500000D01*
X130386496Y-62500000D01*
X130406457Y-62689927D01*
X130436526Y-62782470D01*
X130465473Y-62871556D01*
X130465476Y-62871561D01*
X130560958Y-63036941D01*
X130560965Y-63036951D01*
X130688744Y-63178864D01*
X130688747Y-63178866D01*
X130843248Y-63291118D01*
X131017712Y-63368794D01*
X131204513Y-63408500D01*
X131395487Y-63408500D01*
X131582288Y-63368794D01*
X131756752Y-63291118D01*
X131911253Y-63178866D01*
X131911255Y-63178864D01*
X132039034Y-63036951D01*
X132039035Y-63036949D01*
X132039040Y-63036944D01*
X132134527Y-62871556D01*
X132193542Y-62689928D01*
X132213504Y-62500000D01*
X132193542Y-62310072D01*
X132134527Y-62128444D01*
X132039040Y-61963056D01*
X132039038Y-61963054D01*
X132039034Y-61963048D01*
X131911255Y-61821135D01*
X131756752Y-61708882D01*
X131582288Y-61631206D01*
X131395487Y-61591500D01*
X131204513Y-61591500D01*
X131017711Y-61631206D01*
X130843247Y-61708882D01*
X130688744Y-61821135D01*
X130560965Y-61963048D01*
X130560958Y-61963058D01*
X130465476Y-62128438D01*
X130465473Y-62128445D01*
X130406457Y-62310072D01*
X130386496Y-62500000D01*
X110241935Y-62500000D01*
X110214514Y-62470000D01*
X110175505Y-62427322D01*
X110175503Y-62427320D01*
X110175500Y-62427317D01*
X109990767Y-62286662D01*
X109991661Y-62285486D01*
X109949277Y-62237562D01*
X109937355Y-62184037D01*
X109937552Y-61250000D01*
X111598496Y-61250000D01*
X111618457Y-61439927D01*
X111648526Y-61532470D01*
X111677473Y-61621556D01*
X111700249Y-61661005D01*
X111772958Y-61786941D01*
X111772965Y-61786951D01*
X111900744Y-61928864D01*
X111900747Y-61928866D01*
X112055248Y-62041118D01*
X112229712Y-62118794D01*
X112416513Y-62158500D01*
X112607487Y-62158500D01*
X112794288Y-62118794D01*
X112968752Y-62041118D01*
X113123253Y-61928866D01*
X113128935Y-61922556D01*
X113251034Y-61786951D01*
X113251035Y-61786949D01*
X113251040Y-61786944D01*
X113346527Y-61621556D01*
X113369452Y-61551000D01*
X123533496Y-61551000D01*
X123553457Y-61740927D01*
X123568412Y-61786951D01*
X123612473Y-61922556D01*
X123612476Y-61922561D01*
X123707958Y-62087941D01*
X123707965Y-62087951D01*
X123835744Y-62229864D01*
X123878607Y-62261006D01*
X123990248Y-62342118D01*
X124164712Y-62419794D01*
X124351513Y-62459500D01*
X124542487Y-62459500D01*
X124729288Y-62419794D01*
X124903752Y-62342118D01*
X125058253Y-62229866D01*
X125119114Y-62162273D01*
X125186034Y-62087951D01*
X125186035Y-62087949D01*
X125186040Y-62087944D01*
X125281527Y-61922556D01*
X125340542Y-61740928D01*
X125360504Y-61551000D01*
X125360294Y-61548999D01*
X127146496Y-61548999D01*
X127166457Y-61738927D01*
X127193169Y-61821135D01*
X127225473Y-61920556D01*
X127225476Y-61920561D01*
X127320958Y-62085941D01*
X127320965Y-62085951D01*
X127448744Y-62227864D01*
X127448747Y-62227866D01*
X127603248Y-62340118D01*
X127777712Y-62417794D01*
X127964513Y-62457500D01*
X128155487Y-62457500D01*
X128342288Y-62417794D01*
X128516752Y-62340118D01*
X128671253Y-62227866D01*
X128676069Y-62222517D01*
X128799034Y-62085951D01*
X128799035Y-62085949D01*
X128799040Y-62085944D01*
X128894527Y-61920556D01*
X128953542Y-61738928D01*
X128973504Y-61549000D01*
X128953542Y-61359072D01*
X128894527Y-61177444D01*
X128799040Y-61012056D01*
X128799038Y-61012054D01*
X128799034Y-61012048D01*
X128671255Y-60870135D01*
X128516752Y-60757882D01*
X128342288Y-60680206D01*
X128155487Y-60640500D01*
X127964513Y-60640500D01*
X127777711Y-60680206D01*
X127603247Y-60757882D01*
X127448744Y-60870135D01*
X127320965Y-61012048D01*
X127320958Y-61012058D01*
X127225476Y-61177438D01*
X127225473Y-61177445D01*
X127166457Y-61359072D01*
X127146496Y-61548999D01*
X125360294Y-61548999D01*
X125340542Y-61361072D01*
X125281527Y-61179444D01*
X125186040Y-61014056D01*
X125186038Y-61014054D01*
X125186034Y-61014048D01*
X125058255Y-60872135D01*
X124903752Y-60759882D01*
X124729288Y-60682206D01*
X124542487Y-60642500D01*
X124351513Y-60642500D01*
X124164711Y-60682206D01*
X123990247Y-60759882D01*
X123835744Y-60872135D01*
X123707965Y-61014048D01*
X123707958Y-61014058D01*
X123612476Y-61179438D01*
X123612473Y-61179445D01*
X123553457Y-61361072D01*
X123533496Y-61551000D01*
X113369452Y-61551000D01*
X113405542Y-61439928D01*
X113425504Y-61250000D01*
X113405542Y-61060072D01*
X113346527Y-60878444D01*
X113251040Y-60713056D01*
X113251038Y-60713054D01*
X113251034Y-60713048D01*
X113123255Y-60571135D01*
X112968752Y-60458882D01*
X112794288Y-60381206D01*
X112607487Y-60341500D01*
X112416513Y-60341500D01*
X112229711Y-60381206D01*
X112055247Y-60458882D01*
X111900744Y-60571135D01*
X111772965Y-60713048D01*
X111772958Y-60713058D01*
X111677476Y-60878438D01*
X111677473Y-60878445D01*
X111618457Y-61060072D01*
X111598496Y-61250000D01*
X109937552Y-61250000D01*
X109938072Y-58789660D01*
X124840393Y-58789660D01*
X124870668Y-58961354D01*
X124870669Y-58961356D01*
X124939719Y-59121435D01*
X124939721Y-59121439D01*
X124947021Y-59131244D01*
X125043832Y-59261283D01*
X125069439Y-59282770D01*
X125177384Y-59373348D01*
X125177386Y-59373349D01*
X125333185Y-59451594D01*
X125502829Y-59491800D01*
X125502831Y-59491800D01*
X125633439Y-59491800D01*
X125667117Y-59487863D01*
X125763164Y-59476637D01*
X125926993Y-59417008D01*
X126072654Y-59321205D01*
X126192296Y-59194393D01*
X126279467Y-59043407D01*
X126329469Y-58876388D01*
X126339607Y-58702340D01*
X126309332Y-58530646D01*
X126240279Y-58370562D01*
X126230442Y-58357349D01*
X126136168Y-58230717D01*
X126002615Y-58118651D01*
X125924369Y-58079355D01*
X125846815Y-58040406D01*
X125677171Y-58000200D01*
X125546564Y-58000200D01*
X125546561Y-58000200D01*
X125416835Y-58015363D01*
X125253006Y-58074992D01*
X125253003Y-58074993D01*
X125107346Y-58170794D01*
X124987703Y-58297607D01*
X124900535Y-58448587D01*
X124900533Y-58448593D01*
X124850531Y-58615612D01*
X124840393Y-58789660D01*
X109938072Y-58789660D01*
X109938286Y-57773660D01*
X129920393Y-57773660D01*
X129950668Y-57945354D01*
X129950669Y-57945356D01*
X130019719Y-58105435D01*
X130019721Y-58105439D01*
X130123831Y-58245282D01*
X130257384Y-58357348D01*
X130257386Y-58357349D01*
X130413185Y-58435594D01*
X130582829Y-58475800D01*
X130582831Y-58475800D01*
X130713439Y-58475800D01*
X130747117Y-58471863D01*
X130843164Y-58460637D01*
X131006993Y-58401008D01*
X131152654Y-58305205D01*
X131272296Y-58178393D01*
X131359467Y-58027407D01*
X131409469Y-57860388D01*
X131419607Y-57686340D01*
X131389332Y-57514646D01*
X131320279Y-57354562D01*
X131310442Y-57341349D01*
X131216168Y-57214717D01*
X131082615Y-57102651D01*
X130997832Y-57060072D01*
X130926815Y-57024406D01*
X130757171Y-56984200D01*
X130626564Y-56984200D01*
X130626561Y-56984200D01*
X130496835Y-56999363D01*
X130333006Y-57058992D01*
X130333003Y-57058993D01*
X130187346Y-57154794D01*
X130067703Y-57281607D01*
X129980535Y-57432587D01*
X129980533Y-57432593D01*
X129930531Y-57599612D01*
X129920393Y-57773660D01*
X109938286Y-57773660D01*
X109938838Y-55160000D01*
X113316496Y-55160000D01*
X113336457Y-55349927D01*
X113366526Y-55442470D01*
X113395473Y-55531556D01*
X113395476Y-55531561D01*
X113490958Y-55696941D01*
X113490965Y-55696951D01*
X113618744Y-55838864D01*
X113618747Y-55838866D01*
X113773248Y-55951118D01*
X113947712Y-56028794D01*
X114134513Y-56068500D01*
X114325487Y-56068500D01*
X114512288Y-56028794D01*
X114686752Y-55951118D01*
X114841253Y-55838866D01*
X114930338Y-55739927D01*
X114969034Y-55696951D01*
X114969035Y-55696949D01*
X114969040Y-55696944D01*
X115064527Y-55531556D01*
X115123542Y-55349928D01*
X115143504Y-55160000D01*
X115123542Y-54970072D01*
X115064527Y-54788444D01*
X115028475Y-54726000D01*
X119762496Y-54726000D01*
X119782457Y-54915927D01*
X119803300Y-54980072D01*
X119841473Y-55097556D01*
X119841476Y-55097561D01*
X119936958Y-55262941D01*
X119936965Y-55262951D01*
X120064744Y-55404864D01*
X120064747Y-55404866D01*
X120219248Y-55517118D01*
X120393712Y-55594794D01*
X120580513Y-55634500D01*
X120771487Y-55634500D01*
X120958288Y-55594794D01*
X121132752Y-55517118D01*
X121287253Y-55404866D01*
X121327586Y-55360072D01*
X121415034Y-55262951D01*
X121415035Y-55262949D01*
X121415040Y-55262944D01*
X121509116Y-55100000D01*
X123916496Y-55100000D01*
X123936457Y-55289927D01*
X123959249Y-55360072D01*
X123995473Y-55471556D01*
X123995476Y-55471561D01*
X124090958Y-55636941D01*
X124090965Y-55636951D01*
X124218744Y-55778864D01*
X124218747Y-55778866D01*
X124373248Y-55891118D01*
X124547712Y-55968794D01*
X124734513Y-56008500D01*
X124925478Y-56008500D01*
X124925487Y-56008500D01*
X124925495Y-56008498D01*
X124925659Y-56008481D01*
X124925763Y-56008500D01*
X124932090Y-56008500D01*
X124932090Y-56009656D01*
X124995499Y-56021248D01*
X125047349Y-56069745D01*
X125064749Y-56138577D01*
X125042173Y-56205889D01*
X125030490Y-56220256D01*
X124987703Y-56265607D01*
X124900535Y-56416587D01*
X124900533Y-56416593D01*
X124850531Y-56583613D01*
X124845727Y-56666094D01*
X124840393Y-56757660D01*
X124870668Y-56929354D01*
X124870669Y-56929356D01*
X124939719Y-57089435D01*
X124939721Y-57089439D01*
X125043831Y-57229282D01*
X125177384Y-57341348D01*
X125177386Y-57341349D01*
X125333185Y-57419594D01*
X125502829Y-57459800D01*
X125502831Y-57459800D01*
X125633439Y-57459800D01*
X125667117Y-57455863D01*
X125763164Y-57444637D01*
X125926993Y-57385008D01*
X126072654Y-57289205D01*
X126192296Y-57162393D01*
X126279467Y-57011407D01*
X126329469Y-56844388D01*
X126339607Y-56670340D01*
X126309332Y-56498646D01*
X126240279Y-56338562D01*
X126136168Y-56198717D01*
X126125780Y-56190000D01*
X126002615Y-56086651D01*
X125924370Y-56047355D01*
X125846815Y-56008406D01*
X125677171Y-55968200D01*
X125553777Y-55968200D01*
X125485656Y-55948198D01*
X125439163Y-55894542D01*
X125429059Y-55824268D01*
X125458553Y-55759688D01*
X125460141Y-55757890D01*
X125569034Y-55636951D01*
X125569035Y-55636949D01*
X125569040Y-55636944D01*
X125619237Y-55550000D01*
X127206496Y-55550000D01*
X127226457Y-55739927D01*
X127251970Y-55818444D01*
X127285473Y-55921556D01*
X127285476Y-55921561D01*
X127380958Y-56086941D01*
X127380965Y-56086951D01*
X127508744Y-56228864D01*
X127508747Y-56228866D01*
X127663248Y-56341118D01*
X127837712Y-56418794D01*
X128024513Y-56458500D01*
X128215487Y-56458500D01*
X128402288Y-56418794D01*
X128576752Y-56341118D01*
X128731253Y-56228866D01*
X128731255Y-56228864D01*
X128859034Y-56086951D01*
X128859035Y-56086949D01*
X128859040Y-56086944D01*
X128954527Y-55921556D01*
X129013542Y-55739928D01*
X129033504Y-55550000D01*
X129013542Y-55360072D01*
X128954527Y-55178444D01*
X128859040Y-55013056D01*
X128859038Y-55013054D01*
X128859034Y-55013048D01*
X128731255Y-54871135D01*
X128576752Y-54758882D01*
X128402288Y-54681206D01*
X128215487Y-54641500D01*
X128024513Y-54641500D01*
X127837711Y-54681206D01*
X127663247Y-54758882D01*
X127508744Y-54871135D01*
X127380965Y-55013048D01*
X127380958Y-55013058D01*
X127285476Y-55178438D01*
X127285473Y-55178445D01*
X127226457Y-55360072D01*
X127206496Y-55550000D01*
X125619237Y-55550000D01*
X125664527Y-55471556D01*
X125723542Y-55289928D01*
X125743504Y-55100000D01*
X125723542Y-54910072D01*
X125664527Y-54728444D01*
X125569040Y-54563056D01*
X125569038Y-54563054D01*
X125569034Y-54563048D01*
X125441255Y-54421135D01*
X125286752Y-54308882D01*
X125112288Y-54231206D01*
X124925487Y-54191500D01*
X124734513Y-54191500D01*
X124547711Y-54231206D01*
X124373247Y-54308882D01*
X124218744Y-54421135D01*
X124090965Y-54563048D01*
X124090958Y-54563058D01*
X123995476Y-54728438D01*
X123995473Y-54728445D01*
X123936457Y-54910072D01*
X123916496Y-55100000D01*
X121509116Y-55100000D01*
X121510527Y-55097556D01*
X121569542Y-54915928D01*
X121589504Y-54726000D01*
X121569542Y-54536072D01*
X121510527Y-54354444D01*
X121415040Y-54189056D01*
X121415038Y-54189054D01*
X121415034Y-54189048D01*
X121287255Y-54047135D01*
X121132752Y-53934882D01*
X120958288Y-53857206D01*
X120771487Y-53817500D01*
X120580513Y-53817500D01*
X120393711Y-53857206D01*
X120219247Y-53934882D01*
X120064744Y-54047135D01*
X119936965Y-54189048D01*
X119936958Y-54189058D01*
X119841476Y-54354438D01*
X119841473Y-54354445D01*
X119782457Y-54536072D01*
X119762496Y-54726000D01*
X115028475Y-54726000D01*
X114969040Y-54623056D01*
X114969038Y-54623054D01*
X114969034Y-54623048D01*
X114841255Y-54481135D01*
X114686752Y-54368882D01*
X114512288Y-54291206D01*
X114325487Y-54251500D01*
X114134513Y-54251500D01*
X113947711Y-54291206D01*
X113773247Y-54368882D01*
X113618744Y-54481135D01*
X113490965Y-54623048D01*
X113490958Y-54623058D01*
X113395476Y-54788438D01*
X113395473Y-54788445D01*
X113336457Y-54970072D01*
X113316496Y-55160000D01*
X109938838Y-55160000D01*
X109939708Y-51042126D01*
X109959723Y-50974014D01*
X109988316Y-50942725D01*
X109991570Y-50940192D01*
X109991576Y-50940189D01*
X110169240Y-50801906D01*
X110321722Y-50636268D01*
X110321927Y-50635955D01*
X110343457Y-50603000D01*
X110410518Y-50500354D01*
X110464520Y-50454268D01*
X110534868Y-50444692D01*
X110599225Y-50474669D01*
X110621480Y-50500353D01*
X110654607Y-50551058D01*
X110710275Y-50636265D01*
X110710279Y-50636270D01*
X110862762Y-50801908D01*
X110917331Y-50844381D01*
X111040424Y-50940189D01*
X111238426Y-51047342D01*
X111238427Y-51047342D01*
X111238428Y-51047343D01*
X111350227Y-51085723D01*
X111451365Y-51120444D01*
X111673431Y-51157500D01*
X111673435Y-51157500D01*
X111898565Y-51157500D01*
X111898569Y-51157500D01*
X112120635Y-51120444D01*
X112333574Y-51047342D01*
X112531576Y-50940189D01*
X112709240Y-50801906D01*
X112861722Y-50636268D01*
X112861927Y-50635955D01*
X112883457Y-50603000D01*
X112950518Y-50500354D01*
X113004520Y-50454268D01*
X113074868Y-50444692D01*
X113139225Y-50474669D01*
X113161480Y-50500353D01*
X113194607Y-50551058D01*
X113250275Y-50636265D01*
X113250279Y-50636270D01*
X113402762Y-50801908D01*
X113457331Y-50844381D01*
X113580424Y-50940189D01*
X113778426Y-51047342D01*
X113778427Y-51047342D01*
X113778428Y-51047343D01*
X113890227Y-51085723D01*
X113991365Y-51120444D01*
X114213431Y-51157500D01*
X114213435Y-51157500D01*
X114438565Y-51157500D01*
X114438569Y-51157500D01*
X114660635Y-51120444D01*
X114873574Y-51047342D01*
X115071576Y-50940189D01*
X115249240Y-50801906D01*
X115401722Y-50636268D01*
X115401927Y-50635955D01*
X115423457Y-50603000D01*
X115490816Y-50499898D01*
X115544819Y-50453810D01*
X115615167Y-50444235D01*
X115679524Y-50474212D01*
X115701782Y-50499898D01*
X115790674Y-50635958D01*
X115943097Y-50801534D01*
X116120698Y-50939767D01*
X116120699Y-50939768D01*
X116318628Y-51046882D01*
X116318630Y-51046883D01*
X116531483Y-51119955D01*
X116531492Y-51119957D01*
X116612000Y-51133391D01*
X116612000Y-50232674D01*
X116723685Y-50283680D01*
X116830237Y-50299000D01*
X116901763Y-50299000D01*
X117008315Y-50283680D01*
X117119999Y-50232674D01*
X117119999Y-51133391D01*
X117200507Y-51119957D01*
X117200516Y-51119955D01*
X117413369Y-51046883D01*
X117413371Y-51046882D01*
X117611300Y-50939768D01*
X117611301Y-50939767D01*
X117788902Y-50801534D01*
X117941327Y-50635955D01*
X118030217Y-50499899D01*
X118084220Y-50453810D01*
X118154568Y-50444235D01*
X118218925Y-50474212D01*
X118241183Y-50499898D01*
X118330279Y-50636270D01*
X118482762Y-50801908D01*
X118537331Y-50844381D01*
X118660424Y-50940189D01*
X118858426Y-51047342D01*
X118858427Y-51047342D01*
X118858428Y-51047343D01*
X118970227Y-51085723D01*
X119071365Y-51120444D01*
X119293431Y-51157500D01*
X119293435Y-51157500D01*
X119518565Y-51157500D01*
X119518569Y-51157500D01*
X119740635Y-51120444D01*
X119953574Y-51047342D01*
X120151576Y-50940189D01*
X120329240Y-50801906D01*
X120481722Y-50636268D01*
X120481927Y-50635955D01*
X120503457Y-50603000D01*
X120604860Y-50447791D01*
X120695296Y-50241616D01*
X120750564Y-50023368D01*
X120769156Y-49799000D01*
X120769156Y-49798994D01*
X120768941Y-49796398D01*
X120769156Y-49795353D01*
X120769156Y-49793789D01*
X120769478Y-49793789D01*
X120783253Y-49726859D01*
X120832889Y-49676097D01*
X120894511Y-49660000D01*
X127968968Y-49660000D01*
X128037089Y-49680002D01*
G37*
%TD.AperFunction*%
%TD*%
M02*
