%TF.GenerationSoftware,KiCad,Pcbnew,7.0.6-0*%
%TF.CreationDate,2023-08-11T12:33:22-04:00*%
%TF.ProjectId,bitaxeMax,62697461-7865-44d6-9178-2e6b69636164,rev?*%
%TF.SameCoordinates,Original*%
%TF.FileFunction,Copper,L1,Top*%
%TF.FilePolarity,Positive*%
%FSLAX46Y46*%
G04 Gerber Fmt 4.6, Leading zero omitted, Abs format (unit mm)*
G04 Created by KiCad (PCBNEW 7.0.6-0) date 2023-08-11 12:33:22*
%MOMM*%
%LPD*%
G01*
G04 APERTURE LIST*
G04 Aperture macros list*
%AMRoundRect*
0 Rectangle with rounded corners*
0 $1 Rounding radius*
0 $2 $3 $4 $5 $6 $7 $8 $9 X,Y pos of 4 corners*
0 Add a 4 corners polygon primitive as box body*
4,1,4,$2,$3,$4,$5,$6,$7,$8,$9,$2,$3,0*
0 Add four circle primitives for the rounded corners*
1,1,$1+$1,$2,$3*
1,1,$1+$1,$4,$5*
1,1,$1+$1,$6,$7*
1,1,$1+$1,$8,$9*
0 Add four rect primitives between the rounded corners*
20,1,$1+$1,$2,$3,$4,$5,0*
20,1,$1+$1,$4,$5,$6,$7,0*
20,1,$1+$1,$6,$7,$8,$9,0*
20,1,$1+$1,$8,$9,$2,$3,0*%
%AMFreePoly0*
4,1,19,0.500000,-0.750000,0.000000,-0.750000,0.000000,-0.744911,-0.071157,-0.744911,-0.207708,-0.704816,-0.327430,-0.627875,-0.420627,-0.520320,-0.479746,-0.390866,-0.500000,-0.250000,-0.500000,0.250000,-0.479746,0.390866,-0.420627,0.520320,-0.327430,0.627875,-0.207708,0.704816,-0.071157,0.744911,0.000000,0.744911,0.000000,0.750000,0.500000,0.750000,0.500000,-0.750000,0.500000,-0.750000,
$1*%
%AMFreePoly1*
4,1,19,0.000000,0.744911,0.071157,0.744911,0.207708,0.704816,0.327430,0.627875,0.420627,0.520320,0.479746,0.390866,0.500000,0.250000,0.500000,-0.250000,0.479746,-0.390866,0.420627,-0.520320,0.327430,-0.627875,0.207708,-0.704816,0.071157,-0.744911,0.000000,-0.744911,0.000000,-0.750000,-0.500000,-0.750000,-0.500000,0.750000,0.000000,0.750000,0.000000,0.744911,0.000000,0.744911,
$1*%
%AMFreePoly2*
4,1,35,0.005000,-4.560000,0.003536,-4.563536,0.000000,-4.565000,-5.000000,-4.565000,-5.003536,-4.563536,-5.005000,-4.560000,-5.005000,-3.898000,-5.003536,-3.894464,-5.000000,-3.893000,-4.325000,-3.893000,-4.325000,-3.269700,-5.000000,-3.269700,-5.003536,-3.268236,-5.005000,-3.264700,-5.005000,-2.599700,-5.003536,-2.596164,-5.000000,-2.594700,-4.325000,-2.594700,-4.325000,-1.971400,-5.000000,-1.971400,
-5.003536,-1.969936,-5.005000,-1.966400,-5.005000,-1.301400,-5.003536,-1.297864,-5.000000,-1.296400,-4.325000,-1.296400,-4.325000,-0.673100,-5.000000,-0.673100,-5.003536,-0.671636,-5.005000,-0.668100,-5.005000,0.000000,-5.003536,0.003536,-5.000000,0.005000,0.005000,0.005000,0.005000,-4.560000,0.005000,-4.560000,$1*%
%AMFreePoly3*
4,1,45,-0.199646,1.700354,-0.199500,1.700000,-0.199500,1.200500,0.199500,1.200500,0.199500,1.700000,0.199646,1.700354,0.200000,1.700500,0.450000,1.700500,0.450354,1.700354,0.450500,1.700000,0.450500,1.200500,0.825000,1.200500,0.825354,1.200354,0.825500,1.200000,0.825500,-1.200000,0.825354,-1.200354,0.825000,-1.200500,0.450500,-1.200500,0.450500,-1.700000,0.450354,-1.700354,
0.450000,-1.700500,0.200000,-1.700500,0.199646,-1.700354,0.199500,-1.700000,0.199500,-1.200500,-0.199500,-1.200500,-0.199500,-1.700000,-0.199646,-1.700354,-0.200000,-1.700500,-0.450000,-1.700500,-0.450354,-1.700354,-0.450500,-1.700000,-0.450500,-1.200500,-0.825000,-1.200500,-0.825354,-1.200354,-0.825500,-1.200000,-0.825500,1.200000,-0.825354,1.200354,-0.825000,1.200500,-0.450500,1.200500,
-0.450500,1.700000,-0.450354,1.700354,-0.450000,1.700500,-0.200000,1.700500,-0.199646,1.700354,-0.199646,1.700354,$1*%
G04 Aperture macros list end*
%TA.AperFunction,SMDPad,CuDef*%
%ADD10RoundRect,0.135000X-0.135000X-0.185000X0.135000X-0.185000X0.135000X0.185000X-0.135000X0.185000X0*%
%TD*%
%TA.AperFunction,SMDPad,CuDef*%
%ADD11RoundRect,0.250000X0.475000X-0.250000X0.475000X0.250000X-0.475000X0.250000X-0.475000X-0.250000X0*%
%TD*%
%TA.AperFunction,SMDPad,CuDef*%
%ADD12RoundRect,0.140000X0.140000X0.170000X-0.140000X0.170000X-0.140000X-0.170000X0.140000X-0.170000X0*%
%TD*%
%TA.AperFunction,SMDPad,CuDef*%
%ADD13RoundRect,0.100000X-0.637500X-0.100000X0.637500X-0.100000X0.637500X0.100000X-0.637500X0.100000X0*%
%TD*%
%TA.AperFunction,SMDPad,CuDef*%
%ADD14RoundRect,0.140000X-0.170000X0.140000X-0.170000X-0.140000X0.170000X-0.140000X0.170000X0.140000X0*%
%TD*%
%TA.AperFunction,SMDPad,CuDef*%
%ADD15R,2.000000X2.000000*%
%TD*%
%TA.AperFunction,SMDPad,CuDef*%
%ADD16RoundRect,0.135000X-0.185000X0.135000X-0.185000X-0.135000X0.185000X-0.135000X0.185000X0.135000X0*%
%TD*%
%TA.AperFunction,SMDPad,CuDef*%
%ADD17C,1.500000*%
%TD*%
%TA.AperFunction,SMDPad,CuDef*%
%ADD18RoundRect,0.250000X0.250000X0.475000X-0.250000X0.475000X-0.250000X-0.475000X0.250000X-0.475000X0*%
%TD*%
%TA.AperFunction,SMDPad,CuDef*%
%ADD19FreePoly0,180.000000*%
%TD*%
%TA.AperFunction,SMDPad,CuDef*%
%ADD20FreePoly1,180.000000*%
%TD*%
%TA.AperFunction,SMDPad,CuDef*%
%ADD21RoundRect,0.135000X0.135000X0.185000X-0.135000X0.185000X-0.135000X-0.185000X0.135000X-0.185000X0*%
%TD*%
%TA.AperFunction,SMDPad,CuDef*%
%ADD22RoundRect,0.250000X-0.475000X0.250000X-0.475000X-0.250000X0.475000X-0.250000X0.475000X0.250000X0*%
%TD*%
%TA.AperFunction,SMDPad,CuDef*%
%ADD23RoundRect,0.250000X-0.250000X-0.475000X0.250000X-0.475000X0.250000X0.475000X-0.250000X0.475000X0*%
%TD*%
%TA.AperFunction,SMDPad,CuDef*%
%ADD24R,1.168400X1.600200*%
%TD*%
%TA.AperFunction,SMDPad,CuDef*%
%ADD25RoundRect,0.150000X-0.512500X-0.150000X0.512500X-0.150000X0.512500X0.150000X-0.512500X0.150000X0*%
%TD*%
%TA.AperFunction,SMDPad,CuDef*%
%ADD26RoundRect,0.140000X0.170000X-0.140000X0.170000X0.140000X-0.170000X0.140000X-0.170000X-0.140000X0*%
%TD*%
%TA.AperFunction,SMDPad,CuDef*%
%ADD27R,0.400000X1.100000*%
%TD*%
%TA.AperFunction,SMDPad,CuDef*%
%ADD28RoundRect,0.140000X-0.140000X-0.170000X0.140000X-0.170000X0.140000X0.170000X-0.140000X0.170000X0*%
%TD*%
%TA.AperFunction,ComponentPad*%
%ADD29O,1.700000X1.700000*%
%TD*%
%TA.AperFunction,SMDPad,CuDef*%
%ADD30RoundRect,0.007800X-0.122200X0.442200X-0.122200X-0.442200X0.122200X-0.442200X0.122200X0.442200X0*%
%TD*%
%TA.AperFunction,SMDPad,CuDef*%
%ADD31RoundRect,0.007800X-0.442200X-0.122200X0.442200X-0.122200X0.442200X0.122200X-0.442200X0.122200X0*%
%TD*%
%TA.AperFunction,SMDPad,CuDef*%
%ADD32R,2.050000X2.050000*%
%TD*%
%TA.AperFunction,ComponentPad*%
%ADD33C,0.500000*%
%TD*%
%TA.AperFunction,SMDPad,CuDef*%
%ADD34R,3.100000X2.000000*%
%TD*%
%TA.AperFunction,SMDPad,CuDef*%
%ADD35RoundRect,0.135000X0.185000X-0.135000X0.185000X0.135000X-0.185000X0.135000X-0.185000X-0.135000X0*%
%TD*%
%TA.AperFunction,ComponentPad*%
%ADD36C,0.700000*%
%TD*%
%TA.AperFunction,ComponentPad*%
%ADD37C,4.400000*%
%TD*%
%TA.AperFunction,SMDPad,CuDef*%
%ADD38R,1.100000X0.400000*%
%TD*%
%TA.AperFunction,SMDPad,CuDef*%
%ADD39RoundRect,0.250000X-1.025000X0.875000X-1.025000X-0.875000X1.025000X-0.875000X1.025000X0.875000X0*%
%TD*%
%TA.AperFunction,SMDPad,CuDef*%
%ADD40R,0.700000X0.800000*%
%TD*%
%TA.AperFunction,SMDPad,CuDef*%
%ADD41FreePoly2,270.000000*%
%TD*%
%TA.AperFunction,SMDPad,CuDef*%
%ADD42RoundRect,0.007874X-0.112126X0.292126X-0.112126X-0.292126X0.112126X-0.292126X0.112126X0.292126X0*%
%TD*%
%TA.AperFunction,ComponentPad*%
%ADD43C,0.400000*%
%TD*%
%TA.AperFunction,SMDPad,CuDef*%
%ADD44FreePoly3,270.000000*%
%TD*%
%TA.AperFunction,SMDPad,CuDef*%
%ADD45R,1.600000X2.700000*%
%TD*%
%TA.AperFunction,SMDPad,CuDef*%
%ADD46FreePoly2,90.000000*%
%TD*%
%TA.AperFunction,SMDPad,CuDef*%
%ADD47RoundRect,0.250000X-0.325000X-1.100000X0.325000X-1.100000X0.325000X1.100000X-0.325000X1.100000X0*%
%TD*%
%TA.AperFunction,SMDPad,CuDef*%
%ADD48R,1.100000X1.300000*%
%TD*%
%TA.AperFunction,SMDPad,CuDef*%
%ADD49RoundRect,0.250000X0.325000X0.650000X-0.325000X0.650000X-0.325000X-0.650000X0.325000X-0.650000X0*%
%TD*%
%TA.AperFunction,SMDPad,CuDef*%
%ADD50R,0.952500X0.558800*%
%TD*%
%TA.AperFunction,ComponentPad*%
%ADD51C,1.574800*%
%TD*%
%TA.AperFunction,ComponentPad*%
%ADD52R,1.700000X1.700000*%
%TD*%
%TA.AperFunction,ComponentPad*%
%ADD53C,2.520000*%
%TD*%
%TA.AperFunction,ComponentPad*%
%ADD54O,1.600200X0.914400*%
%TD*%
%TA.AperFunction,ViaPad*%
%ADD55C,0.800000*%
%TD*%
%TA.AperFunction,ViaPad*%
%ADD56C,1.000000*%
%TD*%
%TA.AperFunction,ViaPad*%
%ADD57C,1.200000*%
%TD*%
%TA.AperFunction,Conductor*%
%ADD58C,0.508000*%
%TD*%
%TA.AperFunction,Conductor*%
%ADD59C,0.254000*%
%TD*%
%TA.AperFunction,Conductor*%
%ADD60C,0.400000*%
%TD*%
%TA.AperFunction,Conductor*%
%ADD61C,1.000000*%
%TD*%
%TA.AperFunction,Conductor*%
%ADD62C,0.200000*%
%TD*%
G04 APERTURE END LIST*
%TA.AperFunction,EtchedComponent*%
%TO.C,JP3*%
G36*
X122610000Y-114630000D02*
G01*
X122110000Y-114630000D01*
X122110000Y-114230000D01*
X122610000Y-114230000D01*
X122610000Y-114630000D01*
G37*
%TD.AperFunction*%
%TA.AperFunction,EtchedComponent*%
G36*
X122610000Y-113830000D02*
G01*
X122110000Y-113830000D01*
X122110000Y-113430000D01*
X122610000Y-113430000D01*
X122610000Y-113830000D01*
G37*
%TD.AperFunction*%
%TD*%
D10*
%TO.P,R26,1*%
%TO.N,/ESP32/LEDX_G*%
X95600000Y-55220000D03*
%TO.P,R26,2*%
%TO.N,Net-(U4-GA)*%
X96620000Y-55220000D03*
%TD*%
D11*
%TO.P,C43,1*%
%TO.N,Net-(U9-BP)*%
X104265600Y-71247800D03*
%TO.P,C43,2*%
%TO.N,GND*%
X104265600Y-69347800D03*
%TD*%
D12*
%TO.P,C19,1*%
%TO.N,/BM1397/1V8*%
X116860000Y-102703600D03*
%TO.P,C19,2*%
%TO.N,GND*%
X115900000Y-102703600D03*
%TD*%
D13*
%TO.P,U8,1,IN+*%
%TO.N,/Power/VIN*%
X79777500Y-79495000D03*
%TO.P,U8,2,IN+*%
X79777500Y-80145000D03*
%TO.P,U8,3,IN+*%
X79777500Y-80795000D03*
%TO.P,U8,4,A1*%
%TO.N,GND*%
X79777500Y-81445000D03*
%TO.P,U8,5,A0*%
X79777500Y-82095000D03*
%TO.P,U8,6,GND*%
X79777500Y-82745000D03*
%TO.P,U8,7,ALERT*%
%TO.N,unconnected-(U8-ALERT-Pad7)*%
X79777500Y-83395000D03*
%TO.P,U8,8,SDA*%
%TO.N,/SDA*%
X79777500Y-84045000D03*
%TO.P,U8,9,SCL*%
%TO.N,/SCL*%
X85502500Y-84045000D03*
%TO.P,U8,10,VS*%
%TO.N,/3V3*%
X85502500Y-83395000D03*
%TO.P,U8,11,GND*%
%TO.N,GND*%
X85502500Y-82745000D03*
%TO.P,U8,12,VBUS*%
%TO.N,/Power/VIN*%
X85502500Y-82095000D03*
%TO.P,U8,13,NC*%
%TO.N,unconnected-(U8-NC-Pad13)*%
X85502500Y-81445000D03*
%TO.P,U8,14,IN-*%
%TO.N,/5V*%
X85502500Y-80795000D03*
%TO.P,U8,15,IN-*%
X85502500Y-80145000D03*
%TO.P,U8,16,IN-*%
X85502500Y-79495000D03*
%TD*%
D14*
%TO.P,C7,1*%
%TO.N,/VDD*%
X99820000Y-114150000D03*
%TO.P,C7,2*%
%TO.N,GND*%
X99820000Y-115110000D03*
%TD*%
D15*
%TO.P,D1,1*%
%TO.N,/5V*%
X122260000Y-96520000D03*
%TO.P,D1,2*%
%TO.N,Net-(USB1-VBUS)*%
X126660000Y-96520000D03*
%TD*%
D10*
%TO.P,R7,1,1*%
%TO.N,Net-(U7-DN)*%
X93400000Y-116670000D03*
%TO.P,R7,2,2*%
%TO.N,/TEMP_N*%
X94420000Y-116670000D03*
%TD*%
D16*
%TO.P,R13,1*%
%TO.N,/VDD*%
X90649600Y-63569000D03*
%TO.P,R13,2*%
%TO.N,Net-(C45-Pad1)*%
X90649600Y-64589000D03*
%TD*%
D17*
%TO.P,TP26,1,1*%
%TO.N,/ESP32/LEDX_G*%
X100520000Y-58700000D03*
%TD*%
D12*
%TO.P,C1,1*%
%TO.N,GND*%
X115730000Y-127810000D03*
%TO.P,C1,2*%
%TO.N,/BM1397/1V8*%
X114770000Y-127810000D03*
%TD*%
D18*
%TO.P,C41,1*%
%TO.N,Net-(U9-COMP)*%
X98355400Y-63005800D03*
%TO.P,C41,2*%
%TO.N,Net-(C41-Pad2)*%
X96455400Y-63005800D03*
%TD*%
D17*
%TO.P,TP19,1,1*%
%TO.N,/3V3*%
X131156000Y-74610000D03*
%TD*%
D19*
%TO.P,JP2,1,A*%
%TO.N,GND*%
X123010000Y-111640000D03*
D20*
%TO.P,JP2,2,B*%
%TO.N,Net-(IC1-ADDR1)*%
X121710000Y-111640000D03*
%TD*%
D21*
%TO.P,R1,1*%
%TO.N,GND*%
X119000000Y-116520000D03*
%TO.P,R1,2*%
%TO.N,/BM1397/RST_N*%
X117980000Y-116520000D03*
%TD*%
D12*
%TO.P,C3,1*%
%TO.N,Net-(IC1-VDD1_0)*%
X114920000Y-107790000D03*
%TO.P,C3,2*%
%TO.N,Net-(IC1-VDD2_0)*%
X113960000Y-107790000D03*
%TD*%
D22*
%TO.P,C38,1*%
%TO.N,/5V*%
X101783000Y-67211600D03*
%TO.P,C38,2*%
%TO.N,GND*%
X101783000Y-69111600D03*
%TD*%
D17*
%TO.P,TP5,1,1*%
%TO.N,GND*%
X111440000Y-130160000D03*
%TD*%
D10*
%TO.P,R27,1*%
%TO.N,/ESP32/LEDZ_G*%
X106450000Y-55180000D03*
%TO.P,R27,2*%
%TO.N,Net-(U13-GA)*%
X107470000Y-55180000D03*
%TD*%
D14*
%TO.P,C25,1*%
%TO.N,/BM1397/0V8*%
X105540000Y-129760000D03*
%TO.P,C25,2*%
%TO.N,GND*%
X105540000Y-130720000D03*
%TD*%
D23*
%TO.P,C45,1*%
%TO.N,Net-(C45-Pad1)*%
X91120000Y-66420000D03*
%TO.P,C45,2*%
%TO.N,/Power/OUT0*%
X93020000Y-66420000D03*
%TD*%
D24*
%TO.P,Y1,1,1*%
%TO.N,/ESP32/XIN32*%
X124017400Y-78349000D03*
%TO.P,Y1,2,2*%
%TO.N,/ESP32/XOUT32*%
X121172600Y-78349000D03*
%TD*%
D17*
%TO.P,TP16,1,1*%
%TO.N,/Fan/FAN_TACH*%
X85570000Y-139110000D03*
%TD*%
%TO.P,TP15,1,1*%
%TO.N,/Fan/FAN_PWM*%
X84690000Y-143470000D03*
%TD*%
D25*
%TO.P,U5,1,VIN*%
%TO.N,/5V*%
X89482500Y-128390000D03*
%TO.P,U5,2,GND*%
%TO.N,GND*%
X89482500Y-129340000D03*
%TO.P,U5,3,EN*%
%TO.N,/5V*%
X89482500Y-130290000D03*
%TO.P,U5,4,PG*%
%TO.N,unconnected-(U5-PG-Pad4)*%
X91757500Y-130290000D03*
%TO.P,U5,5,VOUT*%
%TO.N,/BM1397/1V8*%
X91757500Y-128390000D03*
%TD*%
D23*
%TO.P,C51,1*%
%TO.N,/3V3*%
X130440000Y-82740000D03*
%TO.P,C51,2*%
%TO.N,GND*%
X132340000Y-82740000D03*
%TD*%
D17*
%TO.P,TP23,1,1*%
%TO.N,/ESP32/IO0*%
X122556000Y-57528000D03*
%TD*%
D16*
%TO.P,R6,1*%
%TO.N,Net-(IC1-RI)*%
X97500000Y-120830000D03*
%TO.P,R6,2*%
%TO.N,/BM1397/1V8*%
X97500000Y-121850000D03*
%TD*%
D17*
%TO.P,TP30,1,1*%
%TO.N,/ESP32/LEDZ_B*%
X114630000Y-59948000D03*
%TD*%
D25*
%TO.P,U6,1,VIN*%
%TO.N,/5V*%
X101182500Y-129290000D03*
%TO.P,U6,2,GND*%
%TO.N,GND*%
X101182500Y-130240000D03*
%TO.P,U6,3,EN*%
%TO.N,/5V*%
X101182500Y-131190000D03*
%TO.P,U6,4,PG*%
%TO.N,unconnected-(U6-PG-Pad4)*%
X103457500Y-131190000D03*
%TO.P,U6,5,VOUT*%
%TO.N,/BM1397/0V8*%
X103457500Y-129290000D03*
%TD*%
D17*
%TO.P,TP31,1,1*%
%TO.N,GND*%
X129540000Y-109220000D03*
%TD*%
D12*
%TO.P,C50,1*%
%TO.N,/ESP32/EN*%
X127480000Y-111760000D03*
%TO.P,C50,2*%
%TO.N,GND*%
X126520000Y-111760000D03*
%TD*%
D26*
%TO.P,C4,1*%
%TO.N,/BM1397/0V8*%
X110660000Y-121800000D03*
%TO.P,C4,2*%
%TO.N,GND*%
X110660000Y-120840000D03*
%TD*%
D27*
%TO.P,U7,1,VDD*%
%TO.N,/3V3*%
X82655000Y-134030000D03*
%TO.P,U7,2,DP*%
%TO.N,Net-(U7-DP)*%
X82005000Y-134030000D03*
%TO.P,U7,3,DN*%
%TO.N,Net-(U7-DN)*%
X81355000Y-134030000D03*
%TO.P,U7,4,FAN*%
%TO.N,/Fan/FAN_PWM*%
X80705000Y-134030000D03*
%TO.P,U7,5,GND*%
%TO.N,GND*%
X80705000Y-138330000D03*
%TO.P,U7,6,ALERT/TACH*%
%TO.N,/Fan/FAN_TACH*%
X81355000Y-138330000D03*
%TO.P,U7,7,SMDATA*%
%TO.N,/SDA*%
X82005000Y-138330000D03*
%TO.P,U7,8,SMCLK*%
%TO.N,/SCL*%
X82655000Y-138330000D03*
%TD*%
D12*
%TO.P,C12,1*%
%TO.N,/VDD*%
X99780000Y-104240000D03*
%TO.P,C12,2*%
%TO.N,Net-(IC1-VDD3_1)*%
X98820000Y-104240000D03*
%TD*%
D28*
%TO.P,C52,1*%
%TO.N,/3V3*%
X130790000Y-80550000D03*
%TO.P,C52,2*%
%TO.N,GND*%
X131750000Y-80550000D03*
%TD*%
D19*
%TO.P,JP3,1,A*%
%TO.N,GND*%
X123010000Y-114030000D03*
D20*
%TO.P,JP3,2,B*%
%TO.N,Net-(IC1-ADDR2)*%
X121710000Y-114030000D03*
%TD*%
D10*
%TO.P,R29,1*%
%TO.N,/ESP32/LEDZ_R*%
X106450000Y-56190000D03*
%TO.P,R29,2*%
%TO.N,Net-(U13-RA)*%
X107470000Y-56190000D03*
%TD*%
D26*
%TO.P,C30,1*%
%TO.N,/ESP32/XIN32*%
X124043000Y-76576000D03*
%TO.P,C30,2*%
%TO.N,GND*%
X124043000Y-75616000D03*
%TD*%
D29*
%TO.P,,*%
%TO.N,GND*%
X80110000Y-55129000D03*
%TD*%
D30*
%TO.P,U2,1,VCCA*%
%TO.N,/BM1397/1V8*%
X115580000Y-98098600D03*
D31*
%TO.P,U2,2,A1*%
%TO.N,/BM1397/RO*%
X114645000Y-98783600D03*
%TO.P,U2,3,A2*%
%TO.N,/BM1397/CI*%
X114645000Y-99283600D03*
%TO.P,U2,4,A3*%
%TO.N,/BM1397/RST_N*%
X114645000Y-99783600D03*
%TO.P,U2,5,A4*%
%TO.N,/BM1397/BM_BI*%
X114645000Y-100283600D03*
%TO.P,U2,6*%
%TO.N,N/C*%
X114645000Y-100783600D03*
D30*
%TO.P,U2,7,GND*%
%TO.N,GND*%
X115580000Y-101468600D03*
%TO.P,U2,8,OE*%
%TO.N,/BM1397/1V8*%
X117080000Y-101468600D03*
D31*
%TO.P,U2,9*%
%TO.N,N/C*%
X118015000Y-100783600D03*
%TO.P,U2,10,B4*%
%TO.N,/BI*%
X118015000Y-100283600D03*
%TO.P,U2,11,B3*%
%TO.N,/RST*%
X118015000Y-99783600D03*
%TO.P,U2,12,B2*%
%TO.N,/TX*%
X118015000Y-99283600D03*
%TO.P,U2,13,B1*%
%TO.N,/RX*%
X118015000Y-98783600D03*
D30*
%TO.P,U2,14,VCCB*%
%TO.N,/3V3*%
X117080000Y-98098600D03*
D32*
%TO.P,U2,15,GND*%
%TO.N,GND*%
X116330000Y-99783600D03*
D33*
%TO.P,U2,16,GND*%
X116830000Y-99283600D03*
%TO.P,U2,17,GND*%
X116830000Y-100283600D03*
%TO.P,U2,18,GND*%
X115830000Y-100283600D03*
%TO.P,U2,19,GND*%
X115830000Y-99283600D03*
%TD*%
D16*
%TO.P,R10,1*%
%TO.N,Net-(C41-Pad2)*%
X94828800Y-63573600D03*
%TO.P,R10,2*%
%TO.N,/Power/OUT0*%
X94828800Y-64593600D03*
%TD*%
D17*
%TO.P,TP17,1,1*%
%TO.N,/ESP32/EN*%
X131044000Y-65978000D03*
%TD*%
D34*
%TO.P,L1,1,1*%
%TO.N,/Power/SW*%
X106000600Y-77761400D03*
%TO.P,L1,2,2*%
%TO.N,/VDD*%
X106000600Y-86081400D03*
%TD*%
D35*
%TO.P,R15,1*%
%TO.N,/Power/OUT0*%
X93465000Y-64589000D03*
%TO.P,R15,2*%
%TO.N,GND*%
X93465000Y-63569000D03*
%TD*%
D17*
%TO.P,TP29,1,1*%
%TO.N,/ESP32/LEDZ_G*%
X112020000Y-58630000D03*
%TD*%
D12*
%TO.P,C15,1*%
%TO.N,Net-(IC1-VDD3_1)*%
X98490000Y-106040000D03*
%TO.P,C15,2*%
%TO.N,Net-(IC1-VDD2_1)*%
X97530000Y-106040000D03*
%TD*%
D17*
%TO.P,TP32,1,1*%
%TO.N,Net-(IC1-RI)*%
X95310000Y-121910000D03*
%TD*%
D36*
%TO.P,H4,1*%
%TO.N,N/C*%
X78337000Y-50603000D03*
X78820274Y-49436274D03*
X78820274Y-51769726D03*
X79987000Y-48953000D03*
D37*
X79987000Y-50603000D03*
D36*
X79987000Y-52253000D03*
X81153726Y-49436274D03*
X81153726Y-51769726D03*
X81637000Y-50603000D03*
%TD*%
D21*
%TO.P,R16,1*%
%TO.N,Net-(U10-FS0)*%
X94840000Y-102040000D03*
%TO.P,R16,2*%
%TO.N,GND*%
X93820000Y-102040000D03*
%TD*%
D17*
%TO.P,TP28,1,1*%
%TO.N,/ESP32/LEDZ_R*%
X109370000Y-57428000D03*
%TD*%
D12*
%TO.P,C32,1*%
%TO.N,Net-(U7-DP)*%
X94900000Y-118050000D03*
%TO.P,C32,2*%
%TO.N,Net-(U7-DN)*%
X93940000Y-118050000D03*
%TD*%
D26*
%TO.P,C16,1*%
%TO.N,/BM1397/0V8*%
X100710000Y-121800000D03*
%TO.P,C16,2*%
%TO.N,GND*%
X100710000Y-120840000D03*
%TD*%
D21*
%TO.P,R3,1*%
%TO.N,/BM1397/RO*%
X116920000Y-117890000D03*
%TO.P,R3,2*%
%TO.N,Net-(IC1-RO)*%
X115900000Y-117890000D03*
%TD*%
D14*
%TO.P,C49,1*%
%TO.N,/3V3*%
X115489000Y-63645000D03*
%TO.P,C49,2*%
%TO.N,GND*%
X115489000Y-64605000D03*
%TD*%
D36*
%TO.P,H3,1*%
%TO.N,N/C*%
X129330000Y-144470000D03*
X129813274Y-143303274D03*
X129813274Y-145636726D03*
X130980000Y-142820000D03*
D37*
X130980000Y-144470000D03*
D36*
X130980000Y-146120000D03*
X132146726Y-143303274D03*
X132146726Y-145636726D03*
X132630000Y-144470000D03*
%TD*%
D17*
%TO.P,TP12,1,1*%
%TO.N,/TEMP_N*%
X89350000Y-115300000D03*
%TD*%
D28*
%TO.P,C18,1*%
%TO.N,Net-(IC1-VDD1_1)*%
X96250000Y-109680000D03*
%TO.P,C18,2*%
%TO.N,GND*%
X97210000Y-109680000D03*
%TD*%
D17*
%TO.P,TP18,1,1*%
%TO.N,/ESP32/P_TX*%
X129881000Y-61664000D03*
%TD*%
D18*
%TO.P,C40,1*%
%TO.N,Net-(U9-COMP)*%
X98333000Y-65268000D03*
%TO.P,C40,2*%
%TO.N,/Power/OUT0*%
X96433000Y-65268000D03*
%TD*%
D38*
%TO.P,U10,1,SDA*%
%TO.N,/SDA*%
X90890000Y-98565000D03*
%TO.P,U10,2,SCL*%
%TO.N,/SCL*%
X90890000Y-99215000D03*
%TO.P,U10,3,FS1*%
%TO.N,Net-(U10-FS1)*%
X90890000Y-99865000D03*
%TO.P,U10,4,GND*%
%TO.N,GND*%
X90890000Y-100515000D03*
%TO.P,U10,5,FS0*%
%TO.N,Net-(U10-FS0)*%
X95190000Y-100515000D03*
%TO.P,U10,6,OUT0*%
%TO.N,/Power/OUT0*%
X95190000Y-99865000D03*
%TO.P,U10,7,OUT1*%
%TO.N,/Power/OUT1*%
X95190000Y-99215000D03*
%TO.P,U10,8,VCC*%
%TO.N,/3V3*%
X95190000Y-98565000D03*
%TD*%
D28*
%TO.P,C39,1*%
%TO.N,Net-(U9-SS)*%
X104635400Y-67480800D03*
%TO.P,C39,2*%
%TO.N,GND*%
X105595400Y-67480800D03*
%TD*%
D26*
%TO.P,C31,1*%
%TO.N,/ESP32/XOUT32*%
X121159000Y-76585000D03*
%TO.P,C31,2*%
%TO.N,GND*%
X121159000Y-75625000D03*
%TD*%
D17*
%TO.P,TP8,1,1*%
%TO.N,Net-(IC1-CO)*%
X86310000Y-114030000D03*
%TD*%
%TO.P,TP24,1,1*%
%TO.N,/BM1397/BM_BI*%
X110430000Y-101963600D03*
%TD*%
D12*
%TO.P,C35,1*%
%TO.N,/3V3*%
X82650000Y-87720000D03*
%TO.P,C35,2*%
%TO.N,GND*%
X81690000Y-87720000D03*
%TD*%
D17*
%TO.P,TP6,1,1*%
%TO.N,Net-(IC1-BO)*%
X89200000Y-107450000D03*
%TD*%
D14*
%TO.P,C10,1*%
%TO.N,/VDD*%
X110280000Y-114170000D03*
%TO.P,C10,2*%
%TO.N,GND*%
X110280000Y-115130000D03*
%TD*%
D17*
%TO.P,TP27,1,1*%
%TO.N,/ESP32/LEDX_B*%
X103400000Y-58710000D03*
%TD*%
D14*
%TO.P,C11,1*%
%TO.N,/VDD*%
X101370000Y-114140000D03*
%TO.P,C11,2*%
%TO.N,GND*%
X101370000Y-115100000D03*
%TD*%
D16*
%TO.P,R14,1*%
%TO.N,/VDD*%
X92057300Y-63569000D03*
%TO.P,R14,2*%
%TO.N,/Power/OUT0*%
X92057300Y-64589000D03*
%TD*%
D10*
%TO.P,R11,1*%
%TO.N,/Power/PGOOD*%
X104604000Y-66292000D03*
%TO.P,R11,2*%
%TO.N,Net-(U9-BP)*%
X105624000Y-66292000D03*
%TD*%
D26*
%TO.P,C14,1*%
%TO.N,/BM1397/1V8*%
X99190000Y-121800000D03*
%TO.P,C14,2*%
%TO.N,GND*%
X99190000Y-120840000D03*
%TD*%
D36*
%TO.P,H2,1*%
%TO.N,N/C*%
X129033000Y-50604000D03*
X129516274Y-49437274D03*
X129516274Y-51770726D03*
X130683000Y-48954000D03*
D37*
X130683000Y-50604000D03*
D36*
X130683000Y-52254000D03*
X131849726Y-49437274D03*
X131849726Y-51770726D03*
X132333000Y-50604000D03*
%TD*%
D39*
%TO.P,C13,1*%
%TO.N,/VDD*%
X105600000Y-111360000D03*
%TO.P,C13,2*%
%TO.N,GND*%
X105600000Y-117760000D03*
%TD*%
D36*
%TO.P,H1,1*%
%TO.N,N/C*%
X78370000Y-144380000D03*
X78853274Y-143213274D03*
X78853274Y-145546726D03*
X80020000Y-142730000D03*
D37*
X80020000Y-144380000D03*
D36*
X80020000Y-146030000D03*
X81186726Y-143213274D03*
X81186726Y-145546726D03*
X81670000Y-144380000D03*
%TD*%
D17*
%TO.P,TP11,1,1*%
%TO.N,/TEMP_P*%
X91810000Y-121920000D03*
%TD*%
D40*
%TO.P,Q2,1*%
%TO.N,GND*%
X95751600Y-82862700D03*
%TO.P,Q2,2*%
X97049900Y-82862700D03*
%TO.P,Q2,3,S*%
X98313300Y-82862700D03*
%TO.P,Q2,4,G*%
%TO.N,Net-(Q2-G)*%
X99611600Y-82862700D03*
D41*
%TO.P,Q2,5,D*%
%TO.N,/Power/SW*%
X99961600Y-81957700D03*
%TD*%
D17*
%TO.P,TP1,1,1*%
%TO.N,Net-(U1-OUT)*%
X120190000Y-124230000D03*
%TD*%
D26*
%TO.P,C33,1*%
%TO.N,/3V3*%
X82970000Y-131240000D03*
%TO.P,C33,2*%
%TO.N,GND*%
X82970000Y-130280000D03*
%TD*%
D17*
%TO.P,TP3,1,1*%
%TO.N,/BM1397/RO*%
X114410000Y-140150000D03*
%TD*%
D28*
%TO.P,C44,1*%
%TO.N,/3V3*%
X95450000Y-97140000D03*
%TO.P,C44,2*%
%TO.N,GND*%
X96410000Y-97140000D03*
%TD*%
D42*
%TO.P,U9,1,VDD*%
%TO.N,/5V*%
X99201691Y-68022200D03*
%TO.P,U9,2,SS*%
%TO.N,Net-(U9-SS)*%
X98701691Y-68022200D03*
%TO.P,U9,3,PGOOD*%
%TO.N,/Power/PGOOD*%
X98171691Y-68022200D03*
%TO.P,U9,4,COMP*%
%TO.N,Net-(U9-COMP)*%
X97701691Y-68022200D03*
%TO.P,U9,5,FB*%
%TO.N,/Power/OUT0*%
X97201691Y-68022200D03*
%TO.P,U9,6,BOOT*%
%TO.N,Net-(U9-BOOT)*%
X97201691Y-70822200D03*
%TO.P,U9,7,HDRV*%
%TO.N,Net-(Q1-G)*%
X97701691Y-70822200D03*
%TO.P,U9,8,SW*%
%TO.N,/Power/SW*%
X98201691Y-70822200D03*
%TO.P,U9,9,LDRV*%
%TO.N,Net-(Q2-G)*%
X98701691Y-70822200D03*
%TO.P,U9,10,BP*%
%TO.N,Net-(U9-BP)*%
X99201691Y-70822200D03*
D43*
%TO.P,U9,11,GND*%
%TO.N,GND*%
X98201691Y-68847200D03*
X99151691Y-69422200D03*
D44*
X98201691Y-69422200D03*
D43*
X97251691Y-69422200D03*
X98201691Y-69997200D03*
%TD*%
D10*
%TO.P,R36,1*%
%TO.N,/Fan/FAN_TACH*%
X95580000Y-138500000D03*
%TO.P,R36,2*%
%TO.N,/3V3*%
X96600000Y-138500000D03*
%TD*%
D17*
%TO.P,TP25,1,1*%
%TO.N,/ESP32/LEDX_R*%
X97680000Y-58680000D03*
%TD*%
D28*
%TO.P,C22,1*%
%TO.N,/5V*%
X90120000Y-131850000D03*
%TO.P,C22,2*%
%TO.N,GND*%
X91080000Y-131850000D03*
%TD*%
D12*
%TO.P,C6,1*%
%TO.N,Net-(IC1-VDD2_0)*%
X113620000Y-106030000D03*
%TO.P,C6,2*%
%TO.N,Net-(IC1-VDD3_0)*%
X112660000Y-106030000D03*
%TD*%
D45*
%TO.P,C46,1*%
%TO.N,/VDD*%
X103851600Y-89640200D03*
%TO.P,C46,2*%
%TO.N,GND*%
X100851600Y-89640200D03*
%TD*%
D40*
%TO.P,Q1,1*%
%TO.N,/Power/SW*%
X93649887Y-77313864D03*
%TO.P,Q1,2*%
X92351587Y-77313864D03*
%TO.P,Q1,3,S*%
X91088187Y-77313864D03*
%TO.P,Q1,4,G*%
%TO.N,Net-(Q1-G)*%
X89789887Y-77313864D03*
D46*
%TO.P,Q1,5,D*%
%TO.N,/5V*%
X89439887Y-78218864D03*
%TD*%
D10*
%TO.P,R25,1*%
%TO.N,GND*%
X89810000Y-138540000D03*
%TO.P,R25,2*%
%TO.N,/ESP32/FAN_ALERT*%
X90830000Y-138540000D03*
%TD*%
D17*
%TO.P,TP10,1,1*%
%TO.N,Net-(IC1-PIN_MODE)*%
X87760000Y-126010000D03*
%TD*%
D10*
%TO.P,R17,1*%
%TO.N,Net-(U10-FS1)*%
X90910000Y-102040000D03*
%TO.P,R17,2*%
%TO.N,GND*%
X91930000Y-102040000D03*
%TD*%
D28*
%TO.P,C42,1*%
%TO.N,Net-(U9-BOOT)*%
X96189800Y-73128000D03*
%TO.P,C42,2*%
%TO.N,/Power/SW*%
X97149800Y-73128000D03*
%TD*%
D21*
%TO.P,R20,1*%
%TO.N,/3V3*%
X130560000Y-111760000D03*
%TO.P,R20,2*%
%TO.N,/ESP32/EN*%
X129540000Y-111760000D03*
%TD*%
D17*
%TO.P,TP7,1,1*%
%TO.N,Net-(IC1-NRSTO)*%
X89180000Y-110620000D03*
%TD*%
D47*
%TO.P,C34,1*%
%TO.N,/5V*%
X92806600Y-85970200D03*
%TO.P,C34,2*%
%TO.N,GND*%
X95756600Y-85970200D03*
%TD*%
D17*
%TO.P,TP4,1,1*%
%TO.N,/BM1397/RST_N*%
X117040000Y-140190000D03*
%TD*%
D48*
%TO.P,U1,1,EN*%
%TO.N,/BM1397/1V8*%
X116140000Y-126170000D03*
%TO.P,U1,2,GND*%
%TO.N,GND*%
X116140000Y-123870000D03*
%TO.P,U1,3,OUT*%
%TO.N,Net-(U1-OUT)*%
X114240000Y-123870000D03*
%TO.P,U1,4,VIN*%
%TO.N,/BM1397/1V8*%
X114240000Y-126170000D03*
%TD*%
D17*
%TO.P,TP13,1,1*%
%TO.N,/BM1397/1V8*%
X97670000Y-127850000D03*
%TD*%
D10*
%TO.P,R12,1*%
%TO.N,Net-(Q2-G)*%
X98650200Y-73123400D03*
%TO.P,R12,2*%
%TO.N,GND*%
X99670200Y-73123400D03*
%TD*%
D21*
%TO.P,R4,1*%
%TO.N,/3V3*%
X110465000Y-71760000D03*
%TO.P,R4,2*%
%TO.N,/Power/PGOOD*%
X109445000Y-71760000D03*
%TD*%
D28*
%TO.P,C2,1*%
%TO.N,GND*%
X113960000Y-109650000D03*
%TO.P,C2,2*%
%TO.N,Net-(IC1-VDD1_0)*%
X114920000Y-109650000D03*
%TD*%
D21*
%TO.P,R24,1*%
%TO.N,/ESP32/FAN_ALERT*%
X90800000Y-137350000D03*
%TO.P,R24,2*%
%TO.N,/Fan/FAN_TACH*%
X89780000Y-137350000D03*
%TD*%
D28*
%TO.P,C23,1*%
%TO.N,/5V*%
X101730000Y-132610000D03*
%TO.P,C23,2*%
%TO.N,GND*%
X102690000Y-132610000D03*
%TD*%
D29*
%TO.P,,*%
%TO.N,/Power/VIN*%
X80110000Y-57669000D03*
%TD*%
D26*
%TO.P,C5,1*%
%TO.N,/BM1397/1V8*%
X112160000Y-121800000D03*
%TO.P,C5,2*%
%TO.N,GND*%
X112160000Y-120840000D03*
%TD*%
D17*
%TO.P,TP9,1,1*%
%TO.N,Net-(IC1-CLKO)*%
X86350000Y-110750000D03*
%TD*%
D21*
%TO.P,R2,1*%
%TO.N,Net-(U1-OUT)*%
X116890000Y-121740000D03*
%TO.P,R2,2*%
%TO.N,/BM1397/BM_CLKI*%
X115870000Y-121740000D03*
%TD*%
D35*
%TO.P,R9,1*%
%TO.N,/Fan/FAN_PWM*%
X80700000Y-132210000D03*
%TO.P,R9,2*%
%TO.N,/3V3*%
X80700000Y-131190000D03*
%TD*%
D12*
%TO.P,C17,1*%
%TO.N,Net-(IC1-VDD2_1)*%
X97210000Y-107780000D03*
%TO.P,C17,2*%
%TO.N,Net-(IC1-VDD1_1)*%
X96250000Y-107780000D03*
%TD*%
D19*
%TO.P,JP1,1,A*%
%TO.N,GND*%
X123010000Y-109220000D03*
D20*
%TO.P,JP1,2,B*%
%TO.N,Net-(IC1-ADDR0)*%
X121710000Y-109220000D03*
%TD*%
D10*
%TO.P,R22,1*%
%TO.N,/ESP32/LEDZ_B*%
X106450000Y-54180000D03*
%TO.P,R22,2*%
%TO.N,Net-(U13-BA)*%
X107470000Y-54180000D03*
%TD*%
D12*
%TO.P,C8,1*%
%TO.N,Net-(IC1-VDD3_0)*%
X112290000Y-104240000D03*
%TO.P,C8,2*%
%TO.N,/VDD*%
X111330000Y-104240000D03*
%TD*%
D28*
%TO.P,C29,1*%
%TO.N,/5V*%
X95640000Y-137410000D03*
%TO.P,C29,2*%
%TO.N,GND*%
X96600000Y-137410000D03*
%TD*%
D17*
%TO.P,TP14,1,1*%
%TO.N,/BM1397/0V8*%
X107830000Y-129200000D03*
%TD*%
D28*
%TO.P,C27,1*%
%TO.N,/5V*%
X111051000Y-65931000D03*
%TO.P,C27,2*%
%TO.N,GND*%
X112011000Y-65931000D03*
%TD*%
D17*
%TO.P,TP22,1,1*%
%TO.N,/ESP32/P_RX*%
X126093000Y-61620000D03*
%TD*%
%TO.P,TP2,1,1*%
%TO.N,/BM1397/CI*%
X111890000Y-140150000D03*
%TD*%
D12*
%TO.P,C20,1*%
%TO.N,/3V3*%
X114490000Y-96873600D03*
%TO.P,C20,2*%
%TO.N,GND*%
X113530000Y-96873600D03*
%TD*%
D10*
%TO.P,R21,1*%
%TO.N,/ESP32/LEDX_B*%
X95600000Y-54220000D03*
%TO.P,R21,2*%
%TO.N,Net-(U4-BA)*%
X96620000Y-54220000D03*
%TD*%
D49*
%TO.P,C47,1*%
%TO.N,/VDD*%
X103786600Y-92610200D03*
%TO.P,C47,2*%
%TO.N,GND*%
X100836600Y-92610200D03*
%TD*%
D14*
%TO.P,C24,1*%
%TO.N,/BM1397/1V8*%
X93630000Y-128670000D03*
%TO.P,C24,2*%
%TO.N,GND*%
X93630000Y-129630000D03*
%TD*%
D21*
%TO.P,R5,1*%
%TO.N,/BM1397/CI*%
X116920000Y-119250000D03*
%TO.P,R5,2*%
%TO.N,Net-(IC1-CI)*%
X115900000Y-119250000D03*
%TD*%
D47*
%TO.P,C36,1*%
%TO.N,/5V*%
X92766600Y-89380200D03*
%TO.P,C36,2*%
%TO.N,GND*%
X95716600Y-89380200D03*
%TD*%
D14*
%TO.P,C9,1*%
%TO.N,/VDD*%
X111870000Y-114230000D03*
%TO.P,C9,2*%
%TO.N,GND*%
X111870000Y-115190000D03*
%TD*%
D50*
%TO.P,U11,1,VIN*%
%TO.N,/5V*%
X111185050Y-62440200D03*
%TO.P,U11,2,GND*%
%TO.N,GND*%
X111185050Y-63380000D03*
%TO.P,U11,3,EN*%
%TO.N,/5V*%
X111185050Y-64319800D03*
%TO.P,U11,4*%
%TO.N,N/C*%
X113940950Y-64319800D03*
%TO.P,U11,5,VOUT*%
%TO.N,/3V3*%
X113940950Y-62440200D03*
%TD*%
D47*
%TO.P,C37,1*%
%TO.N,/5V*%
X92766600Y-92740200D03*
%TO.P,C37,2*%
%TO.N,GND*%
X95716600Y-92740200D03*
%TD*%
D10*
%TO.P,R28,1*%
%TO.N,/ESP32/LEDX_R*%
X95600000Y-56220000D03*
%TO.P,R28,2*%
%TO.N,Net-(U4-RA)*%
X96620000Y-56220000D03*
%TD*%
D21*
%TO.P,R8,1,1*%
%TO.N,/TEMP_P*%
X95500000Y-119670000D03*
%TO.P,R8,2,2*%
%TO.N,Net-(U7-DP)*%
X94480000Y-119670000D03*
%TD*%
D51*
%TO.P,J4,1,Pin_1*%
%TO.N,GND*%
X89621000Y-143622000D03*
%TO.P,J4,2,Pin_2*%
%TO.N,/5V*%
X92161000Y-143622000D03*
%TO.P,J4,3,Pin_3*%
%TO.N,/Fan/FAN_TACH*%
X94701000Y-143622000D03*
%TO.P,J4,4,Pin_4*%
%TO.N,/Fan/FAN_PWM*%
X97241000Y-143622000D03*
%TD*%
D52*
%TO.P,J9,1,Pin_1*%
%TO.N,GND*%
X84859000Y-50049000D03*
D29*
%TO.P,J9,2,Pin_2*%
%TO.N,/3V3*%
X84859000Y-52589000D03*
%TO.P,J9,3,Pin_3*%
%TO.N,/SCL*%
X84859000Y-55129000D03*
%TO.P,J9,4,Pin_4*%
%TO.N,/SDA*%
X84859000Y-57669000D03*
%TD*%
D53*
%TO.P,J2,1,Pin_1*%
%TO.N,GND*%
X85190000Y-63390000D03*
X80110000Y-63390000D03*
%TD*%
%TO.P,J1,1,Pin_1*%
%TO.N,/Power/VIN*%
X85190000Y-70810000D03*
X80110000Y-70810000D03*
%TD*%
D52*
%TO.P,J6,1,Pin_1*%
%TO.N,/BI*%
X101626000Y-49799000D03*
D29*
%TO.P,J6,2,Pin_2*%
%TO.N,/RST*%
X104166000Y-49799000D03*
%TO.P,J6,3,Pin_3*%
%TO.N,/RX*%
X106706000Y-49799000D03*
%TO.P,J6,4,Pin_4*%
%TO.N,/TX*%
X109246000Y-49799000D03*
%TO.P,J6,5,Pin_5*%
%TO.N,/SDA*%
X111786000Y-49799000D03*
%TO.P,J6,6,Pin_6*%
%TO.N,/SCL*%
X114326000Y-49799000D03*
%TO.P,J6,7,Pin_7*%
%TO.N,/3V3*%
X116866000Y-49799000D03*
%TO.P,J6,8,Pin_8*%
%TO.N,GND*%
X119406000Y-49799000D03*
%TD*%
D52*
%TO.P,J7,1,Pin_1*%
%TO.N,/Power/VIN*%
X83000000Y-76540000D03*
D29*
%TO.P,J7,2,Pin_2*%
%TO.N,/5V*%
X85540000Y-76540000D03*
%TD*%
D52*
%TO.P,J3,1,Pin_1*%
%TO.N,/BM1397/1V8*%
X109350000Y-143580000D03*
D29*
%TO.P,J3,2,Pin_2*%
%TO.N,/BM1397/CI*%
X111890000Y-143580000D03*
%TO.P,J3,3,Pin_3*%
%TO.N,/BM1397/RO*%
X114430000Y-143580000D03*
%TO.P,J3,4,Pin_4*%
%TO.N,/BM1397/RST_N*%
X116970000Y-143580000D03*
%TO.P,J3,5,Pin_5*%
%TO.N,GND*%
X119510000Y-143580000D03*
%TD*%
D54*
%TO.P,USB1,S_1*%
%TO.N,N/C*%
X131737000Y-99060000D03*
%TO.P,USB1,S_2*%
X131737000Y-105659996D03*
%TD*%
D55*
%TO.N,GND*%
X103110000Y-115590000D03*
X97830000Y-111040000D03*
X80410000Y-139600000D03*
D56*
X127000000Y-105559999D03*
D55*
X78090000Y-82060000D03*
X100850600Y-73131400D03*
X103110000Y-116950000D03*
X116910000Y-128990000D03*
X104630000Y-119670000D03*
D56*
X126719000Y-75842000D03*
X127000000Y-103659998D03*
D55*
X97320000Y-93500000D03*
X131300000Y-62500000D03*
X112980000Y-131260000D03*
X108120000Y-119660000D03*
X97320000Y-87878600D03*
X100580000Y-87270000D03*
X97320000Y-84830000D03*
X98860000Y-84830000D03*
X114230000Y-55160000D03*
X104630000Y-115590000D03*
X98682000Y-136516000D03*
X98860000Y-93500000D03*
X106450000Y-116920000D03*
X128120000Y-55550000D03*
X113540000Y-111040000D03*
X95400600Y-69431400D03*
X106450000Y-119640000D03*
D56*
X100765000Y-145890000D03*
D55*
X94890000Y-62470000D03*
X97320000Y-86310000D03*
X106450000Y-118280000D03*
X80660000Y-87760000D03*
X97320000Y-89650000D03*
X132080000Y-120380000D03*
D56*
X126719000Y-74372000D03*
D55*
X103110000Y-119670000D03*
X90360055Y-101249945D03*
X88908900Y-138550000D03*
X98860000Y-91520000D03*
X117730000Y-123190000D03*
X104630000Y-118310000D03*
X121210000Y-74547000D03*
X120110000Y-117300000D03*
X98860000Y-86310000D03*
X97320000Y-91520000D03*
X102570000Y-57250000D03*
X87764000Y-129341000D03*
X115749000Y-66446000D03*
X113410000Y-96043600D03*
X112512000Y-61250000D03*
X106450000Y-115560000D03*
X95110000Y-129400000D03*
X98860000Y-89650000D03*
X104630000Y-116950000D03*
X86970000Y-82770000D03*
D56*
X126719000Y-73012000D03*
D55*
X105330000Y-132320000D03*
X104430000Y-130240000D03*
X108120000Y-115580000D03*
D56*
X132450000Y-84290000D03*
D55*
X124308576Y-108035637D03*
X108120000Y-118300000D03*
X108120000Y-116940000D03*
X98860000Y-87878600D03*
X103110000Y-118310000D03*
X116274100Y-101933600D03*
X83001194Y-129118806D03*
X96840000Y-98140000D03*
X92910000Y-102990000D03*
D56*
X127000000Y-99060000D03*
D55*
X100580000Y-85521400D03*
%TO.N,/BM1397/1V8*%
X116260000Y-97313600D03*
X119760000Y-127770000D03*
X117940000Y-102413600D03*
X112130000Y-127390000D03*
X111380000Y-123250000D03*
X98320000Y-123300000D03*
%TO.N,/BM1397/0V8*%
X111240000Y-124400000D03*
X97650000Y-124350000D03*
X102260000Y-123530000D03*
X103530000Y-127490000D03*
%TO.N,/VDD*%
X110361000Y-82986000D03*
X115517000Y-67970000D03*
X103000000Y-104240000D03*
X105152000Y-113890000D03*
D57*
X107870000Y-90540000D03*
X107910000Y-92670000D03*
D55*
X104126000Y-113110000D03*
X108330000Y-104270000D03*
X108230000Y-113150000D03*
X103100000Y-113900000D03*
X103000000Y-62838100D03*
X107204000Y-113920000D03*
D57*
X107910000Y-94640000D03*
D55*
X106178000Y-113110000D03*
D57*
X105880000Y-90540000D03*
X105880000Y-88500000D03*
X107850000Y-88520000D03*
X105930000Y-94670000D03*
X105900000Y-92650000D03*
D55*
%TO.N,/ESP32/EN*%
X127000000Y-114300000D03*
X132665000Y-68760000D03*
X124460000Y-99060000D03*
%TO.N,/5V*%
X85750000Y-131200000D03*
X100470000Y-66770000D03*
X93869000Y-136167000D03*
X87748000Y-131214000D03*
X119380000Y-91440000D03*
D57*
X109323000Y-63360000D03*
D55*
X98450000Y-131200000D03*
%TO.N,/3V3*%
X115457000Y-62413000D03*
X115060000Y-96153600D03*
X129610000Y-55490000D03*
D56*
X129310000Y-83980000D03*
D55*
X115840000Y-79945000D03*
X110536000Y-72864000D03*
X131744000Y-76848000D03*
X98662000Y-137914100D03*
X116600000Y-96213600D03*
X83700000Y-87750000D03*
X80676100Y-129980000D03*
X82880000Y-132350000D03*
X94100000Y-97190000D03*
X132080000Y-111760000D03*
X82990000Y-85090000D03*
%TO.N,/TX*%
X115412000Y-84554000D03*
%TO.N,/RX*%
X113836000Y-83855000D03*
%TO.N,/BM1397/RST_N*%
X112070000Y-99853600D03*
X116190000Y-116610000D03*
%TO.N,/BM1397/CI*%
X121880000Y-119600000D03*
X112020000Y-98843600D03*
%TO.N,/RST*%
X120676000Y-54726000D03*
X121437000Y-70037900D03*
%TO.N,/BM1397/RO*%
X112870000Y-98163600D03*
X121859000Y-118519000D03*
%TO.N,/TEMP_N*%
X97340000Y-118490000D03*
%TO.N,/TEMP_P*%
X96203000Y-118495000D03*
%TO.N,/SCL*%
X120743000Y-68680100D03*
X85120000Y-86810000D03*
X90390000Y-96230000D03*
X84010000Y-123740000D03*
%TO.N,/Power/OUT0*%
X91440000Y-95040000D03*
X89730000Y-75310000D03*
%TO.N,Net-(IC1-VDD1_0)*%
X115070000Y-111160000D03*
%TO.N,Net-(IC1-VDD2_0)*%
X112530000Y-107800000D03*
%TO.N,Net-(IC1-VDD3_0)*%
X111250000Y-106010000D03*
%TO.N,Net-(IC1-VDD3_1)*%
X100180000Y-106040000D03*
%TO.N,Net-(IC1-VDD2_1)*%
X98850000Y-107880000D03*
%TO.N,Net-(IC1-VDD1_1)*%
X96130000Y-110920000D03*
%TO.N,Net-(U9-BOOT)*%
X95368800Y-71183600D03*
X95958800Y-74273600D03*
%TO.N,Net-(IC1-ADDR0)*%
X118380000Y-109220000D03*
%TO.N,Net-(IC1-ADDR1)*%
X119780000Y-111630000D03*
%TO.N,Net-(IC1-ADDR2)*%
X119790000Y-114060000D03*
%TO.N,Net-(IC1-RO)*%
X114800000Y-117880000D03*
%TO.N,Net-(IC1-CI)*%
X114690000Y-119230000D03*
%TO.N,Net-(IC1-PIN_MODE)*%
X89540000Y-125970000D03*
%TO.N,Net-(IC1-CLKO)*%
X97500000Y-116660000D03*
%TO.N,Net-(IC1-CO)*%
X96180000Y-115958900D03*
%TO.N,Net-(IC1-RI)*%
X96360000Y-120670000D03*
%TO.N,Net-(IC1-NRSTO)*%
X94099000Y-112195000D03*
%TO.N,Net-(IC1-BO)*%
X95116000Y-111529000D03*
%TO.N,/BI*%
X117717100Y-76139000D03*
X115546000Y-76073000D03*
%TO.N,Net-(Q2-G)*%
X101710600Y-82811400D03*
X102700000Y-75260000D03*
%TO.N,Net-(U4-BA)*%
X97500000Y-54210000D03*
%TO.N,Net-(U13-BA)*%
X108340000Y-54180000D03*
%TO.N,/ESP32/P_TX*%
X124460000Y-88900000D03*
X128060000Y-61549000D03*
%TO.N,/ESP32/P_RX*%
X124447000Y-61551000D03*
X121920000Y-86360000D03*
%TO.N,/ESP32/IO0*%
X132080000Y-91440000D03*
X124830000Y-55100000D03*
X121920000Y-104140000D03*
X122113000Y-68573000D03*
%TO.N,/ESP32/XIN32*%
X124019000Y-80080000D03*
%TO.N,Net-(U4-GA)*%
X97520000Y-55200000D03*
%TO.N,/ESP32/XOUT32*%
X121248000Y-80100000D03*
%TO.N,/Power/PGOOD*%
X108278900Y-71440000D03*
%TO.N,Net-(U13-GA)*%
X108320000Y-55170000D03*
%TO.N,Net-(U4-RA)*%
X97540000Y-56230000D03*
%TO.N,/ESP32/LEDX_B*%
X93950000Y-57520000D03*
%TO.N,Net-(U13-RA)*%
X108310000Y-56190000D03*
%TO.N,/ESP32/FAN_ALERT*%
X111108000Y-81876000D03*
X121867000Y-120750000D03*
X110497000Y-73924000D03*
%TO.N,/ESP32/LEDZ_B*%
X116044000Y-70126000D03*
%TO.N,/ESP32/LEDX_G*%
X94129945Y-58660055D03*
%TO.N,/ESP32/LEDZ_G*%
X117097000Y-70138000D03*
%TO.N,/BM1397/BM_BI*%
X112660000Y-100653600D03*
%TO.N,/SDA*%
X84702648Y-124392960D03*
X117403141Y-73987441D03*
X84730000Y-85730000D03*
X91500000Y-96290000D03*
X90357445Y-62412445D03*
%TO.N,/BM1397/BM_CLKI*%
X114720000Y-121640000D03*
%TO.N,/ESP32/LEDX_R*%
X94319890Y-59810110D03*
%TO.N,/ESP32/LEDZ_R*%
X118065584Y-70146474D03*
D56*
%TO.N,Net-(USB1-VBUS)*%
X127000000Y-101059998D03*
%TD*%
D58*
%TO.N,GND*%
X87764000Y-129341000D02*
X87765000Y-129340000D01*
X112513000Y-63759000D02*
X112513000Y-65429000D01*
D59*
X119920000Y-117300000D02*
X119140000Y-116520000D01*
D58*
X112513000Y-65429000D02*
X112011000Y-65931000D01*
X111189050Y-63376000D02*
X111185050Y-63380000D01*
X113530000Y-96873600D02*
X113530000Y-96163600D01*
D59*
X115900000Y-127980000D02*
X116910000Y-128990000D01*
X121159000Y-74598000D02*
X121210000Y-74547000D01*
D58*
X115453000Y-64570000D02*
X115453000Y-65940000D01*
X90890000Y-100515000D02*
X90215000Y-100515000D01*
X93630000Y-131310000D02*
X93630000Y-129800000D01*
D59*
X124224363Y-108035637D02*
X123010000Y-109250000D01*
X111880000Y-130160000D02*
X112980000Y-131260000D01*
X113790000Y-109650000D02*
X113790000Y-110790000D01*
D58*
X80705000Y-138330000D02*
X80705000Y-139305000D01*
X90130000Y-101019890D02*
X90360055Y-101249945D01*
X102860000Y-132610000D02*
X105040000Y-132610000D01*
D59*
X124308576Y-108035637D02*
X126520000Y-110247061D01*
X115900000Y-127810000D02*
X115900000Y-127980000D01*
X97494000Y-136516000D02*
X96600000Y-137410000D01*
X100842600Y-73123400D02*
X100850600Y-73131400D01*
X123010000Y-111640000D02*
X123010000Y-109250000D01*
D58*
X90130000Y-100600000D02*
X90130000Y-101019890D01*
D59*
X121168000Y-75616000D02*
X121159000Y-75625000D01*
D58*
X96400000Y-97700000D02*
X96840000Y-98140000D01*
X82970000Y-129150000D02*
X83001194Y-129118806D01*
X89810000Y-138540000D02*
X88918900Y-138540000D01*
X132450000Y-84290000D02*
X132450000Y-82850000D01*
X93650000Y-131330000D02*
X93630000Y-131310000D01*
X96400000Y-97310000D02*
X96400000Y-97700000D01*
X132450000Y-82850000D02*
X132340000Y-82740000D01*
X78125000Y-82095000D02*
X78090000Y-82060000D01*
D59*
X123010000Y-114030000D02*
X123010000Y-111640000D01*
D58*
X115900000Y-102703600D02*
X115900000Y-102307700D01*
D59*
X94890000Y-62470000D02*
X94564000Y-62470000D01*
X105595400Y-67480800D02*
X105608800Y-67494200D01*
X105608800Y-67494200D02*
X105608800Y-68193600D01*
D58*
X80660000Y-87760000D02*
X80700000Y-87720000D01*
D59*
X124308576Y-108035637D02*
X124224363Y-108035637D01*
D58*
X105540000Y-132110000D02*
X105540000Y-130890000D01*
D59*
X127000000Y-106680000D02*
X127000000Y-105559999D01*
D58*
X80705000Y-139305000D02*
X80410000Y-139600000D01*
X112513000Y-63759000D02*
X112513000Y-61251000D01*
X92940000Y-102960000D02*
X92910000Y-102990000D01*
D59*
X121159000Y-75625000D02*
X121159000Y-74598000D01*
X97380000Y-109680000D02*
X97380000Y-110590000D01*
D58*
X101182500Y-130240000D02*
X104430000Y-130240000D01*
X105040000Y-132610000D02*
X105540000Y-132110000D01*
X115453000Y-65940000D02*
X115433000Y-65960000D01*
X82970000Y-130280000D02*
X82970000Y-129150000D01*
X80700000Y-87720000D02*
X81690000Y-87720000D01*
X112130000Y-63376000D02*
X111189050Y-63376000D01*
X86945000Y-82745000D02*
X86970000Y-82770000D01*
X115580000Y-101468600D02*
X115809100Y-101468600D01*
X113530000Y-96163600D02*
X113410000Y-96043600D01*
X92940000Y-102040000D02*
X92940000Y-102960000D01*
X91930000Y-102040000D02*
X92940000Y-102040000D01*
D59*
X97380000Y-110590000D02*
X97830000Y-111040000D01*
D58*
X115749000Y-66236000D02*
X115749000Y-66446000D01*
X115809100Y-101468600D02*
X116274100Y-101933600D01*
D59*
X129540000Y-109220000D02*
X127000000Y-106680000D01*
X113790000Y-110790000D02*
X113540000Y-111040000D01*
D58*
X87765000Y-129340000D02*
X89482500Y-129340000D01*
X93630000Y-129800000D02*
X94710000Y-129800000D01*
D59*
X126520000Y-110247061D02*
X126520000Y-111760000D01*
D58*
X117050000Y-123870000D02*
X117730000Y-123190000D01*
D59*
X111440000Y-130160000D02*
X111880000Y-130160000D01*
D58*
X90215000Y-100515000D02*
X90130000Y-100600000D01*
X115900000Y-102307700D02*
X116274100Y-101933600D01*
D59*
X94564000Y-62470000D02*
X93465000Y-63569000D01*
D58*
X79777500Y-82095000D02*
X78125000Y-82095000D01*
X112513000Y-61251000D02*
X112512000Y-61250000D01*
X92940000Y-102040000D02*
X93820000Y-102040000D01*
D59*
X99670200Y-73123400D02*
X100842600Y-73123400D01*
D60*
X79777500Y-81445000D02*
X79777500Y-82095000D01*
D59*
X98682000Y-136516000D02*
X97494000Y-136516000D01*
D58*
X91250000Y-131850000D02*
X93130000Y-131850000D01*
X132340000Y-82740000D02*
X132340000Y-81140000D01*
X88918900Y-138540000D02*
X88908900Y-138550000D01*
X112513000Y-63759000D02*
X112130000Y-63376000D01*
D60*
X79777500Y-82745000D02*
X79777500Y-82095000D01*
D58*
X85502500Y-82745000D02*
X86945000Y-82745000D01*
D59*
X120110000Y-117300000D02*
X119920000Y-117300000D01*
D58*
X132340000Y-81140000D02*
X131750000Y-80550000D01*
D59*
X105608800Y-68193600D02*
X104454600Y-69347800D01*
X104454600Y-69347800D02*
X104265600Y-69347800D01*
D58*
X116140000Y-123870000D02*
X117050000Y-123870000D01*
X94710000Y-129800000D02*
X95110000Y-129400000D01*
X93130000Y-131850000D02*
X93650000Y-131330000D01*
X115453000Y-65940000D02*
X115749000Y-66236000D01*
D59*
X124043000Y-75616000D02*
X121168000Y-75616000D01*
%TO.N,/Power/VIN*%
X83935000Y-82095000D02*
X82635000Y-80795000D01*
X82635000Y-80795000D02*
X79777500Y-80795000D01*
X85502500Y-82095000D02*
X83935000Y-82095000D01*
D58*
%TO.N,/BM1397/1V8*%
X91757500Y-128390000D02*
X93520000Y-128390000D01*
X113630000Y-115160000D02*
X113630000Y-121090000D01*
D59*
X111380000Y-123250000D02*
X112100000Y-123250000D01*
D58*
X112160000Y-123190000D02*
X112160000Y-126110000D01*
X93630000Y-128500000D02*
X93630000Y-126480000D01*
X116260000Y-97313600D02*
X115680000Y-97313600D01*
X112160000Y-122560000D02*
X112160000Y-123190000D01*
X93630000Y-126480000D02*
X93940000Y-126170000D01*
X98360000Y-121990000D02*
X98360000Y-123260000D01*
X98530000Y-121820000D02*
X99040000Y-121820000D01*
X93520000Y-128390000D02*
X93630000Y-128500000D01*
D59*
X97020000Y-128500000D02*
X93630000Y-128500000D01*
D58*
X93630000Y-126480000D02*
X93630000Y-125860000D01*
X112480000Y-127040000D02*
X112130000Y-127390000D01*
X112480000Y-126170000D02*
X112480000Y-127040000D01*
X93630000Y-125860000D02*
X97640000Y-121850000D01*
X97640000Y-121850000D02*
X98220000Y-121850000D01*
X114600000Y-127810000D02*
X114250000Y-127460000D01*
X115580000Y-97413600D02*
X115580000Y-98098600D01*
X98220000Y-121850000D02*
X98360000Y-121990000D01*
X98360000Y-123260000D02*
X98320000Y-123300000D01*
D59*
X112100000Y-123250000D02*
X112160000Y-123190000D01*
D58*
X93940000Y-126170000D02*
X112100000Y-126170000D01*
X117080000Y-101553600D02*
X117940000Y-102413600D01*
X114250000Y-126180000D02*
X114240000Y-126170000D01*
X117080000Y-101468600D02*
X117080000Y-111710000D01*
X98360000Y-121990000D02*
X98530000Y-121820000D01*
X117080000Y-111710000D02*
X113630000Y-115160000D01*
X114250000Y-127460000D02*
X114250000Y-126180000D01*
D59*
X97670000Y-127850000D02*
X97020000Y-128500000D01*
D58*
X112100000Y-126170000D02*
X112480000Y-126170000D01*
X115680000Y-97313600D02*
X115580000Y-97413600D01*
X117080000Y-101468600D02*
X117080000Y-101553600D01*
X112160000Y-126110000D02*
X112100000Y-126170000D01*
X112160000Y-121970000D02*
X112160000Y-122560000D01*
X113630000Y-121090000D02*
X112160000Y-122560000D01*
D59*
X118160000Y-126170000D02*
X119760000Y-127770000D01*
X116140000Y-126170000D02*
X118160000Y-126170000D01*
D58*
X112480000Y-126170000D02*
X114240000Y-126170000D01*
D59*
%TO.N,/BM1397/0V8*%
X100965000Y-123405000D02*
X100965000Y-123175000D01*
X105930000Y-129200000D02*
X105540000Y-129590000D01*
X107830000Y-129200000D02*
X105930000Y-129200000D01*
D58*
X102260000Y-123530000D02*
X109600000Y-123530000D01*
X110660000Y-122470000D02*
X110660000Y-121970000D01*
X109895000Y-123235000D02*
X110660000Y-122470000D01*
X103457500Y-129290000D02*
X103457500Y-127562500D01*
X100710000Y-122920000D02*
X100710000Y-121970000D01*
D59*
X100020000Y-124350000D02*
X100965000Y-123405000D01*
D58*
X109600000Y-123530000D02*
X109895000Y-123235000D01*
X105240000Y-129290000D02*
X105540000Y-129590000D01*
X103457500Y-129290000D02*
X105240000Y-129290000D01*
D59*
X111060000Y-124400000D02*
X109895000Y-123235000D01*
D58*
X103457500Y-127562500D02*
X103530000Y-127490000D01*
D59*
X111240000Y-124400000D02*
X111060000Y-124400000D01*
D58*
X102260000Y-123530000D02*
X101320000Y-123530000D01*
X101320000Y-123530000D02*
X100965000Y-123175000D01*
D59*
X97650000Y-124350000D02*
X100020000Y-124350000D01*
D58*
X100965000Y-123175000D02*
X100710000Y-122920000D01*
D59*
%TO.N,/VDD*%
X90649600Y-63569000D02*
X92057300Y-63569000D01*
X93398900Y-61790600D02*
X101952500Y-61790600D01*
X91260500Y-62469500D02*
X92720000Y-62469500D01*
X106442000Y-85640000D02*
X106000600Y-86081400D01*
X115511867Y-67975133D02*
X111680133Y-67975133D01*
X90649600Y-63080400D02*
X91260500Y-62469500D01*
X108360000Y-104240000D02*
X111160000Y-104240000D01*
X115517000Y-67970000D02*
X115511867Y-67975133D01*
X107707000Y-85640000D02*
X106442000Y-85640000D01*
X106543100Y-62838100D02*
X103000000Y-62838100D01*
X103000000Y-104240000D02*
X99950000Y-104240000D01*
X110361000Y-82986000D02*
X107707000Y-85640000D01*
X90649600Y-63080400D02*
X90649600Y-63569000D01*
X90683000Y-63535600D02*
X90649600Y-63569000D01*
X90649600Y-63569000D02*
X90640600Y-63560000D01*
X92720000Y-62469500D02*
X93398900Y-61790600D01*
X108330000Y-104270000D02*
X108360000Y-104240000D01*
X101952500Y-61790600D02*
X103000000Y-62838100D01*
X111680133Y-67975133D02*
X106543100Y-62838100D01*
%TO.N,/ESP32/EN*%
X127480000Y-113820000D02*
X127000000Y-114300000D01*
X131044000Y-65978000D02*
X131044000Y-67139000D01*
X127480000Y-111760000D02*
X129540000Y-111760000D01*
X128540000Y-110760000D02*
X128540000Y-111760000D01*
X124460000Y-99060000D02*
X124460000Y-106680000D01*
X131044000Y-67139000D02*
X132665000Y-68760000D01*
X124460000Y-106680000D02*
X128540000Y-110760000D01*
X127480000Y-111760000D02*
X127480000Y-113820000D01*
%TO.N,/5V*%
X111051000Y-64453850D02*
X111185050Y-64319800D01*
D58*
X99110000Y-129300000D02*
X98450000Y-129960000D01*
X86760000Y-128390000D02*
X85750000Y-129400000D01*
X101182500Y-129290000D02*
X100683811Y-129290000D01*
D59*
X93869000Y-136167000D02*
X95112000Y-137410000D01*
D58*
X111185050Y-64319800D02*
X110282800Y-64319800D01*
X100683811Y-129290000D02*
X100673811Y-129300000D01*
X122260000Y-96520000D02*
X122260000Y-94320000D01*
D61*
X109323000Y-63360000D02*
X109323000Y-62650000D01*
D58*
X90120000Y-131850000D02*
X89482500Y-131212500D01*
X98460000Y-131190000D02*
X98450000Y-131200000D01*
D61*
X109323000Y-62650000D02*
X109971000Y-62002000D01*
D59*
X100077600Y-66770000D02*
X99201691Y-67645909D01*
D58*
X85750000Y-129400000D02*
X85750000Y-131200000D01*
X87748000Y-131214000D02*
X88672000Y-130290000D01*
D59*
X100470000Y-66770000D02*
X100077600Y-66770000D01*
X99201691Y-67645909D02*
X99201691Y-68022200D01*
D58*
X98450000Y-129960000D02*
X98450000Y-131200000D01*
X89482500Y-131212500D02*
X89482500Y-130290000D01*
D59*
X100911600Y-67211600D02*
X101783000Y-67211600D01*
D58*
X100673811Y-129300000D02*
X99110000Y-129300000D01*
X122260000Y-94320000D02*
X119380000Y-91440000D01*
X101182500Y-131190000D02*
X98460000Y-131190000D01*
D59*
X111051000Y-65931000D02*
X111051000Y-64453850D01*
X95112000Y-137410000D02*
X95640000Y-137410000D01*
D58*
X110282800Y-64319800D02*
X110028000Y-64065000D01*
X88672000Y-130290000D02*
X89482500Y-130290000D01*
X89482500Y-128390000D02*
X86760000Y-128390000D01*
X101182500Y-131190000D02*
X101182500Y-132232500D01*
D61*
X109971000Y-62002000D02*
X111205000Y-62002000D01*
D58*
X110028000Y-64065000D02*
X109323000Y-63360000D01*
D59*
X100470000Y-66770000D02*
X100911600Y-67211600D01*
D58*
X101182500Y-132232500D02*
X101560000Y-132610000D01*
%TO.N,/3V3*%
X80676100Y-129980000D02*
X80700000Y-130003900D01*
X83700000Y-87750000D02*
X83670000Y-87720000D01*
X95440000Y-97310000D02*
X94220000Y-97310000D01*
X130440000Y-82850000D02*
X129310000Y-83980000D01*
X117080000Y-96693600D02*
X116600000Y-96213600D01*
D59*
X98076100Y-138500000D02*
X96600000Y-138500000D01*
D58*
X110536000Y-71796000D02*
X110500000Y-71760000D01*
X95190000Y-98565000D02*
X95190000Y-97560000D01*
X82990000Y-85090000D02*
X82990000Y-84925000D01*
X130440000Y-80900000D02*
X130440000Y-82740000D01*
D59*
X131156000Y-76260000D02*
X131744000Y-76848000D01*
D58*
X83670000Y-87720000D02*
X82650000Y-87720000D01*
X82880000Y-132350000D02*
X82880000Y-131330000D01*
X115453000Y-63610000D02*
X115453000Y-62480000D01*
D59*
X132080000Y-111760000D02*
X130560000Y-111760000D01*
D61*
X113940950Y-62440200D02*
X115492800Y-62440200D01*
D58*
X94220000Y-97310000D02*
X94100000Y-97190000D01*
D61*
X115492800Y-62440200D02*
X115493000Y-62440000D01*
D58*
X130440000Y-82740000D02*
X130440000Y-82850000D01*
X82990000Y-84925000D02*
X84520000Y-83395000D01*
X114490000Y-96723600D02*
X115060000Y-96153600D01*
D59*
X131156000Y-74610000D02*
X131156000Y-76260000D01*
D58*
X110536000Y-72864000D02*
X110536000Y-71796000D01*
D59*
X98662000Y-137914100D02*
X98076100Y-138500000D01*
D58*
X130790000Y-80550000D02*
X130440000Y-80900000D01*
X95190000Y-97560000D02*
X95440000Y-97310000D01*
X80700000Y-130003900D02*
X80700000Y-131190000D01*
D60*
X84520000Y-83395000D02*
X85502500Y-83395000D01*
D58*
X115453000Y-62480000D02*
X115493000Y-62440000D01*
X82655000Y-134030000D02*
X82655000Y-132575000D01*
X117080000Y-98098600D02*
X117080000Y-96693600D01*
X82655000Y-132575000D02*
X82880000Y-132350000D01*
X114490000Y-96873600D02*
X114490000Y-96723600D01*
X82880000Y-131330000D02*
X82970000Y-131240000D01*
D59*
%TO.N,/TX*%
X114300000Y-88842000D02*
X114300000Y-94113600D01*
X110170000Y-51943000D02*
X109246000Y-51019000D01*
X115995753Y-77158800D02*
X116631800Y-76522753D01*
X114242400Y-78908336D02*
X115991936Y-77158800D01*
X109246000Y-51019000D02*
X109246000Y-49799000D01*
X114979200Y-94792800D02*
X117279200Y-94792800D01*
X115991936Y-77158800D02*
X115995753Y-77158800D01*
X115412000Y-84554000D02*
X115691000Y-84833000D01*
X113488528Y-51943000D02*
X110170000Y-51943000D01*
X119402200Y-98661400D02*
X118780000Y-99283600D01*
X115412000Y-84470183D02*
X114242400Y-83300583D01*
X119642800Y-70787672D02*
X119642800Y-58097272D01*
X117279200Y-94792800D02*
X119402200Y-96915800D01*
X118780000Y-99283600D02*
X118015000Y-99283600D01*
X119642800Y-58097272D02*
X113488528Y-51943000D01*
X119402200Y-96915800D02*
X119402200Y-98661400D01*
X116631800Y-76522753D02*
X116631800Y-73798672D01*
X115412000Y-84554000D02*
X115412000Y-84470183D01*
X115691000Y-87451000D02*
X114300000Y-88842000D01*
X114300000Y-94113600D02*
X114979200Y-94792800D01*
X114242400Y-83300583D02*
X114242400Y-78908336D01*
X116631800Y-73798672D02*
X119642800Y-70787672D01*
X115691000Y-84833000D02*
X115691000Y-87451000D01*
%TO.N,/RX*%
X115827417Y-76752400D02*
X116225400Y-76354417D01*
X107984400Y-52349400D02*
X106706000Y-51071000D01*
X118995800Y-97084136D02*
X118995800Y-98327800D01*
X119236400Y-58265608D02*
X113320192Y-52349400D01*
X113836000Y-83855000D02*
X113836000Y-78740000D01*
X106706000Y-51071000D02*
X106706000Y-49799000D01*
X118995800Y-98327800D02*
X118540000Y-98783600D01*
X115823600Y-76752400D02*
X115827417Y-76752400D01*
X117110864Y-95199200D02*
X118995800Y-97084136D01*
X116225400Y-76354417D02*
X116225400Y-73630336D01*
X114810864Y-95199200D02*
X117110864Y-95199200D01*
X113836000Y-94224336D02*
X114810864Y-95199200D01*
X113836000Y-78740000D02*
X115823600Y-76752400D01*
X118540000Y-98783600D02*
X118015000Y-98783600D01*
X119236400Y-70619336D02*
X119236400Y-58265608D01*
X113836000Y-83855000D02*
X113836000Y-94224336D01*
X113320192Y-52349400D02*
X107984400Y-52349400D01*
X116225400Y-73630336D02*
X119236400Y-70619336D01*
%TO.N,/BM1397/RST_N*%
X117980000Y-116050000D02*
X117980000Y-116520000D01*
X117040000Y-137488115D02*
X126160000Y-128368115D01*
X117040000Y-140190000D02*
X117040000Y-137488115D01*
X126160000Y-128368115D02*
X126160000Y-121280000D01*
X112070000Y-99853600D02*
X112140000Y-99783600D01*
X112140000Y-99783600D02*
X114645000Y-99783600D01*
X116190000Y-116610000D02*
X117840000Y-116610000D01*
X126160000Y-121280000D02*
X120671089Y-115791089D01*
X120671089Y-115791089D02*
X118238911Y-115791089D01*
X118238911Y-115791089D02*
X117980000Y-116050000D01*
X117040000Y-143510000D02*
X116970000Y-143580000D01*
X117040000Y-140190000D02*
X117040000Y-143510000D01*
%TO.N,/BM1397/CI*%
X123330528Y-119600000D02*
X125343600Y-121613072D01*
X113460000Y-137190000D02*
X111890000Y-138760000D01*
X125343600Y-128036400D02*
X116190000Y-137190000D01*
X121880000Y-119600000D02*
X123330528Y-119600000D01*
X111890000Y-143580000D02*
X111890000Y-140150000D01*
X116190000Y-137190000D02*
X113460000Y-137190000D01*
X125343600Y-121613072D02*
X125343600Y-128036400D01*
X112020000Y-98843600D02*
X112460000Y-99283600D01*
X121880000Y-119600000D02*
X121530000Y-119250000D01*
X121530000Y-119250000D02*
X116920000Y-119250000D01*
X111890000Y-138760000D02*
X111890000Y-140150000D01*
X112460000Y-99283600D02*
X114645000Y-99283600D01*
%TO.N,/RST*%
X119020000Y-99783600D02*
X119808600Y-98995000D01*
X119808600Y-98995000D02*
X119808600Y-96672200D01*
X116097400Y-83619664D02*
X114648800Y-82171064D01*
X118015000Y-99783600D02*
X119020000Y-99783600D01*
X117522800Y-94386400D02*
X115192800Y-94386400D01*
X119808600Y-96672200D02*
X117522800Y-94386400D01*
X115192800Y-94386400D02*
X114706400Y-93900000D01*
X117038200Y-75368800D02*
X121422400Y-70984600D01*
X116164089Y-77565200D02*
X117038200Y-76691089D01*
X116097400Y-87915400D02*
X116097400Y-83619664D01*
X121422400Y-70984600D02*
X121422400Y-55472400D01*
X117038200Y-76691089D02*
X117038200Y-75368800D01*
X116160272Y-77565200D02*
X116164089Y-77565200D01*
X114648800Y-79076672D02*
X116160272Y-77565200D01*
X121422400Y-55472400D02*
X120676000Y-54726000D01*
X114706400Y-93900000D02*
X114706400Y-89306400D01*
X114706400Y-89306400D02*
X116097400Y-87915400D01*
X114648800Y-82171064D02*
X114648800Y-79076672D01*
%TO.N,/BM1397/RO*%
X113490000Y-98783600D02*
X114645000Y-98783600D01*
X119623000Y-118503000D02*
X119010000Y-117890000D01*
X114410000Y-143560000D02*
X114430000Y-143580000D01*
X125750000Y-128204058D02*
X125750000Y-121444736D01*
X114410000Y-140150000D02*
X114410000Y-143560000D01*
X114410000Y-139544058D02*
X125750000Y-128204058D01*
X114410000Y-140150000D02*
X114410000Y-139544058D01*
X125750000Y-121444736D02*
X122808264Y-118503000D01*
X119010000Y-117890000D02*
X116920000Y-117890000D01*
X122808264Y-118503000D02*
X119623000Y-118503000D01*
X112870000Y-98163600D02*
X113490000Y-98783600D01*
%TO.N,/TEMP_N*%
X94420000Y-116030000D02*
X93690000Y-115300000D01*
X93690000Y-115300000D02*
X89350000Y-115300000D01*
X97340000Y-118490000D02*
X97340000Y-117910000D01*
X97340000Y-117910000D02*
X96100000Y-116670000D01*
X94420000Y-116670000D02*
X94420000Y-116030000D01*
X96100000Y-116670000D02*
X94420000Y-116670000D01*
D62*
%TO.N,/TEMP_P*%
X93250000Y-121920000D02*
X95500000Y-119670000D01*
D59*
X96203000Y-118495000D02*
X96203000Y-119077000D01*
X95610000Y-119670000D02*
X95500000Y-119670000D01*
D62*
X91810000Y-121920000D02*
X93250000Y-121920000D01*
D59*
X96203000Y-119077000D02*
X95610000Y-119670000D01*
%TO.N,/Fan/FAN_TACH*%
X95580000Y-138500000D02*
X95490000Y-138500000D01*
X81355000Y-140115000D02*
X81950000Y-140710000D01*
X81950000Y-140710000D02*
X85500000Y-140710000D01*
X85500000Y-140710000D02*
X86870000Y-140710000D01*
X88230000Y-137720000D02*
X88600000Y-137350000D01*
X93280000Y-140710000D02*
X86870000Y-140710000D01*
X85570000Y-140640000D02*
X85500000Y-140710000D01*
X88230000Y-139350000D02*
X88230000Y-137720000D01*
X86870000Y-140710000D02*
X88230000Y-139350000D01*
X95490000Y-138500000D02*
X93280000Y-140710000D01*
X94701000Y-143622000D02*
X94701000Y-142131000D01*
X94701000Y-142131000D02*
X93280000Y-140710000D01*
X85570000Y-139110000D02*
X85570000Y-140640000D01*
X81355000Y-138330000D02*
X81355000Y-140115000D01*
X88600000Y-137350000D02*
X89780000Y-137350000D01*
%TO.N,/SCL*%
X114326000Y-51631000D02*
X114326000Y-49799000D01*
X89580000Y-97040000D02*
X89580000Y-98563800D01*
X89580000Y-98563800D02*
X90231200Y-99215000D01*
X120455600Y-68392700D02*
X120455600Y-57760600D01*
X120743000Y-68680100D02*
X120455600Y-68392700D01*
X85502500Y-86427500D02*
X85502500Y-84045000D01*
X85120000Y-86810000D02*
X85502500Y-86427500D01*
X90390000Y-96230000D02*
X89580000Y-97040000D01*
X120455600Y-57760600D02*
X114326000Y-51631000D01*
X90231200Y-99215000D02*
X90890000Y-99215000D01*
X83920000Y-137990000D02*
X84010000Y-137900000D01*
X83580000Y-138330000D02*
X83920000Y-137990000D01*
X82655000Y-138330000D02*
X83580000Y-138330000D01*
X84010000Y-137900000D02*
X84010000Y-123740000D01*
%TO.N,/Fan/FAN_PWM*%
X79280000Y-139929000D02*
X79280000Y-134530000D01*
X80700000Y-132210000D02*
X80700000Y-134025000D01*
X97241000Y-145797000D02*
X97241000Y-143622000D01*
X79780000Y-134030000D02*
X80705000Y-134030000D01*
X80941000Y-141590000D02*
X79280000Y-139929000D01*
X84770000Y-143483000D02*
X88093702Y-146806702D01*
X88093702Y-146806702D02*
X96231298Y-146806702D01*
X84690000Y-143470000D02*
X82810000Y-141590000D01*
X80700000Y-134025000D02*
X80705000Y-134030000D01*
X79280000Y-134530000D02*
X79780000Y-134030000D01*
X96231298Y-146806702D02*
X97241000Y-145797000D01*
X82810000Y-141590000D02*
X80941000Y-141590000D01*
%TO.N,/Power/OUT0*%
X94828800Y-64783600D02*
X95328800Y-65283600D01*
X89730000Y-75310000D02*
X92240000Y-72800000D01*
X93020000Y-67160000D02*
X93020000Y-66420000D01*
X96775000Y-99865000D02*
X95190000Y-99865000D01*
X98240000Y-98400000D02*
X96775000Y-99865000D01*
X94824200Y-64589000D02*
X94828800Y-64593600D01*
X94828800Y-64593600D02*
X94828800Y-64783600D01*
X92680000Y-96280000D02*
X96740000Y-96280000D01*
X91440000Y-95040000D02*
X92680000Y-96280000D01*
X97201691Y-68022200D02*
X97201691Y-67199891D01*
X92240000Y-67940000D02*
X93020000Y-67160000D01*
X93490000Y-65190000D02*
X93020000Y-65660000D01*
X93465000Y-64589000D02*
X94824200Y-64589000D01*
X92142800Y-64555600D02*
X93462400Y-64555600D01*
X97201691Y-67199891D02*
X96433000Y-66431200D01*
X93490000Y-64583200D02*
X93490000Y-65190000D01*
X96433000Y-66431200D02*
X96433000Y-65268000D01*
X96740000Y-96280000D02*
X98240000Y-97780000D01*
X92240000Y-72800000D02*
X92240000Y-67940000D01*
X96417400Y-65283600D02*
X96433000Y-65268000D01*
X93462400Y-64555600D02*
X93490000Y-64583200D01*
X98240000Y-97780000D02*
X98240000Y-98400000D01*
X95328800Y-65283600D02*
X96417400Y-65283600D01*
X93020000Y-65660000D02*
X93020000Y-66420000D01*
%TO.N,/Power/SW*%
X97149800Y-74232200D02*
X96002000Y-75380000D01*
X96002000Y-75380000D02*
X94420000Y-75380000D01*
X98201691Y-70822200D02*
X98201691Y-72076109D01*
X93649887Y-76150113D02*
X93649887Y-77313864D01*
X98201691Y-72076109D02*
X97149800Y-73128000D01*
X94420000Y-75380000D02*
X93649887Y-76150113D01*
X97149800Y-73128000D02*
X97149800Y-74232200D01*
%TO.N,Net-(IC1-VDD1_0)*%
X115090000Y-109650000D02*
X115090000Y-107790000D01*
X115070000Y-111160000D02*
X115070000Y-109670000D01*
X115070000Y-109670000D02*
X115090000Y-109650000D01*
%TO.N,Net-(IC1-VDD2_0)*%
X112530000Y-107800000D02*
X113780000Y-107800000D01*
X113790000Y-107790000D02*
X113790000Y-106030000D01*
X113780000Y-107800000D02*
X113790000Y-107790000D01*
%TO.N,Net-(IC1-VDD3_0)*%
X112470000Y-106010000D02*
X112490000Y-106030000D01*
X112490000Y-104270000D02*
X112460000Y-104240000D01*
X111250000Y-106010000D02*
X112470000Y-106010000D01*
X112490000Y-106030000D02*
X112490000Y-104270000D01*
%TO.N,Net-(IC1-VDD3_1)*%
X98820000Y-105710000D02*
X98490000Y-106040000D01*
X98820000Y-104240000D02*
X98820000Y-105710000D01*
X100180000Y-106040000D02*
X98660000Y-106040000D01*
%TO.N,Net-(IC1-VDD2_1)*%
X98850000Y-107880000D02*
X97480000Y-107880000D01*
X97530000Y-106040000D02*
X97530000Y-107460000D01*
X97530000Y-107460000D02*
X97210000Y-107780000D01*
X97480000Y-107880000D02*
X97380000Y-107780000D01*
%TO.N,Net-(IC1-VDD1_1)*%
X96130000Y-110920000D02*
X96130000Y-109730000D01*
X96080000Y-109680000D02*
X96080000Y-107780000D01*
X96130000Y-109730000D02*
X96080000Y-109680000D01*
%TO.N,Net-(U7-DP)*%
X91771426Y-118171426D02*
X93270000Y-119670000D01*
X94480000Y-118880000D02*
X94900000Y-118460000D01*
X93270000Y-119670000D02*
X94480000Y-119670000D01*
X82005000Y-134030000D02*
X82005000Y-122715000D01*
X94900000Y-118460000D02*
X94900000Y-118050000D01*
X82005000Y-122715000D02*
X86548574Y-118171426D01*
X94480000Y-119670000D02*
X94480000Y-118880000D01*
X86548574Y-118171426D02*
X91771426Y-118171426D01*
%TO.N,Net-(U7-DN)*%
X93770000Y-118010000D02*
X93770000Y-117040000D01*
X86473838Y-117671426D02*
X81355000Y-122790264D01*
X81355000Y-122790264D02*
X81355000Y-134030000D01*
X91778574Y-117671426D02*
X86473838Y-117671426D01*
X92780000Y-116670000D02*
X91778574Y-117671426D01*
X93400000Y-116670000D02*
X92780000Y-116670000D01*
X93770000Y-117040000D02*
X93400000Y-116670000D01*
%TO.N,Net-(U9-SS)*%
X102603000Y-66022600D02*
X104025400Y-67445000D01*
X98701691Y-67439092D02*
X100118183Y-66022600D01*
X104025400Y-67445000D02*
X104671200Y-67445000D01*
X98701691Y-68022200D02*
X98701691Y-67439092D01*
X100118183Y-66022600D02*
X102603000Y-66022600D01*
X104671200Y-67445000D02*
X104635400Y-67480800D01*
%TO.N,Net-(U9-COMP)*%
X98333000Y-63028200D02*
X98355400Y-63005800D01*
X97701691Y-68022200D02*
X97701691Y-67240909D01*
X98333000Y-66609600D02*
X98333000Y-65268000D01*
X98333000Y-65268000D02*
X98333000Y-63028200D01*
X97701691Y-67240909D02*
X98333000Y-66609600D01*
%TO.N,Net-(U9-BOOT)*%
X97201691Y-70822200D02*
X95730200Y-70822200D01*
X95958800Y-73883600D02*
X96189800Y-73652600D01*
X95958800Y-74273600D02*
X95958800Y-73883600D01*
X95730200Y-70822200D02*
X95368800Y-71183600D01*
X96189800Y-73652600D02*
X96189800Y-73128000D01*
%TO.N,Net-(U9-BP)*%
X99478800Y-71493600D02*
X104019800Y-71493600D01*
X104019800Y-71493600D02*
X104265600Y-71247800D01*
X106798800Y-66663600D02*
X106430600Y-66295400D01*
X99201691Y-70822200D02*
X99201691Y-71216491D01*
X104265600Y-71247800D02*
X105984600Y-71247800D01*
X106798800Y-70433600D02*
X106798800Y-66663600D01*
X99201691Y-71216491D02*
X99478800Y-71493600D01*
X106430600Y-66295400D02*
X105631200Y-66295400D01*
X105984600Y-71247800D02*
X106798800Y-70433600D01*
%TO.N,Net-(C41-Pad2)*%
X94828800Y-63573600D02*
X95398800Y-63003600D01*
X96453200Y-63003600D02*
X96455400Y-63005800D01*
X95398800Y-63003600D02*
X96453200Y-63003600D01*
%TO.N,Net-(IC1-ADDR0)*%
X118380000Y-109220000D02*
X121710000Y-109220000D01*
%TO.N,Net-(IC1-ADDR1)*%
X119780000Y-111630000D02*
X121700000Y-111630000D01*
X121700000Y-111630000D02*
X121710000Y-111640000D01*
%TO.N,Net-(C45-Pad1)*%
X90649600Y-64589000D02*
X91120000Y-65059400D01*
X91120000Y-65059400D02*
X91120000Y-66420000D01*
%TO.N,Net-(IC1-ADDR2)*%
X119790000Y-114060000D02*
X121680000Y-114060000D01*
X121680000Y-114060000D02*
X121710000Y-114030000D01*
%TO.N,Net-(IC1-RO)*%
X114810000Y-117890000D02*
X114800000Y-117880000D01*
X115760000Y-117890000D02*
X114810000Y-117890000D01*
%TO.N,Net-(IC1-CI)*%
X114710000Y-119250000D02*
X114690000Y-119230000D01*
X115760000Y-119250000D02*
X114710000Y-119250000D01*
%TO.N,Net-(IC1-PIN_MODE)*%
X89540000Y-125970000D02*
X87800000Y-125970000D01*
X87800000Y-125970000D02*
X87760000Y-126010000D01*
%TO.N,Net-(IC1-CLKO)*%
X97500000Y-116000000D02*
X94678911Y-113178911D01*
X97500000Y-116660000D02*
X97500000Y-116000000D01*
X88778911Y-113178911D02*
X86350000Y-110750000D01*
X94678911Y-113178911D02*
X88778911Y-113178911D01*
%TO.N,Net-(IC1-CO)*%
X94251100Y-114030000D02*
X86310000Y-114030000D01*
X96180000Y-115958900D02*
X94251100Y-114030000D01*
%TO.N,Net-(IC1-RI)*%
X96360000Y-120670000D02*
X96530000Y-120840000D01*
X95310000Y-121910000D02*
X95310000Y-121720000D01*
X95310000Y-121720000D02*
X96360000Y-120670000D01*
X97350000Y-120840000D02*
X97500000Y-120690000D01*
X96530000Y-120840000D02*
X97350000Y-120840000D01*
%TO.N,Net-(IC1-NRSTO)*%
X90760000Y-112200000D02*
X89180000Y-110620000D01*
X94099000Y-112195000D02*
X94094000Y-112200000D01*
X94094000Y-112200000D02*
X90760000Y-112200000D01*
%TO.N,Net-(IC1-BO)*%
X92770000Y-111020000D02*
X89200000Y-107450000D01*
X94607000Y-111020000D02*
X92770000Y-111020000D01*
X95116000Y-111529000D02*
X94607000Y-111020000D01*
%TO.N,Net-(Q1-G)*%
X97108800Y-72263600D02*
X94106400Y-72263600D01*
X97708800Y-71663600D02*
X97108800Y-72263600D01*
X97701691Y-70822200D02*
X97708800Y-70829309D01*
X89789887Y-76580113D02*
X89789887Y-77313864D01*
X97708800Y-70829309D02*
X97708800Y-71663600D01*
X94106400Y-72263600D02*
X89789887Y-76580113D01*
%TO.N,/BI*%
X116503800Y-88083736D02*
X116503800Y-83451328D01*
X103194800Y-52755800D02*
X101626000Y-51187000D01*
X115112800Y-93731664D02*
X115112800Y-89474736D01*
X118015000Y-100283600D02*
X119094736Y-100283600D01*
X101626000Y-51187000D02*
X101626000Y-49799000D01*
X117717100Y-76586925D02*
X117717100Y-76139000D01*
X120215000Y-96408600D02*
X117786400Y-93980000D01*
X116503800Y-83451328D02*
X115055200Y-82002728D01*
X115055200Y-79245008D02*
X116328608Y-77971600D01*
X115546000Y-73735000D02*
X118830000Y-70451000D01*
X119094736Y-100283600D02*
X120215000Y-99163336D01*
X115112800Y-89474736D02*
X116503800Y-88083736D01*
X120215000Y-99163336D02*
X120215000Y-96408600D01*
X118830000Y-70451000D02*
X118830000Y-58462200D01*
X117786400Y-93980000D02*
X115361136Y-93980000D01*
X115055200Y-82002728D02*
X115055200Y-79245008D01*
X118830000Y-58462200D02*
X113123600Y-52755800D01*
X116328608Y-77971600D02*
X116332425Y-77971600D01*
X115546000Y-76073000D02*
X115546000Y-73735000D01*
X115361136Y-93980000D02*
X115112800Y-93731664D01*
X113123600Y-52755800D02*
X103194800Y-52755800D01*
X116332425Y-77971600D02*
X117717100Y-76586925D01*
%TO.N,Net-(Q2-G)*%
X98691400Y-73082200D02*
X98691400Y-70832491D01*
X98691400Y-70832491D02*
X98701691Y-70822200D01*
X100189200Y-75260000D02*
X98650200Y-73721000D01*
X102700000Y-75260000D02*
X100189200Y-75260000D01*
X101710600Y-82811400D02*
X99662900Y-82811400D01*
X98650200Y-73123400D02*
X98691400Y-73082200D01*
X98650200Y-73721000D02*
X98650200Y-73123400D01*
X99662900Y-82811400D02*
X99611600Y-82862700D01*
%TO.N,Net-(U1-OUT)*%
X114240000Y-123200000D02*
X114880000Y-122560000D01*
X120190000Y-122420000D02*
X119510000Y-121740000D01*
X114880000Y-122560000D02*
X116630000Y-122560000D01*
X120190000Y-124230000D02*
X120190000Y-122420000D01*
X116890000Y-122300000D02*
X116890000Y-121740000D01*
X119510000Y-121740000D02*
X116890000Y-121740000D01*
X114240000Y-123870000D02*
X114240000Y-123200000D01*
X116630000Y-122560000D02*
X116890000Y-122300000D01*
%TO.N,Net-(U10-FS0)*%
X96320000Y-102040000D02*
X96710000Y-101650000D01*
X96405000Y-100515000D02*
X95190000Y-100515000D01*
X94840000Y-102040000D02*
X96320000Y-102040000D01*
X96710000Y-100820000D02*
X96405000Y-100515000D01*
X96710000Y-101650000D02*
X96710000Y-100820000D01*
%TO.N,Net-(U10-FS1)*%
X89775000Y-99865000D02*
X90890000Y-99865000D01*
X89480000Y-100160000D02*
X89775000Y-99865000D01*
X90190000Y-102040000D02*
X89480000Y-101330000D01*
X89480000Y-101330000D02*
X89480000Y-100160000D01*
X90910000Y-102040000D02*
X90190000Y-102040000D01*
%TO.N,Net-(U4-BA)*%
X97490000Y-54220000D02*
X97500000Y-54210000D01*
X96620000Y-54220000D02*
X97490000Y-54220000D01*
%TO.N,Net-(U13-BA)*%
X107470000Y-54180000D02*
X108340000Y-54180000D01*
%TO.N,/ESP32/P_TX*%
X125939600Y-63669400D02*
X125939600Y-80389639D01*
X128175000Y-61664000D02*
X128060000Y-61549000D01*
X125939600Y-80389639D02*
X123573600Y-82755639D01*
X123573600Y-82755639D02*
X123573600Y-88013600D01*
X123573600Y-88013600D02*
X124460000Y-88900000D01*
X129881000Y-61664000D02*
X128175000Y-61664000D01*
X128060000Y-61549000D02*
X125939600Y-63669400D01*
%TO.N,/ESP32/P_RX*%
X126024000Y-61551000D02*
X126093000Y-61620000D01*
X124447000Y-61551000D02*
X124447000Y-70349183D01*
X125533200Y-71435383D02*
X125533200Y-80206800D01*
X121920000Y-83820000D02*
X121920000Y-86360000D01*
X124447000Y-61551000D02*
X126024000Y-61551000D01*
X124447000Y-70349183D02*
X125533200Y-71435383D01*
X125533200Y-80206800D02*
X121920000Y-83820000D01*
%TO.N,/ESP32/IO0*%
X118700600Y-94319464D02*
X120621400Y-96240264D01*
X121828800Y-58255200D02*
X122591000Y-57493000D01*
X124260000Y-55677000D02*
X124260000Y-55670000D01*
X118700600Y-84101417D02*
X118700600Y-83820000D01*
X118700600Y-76095583D02*
X118700600Y-83820000D01*
X124260000Y-55670000D02*
X124830000Y-55100000D01*
X122556000Y-57381000D02*
X124260000Y-55677000D01*
X123197721Y-69657721D02*
X123197721Y-71598462D01*
X132080000Y-91440000D02*
X126039183Y-91440000D01*
X122556000Y-57528000D02*
X122556000Y-57381000D01*
X118700600Y-84101417D02*
X118700600Y-94319464D01*
X122113000Y-68573000D02*
X121828800Y-68288800D01*
X122113000Y-68573000D02*
X123197721Y-69657721D01*
X123197721Y-71598462D02*
X118700600Y-76095583D01*
X126039183Y-91440000D02*
X118700600Y-84101417D01*
X120621400Y-96240264D02*
X120621400Y-102841400D01*
X121828800Y-68288800D02*
X121828800Y-58255200D01*
X120621400Y-102841400D02*
X121920000Y-104140000D01*
%TO.N,/ESP32/XIN32*%
X124043000Y-76576000D02*
X124043000Y-78323400D01*
X124019000Y-80080000D02*
X124019000Y-78350600D01*
X124043000Y-78323400D02*
X124017400Y-78349000D01*
X124019000Y-78350600D02*
X124017400Y-78349000D01*
%TO.N,Net-(U4-GA)*%
X97500000Y-55220000D02*
X97520000Y-55200000D01*
X96620000Y-55220000D02*
X97500000Y-55220000D01*
%TO.N,/ESP32/XOUT32*%
X121248000Y-80100000D02*
X121248000Y-78424400D01*
X121159000Y-76585000D02*
X121159000Y-78335400D01*
X121159000Y-78335400D02*
X121172600Y-78349000D01*
X121248000Y-78424400D02*
X121172600Y-78349000D01*
%TO.N,/Power/PGOOD*%
X98171691Y-67345645D02*
X99977336Y-65540000D01*
X108598900Y-71760000D02*
X108278900Y-71440000D01*
X105150000Y-65470000D02*
X104611200Y-66008800D01*
X104611200Y-66176600D02*
X104611200Y-66295400D01*
X99977336Y-65540000D02*
X103974600Y-65540000D01*
X103974600Y-65540000D02*
X104611200Y-66176600D01*
X107510000Y-70671100D02*
X107510000Y-66370000D01*
X108278900Y-71440000D02*
X107510000Y-70671100D01*
X106610000Y-65470000D02*
X105150000Y-65470000D01*
X104611200Y-66008800D02*
X104611200Y-66295400D01*
X109480000Y-71760000D02*
X108598900Y-71760000D01*
X98171691Y-68022200D02*
X98171691Y-67345645D01*
X107510000Y-66370000D02*
X106610000Y-65470000D01*
%TO.N,Net-(U13-GA)*%
X107470000Y-55180000D02*
X108310000Y-55180000D01*
X108310000Y-55180000D02*
X108320000Y-55170000D01*
%TO.N,Net-(U4-RA)*%
X97530000Y-56220000D02*
X97540000Y-56230000D01*
X96620000Y-56220000D02*
X97530000Y-56220000D01*
%TO.N,/ESP32/LEDX_B*%
X95550000Y-54170000D02*
X95600000Y-54220000D01*
X93033600Y-58436400D02*
X93950000Y-57520000D01*
X93961664Y-61026400D02*
X93033600Y-60098336D01*
X93033600Y-60098336D02*
X93033600Y-58436400D01*
X94050000Y-54710000D02*
X94590000Y-54170000D01*
X101083600Y-61026400D02*
X93961664Y-61026400D01*
X93950000Y-57520000D02*
X94050000Y-57420000D01*
X94590000Y-54170000D02*
X95550000Y-54170000D01*
X94050000Y-57420000D02*
X94050000Y-54710000D01*
X103400000Y-58710000D02*
X101083600Y-61026400D01*
%TO.N,Net-(U13-RA)*%
X107470000Y-56190000D02*
X108310000Y-56190000D01*
%TO.N,/ESP32/FAN_ALERT*%
X92780000Y-135370000D02*
X90800000Y-137350000D01*
X110218000Y-80986000D02*
X111108000Y-81876000D01*
X110218000Y-75989000D02*
X110218000Y-80986000D01*
X116010000Y-136783600D02*
X113256400Y-136783600D01*
X110497000Y-73924000D02*
X110497000Y-75710000D01*
X110497000Y-75710000D02*
X110218000Y-75989000D01*
X123905792Y-120750000D02*
X124937200Y-121781408D01*
X121867000Y-120750000D02*
X123905792Y-120750000D01*
X113256400Y-136783600D02*
X111842800Y-135370000D01*
X90830000Y-138540000D02*
X90830000Y-137380000D01*
X124937200Y-121781408D02*
X124937200Y-127856400D01*
X90830000Y-137380000D02*
X90800000Y-137350000D01*
X124937200Y-127856400D02*
X116010000Y-136783600D01*
X111842800Y-135370000D02*
X92780000Y-135370000D01*
%TO.N,/ESP32/LEDZ_B*%
X116673000Y-60370472D02*
X116250528Y-59948000D01*
X105020000Y-57680000D02*
X105020000Y-54390000D01*
X105230000Y-54180000D02*
X106450000Y-54180000D01*
X116250528Y-59948000D02*
X114630000Y-59948000D01*
X114630000Y-59948000D02*
X107288000Y-59948000D01*
X116044000Y-70126000D02*
X116673000Y-69497000D01*
X116673000Y-69497000D02*
X116673000Y-60370472D01*
X107288000Y-59948000D02*
X105020000Y-57680000D01*
X105020000Y-54390000D02*
X105230000Y-54180000D01*
%TO.N,/ESP32/LEDX_G*%
X93440000Y-59930000D02*
X93440000Y-59240000D01*
X94019945Y-58660055D02*
X94129945Y-58660055D01*
X100520000Y-58700000D02*
X98600000Y-60620000D01*
X94130000Y-60620000D02*
X93440000Y-59930000D01*
X98600000Y-60620000D02*
X94130000Y-60620000D01*
X94730000Y-58060000D02*
X94730000Y-55740000D01*
X94129945Y-58660055D02*
X94730000Y-58060000D01*
X93440000Y-59240000D02*
X94019945Y-58660055D01*
X94730000Y-55740000D02*
X95250000Y-55220000D01*
X95250000Y-55220000D02*
X95600000Y-55220000D01*
%TO.N,/ESP32/LEDZ_G*%
X117097000Y-70138000D02*
X117079400Y-70120400D01*
X105870000Y-55180000D02*
X106450000Y-55180000D01*
X107054000Y-58630000D02*
X105758402Y-57334402D01*
X112020000Y-58630000D02*
X107054000Y-58630000D01*
X117079400Y-60202136D02*
X115507264Y-58630000D01*
X105758402Y-57334402D02*
X105758402Y-55291598D01*
X115507264Y-58630000D02*
X112020000Y-58630000D01*
X117079400Y-70120400D02*
X117079400Y-60202136D01*
X105758402Y-55291598D02*
X105870000Y-55180000D01*
%TO.N,/BM1397/BM_BI*%
X113030000Y-100283600D02*
X112660000Y-100653600D01*
X112660000Y-100653600D02*
X111740000Y-100653600D01*
X114645000Y-100283600D02*
X113030000Y-100283600D01*
X111740000Y-100653600D02*
X110430000Y-101963600D01*
%TO.N,/SDA*%
X84859000Y-57669000D02*
X88334000Y-57669000D01*
X82005000Y-138330000D02*
X82005000Y-139134000D01*
X84730000Y-85730000D02*
X84370000Y-86090000D01*
X120049200Y-57928936D02*
X113651264Y-51531000D01*
X82030400Y-139159400D02*
X83520600Y-139159400D01*
X117403141Y-73987441D02*
X120049200Y-71341382D01*
X82005000Y-139134000D02*
X82030400Y-139159400D01*
X83520600Y-139159400D02*
X84702648Y-137977352D01*
X113651264Y-51531000D02*
X112288000Y-51531000D01*
X112288000Y-51531000D02*
X111786000Y-51029000D01*
X120049200Y-71341382D02*
X120049200Y-57928936D01*
X90357445Y-59692445D02*
X90357445Y-62412445D01*
X90890000Y-96900000D02*
X90890000Y-98565000D01*
X84370000Y-86090000D02*
X80540000Y-86090000D01*
X111786000Y-51029000D02*
X111786000Y-49799000D01*
X91500000Y-96290000D02*
X90890000Y-96900000D01*
X88989000Y-58324000D02*
X90357445Y-59692445D01*
X88334000Y-57669000D02*
X88989000Y-58324000D01*
X79777500Y-85327500D02*
X79777500Y-84045000D01*
X80540000Y-86090000D02*
X79777500Y-85327500D01*
X84702648Y-137977352D02*
X84702648Y-124392960D01*
%TO.N,/BM1397/BM_CLKI*%
X114820000Y-121740000D02*
X114720000Y-121640000D01*
X115870000Y-121740000D02*
X114820000Y-121740000D01*
%TO.N,/ESP32/LEDX_R*%
X95440000Y-58690000D02*
X95690000Y-58690000D01*
X95690000Y-56310000D02*
X95600000Y-56220000D01*
X95700000Y-58680000D02*
X95690000Y-58690000D01*
X97680000Y-58680000D02*
X95700000Y-58680000D01*
X95690000Y-58690000D02*
X95690000Y-56310000D01*
X94319890Y-59810110D02*
X95440000Y-58690000D01*
%TO.N,/ESP32/LEDZ_R*%
X106949000Y-57428000D02*
X109370000Y-57428000D01*
X117485800Y-69566690D02*
X117485800Y-60033800D01*
X114880000Y-57428000D02*
X109370000Y-57428000D01*
X106923000Y-57402000D02*
X106450000Y-56929000D01*
X106450000Y-56929000D02*
X106450000Y-56190000D01*
X117485800Y-60033800D02*
X114880000Y-57428000D01*
X118065584Y-70146474D02*
X117485800Y-69566690D01*
X106923000Y-57402000D02*
X106949000Y-57428000D01*
D58*
%TO.N,Net-(USB1-VBUS)*%
X126093600Y-100153598D02*
X126093600Y-97086400D01*
X126093600Y-97086400D02*
X126660000Y-96520000D01*
X127000000Y-101059998D02*
X126093600Y-100153598D01*
%TD*%
%TA.AperFunction,Conductor*%
%TO.N,GND*%
G36*
X105384386Y-68641560D02*
G01*
X105452463Y-68661709D01*
X105498841Y-68715464D01*
X105510100Y-68765591D01*
X105531563Y-70139182D01*
X105512627Y-70207607D01*
X105459705Y-70254933D01*
X105405308Y-70267151D01*
X92645630Y-70239799D01*
X92577552Y-70219651D01*
X92531174Y-70165895D01*
X92519900Y-70113799D01*
X92519900Y-68740202D01*
X92539902Y-68672081D01*
X92593558Y-68625588D01*
X92646165Y-68614203D01*
X105384386Y-68641560D01*
G37*
%TD.AperFunction*%
%TD*%
%TA.AperFunction,Conductor*%
%TO.N,/5V*%
G36*
X88700308Y-75088348D02*
G01*
X88768352Y-75108591D01*
X88814654Y-75162412D01*
X88825165Y-75227516D01*
X88816496Y-75309999D01*
X88836457Y-75499927D01*
X88895474Y-75681558D01*
X88898750Y-75687232D01*
X88915629Y-75750904D01*
X88902505Y-78214434D01*
X88902505Y-78214435D01*
X89292164Y-78210450D01*
X89322599Y-78215782D01*
X89323012Y-78214039D01*
X89330676Y-78215849D01*
X89330686Y-78215853D01*
X89387394Y-78221949D01*
X89391239Y-78222363D01*
X89391240Y-78222363D01*
X89391249Y-78222364D01*
X89391255Y-78222364D01*
X90188519Y-78222364D01*
X90188525Y-78222364D01*
X90249088Y-78215853D01*
X90270274Y-78207950D01*
X90313013Y-78200013D01*
X90520789Y-78197888D01*
X90574416Y-78209268D01*
X90615207Y-78227897D01*
X90615209Y-78227897D01*
X90615210Y-78227898D01*
X90683331Y-78247900D01*
X90828000Y-78268700D01*
X93944300Y-78268700D01*
X94012421Y-78288702D01*
X94058914Y-78342358D01*
X94070299Y-78394535D01*
X94076795Y-83448864D01*
X94090439Y-94066611D01*
X94070524Y-94134757D01*
X94016929Y-94181319D01*
X93965818Y-94192765D01*
X91850879Y-94215912D01*
X91798252Y-94205027D01*
X91722288Y-94171206D01*
X91535487Y-94131500D01*
X91344513Y-94131500D01*
X91157709Y-94171206D01*
X91061106Y-94214216D01*
X91011237Y-94225101D01*
X89718417Y-94239251D01*
X89650081Y-94219996D01*
X89612116Y-94183024D01*
X87150914Y-90481455D01*
X87129853Y-90413656D01*
X87129840Y-90412336D01*
X87101649Y-83773380D01*
X87121362Y-83705176D01*
X87174820Y-83658456D01*
X87201447Y-83649600D01*
X87252288Y-83638794D01*
X87426752Y-83561118D01*
X87581253Y-83448866D01*
X87709040Y-83306944D01*
X87804527Y-83141556D01*
X87863542Y-82959928D01*
X87883504Y-82770000D01*
X87863542Y-82580072D01*
X87804527Y-82398444D01*
X87709040Y-82233056D01*
X87709038Y-82233054D01*
X87709034Y-82233048D01*
X87581255Y-82091135D01*
X87426752Y-81978882D01*
X87426752Y-81978881D01*
X87252288Y-81901206D01*
X87252287Y-81901205D01*
X87252283Y-81901204D01*
X87192926Y-81888587D01*
X87130452Y-81854859D01*
X87096131Y-81792709D01*
X87093124Y-81765882D01*
X87090000Y-81030000D01*
X84782850Y-81050598D01*
X84714553Y-81031205D01*
X84667583Y-80977966D01*
X84655731Y-80923415D01*
X84709826Y-75199412D01*
X84730471Y-75131486D01*
X84784563Y-75085502D01*
X84836265Y-75074606D01*
X88700308Y-75088348D01*
G37*
%TD.AperFunction*%
%TD*%
%TA.AperFunction,Conductor*%
%TO.N,/VDD*%
G36*
X109416243Y-84420914D02*
G01*
X109484330Y-84441024D01*
X109530738Y-84494753D01*
X109542042Y-84546721D01*
X109558871Y-95552531D01*
X109538973Y-95620683D01*
X109485388Y-95667257D01*
X109433412Y-95678723D01*
X102634298Y-95707927D01*
X102566092Y-95688218D01*
X102519369Y-95634762D01*
X102507757Y-95581987D01*
X102502856Y-84536254D01*
X102522828Y-84468125D01*
X102576463Y-84421609D01*
X102629053Y-84410199D01*
X109416243Y-84420914D01*
G37*
%TD.AperFunction*%
%TD*%
%TA.AperFunction,Conductor*%
%TO.N,/Power/SW*%
G36*
X109447321Y-76048002D02*
G01*
X109493814Y-76101658D01*
X109505200Y-76154000D01*
X109505200Y-81871000D01*
X109485198Y-81939121D01*
X109431542Y-81985614D01*
X109379200Y-81997000D01*
X95059600Y-81997000D01*
X94991479Y-81976998D01*
X94944986Y-81923342D01*
X94933600Y-81871000D01*
X94933600Y-77755200D01*
X90828000Y-77755200D01*
X90759879Y-77735198D01*
X90713386Y-77681542D01*
X90702000Y-77629200D01*
X90702000Y-76154000D01*
X90722002Y-76085879D01*
X90775658Y-76039386D01*
X90828000Y-76028000D01*
X109379200Y-76028000D01*
X109447321Y-76048002D01*
G37*
%TD.AperFunction*%
%TD*%
%TA.AperFunction,Conductor*%
%TO.N,/VDD*%
G36*
X112801464Y-109270002D02*
G01*
X112847957Y-109323658D01*
X112859341Y-109376656D01*
X112854033Y-110396397D01*
X112833677Y-110464413D01*
X112821675Y-110480048D01*
X112800957Y-110503059D01*
X112705476Y-110668438D01*
X112705473Y-110668445D01*
X112646457Y-110850072D01*
X112626496Y-111039999D01*
X112646457Y-111229927D01*
X112676526Y-111322470D01*
X112705473Y-111411556D01*
X112705476Y-111411561D01*
X112800958Y-111576941D01*
X112800961Y-111576945D01*
X112815004Y-111592541D01*
X112845721Y-111656548D01*
X112847366Y-111677508D01*
X112833832Y-114278092D01*
X112813476Y-114346107D01*
X112759579Y-114392320D01*
X112707889Y-114403436D01*
X112423123Y-114403559D01*
X112287740Y-114421788D01*
X112277948Y-114424469D01*
X112209526Y-114423938D01*
X112142255Y-114404394D01*
X112142252Y-114404393D01*
X112105488Y-114401500D01*
X112105484Y-114401500D01*
X111634516Y-114401500D01*
X111634512Y-114401500D01*
X111597747Y-114404393D01*
X111597741Y-114404394D01*
X111529975Y-114424082D01*
X111461600Y-114424625D01*
X111459084Y-114423938D01*
X111452745Y-114422205D01*
X111317123Y-114404033D01*
X110768070Y-114404270D01*
X110718020Y-114390587D01*
X110716867Y-114393252D01*
X110709594Y-114390104D01*
X110552255Y-114344394D01*
X110552252Y-114344393D01*
X110515488Y-114341500D01*
X110515484Y-114341500D01*
X110044516Y-114341500D01*
X110044512Y-114341500D01*
X110007747Y-114344393D01*
X110007744Y-114344394D01*
X109850405Y-114390104D01*
X109843133Y-114393252D01*
X109842074Y-114390805D01*
X109791326Y-114404690D01*
X101915236Y-114408078D01*
X101851042Y-114390531D01*
X101850323Y-114390106D01*
X101799597Y-114360106D01*
X101676675Y-114324394D01*
X101642252Y-114314393D01*
X101605488Y-114311500D01*
X101605484Y-114311500D01*
X101134516Y-114311500D01*
X101134512Y-114311500D01*
X101097747Y-114314393D01*
X101097744Y-114314394D01*
X100940406Y-114360104D01*
X100888160Y-114391001D01*
X100824077Y-114408546D01*
X100349466Y-114408751D01*
X100285272Y-114391204D01*
X100249599Y-114370107D01*
X100249598Y-114370106D01*
X100249597Y-114370106D01*
X100151134Y-114341500D01*
X100092252Y-114324393D01*
X100055488Y-114321500D01*
X100055484Y-114321500D01*
X99584516Y-114321500D01*
X99584512Y-114321500D01*
X99547747Y-114324393D01*
X99390398Y-114370107D01*
X99353950Y-114391662D01*
X99289868Y-114409207D01*
X98685419Y-114409467D01*
X98617290Y-114389494D01*
X98570774Y-114335859D01*
X98559367Y-114282704D01*
X98575706Y-111598394D01*
X98592584Y-111536164D01*
X98664527Y-111411556D01*
X98723542Y-111229928D01*
X98743504Y-111040000D01*
X98723542Y-110850072D01*
X98664527Y-110668444D01*
X98599319Y-110555501D01*
X98582442Y-110491739D01*
X98589237Y-109375233D01*
X98609655Y-109307235D01*
X98663592Y-109261070D01*
X98715236Y-109250000D01*
X112733343Y-109250000D01*
X112801464Y-109270002D01*
G37*
%TD.AperFunction*%
%TD*%
%TA.AperFunction,Conductor*%
%TO.N,GND*%
G36*
X112808994Y-114936895D02*
G01*
X112855510Y-114990531D01*
X112866917Y-115043650D01*
X112866744Y-115073611D01*
X112865470Y-115085752D01*
X112865870Y-115085787D01*
X112865231Y-115093091D01*
X112866400Y-115133294D01*
X112833928Y-120756268D01*
X112813533Y-120824272D01*
X112797025Y-120844635D01*
X112625525Y-121016135D01*
X112563213Y-121050161D01*
X112536924Y-121053039D01*
X99342266Y-121104788D01*
X99309977Y-121099162D01*
X99309708Y-121100299D01*
X99302567Y-121098606D01*
X99302566Y-121098606D01*
X99129123Y-121057500D01*
X99129121Y-121057500D01*
X98640022Y-121057500D01*
X98571901Y-121037498D01*
X98525408Y-120983842D01*
X98514024Y-120930778D01*
X98547719Y-115048248D01*
X98568111Y-114980246D01*
X98622032Y-114934061D01*
X98673662Y-114922973D01*
X99485081Y-114922624D01*
X99520280Y-114927626D01*
X99547743Y-114935605D01*
X99547746Y-114935606D01*
X99584512Y-114938500D01*
X99584516Y-114938500D01*
X100055488Y-114938500D01*
X100076495Y-114936846D01*
X100092254Y-114935606D01*
X100120715Y-114927337D01*
X100155805Y-114922335D01*
X101067160Y-114921943D01*
X101091239Y-114925370D01*
X101091408Y-114924448D01*
X101097737Y-114925603D01*
X101097746Y-114925606D01*
X101118173Y-114927213D01*
X101134512Y-114928500D01*
X101134516Y-114928500D01*
X101605488Y-114928500D01*
X101623868Y-114927053D01*
X101642254Y-114925606D01*
X101642260Y-114925604D01*
X101648587Y-114924449D01*
X101648730Y-114925234D01*
X101673631Y-114921682D01*
X109860880Y-114918161D01*
X109896071Y-114923161D01*
X110007746Y-114955606D01*
X110029808Y-114957342D01*
X110044512Y-114958500D01*
X110044516Y-114958500D01*
X110515488Y-114958500D01*
X110536495Y-114956846D01*
X110552254Y-114955606D01*
X110665171Y-114922800D01*
X110700253Y-114917800D01*
X111317349Y-114917534D01*
X111381534Y-114935079D01*
X111440403Y-114969894D01*
X111597746Y-115015606D01*
X111605100Y-115016184D01*
X111634512Y-115018500D01*
X111634516Y-115018500D01*
X112105488Y-115018500D01*
X112129997Y-115016570D01*
X112142254Y-115015606D01*
X112299597Y-114969894D01*
X112359270Y-114934603D01*
X112423346Y-114917059D01*
X112740866Y-114916922D01*
X112808994Y-114936895D01*
G37*
%TD.AperFunction*%
%TD*%
%TA.AperFunction,Conductor*%
%TO.N,GND*%
G36*
X98617661Y-82371402D02*
G01*
X98664154Y-82425058D01*
X98675438Y-82472361D01*
X98692774Y-82905775D01*
X98730599Y-83851399D01*
X98730601Y-83851401D01*
X100766164Y-84677718D01*
X101682168Y-85049561D01*
X101737763Y-85093716D01*
X101760661Y-85160919D01*
X101760776Y-85166045D01*
X101779737Y-94263938D01*
X101759877Y-94332101D01*
X101706318Y-94378705D01*
X101653938Y-94390201D01*
X94756591Y-94401199D01*
X94688438Y-94381305D01*
X94641860Y-94327724D01*
X94630390Y-94275412D01*
X94610809Y-82477607D01*
X94630698Y-82409455D01*
X94684277Y-82362873D01*
X94736809Y-82351400D01*
X98549540Y-82351400D01*
X98617661Y-82371402D01*
G37*
%TD.AperFunction*%
%TD*%
%TA.AperFunction,Conductor*%
%TO.N,/Power/VIN*%
G36*
X86818470Y-67570769D02*
G01*
X86886565Y-67590850D01*
X86932995Y-67644560D01*
X86944321Y-67696616D01*
X86952438Y-74361830D01*
X86932519Y-74429975D01*
X86878920Y-74476533D01*
X86825135Y-74487976D01*
X84052593Y-74459294D01*
X83990890Y-80027227D01*
X83981689Y-80857634D01*
X83981381Y-80885396D01*
X83960626Y-80953291D01*
X83906458Y-80999187D01*
X83855389Y-81010000D01*
X80402329Y-81010000D01*
X80334208Y-80989998D01*
X80318009Y-80976114D01*
X80317419Y-80976781D01*
X80311716Y-80971728D01*
X80311715Y-80971727D01*
X80182930Y-80857633D01*
X80182929Y-80857632D01*
X80182926Y-80857630D01*
X80030587Y-80777677D01*
X80030579Y-80777673D01*
X79863531Y-80736500D01*
X79863528Y-80736500D01*
X79691472Y-80736500D01*
X79691468Y-80736500D01*
X79524420Y-80777673D01*
X79524412Y-80777677D01*
X79372073Y-80857630D01*
X79372068Y-80857634D01*
X79340732Y-80885396D01*
X79243285Y-80971727D01*
X79243283Y-80971728D01*
X79237581Y-80976781D01*
X79235682Y-80974638D01*
X79186855Y-81005274D01*
X79152671Y-81010000D01*
X78476039Y-81010000D01*
X78407918Y-80989998D01*
X78361425Y-80936342D01*
X78350039Y-80883961D01*
X78350085Y-80736500D01*
X78354128Y-67687019D01*
X78374151Y-67618908D01*
X78427821Y-67572432D01*
X78480271Y-67561062D01*
X86818470Y-67570769D01*
G37*
%TD.AperFunction*%
%TD*%
M02*
