M48
; DRILL file {KiCad 7.0.6-0} date 2023 August 11, Friday 12:34:26
; FORMAT={-:-/ absolute / inch / decimal}
; #@! TF.CreationDate,2023-08-11T12:34:26-04:00
; #@! TF.GenerationSoftware,Kicad,Pcbnew,7.0.6-0
; #@! TF.FileFunction,Plated,1,4,PTH
FMAT,2
INCH
; #@! TA.AperFunction,Plated,PTH,ComponentDrill
T1C0.0118
; #@! TA.AperFunction,Plated,PTH,ViaDrill
T2C0.0157
; #@! TA.AperFunction,Plated,PTH,ComponentDrill
T3C0.0157
; #@! TA.AperFunction,Plated,PTH,ComponentDrill
T4C0.0197
; #@! TA.AperFunction,Plated,PTH,ViaDrill
T5C0.0236
; #@! TA.AperFunction,Plated,PTH,ViaDrill
T6C0.0315
; #@! TA.AperFunction,Plated,PTH,ComponentDrill
T7C0.0394
; #@! TA.AperFunction,Plated,PTH,ComponentDrill
T8C0.0420
; #@! TA.AperFunction,Plated,PTH,ComponentDrill
T9C0.0551
; #@! TA.AperFunction,Plated,PTH,ComponentDrill
T10C0.0866
%
G90
G05
T1
X3.8288Y-2.7332
X3.8662Y-2.7105
X3.8662Y-2.7558
X3.9036Y-2.7332
X4.5602Y-3.9088
X4.5602Y-3.9482
X4.5996Y-3.9088
X4.5996Y-3.9482
T2
X3.0744Y-3.2307
X3.1657Y-5.4961
X3.1756Y-3.4551
X3.1762Y-5.1173
X3.263Y-5.2106
X3.2673Y-3.35
X3.2678Y-5.0834
X3.2953Y-3.4547
X3.3075Y-4.8717
X3.3347Y-4.8974
X3.3358Y-3.3752
X3.3512Y-3.4177
X3.376Y-5.1654
X3.424Y-3.2587
X3.4546Y-5.1659
X3.4553Y-5.0922
X3.5004Y-5.4547
X3.5252Y-4.9594
X3.5327Y-2.965
X3.5574Y-2.4572
X3.5575Y-3.9862
X3.5587Y-3.7886
X3.6Y-3.7417
X3.6024Y-3.7909
X3.6579Y-4.0547
X3.6956Y-5.3609
X3.6988Y-2.2646
X3.7047Y-4.4171
X3.7047Y-3.8264
X3.7059Y-2.3095
X3.7134Y-2.3547
X3.7358Y-2.4594
X3.7445Y-5.0945
X3.7447Y-4.3909
X3.7547Y-2.8025
X3.7559Y-2.7335
X3.7779Y-2.9242
X3.7846Y-4.3669
X3.7866Y-4.5653
X3.7875Y-4.6652
X3.7937Y-4.7508
X3.8126Y-3.8638
X3.8315Y-3.3398
X3.8315Y-3.398
X3.8315Y-3.4598
X3.8315Y-3.5295
X3.8315Y-3.6031
X3.8315Y-3.6811
X3.8323Y-4.665
X3.8386Y-2.1343
X3.8386Y-4.5929
X3.8394Y-2.1732
X3.8402Y-2.2138
X3.8445Y-4.8957
X3.8516Y-4.3717
X3.8709Y-4.8543
X3.876Y-5.1654
X3.8843Y-5.4297
X3.8851Y-5.3746
X3.8917Y-4.2472
X3.8921Y-3.3398
X3.8921Y-3.398
X3.8921Y-3.4598
X3.8921Y-3.5295
X3.8921Y-3.6031
X3.8921Y-3.6811
X3.9441Y-4.1748
X3.9555Y-2.6287
X3.9598Y-3.367
X3.9598Y-3.4358
X3.9705Y-2.8792
X4.0044Y-3.2603
X4.026Y-4.8634
X4.0382Y-2.2539
X4.0433Y-2.963
X4.0551Y-2.4739
X4.0551Y-4.1039
X4.0591Y-4.4843
X4.0594Y-4.5508
X4.0594Y-4.6043
X4.0594Y-4.6579
X4.0594Y-4.7114
X4.076Y-5.0193
X4.0994Y-4.4531
X4.1114Y-5.1276
X4.1193Y-4.5508
X4.1193Y-4.6043
X4.1193Y-4.6579
X4.1193Y-4.7114
X4.1398Y-4.4839
X4.1469Y-5.2094
X4.1802Y-4.4531
X4.1909Y-4.5496
X4.1909Y-4.6031
X4.1909Y-4.6567
X4.1909Y-4.7102
X4.2206Y-4.485
X4.2567Y-4.5504
X4.2567Y-4.6039
X4.2567Y-4.6575
X4.2567Y-4.711
X4.261Y-4.4547
X4.2629Y-2.8126
X4.2642Y-2.2122
X4.2646Y-2.172
X4.265Y-4.1051
X4.2654Y-2.1331
X4.3449Y-3.2672
X4.3503Y-2.9104
X4.3518Y-2.8687
X4.3743Y-3.2235
X4.3795Y-4.8976
X4.3799Y-4.1736
X4.385Y-4.8524
X4.4102Y-3.8915
X4.4122Y-3.9312
X4.4146Y-5.0154
X4.4296Y-2.4114
X4.4303Y-4.2441
X4.4354Y-3.9627
X4.4437Y-3.8647
X4.448Y-5.1677
X4.465Y-3.7812
X4.4701Y-4.3717
X4.4817Y-3.3014
X4.4972Y-2.1717
X4.5154Y-4.6941
X4.5165Y-4.789
X4.5197Y-4.6409
X4.5299Y-3.7856
X4.5303Y-4.3764
X4.5438Y-3.3289
X4.5456Y-2.4572
X4.5479Y-2.676
X4.5491Y-2.995
X4.557Y-2.616
X4.5606Y-3.1474
X4.5687Y-2.7609
X4.5744Y-4.5909
X4.5772Y-3.8312
X4.5777Y-4.0131
X4.5906Y-3.7879
X4.6028Y-5.0783
X4.6101Y-2.7613
X4.6222Y-2.9129
X4.6345Y-2.9976
X4.635Y-4.85
X4.6433Y-4.032
X4.6483Y-2.7617
X4.6606Y-4.3
X4.7Y-3.6
X4.715Y-5.0303
X4.7157Y-4.3949
X4.7161Y-4.4906
X4.7287Y-4.6181
X4.751Y-2.1546
X4.7537Y-2.7039
X4.772Y-2.9349
X4.7735Y-3.1535
X4.781Y-2.7574
X4.7976Y-4.6661
X4.7979Y-4.7539
X4.7984Y-4.7087
X4.8Y-3.4
X4.8Y-4.1
X4.8076Y-2.6997
X4.8826Y-3.1528
X4.894Y-4.2534
X4.8995Y-2.4233
X4.9Y-3.5
X4.9Y-3.9
X4.9146Y-2.1693
X5.0Y-4.5
X5.0417Y-2.4232
X5.0441Y-2.187
X5.1028Y-2.1846
X5.1693Y-2.4606
X5.1868Y-3.0255
X5.2Y-3.6
X5.2Y-4.4
X5.2Y-4.7394
X5.223Y-2.7071
T3
X3.0841Y-1.9922
X3.0854Y-5.6843
X3.1032Y-1.9463
X3.1032Y-2.0382
X3.1045Y-5.6383
X3.1045Y-5.7302
X3.1491Y-1.9273
X3.1491Y-2.0572
X3.1504Y-5.6193
X3.1504Y-5.7492
X3.195Y-1.9463
X3.195Y-2.0382
X3.1963Y-5.6383
X3.1963Y-5.7302
X3.2141Y-1.9922
X3.2154Y-5.6843
X5.08Y-1.9923
X5.0917Y-5.6878
X5.0991Y-1.9463
X5.0991Y-2.0382
X5.1108Y-5.6419
X5.1108Y-5.7337
X5.145Y-1.9273
X5.145Y-2.0572
X5.1567Y-5.6228
X5.1567Y-5.7528
X5.1909Y-1.9463
X5.1909Y-2.0382
X5.2026Y-5.6419
X5.2026Y-5.7337
X5.21Y-1.9923
X5.2217Y-5.6878
T5
X3.9671Y-5.7437
X4.9889Y-2.8745
X4.9889Y-2.928
X4.9889Y-2.9859
X5.0Y-3.9
X5.0Y-3.9787
X5.0Y-4.0811
X5.0Y-4.1559
X5.0909Y-3.3063
X5.2146Y-3.3185
T6
X4.1685Y-3.4843
X4.1685Y-3.5646
X4.1693Y-3.6476
X4.1705Y-3.7272
X4.2461Y-3.485
X4.2469Y-3.5646
X4.2484Y-3.6484
X4.2484Y-3.726
X4.3041Y-2.4945
T7
X3.1539Y-2.1704
X3.1539Y-2.2704
X3.2677Y-3.0134
X3.3409Y-1.9704
X3.3409Y-2.0704
X3.3409Y-2.1704
X3.3409Y-2.2704
X3.3677Y-3.0134
X4.001Y-1.9606
X4.101Y-1.9606
X4.201Y-1.9606
X4.301Y-1.9606
X4.3051Y-5.6528
X4.401Y-1.9606
X4.4051Y-5.6528
X4.501Y-1.9606
X4.5051Y-5.6528
X4.601Y-1.9606
X4.6051Y-5.6528
X4.701Y-1.9606
X4.7051Y-5.6528
T8
X3.5284Y-5.6544
X3.6284Y-5.6544
X3.7284Y-5.6544
X3.8284Y-5.6544
T9
X3.1539Y-2.4957
X3.1539Y-2.7878
X3.3539Y-2.4957
X3.3539Y-2.7878
T10
X3.1491Y-1.9922
X3.1504Y-5.6843
X5.145Y-1.9923
X5.1567Y-5.6878
T4
G00X5.2003Y-3.9
M15
G01X5.1727Y-3.9
M16
G05
G00X5.2003Y-4.1598
M15
G01X5.1727Y-4.1598
M16
G05
T0
M30
